<svg width="20" height="20" viewBox="0 0 20 20" fill="none" xmlns="http://www.w3.org/2000/svg">
<path d="M8.93255 12.0575L16.4325 4.55748C16.4906 4.49941 16.5596 4.45335 16.6354 4.42192C16.7113 4.3905 16.7926 4.37432 16.8747 4.37432C16.9569 4.37432 17.0382 4.3905 17.114 4.42192C17.1899 4.45335 17.2589 4.49941 17.3169 4.55748C17.375 4.61555 17.4211 4.68449 17.4525 4.76036C17.4839 4.83623 17.5001 4.91755 17.5001 4.99967C17.5001 5.08179 17.4839 5.16311 17.4525 5.23898C17.4211 5.31485 17.375 5.38379 17.3169 5.44186L9.81693 12.9419C9.75886 12.9999 9.68992 13.046 9.61405 13.0774C9.53818 13.1088 9.45686 13.125 9.37474 13.125C9.29262 13.125 9.2113 13.1088 9.13543 13.0774C9.05956 13.046 8.99062 12.9999 8.93255 12.9419C8.87448 12.8838 8.82842 12.8149 8.79699 12.739C8.76557 12.6631 8.74939 12.5818 8.74939 12.4997C8.74939 12.4175 8.76557 12.3362 8.79699 12.2604C8.82842 12.1845 8.87448 12.1156 8.93255 12.0575ZM9.99974 6.87467C10.5426 6.87398 11.082 6.96185 11.5966 7.13483C11.6747 7.16253 11.7576 7.17441 11.8404 7.16978C11.9231 7.16515 12.0042 7.1441 12.0787 7.10785C12.1533 7.07161 12.2199 7.0209 12.2746 6.95867C12.3294 6.89644 12.3712 6.82394 12.3977 6.74539C12.4242 6.66683 12.4348 6.5838 12.4289 6.50111C12.4229 6.41843 12.4006 6.33774 12.3632 6.26377C12.3258 6.18979 12.2741 6.12399 12.211 6.0702C12.1479 6.01641 12.0748 5.9757 11.9958 5.95045C10.9998 5.61467 9.93524 5.53551 8.90053 5.72027C7.86583 5.90504 6.89443 6.34777 6.0762 7.00751C5.25797 7.66725 4.61933 8.52269 4.21938 9.49469C3.81942 10.4667 3.67106 11.5239 3.78802 12.5684C3.80493 12.7212 3.87753 12.8624 3.99197 12.965C4.1064 13.0676 4.25463 13.1244 4.40833 13.1247C4.43099 13.1247 4.45443 13.1247 4.47786 13.1208C4.64258 13.1025 4.79329 13.0196 4.89687 12.8902C5.00045 12.7608 5.04841 12.5956 5.03021 12.4309C5.00987 12.2462 4.9997 12.0605 4.99974 11.8747C5.00119 10.549 5.52844 9.2781 6.4658 8.34073C7.40317 7.40337 8.6741 6.87612 9.99974 6.87467ZM17.7919 7.89029C17.7545 7.81725 17.703 7.75229 17.6405 7.69913C17.5779 7.64598 17.5055 7.60566 17.4274 7.58049C17.3492 7.55531 17.2669 7.54578 17.1851 7.55242C17.1033 7.55906 17.0236 7.58175 16.9505 7.6192C16.8775 7.65665 16.8125 7.70812 16.7594 7.77067C16.7062 7.83322 16.6659 7.90563 16.6407 7.98376C16.6155 8.06189 16.606 8.14422 16.6126 8.22603C16.6193 8.30785 16.642 8.38756 16.6794 8.46061C17.1418 9.36864 17.4149 10.3612 17.482 11.3779C17.5492 12.3947 17.409 13.4145 17.0701 14.3755L2.92161 14.37C2.52687 13.2384 2.40832 12.0289 2.57586 10.8423C2.7434 9.65563 3.19216 8.52622 3.88474 7.54819C4.57733 6.57017 5.49367 5.77186 6.55737 5.21983C7.62107 4.66779 8.80132 4.37802 9.99974 4.37467H10.0685C11.2325 4.38199 12.3785 4.66299 13.4138 5.19498C13.487 5.23529 13.5676 5.2605 13.6508 5.26911C13.734 5.27772 13.818 5.26955 13.898 5.2451C13.9779 5.22064 14.0521 5.18039 14.1163 5.12673C14.1804 5.07308 14.2331 5.0071 14.2712 4.93271C14.3094 4.85832 14.3323 4.77703 14.3384 4.69365C14.3446 4.61027 14.334 4.5265 14.3072 4.44729C14.2805 4.36808 14.2381 4.29506 14.1826 4.23253C14.1271 4.17 14.0596 4.11924 13.9841 4.08326C12.4255 3.28492 10.6632 2.97263 8.92513 3.18677C7.18708 3.40091 5.55327 4.13164 4.23505 5.28444C2.91682 6.43724 1.97483 7.95906 1.53091 9.65305C1.087 11.347 1.1616 13.1353 1.74505 14.7864C1.83124 15.031 1.99108 15.243 2.2026 15.3931C2.41411 15.5432 2.66693 15.6241 2.9263 15.6247H17.0724C17.3316 15.6248 17.5845 15.5444 17.796 15.3945C18.0075 15.2446 18.1672 15.0326 18.2529 14.788C18.6471 13.6668 18.8095 12.4772 18.7302 11.2914C18.651 10.1056 18.3318 8.94827 17.7919 7.88951V7.89029Z" fill="#603AC8" stroke="#603AC8" stroke-width="0.5"/>
</svg>
