<svg width="16" height="11" viewBox="0 0 16 11" fill="none" xmlns="http://www.w3.org/2000/svg">
<path d="M14.9998 9.5V5.5C14.9998 5.36739 14.9471 5.24021 14.8533 5.14645C14.7596 5.05268 14.6324 5 14.4998 5C14.3672 5 14.24 5.05268 14.1462 5.14645C14.0525 5.24021 13.9998 5.36739 13.9998 5.5V8.29313L8.85354 3.14625C8.8071 3.09976 8.75196 3.06288 8.69126 3.03772C8.63056 3.01256 8.5655 2.99961 8.49979 2.99961C8.43408 2.99961 8.36902 3.01256 8.30832 3.03772C8.24762 3.06288 8.19248 3.09976 8.14604 3.14625L5.99979 5.29313L1.85354 1.14625C1.75972 1.05243 1.63247 0.999722 1.49979 0.999722C1.36711 0.999722 1.23986 1.05243 1.14604 1.14625C1.05222 1.24007 0.999512 1.36732 0.999512 1.5C0.999512 1.63268 1.05222 1.75993 1.14604 1.85375L5.64604 6.35375C5.69248 6.40024 5.74762 6.43712 5.80832 6.46228C5.86902 6.48744 5.93408 6.50039 5.99979 6.50039C6.0655 6.50039 6.13056 6.48744 6.19126 6.46228C6.25196 6.43712 6.3071 6.40024 6.35354 6.35375L8.49979 4.20687L13.2929 9H10.4998C10.3672 9 10.24 9.05268 10.1462 9.14645C10.0525 9.24021 9.99979 9.36739 9.99979 9.5C9.99979 9.63261 10.0525 9.75979 10.1462 9.85355C10.24 9.94732 10.3672 10 10.4998 10H14.4998C14.6324 10 14.7596 9.94732 14.8533 9.85355C14.9471 9.75979 14.9998 9.63261 14.9998 9.5Z" fill="#B00404" stroke="#B00404" stroke-width="0.6"/>
</svg>
