<svg width="25" height="25" viewBox="0 0 25 25" fill="none" xmlns="http://www.w3.org/2000/svg">
<path d="M12.9824 2.33594C11.0541 2.33594 9.169 2.90777 7.56562 3.97911C5.96224 5.05045 4.71256 6.57319 3.9746 8.35477C3.23665 10.1364 3.04356 12.0968 3.41977 13.9881C3.79598 15.8794 4.72457 17.6167 6.08814 18.9802C7.4517 20.3438 9.18898 21.2724 11.0803 21.6486C12.9716 22.0248 14.932 21.8317 16.7136 21.0938C18.4952 20.3558 20.0179 19.1061 21.0893 17.5027C22.1606 15.8994 22.7324 14.0143 22.7324 12.0859C22.7297 9.50091 21.7016 7.02255 19.8737 5.19466C18.0458 3.36677 15.5674 2.33867 12.9824 2.33594ZM18.2324 12.8359H12.9824C12.7835 12.8359 12.5927 12.7569 12.4521 12.6163C12.3114 12.4756 12.2324 12.2849 12.2324 12.0859V6.83594C12.2324 6.63703 12.3114 6.44626 12.4521 6.30561C12.5927 6.16496 12.7835 6.08594 12.9824 6.08594C13.1813 6.08594 13.3721 6.16496 13.5128 6.30561C13.6534 6.44626 13.7324 6.63703 13.7324 6.83594V11.3359H18.2324C18.4313 11.3359 18.6221 11.415 18.7628 11.5556C18.9034 11.6963 18.9824 11.887 18.9824 12.0859C18.9824 12.2849 18.9034 12.4756 18.7628 12.6163C18.6221 12.7569 18.4313 12.8359 18.2324 12.8359Z" fill="white"/>
</svg>
