<svg width="25" height="25" viewBox="0 0 25 25" fill="none" xmlns="http://www.w3.org/2000/svg">
<path d="M12.9824 1.58594C10.7951 1.58842 8.69817 2.45841 7.15153 4.00505C5.60489 5.55168 4.7349 7.64866 4.73242 9.83594C4.73242 16.8953 12.2324 22.2269 12.5521 22.45C12.6782 22.5383 12.8285 22.5857 12.9824 22.5857C13.1364 22.5857 13.2866 22.5383 13.4127 22.45C13.7324 22.2269 21.2324 16.8953 21.2324 9.83594C21.2299 7.64866 20.36 5.55168 18.8133 4.00505C17.2667 2.45841 15.1697 1.58842 12.9824 1.58594ZM12.9824 6.83594C13.5758 6.83594 14.1558 7.01188 14.6491 7.34153C15.1425 7.67117 15.527 8.13971 15.7541 8.68789C15.9811 9.23607 16.0405 9.83927 15.9248 10.4212C15.809 11.0032 15.5233 11.5377 15.1037 11.9573C14.6842 12.3768 14.1496 12.6625 13.5677 12.7783C12.9858 12.894 12.3825 12.8346 11.8344 12.6076C11.2862 12.3805 10.8177 11.996 10.488 11.5026C10.1584 11.0093 9.98242 10.4293 9.98242 9.83594C9.98242 9.04029 10.2985 8.27723 10.8611 7.71462C11.4237 7.15201 12.1868 6.83594 12.9824 6.83594Z" fill="white"/>
</svg>
