<svg width="25" height="25" viewBox="0 0 25 25" fill="none" xmlns="http://www.w3.org/2000/svg">
<path d="M22.7212 16.4995C22.554 17.7698 21.9301 18.9359 20.9661 19.7799C20.002 20.6239 18.7637 21.088 17.4824 21.0857C10.0387 21.0857 3.98243 15.0295 3.98243 7.58575C3.98013 6.30446 4.44432 5.06614 5.28831 4.10209C6.13229 3.13803 7.29834 2.51416 8.56868 2.347C8.88992 2.30777 9.21523 2.37349 9.49604 2.53435C9.77686 2.6952 9.99812 2.94256 10.1268 3.2395L12.1068 7.65981V7.67106C12.2053 7.89836 12.246 8.14652 12.2252 8.39338C12.2045 8.64024 12.1229 8.87811 11.9877 9.08575C11.9709 9.11106 11.9531 9.1345 11.9343 9.15794L9.98243 11.4717C10.6846 12.8986 12.1771 14.3779 13.6227 15.082L15.9046 13.1404C15.927 13.1216 15.9505 13.1041 15.9749 13.0879C16.1824 12.9496 16.4211 12.8651 16.6694 12.8422C16.9177 12.8193 17.1678 12.8586 17.3971 12.9567L17.4093 12.9623L21.8259 14.9414C22.1233 15.0696 22.3713 15.2907 22.5327 15.5715C22.6941 15.8524 22.7602 16.1779 22.7212 16.4995Z" fill="white"/>
</svg>
