<svg width="24" height="24" viewBox="0 0 24 24" fill="none" xmlns="http://www.w3.org/2000/svg">
<path d="M20.031 14.469L12.531 6.96896C12.4614 6.89923 12.3787 6.84391 12.2876 6.80616C12.1966 6.76842 12.099 6.74899 12.0004 6.74899C11.9019 6.74899 11.8043 6.76842 11.7132 6.80616C11.6222 6.84391 11.5394 6.89923 11.4698 6.96896L3.96979 14.469C3.82906 14.6097 3.75 14.8006 3.75 14.9996C3.75 15.1986 3.82906 15.3895 3.96979 15.5302C4.11052 15.6709 4.30139 15.75 4.50042 15.75C4.69944 15.75 4.89031 15.6709 5.03104 15.5302L12.0004 8.5599L18.9698 15.5302C19.0395 15.5999 19.1222 15.6552 19.2132 15.6929C19.3043 15.7306 19.4019 15.75 19.5004 15.75C19.599 15.75 19.6965 15.7306 19.7876 15.6929C19.8786 15.6552 19.9614 15.5999 20.031 15.5302C20.1007 15.4605 20.156 15.3778 20.1937 15.2868C20.2314 15.1957 20.2508 15.0981 20.2508 14.9996C20.2508 14.901 20.2314 14.8035 20.1937 14.7124C20.156 14.6214 20.1007 14.5386 20.031 14.469Z" fill="#31225C"/>
</svg>
