<svg width="18" height="10" viewBox="0 0 18 10" fill="none" xmlns="http://www.w3.org/2000/svg">
<path d="M0.968956 1.53104L8.46896 9.03104C8.53861 9.10077 8.62133 9.15609 8.71238 9.19384C8.80343 9.23158 8.90102 9.25101 8.99958 9.25101C9.09814 9.25101 9.19574 9.23158 9.28679 9.19384C9.37784 9.15609 9.46055 9.10077 9.53021 9.03104L17.0302 1.53104C17.1709 1.39031 17.25 1.19944 17.25 1.00042C17.25 0.801394 17.1709 0.610522 17.0302 0.469792C16.8895 0.329061 16.6986 0.25 16.4996 0.25C16.3006 0.25 16.1097 0.329061 15.969 0.469792L8.99958 7.4401L2.03021 0.46979C1.96052 0.400108 1.8778 0.344832 1.78675 0.30712C1.69571 0.269408 1.59813 0.249999 1.49958 0.249999C1.40104 0.249999 1.30345 0.269408 1.21241 0.30712C1.12136 0.344832 1.03864 0.400108 0.968956 0.46979C0.899275 0.539473 0.844 0.622198 0.806288 0.713243C0.768576 0.804288 0.749165 0.901869 0.749165 1.00042C0.749165 1.09896 0.768576 1.19654 0.806288 1.28759C0.844 1.37863 0.899275 1.46136 0.968956 1.53104Z" fill="#31225C"/>
</svg>
