<svg width="51" height="51" viewBox="0 0 51 51" fill="none" xmlns="http://www.w3.org/2000/svg">
<path opacity="0.2" d="M11.732 30.8572L20.143 39.2682L10.0566 42.9338C9.77846 43.0361 9.47691 43.0566 9.18754 42.993C8.89816 42.9293 8.63305 42.7841 8.42354 42.5746C8.21403 42.3651 8.06887 42.1 8.00522 41.8106C7.94158 41.5213 7.9621 41.2197 8.06436 40.9416L11.732 30.8572ZM39.3875 29.9169L21.0833 11.6126C20.8987 11.4281 20.6706 11.2931 20.4199 11.2201C20.1693 11.1471 19.9043 11.1385 19.6495 11.1951C19.3947 11.2517 19.1583 11.3717 18.9621 11.5439C18.766 11.7161 18.6164 11.9351 18.5273 12.1804L15.559 20.3484L30.6637 35.4531L38.8317 32.4848C39.0784 32.3952 39.2984 32.2445 39.471 32.0468C39.6437 31.8491 39.7634 31.6109 39.8189 31.3543C39.8744 31.0978 39.864 30.8314 39.7885 30.58C39.7131 30.3286 39.5751 30.1004 39.3875 29.9169Z" fill="#2FAF47"/>
<path d="M22.2109 10.4849C21.8366 10.1115 21.3743 9.8385 20.8666 9.69095C20.3589 9.5434 19.8223 9.5261 19.3061 9.64064C18.79 9.75518 18.3111 9.99787 17.9135 10.3463C17.5159 10.6948 17.2125 11.1377 17.0312 11.6344L6.57422 40.3976C6.40243 40.8719 6.34694 41.3805 6.41241 41.8807C6.47787 42.3809 6.66238 42.8581 6.95044 43.2722C7.2385 43.6864 7.62171 44.0254 8.0679 44.2608C8.51409 44.4961 9.01023 44.6211 9.51468 44.625C9.8861 44.6225 10.2542 44.5551 10.6024 44.4258L39.3636 33.9668C39.8604 33.7858 40.3036 33.4825 40.6523 33.085C41.0009 32.6875 41.2438 32.2086 41.3586 31.6925C41.4733 31.1763 41.4562 30.6396 41.3088 30.1318C41.1614 29.624 40.8884 29.1616 40.5151 28.7871L22.2109 10.4849ZM20.5514 37.4212L13.5787 30.4486L16.2005 23.2349L27.7651 34.7995L20.5514 37.4212ZM9.59437 41.4056L12.3834 33.7536L17.2543 38.6245L9.59437 41.4056ZM31.0781 33.5962L17.4037 19.9219L19.9936 12.7759L38.2082 30.9905L31.0781 33.5962ZM31.875 14.3438C31.9049 13.2663 32.1658 12.2079 32.64 11.2399C33.6959 9.1302 35.688 7.96875 38.25 7.96875C39.5848 7.96875 40.4414 7.51254 40.9693 6.53238C41.2473 5.98403 41.4068 5.38332 41.4375 4.7693C41.4391 4.34661 41.6085 3.94186 41.9085 3.6441C42.2085 3.34633 42.6145 3.17994 43.0372 3.18152C43.4599 3.18311 43.8647 3.35254 44.1624 3.65255C44.4602 3.95255 44.6266 4.35856 44.625 4.78125C44.625 7.3432 42.9277 11.1562 38.25 11.1562C36.9152 11.1562 36.0586 11.6125 35.5307 12.5926C35.2527 13.141 35.0932 13.7417 35.0625 14.3557C35.0617 14.565 35.0197 14.7721 34.9389 14.9652C34.8581 15.1582 34.74 15.3335 34.5915 15.4809C34.4429 15.6283 34.2668 15.7451 34.0731 15.8244C33.8795 15.9038 33.6721 15.9443 33.4628 15.9435C33.2535 15.9427 33.0464 15.9007 32.8533 15.8199C32.6603 15.7391 32.485 15.621 32.3376 15.4725C32.1901 15.3239 32.0734 15.1478 31.994 14.9541C31.9147 14.7604 31.8742 14.553 31.875 14.3438ZM27.0937 7.96875V3.1875C27.0937 2.76481 27.2617 2.35943 27.5605 2.06055C27.8594 1.76166 28.2648 1.59375 28.6875 1.59375C29.1102 1.59375 29.5156 1.76166 29.8144 2.06055C30.1133 2.35943 30.2812 2.76481 30.2812 3.1875V7.96875C30.2812 8.39144 30.1133 8.79681 29.8144 9.0957C29.5156 9.39459 29.1102 9.5625 28.6875 9.5625C28.2648 9.5625 27.8594 9.39459 27.5605 9.0957C27.2617 8.79681 27.0937 8.39144 27.0937 7.96875ZM47.3463 24.3724C47.4943 24.5205 47.6116 24.6963 47.6916 24.8897C47.7716 25.0831 47.8128 25.2904 47.8127 25.4997C47.8126 25.709 47.7713 25.9163 47.6911 26.1096C47.6109 26.303 47.4934 26.4786 47.3453 26.6266C47.1973 26.7745 47.0215 26.8919 46.8281 26.9719C46.6346 27.0519 46.4274 27.093 46.218 27.0929C46.0087 27.0928 45.8015 27.0515 45.6081 26.9713C45.4148 26.8911 45.2391 26.7737 45.0912 26.6256L41.9037 23.4381C41.6046 23.139 41.4366 22.7334 41.4366 22.3105C41.4366 21.8876 41.6046 21.482 41.9037 21.1829C42.2027 20.8839 42.6083 20.7159 43.0312 20.7159C43.4542 20.7159 43.8598 20.8839 44.1588 21.1829L47.3463 24.3724ZM48.3165 15.8558L43.5353 17.4496C43.1342 17.5832 42.6965 17.5521 42.3184 17.3631C41.9404 17.174 41.6529 16.8425 41.5192 16.4415C41.3855 16.0405 41.4166 15.6028 41.6057 15.2247C41.7947 14.8466 42.1262 14.5591 42.5272 14.4254L47.3085 12.8317C47.7095 12.698 48.1472 12.7291 48.5253 12.9182C48.9034 13.1072 49.1909 13.4387 49.3246 13.8397C49.4582 14.2408 49.4271 14.6785 49.2381 15.0565C49.049 15.4346 48.7175 15.7221 48.3165 15.8558Z" fill="#2FAF47"/>
</svg>
