<svg width="22" height="19" viewBox="0 0 22 19" fill="none" xmlns="http://www.w3.org/2000/svg">
<path d="M19.9066 2.34377C18.8877 1.32738 17.5077 0.755816 16.0685 0.754059C14.6294 0.752302 13.248 1.3205 12.2266 2.33439L11.0004 3.47345L9.77317 2.33064C8.752 1.31233 7.36814 0.741392 5.92602 0.743414C4.48389 0.745435 3.10163 1.32026 2.08333 2.34142C1.06502 3.36259 0.494077 4.74645 0.496099 6.18858C0.498121 7.6307 1.07294 9.01296 2.09411 10.0313L10.4707 18.5306C10.5405 18.6015 10.6236 18.6578 10.7154 18.6962C10.8071 18.7346 10.9056 18.7544 11.005 18.7544C11.1045 18.7544 11.203 18.7346 11.2947 18.6962C11.3864 18.6578 11.4696 18.6015 11.5394 18.5306L19.9066 10.0313C20.9256 9.01163 21.4981 7.62907 21.4981 6.18752C21.4981 4.74596 20.9256 3.3634 19.9066 2.34377ZM18.8425 8.97752L11.0004 16.9313L3.15348 8.97002C2.41502 8.23155 2.00016 7.22999 2.00016 6.18564C2.00016 5.1413 2.41502 4.13973 3.15348 3.40127C3.89195 2.6628 4.89352 2.24794 5.93786 2.24794C6.9822 2.24794 7.98377 2.6628 8.72223 3.40127L8.74098 3.42002L10.4894 5.04658C10.6282 5.17574 10.8108 5.24754 11.0004 5.24754C11.1899 5.24754 11.3725 5.17574 11.5113 5.04658L13.2597 3.42002L13.2785 3.40127C14.0174 2.6633 15.0193 2.24911 16.0636 2.24982C17.108 2.25052 18.1093 2.66606 18.8472 3.40502C19.5852 4.14398 19.9994 5.14582 19.9987 6.19017C19.998 7.23451 19.5824 8.2358 18.8435 8.97377L18.8425 8.97752Z" fill="#603AC8"/>
</svg>
