<svg width="164" height="30" viewBox="0 0 164 30" fill="none" xmlns="http://www.w3.org/2000/svg">
<g clip-path="url(#clip0_6_13594)">
<path d="M36.9237 21.9969L34.0403 19.0894V9.11079L35.9249 8.42752C36.3555 8.27093 36.6449 7.85812 36.6449 7.39193C36.6449 6.9293 36.3591 6.51293 35.9249 6.35634L18.6913 0.0645287C18.4513 -0.0244393 18.1866 -0.0244393 17.9501 0.0645287L0.719981 6.35634C0.289404 6.51649 0 6.92574 0 7.38837C0 7.85101 0.282346 8.26382 0.712923 8.42396L7.07276 10.7976V18.0467C7.07276 18.2709 7.13981 18.4916 7.2704 18.6766C7.34098 18.7798 8.0045 19.6944 9.70916 20.5592C11.8585 21.6517 14.6784 22.2033 18.0913 22.2033C21.5041 22.2033 24.3347 21.6517 26.5158 20.5627C28.2346 19.7051 28.9228 18.7976 28.9934 18.698C29.131 18.5094 29.2016 18.2816 29.2016 18.0503V10.8724L31.8556 9.90794V19.093L28.9722 22.0005C28.7675 22.2069 28.651 22.488 28.651 22.7798C28.651 23.0716 28.7675 23.3528 28.9722 23.5592L31.8556 26.4667V28.9079C31.8556 29.5165 32.3427 30.0076 32.9462 30.0076C33.5497 30.0076 34.0368 29.5165 34.0368 28.9079V26.4667L36.9202 23.5592C37.3473 23.1286 37.3473 22.4346 36.9202 22.004L36.9237 21.9969ZM18.3207 2.27093L32.3392 7.39193L18.0913 12.5734L4.26342 7.40261L18.3207 2.27093ZM27.0169 17.6126C23.2865 20.9969 12.2044 20.609 9.25035 17.6232V11.6161L17.7066 14.7727C17.8407 14.7941 17.9678 14.9115 18.4548 14.7727L27.0169 11.6588V17.6055V17.6126ZM32.9462 24.4524L31.2839 22.7763L32.9462 21.1001L34.6085 22.7763L32.9462 24.4524Z" fill="#31225C"/>
</g>
<path d="M158.716 21.2778C157.276 21.2778 156.085 20.9634 155.141 20.3344C154.214 19.7054 153.56 18.8861 153.18 17.8765L155.588 16.8337C155.886 17.5123 156.308 18.0337 156.854 18.3978C157.4 18.7454 158.021 18.9192 158.716 18.9192C159.428 18.9192 160.024 18.7951 160.504 18.5468C160.984 18.282 161.224 17.893 161.224 17.3799C161.224 16.9165 161.017 16.5523 160.603 16.2875C160.206 16.0061 159.577 15.7661 158.716 15.5675L157.202 15.2199C156.192 14.9716 155.356 14.533 154.694 13.904C154.032 13.2751 153.701 12.4806 153.701 11.5206C153.701 10.7923 153.916 10.1468 154.347 9.58405C154.793 9.02129 155.381 8.59094 156.109 8.29301C156.854 7.97853 157.665 7.82129 158.542 7.82129C159.734 7.82129 160.769 8.05301 161.646 8.51646C162.54 8.97991 163.185 9.65853 163.582 10.5523L161.273 11.5951C160.76 10.5854 159.858 10.0806 158.567 10.0806C157.938 10.0806 157.409 10.213 156.978 10.4778C156.565 10.7427 156.358 11.0737 156.358 11.4709C156.358 12.2158 157.003 12.7537 158.294 13.0847L160.131 13.5316C161.373 13.8461 162.308 14.3178 162.937 14.9468C163.582 15.5758 163.905 16.3537 163.905 17.2806C163.905 18.0751 163.673 18.7785 163.21 19.3909C162.763 19.9868 162.142 20.4503 161.348 20.7813C160.553 21.1123 159.676 21.2778 158.716 21.2778Z" fill="#31225C"/>
<path d="M139.746 3.10352H142.427V7.96972L142.279 9.95593H142.427C142.792 9.32696 143.33 8.81386 144.041 8.41662C144.77 8.01938 145.564 7.82076 146.425 7.82076C147.964 7.82076 149.139 8.28421 149.95 9.2111C150.761 10.1214 151.167 11.3463 151.167 12.8856V20.8801H148.51V13.2332C148.51 12.2566 148.245 11.5201 147.716 11.0235C147.203 10.527 146.541 10.2787 145.73 10.2787C145.117 10.2787 144.554 10.4608 144.041 10.8249C143.545 11.1725 143.147 11.6442 142.85 12.2401C142.568 12.8359 142.427 13.4649 142.427 14.127V20.8801H139.746V3.10352Z" fill="#31225C"/>
<path d="M135.093 21.0789C134.53 21.0789 134.001 20.9962 133.504 20.8307C133.024 20.6486 132.627 20.4003 132.312 20.0858C131.601 19.4072 131.245 18.4472 131.245 17.2058V10.552H129.035V8.21824H131.245V4.64307H133.926V8.21824H137.03V10.552H133.926V16.6348C133.926 17.33 134.059 17.8182 134.323 18.0996C134.605 18.4141 135.035 18.5713 135.614 18.5713C135.912 18.5713 136.169 18.5382 136.384 18.472C136.599 18.3893 136.839 18.2651 137.104 18.0996V20.7065C136.541 20.9548 135.871 21.0789 135.093 21.0789Z" fill="#31225C"/>
<path d="M120.564 21.2778C119.653 21.2778 118.842 21.104 118.13 20.7565C117.419 20.3923 116.864 19.8875 116.467 19.242C116.07 18.5965 115.871 17.8599 115.871 17.0323C115.871 16.1551 116.103 15.402 116.566 14.773C117.03 14.1275 117.659 13.6392 118.453 13.3082C119.248 12.9606 120.133 12.7868 121.11 12.7868C121.855 12.7868 122.525 12.8613 123.121 13.0103C123.733 13.1427 124.221 13.2999 124.586 13.482V12.8116C124.586 12.0006 124.288 11.3468 123.692 10.8503C123.096 10.3372 122.326 10.0806 121.383 10.0806C120.737 10.0806 120.125 10.2296 119.546 10.5275C118.966 10.8089 118.503 11.1978 118.155 11.6944L116.318 10.2792C116.864 9.50129 117.584 8.89715 118.478 8.46681C119.388 8.03646 120.381 7.82129 121.457 7.82129C123.278 7.82129 124.685 8.27646 125.678 9.18681C126.688 10.0806 127.192 11.3385 127.192 12.9606V20.8806H124.586V19.3165H124.437C124.072 19.8792 123.551 20.3509 122.872 20.7316C122.194 21.0958 121.424 21.2778 120.564 21.2778ZM121.035 19.093C121.697 19.093 122.301 18.9358 122.848 18.6213C123.394 18.2903 123.816 17.8516 124.114 17.3054C124.428 16.7592 124.586 16.1716 124.586 15.5427C124.188 15.3109 123.733 15.1289 123.22 14.9965C122.707 14.864 122.169 14.7978 121.606 14.7978C120.564 14.7978 119.794 15.0047 119.297 15.4185C118.817 15.8323 118.577 16.3785 118.577 17.0571C118.577 17.653 118.801 18.1413 119.248 18.522C119.695 18.9027 120.29 19.093 121.035 19.093Z" fill="#31225C"/>
<path d="M101.293 8.21853H103.825V9.93163H103.974C104.338 9.33577 104.876 8.83922 105.588 8.44198C106.316 8.02819 107.136 7.82129 108.046 7.82129C109.188 7.82129 110.223 8.11094 111.15 8.69025C112.076 9.26956 112.805 10.0723 113.334 11.0985C113.864 12.1082 114.129 13.2585 114.129 14.5496C114.129 15.8406 113.864 16.9992 113.334 18.0254C112.805 19.0516 112.076 19.8544 111.15 20.4337C110.223 20.9965 109.188 21.2778 108.046 21.2778C107.136 21.2778 106.316 21.0792 105.588 20.682C104.876 20.2682 104.338 19.7716 103.974 19.1923H103.825L103.974 20.9551V26.2434H101.293V8.21853ZM107.649 18.8199C108.327 18.8199 108.956 18.6461 109.536 18.2985C110.132 17.9344 110.603 17.4296 110.951 16.784C111.298 16.1385 111.472 15.3937 111.472 14.5496C111.472 13.7054 111.298 12.9606 110.951 12.3151C110.603 11.6696 110.132 11.173 109.536 10.8254C108.956 10.4613 108.327 10.2792 107.649 10.2792C106.987 10.2792 106.358 10.4613 105.762 10.8254C105.183 11.173 104.711 11.6696 104.347 12.3151C103.999 12.9606 103.825 13.7054 103.825 14.5496C103.825 15.3937 103.999 16.1385 104.347 16.784C104.711 17.4296 105.183 17.9344 105.762 18.2985C106.358 18.6461 106.987 18.8199 107.649 18.8199Z" fill="#31225C"/>
<path d="M81.1953 8.21853H83.7277V9.95646H83.8767C84.2408 9.3275 84.787 8.81439 85.5153 8.41715C86.2436 8.01991 87.0298 7.82129 87.8739 7.82129C89.3967 7.82129 90.5553 8.27646 91.3498 9.18681C92.1443 10.0806 92.5415 11.3137 92.5415 12.8861V20.8806H89.885V13.2337C89.885 12.2406 89.6367 11.504 89.1401 11.024C88.6436 10.5275 87.965 10.2792 87.1043 10.2792C86.4753 10.2792 85.9126 10.453 85.416 10.8006C84.936 11.1482 84.5553 11.6116 84.2739 12.1909C84.0091 12.7703 83.8767 13.3992 83.8767 14.0778V20.8806H81.1953V8.21853Z" fill="#31225C"/>
<path d="M71.6143 21.2778C70.7039 21.2778 69.8929 21.104 69.1812 20.7565C68.4695 20.3923 67.915 19.8875 67.5177 19.242C67.1205 18.5965 66.9219 17.8599 66.9219 17.0323C66.9219 16.1551 67.1536 15.402 67.617 14.773C68.0805 14.1275 68.7095 13.6392 69.5039 13.3082C70.2984 12.9606 71.1839 12.7868 72.1605 12.7868C72.9053 12.7868 73.5757 12.8613 74.1715 13.0103C74.7839 13.1427 75.2722 13.2999 75.6364 13.482V12.8116C75.6364 12.0006 75.3384 11.3468 74.7426 10.8503C74.1467 10.3372 73.377 10.0806 72.4336 10.0806C71.7881 10.0806 71.1757 10.2296 70.5964 10.5275C70.017 10.8089 69.5536 11.1978 69.206 11.6944L67.3688 10.2792C67.915 9.50129 68.635 8.89715 69.5288 8.46681C70.4391 8.03646 71.4322 7.82129 72.5081 7.82129C74.3288 7.82129 75.7357 8.27646 76.7288 9.18681C77.7384 10.0806 78.2433 11.3385 78.2433 12.9606V20.8806H75.6364V19.3165H75.4874C75.1233 19.8792 74.6019 20.3509 73.9233 20.7316C73.2446 21.0958 72.475 21.2778 71.6143 21.2778ZM72.086 19.093C72.7481 19.093 73.3522 18.9358 73.8984 18.6213C74.4446 18.2903 74.8667 17.8516 75.1646 17.3054C75.4791 16.7592 75.6364 16.1716 75.6364 15.5427C75.2391 15.3109 74.7839 15.1289 74.2708 14.9965C73.7577 14.864 73.2198 14.7978 72.657 14.7978C71.6143 14.7978 70.8446 15.0047 70.3481 15.4185C69.8681 15.8323 69.6281 16.3785 69.6281 17.0571C69.6281 17.653 69.8515 18.1413 70.2984 18.522C70.7453 18.9027 71.3412 19.093 72.086 19.093Z" fill="#31225C"/>
<path d="M61.918 3.10352H64.5993V20.8801H61.918V3.10352Z" fill="#31225C"/>
<path d="M47.5273 3.10352H53.6349C54.6942 3.10352 55.6625 3.33524 56.5398 3.79869C57.4336 4.26214 58.137 4.90765 58.6501 5.73524C59.1798 6.56283 59.4446 7.498 59.4446 8.54076C59.4446 9.58352 59.1798 10.5187 58.6501 11.3463C58.137 12.1739 57.4336 12.8194 56.5398 13.2828C55.6625 13.7463 54.6942 13.978 53.6349 13.978H50.2584V20.8801H47.5273V3.10352ZM53.7094 11.3959C54.6198 11.3959 55.348 11.1146 55.8942 10.5518C56.457 9.97248 56.7384 9.30214 56.7384 8.54076C56.7384 7.77938 56.457 7.11731 55.8942 6.55455C55.348 5.97524 54.6198 5.68558 53.7094 5.68558H50.2584V11.3959H53.7094Z" fill="#31225C"/>
<defs>
<clipPath id="clip0_6_13594">
<rect width="37.2414" height="30" fill="white"/>
</clipPath>
</defs>
</svg>
