<svg width="20" height="20" viewBox="0 0 20 20" fill="none" xmlns="http://www.w3.org/2000/svg">
<path d="M3.43758 9.375H16.5626C16.6455 9.375 16.7249 9.34208 16.7836 9.28347C16.8422 9.22487 16.8751 9.14538 16.8751 9.0625V6.875C16.8751 6.7929 16.859 6.71159 16.8277 6.63572C16.7963 6.55985 16.7503 6.4909 16.6923 6.43281L12.3173 2.05781C12.2592 1.99979 12.1902 1.95378 12.1144 1.92241C12.0385 1.89105 11.9572 1.87494 11.8751 1.875H4.37508C4.04356 1.875 3.72562 2.0067 3.4912 2.24112C3.25678 2.47554 3.12508 2.79348 3.12508 3.125V9.0625C3.12508 9.14538 3.158 9.22487 3.21661 9.28347C3.27522 9.34208 3.3547 9.375 3.43758 9.375ZM11.8751 3.4375L15.3126 6.875H11.8751V3.4375ZM17.5001 11.9164C17.4861 12.0771 17.4119 12.2265 17.2924 12.3347C17.1728 12.4429 17.0168 12.502 16.8555 12.5H15.0001V13.75H16.229C16.3903 13.7478 16.5464 13.8068 16.666 13.9151C16.7856 14.0233 16.8597 14.1729 16.8735 14.3336C16.8792 14.4191 16.8672 14.5048 16.8384 14.5855C16.8095 14.6662 16.7644 14.7401 16.7058 14.8026C16.6472 14.865 16.5763 14.9148 16.4977 14.9488C16.419 14.9828 16.3342 15.0002 16.2485 15H15.0001V16.2289C15.0023 16.3902 14.9433 16.5463 14.835 16.6659C14.7267 16.7855 14.5772 16.8596 14.4165 16.8734C14.331 16.8791 14.2452 16.8672 14.1646 16.8383C14.0839 16.8094 14.01 16.7643 13.9475 16.7057C13.885 16.6471 13.8353 16.5762 13.8013 16.4976C13.7673 16.4189 13.7499 16.3341 13.7501 16.2484V11.875C13.7501 11.7092 13.8159 11.5503 13.9331 11.4331C14.0503 11.3158 14.2093 11.25 14.3751 11.25H16.8751C16.9608 11.2498 17.0456 11.2672 17.1242 11.3012C17.2029 11.3352 17.2737 11.385 17.3323 11.4474C17.3909 11.5099 17.4361 11.5838 17.4649 11.6645C17.4938 11.7452 17.5058 11.8309 17.5001 11.9164ZM5.00008 11.25H3.75008C3.58432 11.25 3.42535 11.3158 3.30814 11.4331C3.19093 11.5503 3.12508 11.7092 3.12508 11.875V16.2289C3.12251 16.3905 3.18131 16.547 3.28962 16.6669C3.39793 16.7868 3.54768 16.8612 3.70867 16.875C3.79417 16.8807 3.87991 16.8687 3.96059 16.8399C4.04126 16.811 4.11514 16.7659 4.17763 16.7073C4.24013 16.6486 4.28991 16.5778 4.32387 16.4991C4.35784 16.4205 4.37527 16.3357 4.37508 16.25V15.625H4.95321C6.14383 15.625 7.15164 14.6938 7.1868 13.5039C7.19569 13.2112 7.14571 12.9196 7.03981 12.6466C6.93392 12.3735 6.77426 12.1245 6.57033 11.9143C6.36639 11.7041 6.12232 11.537 5.85259 11.4229C5.58286 11.3088 5.29296 11.25 5.00008 11.25ZM4.97274 14.375H4.37508V12.5H5.00008C5.13121 12.4994 5.261 12.5263 5.38108 12.579C5.50117 12.6316 5.60886 12.7089 5.69721 12.8058C5.78556 12.9027 5.85261 13.0171 5.89401 13.1415C5.93542 13.2659 5.95026 13.3976 5.93758 13.5281C5.9103 13.7638 5.79649 13.9809 5.61822 14.1373C5.43995 14.2938 5.20992 14.3785 4.97274 14.375ZM10.0001 11.25H8.75008C8.58432 11.25 8.42535 11.3158 8.30814 11.4331C8.19093 11.5503 8.12508 11.7092 8.12508 11.875V16.25C8.12508 16.4158 8.19093 16.5747 8.30814 16.6919C8.42535 16.8092 8.58432 16.875 8.75008 16.875H9.94696C11.4829 16.875 12.7759 15.6656 12.8118 14.1305C12.8209 13.7555 12.7548 13.3825 12.6176 13.0335C12.4804 12.6844 12.2747 12.3663 12.0127 12.0979C11.7507 11.8295 11.4377 11.6162 11.0921 11.4706C10.7464 11.325 10.3751 11.25 10.0001 11.25ZM9.9618 15.625H9.37508V12.5H10.0001C10.2104 12.4998 10.4187 12.5422 10.6123 12.6244C10.8059 12.7067 10.9809 12.8272 11.1268 12.9787C11.2727 13.1302 11.3865 13.3097 11.4614 13.5062C11.5363 13.7028 11.5707 13.9125 11.5626 14.1227C11.5298 14.968 10.8079 15.625 9.9618 15.625Z" fill="#603AC8"/>
</svg>
