<svg width="26" height="26" viewBox="0 0 26 26" fill="none" xmlns="http://www.w3.org/2000/svg">
<g clip-path="url(#clip0_585_324)">
<rect width="26" height="26" rx="4" fill="#603AC8"/>
<path d="M6 3H10.2235C10.9832 3 11.676 3.16201 12.3017 3.48603C12.9274 3.79888 13.419 4.24581 13.7765 4.82682C14.1341 5.39665 14.3128 6.05028 14.3128 6.78771C14.3128 7.52514 14.1341 8.18436 13.7765 8.76536C13.419 9.34637 12.9274 9.79888 12.3017 10.1229C11.676 10.4358 10.9832 10.5922 10.2235 10.5922H8.26257V15H6V3ZM10.2905 8.44693C10.8492 8.44693 11.2849 8.28492 11.5978 7.96089C11.9218 7.63687 12.0838 7.24581 12.0838 6.78771C12.0838 6.32961 11.9218 5.94413 11.5978 5.63129C11.2849 5.30726 10.8492 5.14525 10.2905 5.14525H8.26257V8.44693H10.2905Z" fill="white"/>
<path d="M37 7.5C21.8 9.1 1 19.3333 -2 22.5L0 29C0 21.4 28.3333 10.3333 37 7.5Z" fill="white"/>
<path d="M28.5 9.5C20 12 3.5 19.5 -1 24L-0.5 25C5.5 18.5 20.5 13 28.5 9.5Z" fill="#603AC8"/>
<path d="M4.5 20L5 21" stroke="white" stroke-width="0.5"/>
<path d="M9 17.5L9.5 18.5" stroke="white" stroke-width="0.5"/>
<path d="M13 15L13.5 16.5" stroke="white" stroke-width="0.5"/>
<path d="M18 13L18.5 14.5" stroke="white" stroke-width="0.5"/>
<path d="M23 11L23.5 12.5" stroke="white" stroke-width="0.5"/>
</g>
<defs>
<clipPath id="clip0_585_324">
<rect width="26" height="26" rx="4" fill="white"/>
</clipPath>
</defs>
</svg>
