<svg width="12" height="11" viewBox="0 0 12 11" fill="none" xmlns="http://www.w3.org/2000/svg">
<path d="M11.2112 4.559C11.1643 4.41487 11.0759 4.28784 10.9569 4.19391C10.8379 4.09999 10.6939 4.04337 10.5428 4.03118L7.77716 3.80806L6.70935 1.22572C6.6516 1.08501 6.55332 0.964645 6.42699 0.879937C6.30066 0.795229 6.152 0.75 5.9999 0.75C5.8478 0.75 5.69914 0.795229 5.57281 0.879937C5.44648 0.964645 5.34819 1.08501 5.29045 1.22572L4.22357 3.80759L1.45654 4.03118C1.30522 4.04398 1.16104 4.10115 1.04206 4.19553C0.923084 4.28991 0.834605 4.4173 0.787709 4.56174C0.740813 4.70618 0.737586 4.86125 0.77843 5.00752C0.819275 5.15379 0.902376 5.28475 1.01732 5.384L3.1267 7.20415L2.48404 9.92571C2.4481 10.0736 2.4569 10.2288 2.50932 10.3716C2.56175 10.5145 2.65544 10.6385 2.77849 10.728C2.90154 10.8175 3.04842 10.8684 3.20047 10.8743C3.35251 10.8802 3.50288 10.8408 3.63248 10.761L5.99966 9.30415L8.36826 10.761C8.4979 10.8398 8.64796 10.8785 8.79954 10.8722C8.95111 10.8659 9.09743 10.8148 9.22007 10.7255C9.34271 10.6362 9.43618 10.5126 9.48871 10.3703C9.54124 10.228 9.55049 10.0733 9.51529 9.92571L8.87029 7.20368L10.9797 5.38353C11.0955 5.28445 11.1794 5.1532 11.2206 5.00642C11.2618 4.85963 11.2586 4.70392 11.2112 4.559ZM10.4922 4.8154L8.20935 6.78415C8.15729 6.82902 8.11857 6.88734 8.0974 6.95273C8.07624 7.01812 8.07346 7.08807 8.08935 7.15493L8.78685 10.0987C8.78866 10.1027 8.78884 10.1073 8.78735 10.1115C8.78587 10.1157 8.78284 10.1192 8.77888 10.1212C8.77045 10.1277 8.7681 10.1263 8.76107 10.1212L6.19607 8.54384C6.137 8.50752 6.06901 8.48829 5.99966 8.48829C5.93032 8.48829 5.86233 8.50752 5.80326 8.54384L3.23826 10.1221C3.23123 10.1263 3.22935 10.1277 3.22045 10.1221C3.21649 10.1201 3.21346 10.1166 3.21198 10.1125C3.21049 10.1083 3.21067 10.1037 3.21248 10.0996L3.90998 7.15587C3.92587 7.08901 3.92309 7.01906 3.90193 6.95367C3.88076 6.88828 3.84204 6.82996 3.78998 6.78509L1.50717 4.81634C1.50154 4.81165 1.49638 4.80743 1.50107 4.7929C1.50576 4.77837 1.50951 4.78025 1.51654 4.77931L4.51279 4.53743C4.58151 4.53154 4.64728 4.5068 4.70285 4.46595C4.75843 4.4251 4.80166 4.36971 4.82779 4.30587L5.98185 1.51165C5.9856 1.50368 5.98701 1.49993 5.99826 1.49993C6.00951 1.49993 6.01092 1.50368 6.01467 1.51165L7.17154 4.30587C7.19792 4.36973 7.24142 4.42506 7.29725 4.46576C7.35309 4.50645 7.41908 4.53093 7.48795 4.5365L10.4842 4.77837C10.4912 4.77837 10.4954 4.77837 10.4997 4.79197C10.5039 4.80556 10.4997 4.81072 10.4922 4.8154Z" fill="#BC6F1C"/>
</svg>
