<svg width="277" height="197" viewBox="0 0 277 197" fill="none" xmlns="http://www.w3.org/2000/svg">
<g filter="url(#filter0_d_5_805)">
<g clip-path="url(#clip0_5_805)">
<path d="M18 26C18 21.5817 21.5817 18 26 18H251C255.418 18 259 21.5817 259 26V171C259 175.418 255.418 179 251 179H26C21.5817 179 18 175.418 18 171V26Z" fill="white"/>
<path d="M52.312 121.544H56.792C57.432 121.544 58.0187 121.677 58.552 121.944C59.096 122.211 59.5227 122.573 59.832 123.032C60.1413 123.491 60.296 123.992 60.296 124.536C60.296 125.112 60.152 125.613 59.864 126.04C59.5867 126.456 59.2187 126.776 58.76 127V127.128C59.3573 127.341 59.832 127.683 60.184 128.152C60.536 128.611 60.712 129.165 60.712 129.816C60.712 130.445 60.5413 131.005 60.2 131.496C59.8693 131.976 59.416 132.349 58.84 132.616C58.2747 132.872 57.6453 133 56.952 133H52.312V121.544ZM56.632 126.216C57.1013 126.216 57.4747 126.088 57.752 125.832C58.04 125.565 58.184 125.235 58.184 124.84C58.184 124.456 58.0453 124.136 57.768 123.88C57.5013 123.613 57.144 123.48 56.696 123.48H54.472V126.216H56.632ZM56.872 131.032C57.3947 131.032 57.8 130.899 58.088 130.632C58.3867 130.355 58.536 129.997 58.536 129.56C58.536 129.123 58.3867 128.765 58.088 128.488C57.7893 128.211 57.3627 128.072 56.808 128.072H54.472V131.032H56.872ZM66.2874 133.256C65.4447 133.256 64.6927 133.069 64.0314 132.696C63.37 132.312 62.8527 131.795 62.4794 131.144C62.1167 130.483 61.9354 129.741 61.9354 128.92C61.9354 128.109 62.1167 127.373 62.4794 126.712C62.8527 126.051 63.37 125.533 64.0314 125.16C64.6927 124.776 65.4447 124.584 66.2874 124.584C67.1194 124.584 67.866 124.776 68.5274 125.16C69.1887 125.533 69.7007 126.051 70.0634 126.712C70.4367 127.373 70.6234 128.109 70.6234 128.92C70.6234 129.741 70.4367 130.483 70.0634 131.144C69.7007 131.795 69.1887 132.312 68.5274 132.696C67.866 133.069 67.1194 133.256 66.2874 133.256ZM66.2874 131.32C66.6927 131.32 67.066 131.224 67.4074 131.032C67.7487 130.84 68.0207 130.563 68.2234 130.2C68.426 129.837 68.5274 129.411 68.5274 128.92C68.5274 128.44 68.426 128.019 68.2234 127.656C68.0207 127.293 67.7487 127.016 67.4074 126.824C67.066 126.632 66.6927 126.536 66.2874 126.536C65.882 126.536 65.5087 126.632 65.1674 126.824C64.826 127.016 64.5487 127.293 64.3354 127.656C64.1327 128.019 64.0314 128.44 64.0314 128.92C64.0314 129.4 64.1327 129.827 64.3354 130.2C64.5487 130.563 64.826 130.84 65.1674 131.032C65.5087 131.224 65.882 131.32 66.2874 131.32ZM76.1311 133.256C75.2885 133.256 74.5365 133.069 73.8751 132.696C73.2138 132.312 72.6965 131.795 72.3231 131.144C71.9605 130.483 71.7791 129.741 71.7791 128.92C71.7791 128.109 71.9605 127.373 72.3231 126.712C72.6965 126.051 73.2138 125.533 73.8751 125.16C74.5365 124.776 75.2885 124.584 76.1311 124.584C76.9631 124.584 77.7098 124.776 78.3711 125.16C79.0325 125.533 79.5445 126.051 79.9071 126.712C80.2805 127.373 80.4671 128.109 80.4671 128.92C80.4671 129.741 80.2805 130.483 79.9071 131.144C79.5445 131.795 79.0325 132.312 78.3711 132.696C77.7098 133.069 76.9631 133.256 76.1311 133.256ZM76.1311 131.32C76.5365 131.32 76.9098 131.224 77.2511 131.032C77.5925 130.84 77.8645 130.563 78.0671 130.2C78.2698 129.837 78.3711 129.411 78.3711 128.92C78.3711 128.44 78.2698 128.019 78.0671 127.656C77.8645 127.293 77.5925 127.016 77.2511 126.824C76.9098 126.632 76.5365 126.536 76.1311 126.536C75.7258 126.536 75.3525 126.632 75.0111 126.824C74.6698 127.016 74.3925 127.293 74.1791 127.656C73.9765 128.019 73.8751 128.44 73.8751 128.92C73.8751 129.4 73.9765 129.827 74.1791 130.2C74.3925 130.563 74.6698 130.84 75.0111 131.032C75.3525 131.224 75.7258 131.32 76.1311 131.32ZM85.0968 133.256C84.1048 133.256 83.2994 133.053 82.6808 132.648C82.0728 132.243 81.6461 131.715 81.4008 131.064L83.2728 130.248C83.4434 130.632 83.6834 130.925 83.9928 131.128C84.3128 131.32 84.6808 131.416 85.0968 131.416C85.4808 131.416 85.8008 131.357 86.0568 131.24C86.3128 131.112 86.4408 130.909 86.4408 130.632C86.4408 130.365 86.3234 130.168 86.0888 130.04C85.8541 129.901 85.5021 129.779 85.0328 129.672L84.0728 129.464C83.4114 129.304 82.8621 129.016 82.4248 128.6C81.9874 128.173 81.7688 127.645 81.7688 127.016C81.7688 126.547 81.9074 126.125 82.1848 125.752C82.4728 125.379 82.8568 125.091 83.3368 124.888C83.8274 124.685 84.3661 124.584 84.9528 124.584C86.6381 124.584 87.7634 125.176 88.3288 126.36L86.5368 127.144C86.2168 126.568 85.7048 126.28 85.0008 126.28C84.6381 126.28 84.3501 126.349 84.1368 126.488C83.9234 126.616 83.8168 126.781 83.8168 126.984C83.8168 127.368 84.1794 127.656 84.9048 127.848L86.1048 128.136C86.9154 128.339 87.5234 128.648 87.9288 129.064C88.3448 129.48 88.5528 129.992 88.5528 130.6C88.5528 131.123 88.3981 131.587 88.0888 131.992C87.7901 132.387 87.3741 132.696 86.8408 132.92C86.3181 133.144 85.7368 133.256 85.0968 133.256ZM93.5448 133.128C93.1394 133.128 92.7661 133.069 92.4248 132.952C92.0834 132.824 91.8061 132.653 91.5928 132.44C91.0914 131.96 90.8408 131.277 90.8408 130.392V126.632H89.4168V124.84H90.8408V122.536H92.9368V124.84H94.9368V126.632H92.9368V130.008C92.9368 130.424 93.0274 130.723 93.2088 130.904C93.3581 131.075 93.6141 131.16 93.9768 131.16C94.1794 131.16 94.3448 131.133 94.4728 131.08C94.6114 131.027 94.7874 130.936 95.0008 130.808V132.856C94.5421 133.037 94.0568 133.128 93.5448 133.128ZM104.27 133.256C103.449 133.256 102.713 133.075 102.062 132.712C101.412 132.339 100.9 131.821 100.526 131.16C100.164 130.499 99.9823 129.752 99.9823 128.92C99.9823 128.088 100.164 127.347 100.526 126.696C100.9 126.035 101.412 125.517 102.062 125.144C102.713 124.771 103.449 124.584 104.27 124.584C105.177 124.584 105.956 124.781 106.606 125.176C107.257 125.56 107.726 126.109 108.014 126.824L106.094 127.624C105.753 126.899 105.145 126.536 104.27 126.536C103.63 126.536 103.102 126.755 102.686 127.192C102.281 127.629 102.078 128.205 102.078 128.92C102.078 129.645 102.281 130.227 102.686 130.664C103.102 131.101 103.63 131.32 104.27 131.32C105.156 131.32 105.796 130.936 106.19 130.168L108.094 131C107.742 131.715 107.241 132.269 106.59 132.664C105.94 133.059 105.166 133.256 104.27 133.256ZM113.428 133.256C112.585 133.256 111.833 133.069 111.172 132.696C110.511 132.312 109.993 131.795 109.62 131.144C109.257 130.483 109.076 129.741 109.076 128.92C109.076 128.109 109.257 127.373 109.62 126.712C109.993 126.051 110.511 125.533 111.172 125.16C111.833 124.776 112.585 124.584 113.428 124.584C114.26 124.584 115.007 124.776 115.668 125.16C116.329 125.533 116.841 126.051 117.204 126.712C117.577 127.373 117.764 128.109 117.764 128.92C117.764 129.741 117.577 130.483 117.204 131.144C116.841 131.795 116.329 132.312 115.668 132.696C115.007 133.069 114.26 133.256 113.428 133.256ZM113.428 131.32C113.833 131.32 114.207 131.224 114.548 131.032C114.889 130.84 115.161 130.563 115.364 130.2C115.567 129.837 115.668 129.411 115.668 128.92C115.668 128.44 115.567 128.019 115.364 127.656C115.161 127.293 114.889 127.016 114.548 126.824C114.207 126.632 113.833 126.536 113.428 126.536C113.023 126.536 112.649 126.632 112.308 126.824C111.967 127.016 111.689 127.293 111.476 127.656C111.273 128.019 111.172 128.44 111.172 128.92C111.172 129.4 111.273 129.827 111.476 130.2C111.689 130.563 111.967 130.84 112.308 131.032C112.649 131.224 113.023 131.32 113.428 131.32ZM119.29 121.544H121.386V133H119.29V121.544ZM123.446 121.544H125.542V133H123.446V121.544ZM131.348 133.256C130.537 133.256 129.807 133.069 129.156 132.696C128.505 132.323 127.993 131.811 127.62 131.16C127.257 130.499 127.076 129.757 127.076 128.936C127.076 128.157 127.257 127.437 127.62 126.776C127.983 126.104 128.484 125.571 129.124 125.176C129.764 124.781 130.479 124.584 131.268 124.584C132.111 124.584 132.836 124.765 133.444 125.128C134.052 125.491 134.511 125.987 134.82 126.616C135.14 127.245 135.3 127.944 135.3 128.712C135.3 128.957 135.284 129.192 135.252 129.416H129.124C129.231 130.067 129.487 130.563 129.892 130.904C130.308 131.235 130.804 131.4 131.38 131.4C131.86 131.4 132.271 131.299 132.612 131.096C132.964 130.883 133.241 130.6 133.444 130.248L135.14 131.08C134.308 132.531 133.044 133.256 131.348 133.256ZM133.284 127.928C133.263 127.672 133.167 127.421 132.996 127.176C132.836 126.92 132.607 126.712 132.308 126.552C132.02 126.381 131.679 126.296 131.284 126.296C130.783 126.296 130.351 126.445 129.988 126.744C129.636 127.032 129.38 127.427 129.22 127.928H133.284ZM140.753 136.712C139.718 136.712 138.859 136.477 138.177 136.008C137.494 135.549 137.035 134.995 136.801 134.344L138.769 133.544C138.939 133.949 139.201 134.269 139.553 134.504C139.905 134.739 140.305 134.856 140.753 134.856C141.414 134.856 141.937 134.653 142.321 134.248C142.715 133.843 142.913 133.267 142.913 132.52V131.88H142.785C142.529 132.243 142.193 132.52 141.777 132.712C141.361 132.904 140.886 133 140.353 133C139.681 133 139.051 132.829 138.465 132.488C137.889 132.136 137.425 131.645 137.073 131.016C136.721 130.376 136.545 129.635 136.545 128.792C136.545 127.949 136.721 127.213 137.073 126.584C137.425 125.944 137.889 125.453 138.465 125.112C139.051 124.76 139.681 124.584 140.353 124.584C140.886 124.584 141.361 124.68 141.777 124.872C142.193 125.064 142.529 125.341 142.785 125.704H142.913V124.84H144.929V132.44C144.929 133.315 144.758 134.072 144.417 134.712C144.075 135.352 143.59 135.843 142.961 136.184C142.331 136.536 141.595 136.712 140.753 136.712ZM140.785 131.096C141.371 131.096 141.873 130.893 142.289 130.488C142.705 130.072 142.913 129.507 142.913 128.792C142.913 128.056 142.705 127.491 142.289 127.096C141.883 126.691 141.382 126.488 140.785 126.488C140.187 126.488 139.681 126.691 139.265 127.096C138.849 127.501 138.641 128.067 138.641 128.792C138.641 129.517 138.849 130.083 139.265 130.488C139.681 130.893 140.187 131.096 140.785 131.096ZM150.723 133.256C149.912 133.256 149.182 133.069 148.531 132.696C147.88 132.323 147.368 131.811 146.995 131.16C146.632 130.499 146.451 129.757 146.451 128.936C146.451 128.157 146.632 127.437 146.995 126.776C147.358 126.104 147.859 125.571 148.499 125.176C149.139 124.781 149.854 124.584 150.643 124.584C151.486 124.584 152.211 124.765 152.819 125.128C153.427 125.491 153.886 125.987 154.195 126.616C154.515 127.245 154.675 127.944 154.675 128.712C154.675 128.957 154.659 129.192 154.627 129.416H148.499C148.606 130.067 148.862 130.563 149.267 130.904C149.683 131.235 150.179 131.4 150.755 131.4C151.235 131.4 151.646 131.299 151.987 131.096C152.339 130.883 152.616 130.6 152.819 130.248L154.515 131.08C153.683 132.531 152.419 133.256 150.723 133.256ZM152.659 127.928C152.638 127.672 152.542 127.421 152.371 127.176C152.211 126.92 151.982 126.712 151.683 126.552C151.395 126.381 151.054 126.296 150.659 126.296C150.158 126.296 149.726 126.445 149.363 126.744C149.011 127.032 148.755 127.427 148.595 127.928H152.659ZM162.536 133.256C161.672 133.256 160.962 133.005 160.408 132.504C159.853 131.992 159.576 131.325 159.576 130.504C159.576 129.96 159.72 129.48 160.008 129.064C160.296 128.648 160.69 128.328 161.192 128.104C161.693 127.88 162.248 127.768 162.856 127.768C163.698 127.768 164.418 127.891 165.016 128.136V127.784C165.016 127.336 164.845 126.973 164.504 126.696C164.173 126.419 163.725 126.28 163.16 126.28C162.776 126.28 162.402 126.371 162.04 126.552C161.688 126.723 161.394 126.952 161.16 127.24L159.816 126.184C160.21 125.672 160.706 125.277 161.304 125C161.901 124.723 162.552 124.584 163.256 124.584C164.504 124.584 165.453 124.872 166.104 125.448C166.754 126.024 167.08 126.867 167.08 127.976V133H165.016V132.168H164.888C164.642 132.488 164.317 132.749 163.912 132.952C163.517 133.155 163.058 133.256 162.536 133.256ZM163.032 131.624C163.64 131.624 164.12 131.432 164.472 131.048C164.834 130.653 165.016 130.195 165.016 129.672C164.472 129.416 163.901 129.288 163.304 129.288C162.216 129.288 161.672 129.693 161.672 130.504C161.672 130.835 161.789 131.107 162.024 131.32C162.258 131.523 162.594 131.624 163.032 131.624ZM172.434 133.256C171.698 133.256 171.026 133.075 170.418 132.712C169.821 132.339 169.346 131.827 168.994 131.176C168.653 130.515 168.482 129.763 168.482 128.92C168.482 128.088 168.653 127.341 168.994 126.68C169.346 126.019 169.821 125.507 170.418 125.144C171.026 124.771 171.698 124.584 172.434 124.584C172.989 124.584 173.48 124.707 173.906 124.952C174.333 125.187 174.658 125.48 174.882 125.832H175.01L174.882 124.68V121.544H176.962V133H175.01V132.024H174.882C174.669 132.376 174.344 132.669 173.906 132.904C173.48 133.139 172.989 133.256 172.434 133.256ZM172.786 131.32C173.181 131.32 173.549 131.219 173.89 131.016C174.232 130.813 174.504 130.531 174.706 130.168C174.909 129.805 175.01 129.389 175.01 128.92C175.01 128.451 174.909 128.035 174.706 127.672C174.504 127.309 174.232 127.032 173.89 126.84C173.549 126.637 173.181 126.536 172.786 126.536C172.402 126.536 172.04 126.637 171.698 126.84C171.357 127.032 171.085 127.309 170.882 127.672C170.68 128.035 170.578 128.451 170.578 128.92C170.578 129.389 170.68 129.805 170.882 130.168C171.085 130.531 171.357 130.813 171.698 131.016C172.04 131.219 172.402 131.32 172.786 131.32ZM179.024 124.84H180.992V125.864H181.12C181.376 125.469 181.717 125.16 182.144 124.936C182.581 124.701 183.067 124.584 183.6 124.584C184.176 124.584 184.677 124.723 185.104 125C185.531 125.267 185.835 125.608 186.016 126.024C186.283 125.597 186.645 125.251 187.104 124.984C187.573 124.717 188.123 124.584 188.752 124.584C189.68 124.584 190.384 124.872 190.864 125.448C191.355 126.013 191.6 126.781 191.6 127.752V133H189.52V128.136C189.52 127.624 189.397 127.229 189.152 126.952C188.917 126.675 188.587 126.536 188.16 126.536C187.616 126.536 187.179 126.755 186.848 127.192C186.528 127.619 186.368 128.184 186.368 128.888V133H184.272V128.136C184.272 127.624 184.144 127.229 183.888 126.952C183.643 126.675 183.291 126.536 182.832 126.536C182.32 126.536 181.904 126.755 181.584 127.192C181.275 127.619 181.12 128.184 181.12 128.888V133H179.024V124.84ZM194.786 123.944C194.413 123.944 194.093 123.811 193.826 123.544C193.559 123.277 193.426 122.957 193.426 122.584C193.426 122.211 193.559 121.896 193.826 121.64C194.093 121.373 194.413 121.24 194.786 121.24C195.159 121.24 195.474 121.373 195.73 121.64C195.997 121.896 196.13 122.211 196.13 122.584C196.13 122.957 195.997 123.277 195.73 123.544C195.474 123.811 195.159 123.944 194.786 123.944ZM193.73 124.84H195.826V133H193.73V124.84ZM201.112 133.256C200.12 133.256 199.315 133.053 198.696 132.648C198.088 132.243 197.662 131.715 197.416 131.064L199.288 130.248C199.459 130.632 199.699 130.925 200.008 131.128C200.328 131.32 200.696 131.416 201.112 131.416C201.496 131.416 201.816 131.357 202.072 131.24C202.328 131.112 202.456 130.909 202.456 130.632C202.456 130.365 202.339 130.168 202.104 130.04C201.87 129.901 201.518 129.779 201.048 129.672L200.088 129.464C199.427 129.304 198.878 129.016 198.44 128.6C198.003 128.173 197.784 127.645 197.784 127.016C197.784 126.547 197.923 126.125 198.2 125.752C198.488 125.379 198.872 125.091 199.352 124.888C199.843 124.685 200.382 124.584 200.968 124.584C202.654 124.584 203.779 125.176 204.344 126.36L202.552 127.144C202.232 126.568 201.72 126.28 201.016 126.28C200.654 126.28 200.366 126.349 200.152 126.488C199.939 126.616 199.832 126.781 199.832 126.984C199.832 127.368 200.195 127.656 200.92 127.848L202.12 128.136C202.931 128.339 203.539 128.648 203.944 129.064C204.36 129.48 204.568 129.992 204.568 130.6C204.568 131.123 204.414 131.587 204.104 131.992C203.806 132.387 203.39 132.696 202.856 132.92C202.334 133.144 201.752 133.256 201.112 133.256ZM209.191 133.256C208.199 133.256 207.393 133.053 206.775 132.648C206.167 132.243 205.74 131.715 205.495 131.064L207.367 130.248C207.537 130.632 207.777 130.925 208.087 131.128C208.407 131.32 208.775 131.416 209.191 131.416C209.575 131.416 209.895 131.357 210.151 131.24C210.407 131.112 210.535 130.909 210.535 130.632C210.535 130.365 210.417 130.168 210.183 130.04C209.948 129.901 209.596 129.779 209.127 129.672L208.167 129.464C207.505 129.304 206.956 129.016 206.519 128.6C206.081 128.173 205.863 127.645 205.863 127.016C205.863 126.547 206.001 126.125 206.279 125.752C206.567 125.379 206.951 125.091 207.431 124.888C207.921 124.685 208.46 124.584 209.047 124.584C210.732 124.584 211.857 125.176 212.423 126.36L210.631 127.144C210.311 126.568 209.799 126.28 209.095 126.28C208.732 126.28 208.444 126.349 208.231 126.488C208.017 126.616 207.911 126.781 207.911 126.984C207.911 127.368 208.273 127.656 208.999 127.848L210.199 128.136C211.009 128.339 211.617 128.648 212.023 129.064C212.439 129.48 212.647 129.992 212.647 130.6C212.647 131.123 212.492 131.587 212.183 131.992C211.884 132.387 211.468 132.696 210.935 132.92C210.412 133.144 209.831 133.256 209.191 133.256ZM215.271 123.944C214.897 123.944 214.577 123.811 214.311 123.544C214.044 123.277 213.911 122.957 213.911 122.584C213.911 122.211 214.044 121.896 214.311 121.64C214.577 121.373 214.897 121.24 215.271 121.24C215.644 121.24 215.959 121.373 216.215 121.64C216.481 121.896 216.615 122.211 216.615 122.584C216.615 122.957 216.481 123.277 216.215 123.544C215.959 123.811 215.644 123.944 215.271 123.944ZM214.215 124.84H216.311V133H214.215V124.84ZM222.319 133.256C221.476 133.256 220.724 133.069 220.063 132.696C219.401 132.312 218.884 131.795 218.511 131.144C218.148 130.483 217.967 129.741 217.967 128.92C217.967 128.109 218.148 127.373 218.511 126.712C218.884 126.051 219.401 125.533 220.063 125.16C220.724 124.776 221.476 124.584 222.319 124.584C223.151 124.584 223.897 124.776 224.559 125.16C225.22 125.533 225.732 126.051 226.095 126.712C226.468 127.373 226.655 128.109 226.655 128.92C226.655 129.741 226.468 130.483 226.095 131.144C225.732 131.795 225.22 132.312 224.559 132.696C223.897 133.069 223.151 133.256 222.319 133.256ZM222.319 131.32C222.724 131.32 223.097 131.224 223.439 131.032C223.78 130.84 224.052 130.563 224.255 130.2C224.457 129.837 224.559 129.411 224.559 128.92C224.559 128.44 224.457 128.019 224.255 127.656C224.052 127.293 223.78 127.016 223.439 126.824C223.097 126.632 222.724 126.536 222.319 126.536C221.913 126.536 221.54 126.632 221.199 126.824C220.857 127.016 220.58 127.293 220.367 127.656C220.164 128.019 220.063 128.44 220.063 128.92C220.063 129.4 220.164 129.827 220.367 130.2C220.58 130.563 220.857 130.84 221.199 131.032C221.54 131.224 221.913 131.32 222.319 131.32ZM228.102 124.84H230.07V125.864H230.198C230.443 125.469 230.79 125.16 231.238 124.936C231.686 124.701 232.171 124.584 232.694 124.584C233.675 124.584 234.422 124.883 234.934 125.48C235.446 126.077 235.702 126.893 235.702 127.928V133H233.606V128.184C233.606 127.661 233.473 127.256 233.206 126.968C232.939 126.68 232.566 126.536 232.086 126.536C231.521 126.536 231.062 126.755 230.71 127.192C230.369 127.629 230.198 128.179 230.198 128.84V133H228.102V124.84ZM245.27 133.256C244.449 133.256 243.713 133.075 243.062 132.712C242.412 132.339 241.9 131.821 241.526 131.16C241.164 130.499 240.982 129.752 240.982 128.92C240.982 128.088 241.164 127.347 241.526 126.696C241.9 126.035 242.412 125.517 243.062 125.144C243.713 124.771 244.449 124.584 245.27 124.584C246.177 124.584 246.956 124.781 247.606 125.176C248.257 125.56 248.726 126.109 249.014 126.824L247.094 127.624C246.753 126.899 246.145 126.536 245.27 126.536C244.63 126.536 244.102 126.755 243.686 127.192C243.281 127.629 243.078 128.205 243.078 128.92C243.078 129.645 243.281 130.227 243.686 130.664C244.102 131.101 244.63 131.32 245.27 131.32C246.156 131.32 246.796 130.936 247.19 130.168L249.094 131C248.742 131.715 248.241 132.269 247.59 132.664C246.94 133.059 246.166 133.256 245.27 133.256ZM250.602 121.544H252.698V124.44L252.57 125.864H252.698C252.933 125.48 253.274 125.171 253.722 124.936C254.17 124.701 254.655 124.584 255.178 124.584C256.17 124.584 256.927 124.883 257.45 125.48C257.983 126.067 258.25 126.883 258.25 127.928V133H256.154V128.184C256.154 127.661 256.01 127.256 255.722 126.968C255.445 126.68 255.071 126.536 254.602 126.536C254.047 126.536 253.589 126.76 253.226 127.208C252.874 127.656 252.698 128.205 252.698 128.856V133H250.602V121.544ZM262.645 133.256C261.781 133.256 261.072 133.005 260.517 132.504C259.962 131.992 259.685 131.325 259.685 130.504C259.685 129.96 259.829 129.48 260.117 129.064C260.405 128.648 260.8 128.328 261.301 128.104C261.802 127.88 262.357 127.768 262.965 127.768C263.808 127.768 264.528 127.891 265.125 128.136V127.784C265.125 127.336 264.954 126.973 264.613 126.696C264.282 126.419 263.834 126.28 263.269 126.28C262.885 126.28 262.512 126.371 262.149 126.552C261.797 126.723 261.504 126.952 261.269 127.24L259.925 126.184C260.32 125.672 260.816 125.277 261.413 125C262.01 124.723 262.661 124.584 263.365 124.584C264.613 124.584 265.562 124.872 266.213 125.448C266.864 126.024 267.189 126.867 267.189 127.976V133H265.125V132.168H264.997C264.752 132.488 264.426 132.749 264.021 132.952C263.626 133.155 263.168 133.256 262.645 133.256ZM263.141 131.624C263.749 131.624 264.229 131.432 264.581 131.048C264.944 130.653 265.125 130.195 265.125 129.672C264.581 129.416 264.01 129.288 263.413 129.288C262.325 129.288 261.781 129.693 261.781 130.504C261.781 130.835 261.898 131.107 262.133 131.32C262.368 131.523 262.704 131.624 263.141 131.624ZM269.118 124.84H271.086V125.864H271.214C271.459 125.469 271.806 125.16 272.254 124.936C272.702 124.701 273.187 124.584 273.71 124.584C274.691 124.584 275.438 124.883 275.95 125.48C276.462 126.077 276.718 126.893 276.718 127.928V133H274.622V128.184C274.622 127.661 274.488 127.256 274.222 126.968C273.955 126.68 273.582 126.536 273.102 126.536C272.536 126.536 272.078 126.755 271.726 127.192C271.384 127.629 271.214 128.179 271.214 128.84V133H269.118V124.84ZM282.536 133.256C281.715 133.256 280.979 133.075 280.328 132.712C279.677 132.339 279.165 131.821 278.792 131.16C278.429 130.499 278.248 129.752 278.248 128.92C278.248 128.088 278.429 127.347 278.792 126.696C279.165 126.035 279.677 125.517 280.328 125.144C280.979 124.771 281.715 124.584 282.536 124.584C283.443 124.584 284.221 124.781 284.872 125.176C285.523 125.56 285.992 126.109 286.28 126.824L284.36 127.624C284.019 126.899 283.411 126.536 282.536 126.536C281.896 126.536 281.368 126.755 280.952 127.192C280.547 127.629 280.344 128.205 280.344 128.92C280.344 129.645 280.547 130.227 280.952 130.664C281.368 131.101 281.896 131.32 282.536 131.32C283.421 131.32 284.061 130.936 284.456 130.168L286.36 131C286.008 131.715 285.507 132.269 284.856 132.664C284.205 133.059 283.432 133.256 282.536 133.256ZM291.614 133.256C290.803 133.256 290.072 133.069 289.422 132.696C288.771 132.323 288.259 131.811 287.886 131.16C287.523 130.499 287.342 129.757 287.342 128.936C287.342 128.157 287.523 127.437 287.886 126.776C288.248 126.104 288.75 125.571 289.39 125.176C290.03 124.781 290.744 124.584 291.534 124.584C292.376 124.584 293.102 124.765 293.71 125.128C294.318 125.491 294.776 125.987 295.086 126.616C295.406 127.245 295.566 127.944 295.566 128.712C295.566 128.957 295.55 129.192 295.518 129.416H289.39C289.496 130.067 289.752 130.563 290.158 130.904C290.574 131.235 291.07 131.4 291.646 131.4C292.126 131.4 292.536 131.299 292.878 131.096C293.23 130.883 293.507 130.6 293.71 130.248L295.406 131.08C294.574 132.531 293.31 133.256 291.614 133.256ZM293.55 127.928C293.528 127.672 293.432 127.421 293.262 127.176C293.102 126.92 292.872 126.712 292.574 126.552C292.286 126.381 291.944 126.296 291.55 126.296C291.048 126.296 290.616 126.445 290.254 126.744C289.902 127.032 289.646 127.427 289.486 127.928H293.55ZM300.362 133.256C299.37 133.256 298.565 133.053 297.946 132.648C297.338 132.243 296.912 131.715 296.666 131.064L298.538 130.248C298.709 130.632 298.949 130.925 299.258 131.128C299.578 131.32 299.946 131.416 300.362 131.416C300.746 131.416 301.066 131.357 301.322 131.24C301.578 131.112 301.706 130.909 301.706 130.632C301.706 130.365 301.589 130.168 301.354 130.04C301.12 129.901 300.768 129.779 300.298 129.672L299.338 129.464C298.677 129.304 298.128 129.016 297.69 128.6C297.253 128.173 297.034 127.645 297.034 127.016C297.034 126.547 297.173 126.125 297.45 125.752C297.738 125.379 298.122 125.091 298.602 124.888C299.093 124.685 299.632 124.584 300.218 124.584C301.904 124.584 303.029 125.176 303.594 126.36L301.802 127.144C301.482 126.568 300.97 126.28 300.266 126.28C299.904 126.28 299.616 126.349 299.402 126.488C299.189 126.616 299.082 126.781 299.082 126.984C299.082 127.368 299.445 127.656 300.17 127.848L301.37 128.136C302.181 128.339 302.789 128.648 303.194 129.064C303.61 129.48 303.818 129.992 303.818 130.6C303.818 131.123 303.664 131.587 303.354 131.992C303.056 132.387 302.64 132.696 302.106 132.92C301.584 133.144 301.002 133.256 300.362 133.256Z" fill="white"/>
<path d="M36.458 105.112H44.27V106.984H38.438V110.764H43.694V112.636H38.438V118H36.458V105.112ZM49.8407 118.288C48.9167 118.288 48.0887 118.078 47.3567 117.658C46.6247 117.226 46.0547 116.638 45.6467 115.894C45.2387 115.15 45.0347 114.322 45.0347 113.41C45.0347 112.498 45.2387 111.67 45.6467 110.926C46.0547 110.182 46.6247 109.6 47.3567 109.18C48.0887 108.748 48.9167 108.532 49.8407 108.532C50.7527 108.532 51.5747 108.748 52.3067 109.18C53.0387 109.612 53.6087 110.2 54.0167 110.944C54.4247 111.688 54.6287 112.51 54.6287 113.41C54.6287 114.322 54.4247 115.15 54.0167 115.894C53.6087 116.638 53.0387 117.226 52.3067 117.658C51.5867 118.078 50.7647 118.288 49.8407 118.288ZM49.8407 116.506C50.3567 116.506 50.8307 116.38 51.2627 116.128C51.6947 115.876 52.0427 115.516 52.3067 115.048C52.5707 114.58 52.7027 114.034 52.7027 113.41C52.7027 112.786 52.5707 112.24 52.3067 111.772C52.0427 111.304 51.6947 110.944 51.2627 110.692C50.8307 110.44 50.3567 110.314 49.8407 110.314C49.3247 110.314 48.8447 110.44 48.4007 110.692C47.9687 110.944 47.6207 111.304 47.3567 111.772C47.0927 112.24 46.9607 112.786 46.9607 113.41C46.9607 114.034 47.0927 114.58 47.3567 115.048C47.6207 115.516 47.9687 115.876 48.4007 116.128C48.8447 116.38 49.3247 116.506 49.8407 116.506ZM56.3313 105.112H58.2753V118H56.3313V105.112ZM60.5676 105.112H62.5116V118H60.5676V105.112ZM69.036 118.288C68.112 118.288 67.284 118.078 66.552 117.658C65.82 117.226 65.25 116.638 64.842 115.894C64.434 115.15 64.23 114.322 64.23 113.41C64.23 112.498 64.434 111.67 64.842 110.926C65.25 110.182 65.82 109.6 66.552 109.18C67.284 108.748 68.112 108.532 69.036 108.532C69.948 108.532 70.77 108.748 71.502 109.18C72.234 109.612 72.804 110.2 73.212 110.944C73.62 111.688 73.824 112.51 73.824 113.41C73.824 114.322 73.62 115.15 73.212 115.894C72.804 116.638 72.234 117.226 71.502 117.658C70.782 118.078 69.96 118.288 69.036 118.288ZM69.036 116.506C69.552 116.506 70.026 116.38 70.458 116.128C70.89 115.876 71.238 115.516 71.502 115.048C71.766 114.58 71.898 114.034 71.898 113.41C71.898 112.786 71.766 112.24 71.502 111.772C71.238 111.304 70.89 110.944 70.458 110.692C70.026 110.44 69.552 110.314 69.036 110.314C68.52 110.314 68.04 110.44 67.596 110.692C67.164 110.944 66.816 111.304 66.552 111.772C66.288 112.24 66.156 112.786 66.156 113.41C66.156 114.034 66.288 114.58 66.552 115.048C66.816 115.516 67.164 115.876 67.596 116.128C68.04 116.38 68.52 116.506 69.036 116.506ZM74.4307 108.82H76.5367L78.4267 115.426H78.4987L80.5687 108.82H82.5667L84.6367 115.426H84.7087L86.5987 108.82H88.6687L85.7167 118H83.6827L81.5587 111.358H81.4867L79.3807 118H77.3647L74.4307 108.82ZM96.9682 117.496L93.1342 108.82H95.2942L97.9222 115.084H98.0122L100.55 108.82H102.692L97.0222 121.888H94.9522L96.9682 117.496ZM107.936 118.288C107.012 118.288 106.184 118.078 105.452 117.658C104.72 117.226 104.15 116.638 103.742 115.894C103.334 115.15 103.13 114.322 103.13 113.41C103.13 112.498 103.334 111.67 103.742 110.926C104.15 110.182 104.72 109.6 105.452 109.18C106.184 108.748 107.012 108.532 107.936 108.532C108.848 108.532 109.67 108.748 110.402 109.18C111.134 109.612 111.704 110.2 112.112 110.944C112.52 111.688 112.724 112.51 112.724 113.41C112.724 114.322 112.52 115.15 112.112 115.894C111.704 116.638 111.134 117.226 110.402 117.658C109.682 118.078 108.86 118.288 107.936 118.288ZM107.936 116.506C108.452 116.506 108.926 116.38 109.358 116.128C109.79 115.876 110.138 115.516 110.402 115.048C110.666 114.58 110.798 114.034 110.798 113.41C110.798 112.786 110.666 112.24 110.402 111.772C110.138 111.304 109.79 110.944 109.358 110.692C108.926 110.44 108.452 110.314 107.936 110.314C107.42 110.314 106.94 110.44 106.496 110.692C106.064 110.944 105.716 111.304 105.452 111.772C105.188 112.24 105.056 112.786 105.056 113.41C105.056 114.034 105.188 114.58 105.452 115.048C105.716 115.516 106.064 115.876 106.496 116.128C106.94 116.38 107.42 116.506 107.936 116.506ZM117.757 118.288C116.653 118.288 115.807 117.958 115.219 117.298C114.643 116.626 114.355 115.696 114.355 114.508V108.82H116.299V114.238C116.299 114.982 116.473 115.546 116.821 115.93C117.169 116.314 117.637 116.506 118.225 116.506C118.705 116.506 119.131 116.38 119.503 116.128C119.875 115.876 120.157 115.54 120.349 115.12C120.553 114.7 120.655 114.244 120.655 113.752V108.82H122.581V118H120.763V116.758H120.655C120.391 117.202 119.995 117.568 119.467 117.856C118.939 118.144 118.369 118.288 117.757 118.288ZM124.868 108.82H126.704V110.17H126.812C127.016 109.702 127.364 109.318 127.856 109.018C128.36 108.706 128.9 108.55 129.476 108.55C129.896 108.55 130.268 108.61 130.592 108.73V110.746C130.1 110.53 129.626 110.422 129.17 110.422C128.486 110.422 127.922 110.686 127.478 111.214C127.034 111.742 126.812 112.384 126.812 113.14V118H124.868V108.82ZM140.218 118.288C139.39 118.288 138.64 118.084 137.968 117.676C137.296 117.256 136.768 116.674 136.384 115.93C136 115.186 135.808 114.346 135.808 113.41C135.808 112.474 136 111.64 136.384 110.908C136.768 110.164 137.296 109.582 137.968 109.162C138.64 108.742 139.39 108.532 140.218 108.532C140.89 108.532 141.484 108.682 142 108.982C142.516 109.27 142.906 109.63 143.17 110.062H143.278L143.17 108.784V105.112H145.096V118H143.278V116.776H143.17C142.906 117.196 142.516 117.556 142 117.856C141.484 118.144 140.89 118.288 140.218 118.288ZM140.506 116.506C140.986 116.506 141.436 116.38 141.856 116.128C142.288 115.864 142.63 115.498 142.882 115.03C143.146 114.562 143.278 114.022 143.278 113.41C143.278 112.798 143.146 112.258 142.882 111.79C142.63 111.322 142.288 110.962 141.856 110.71C141.436 110.446 140.986 110.314 140.506 110.314C140.026 110.314 139.57 110.446 139.138 110.71C138.718 110.962 138.376 111.322 138.112 111.79C137.86 112.258 137.734 112.798 137.734 113.41C137.734 114.022 137.86 114.562 138.112 115.03C138.376 115.498 138.718 115.864 139.138 116.128C139.57 116.38 140.026 116.506 140.506 116.506ZM147.386 108.82H149.222V110.17H149.33C149.534 109.702 149.882 109.318 150.374 109.018C150.878 108.706 151.418 108.55 151.994 108.55C152.414 108.55 152.786 108.61 153.11 108.73V110.746C152.618 110.53 152.144 110.422 151.688 110.422C151.004 110.422 150.44 110.686 149.996 111.214C149.552 111.742 149.33 112.384 149.33 113.14V118H147.386V108.82ZM158.26 118.288C157.372 118.288 156.568 118.078 155.848 117.658C155.14 117.238 154.582 116.662 154.174 115.93C153.778 115.186 153.58 114.352 153.58 113.428C153.58 112.552 153.772 111.742 154.156 110.998C154.552 110.242 155.098 109.642 155.794 109.198C156.49 108.754 157.276 108.532 158.152 108.532C159.076 108.532 159.874 108.736 160.546 109.144C161.218 109.54 161.728 110.092 162.076 110.8C162.436 111.508 162.616 112.312 162.616 113.212C162.616 113.452 162.604 113.656 162.58 113.824H155.488C155.572 114.7 155.884 115.378 156.424 115.858C156.964 116.326 157.594 116.56 158.314 116.56C158.902 116.56 159.406 116.428 159.826 116.164C160.246 115.888 160.582 115.528 160.834 115.084L162.436 115.858C162.016 116.614 161.458 117.208 160.762 117.64C160.066 118.072 159.232 118.288 158.26 118.288ZM160.69 112.366C160.666 112.03 160.558 111.694 160.366 111.358C160.174 111.022 159.892 110.746 159.52 110.53C159.16 110.302 158.71 110.188 158.17 110.188C157.522 110.188 156.97 110.386 156.514 110.782C156.07 111.178 155.764 111.706 155.596 112.366H160.69ZM167.387 118.288C166.727 118.288 166.139 118.162 165.623 117.91C165.107 117.646 164.705 117.28 164.417 116.812C164.129 116.344 163.985 115.81 163.985 115.21C163.985 114.574 164.153 114.028 164.489 113.572C164.825 113.104 165.281 112.75 165.857 112.51C166.433 112.258 167.075 112.132 167.783 112.132C168.323 112.132 168.809 112.186 169.241 112.294C169.685 112.39 170.039 112.504 170.303 112.636V112.15C170.303 111.562 170.087 111.088 169.655 110.728C169.223 110.356 168.665 110.17 167.981 110.17C167.513 110.17 167.069 110.278 166.649 110.494C166.229 110.698 165.893 110.98 165.641 111.34L164.309 110.314C164.705 109.75 165.227 109.312 165.875 109C166.535 108.688 167.255 108.532 168.035 108.532C169.355 108.532 170.375 108.862 171.095 109.522C171.827 110.17 172.193 111.082 172.193 112.258V118H170.303V116.866H170.195C169.931 117.274 169.553 117.616 169.061 117.892C168.569 118.156 168.011 118.288 167.387 118.288ZM167.729 116.704C168.209 116.704 168.647 116.59 169.043 116.362C169.439 116.122 169.745 115.804 169.961 115.408C170.189 115.012 170.303 114.586 170.303 114.13C170.015 113.962 169.685 113.83 169.313 113.734C168.941 113.638 168.551 113.59 168.143 113.59C167.387 113.59 166.829 113.74 166.469 114.04C166.121 114.34 165.947 114.736 165.947 115.228C165.947 115.66 166.109 116.014 166.433 116.29C166.757 116.566 167.189 116.704 167.729 116.704ZM174.333 108.82H176.169V110.08H176.277C176.553 109.624 176.943 109.252 177.447 108.964C177.951 108.676 178.503 108.532 179.103 108.532C179.763 108.532 180.333 108.688 180.813 109C181.305 109.312 181.659 109.726 181.875 110.242C182.199 109.726 182.619 109.312 183.135 109C183.663 108.688 184.281 108.532 184.989 108.532C186.045 108.532 186.843 108.856 187.383 109.504C187.923 110.14 188.193 111.01 188.193 112.114V118H186.267V112.438C186.267 111.022 185.667 110.314 184.467 110.314C183.807 110.314 183.267 110.578 182.847 111.106C182.439 111.634 182.235 112.294 182.235 113.086V118H180.309V112.438C180.309 111.022 179.691 110.314 178.455 110.314C177.819 110.314 177.297 110.584 176.889 111.124C176.481 111.652 176.277 112.312 176.277 113.104V118H174.333V108.82ZM193.66 118.288C192.616 118.288 191.752 118.06 191.068 117.604C190.396 117.148 189.922 116.554 189.646 115.822L191.392 115.066C191.608 115.558 191.914 115.936 192.31 116.2C192.706 116.452 193.156 116.578 193.66 116.578C194.176 116.578 194.608 116.488 194.956 116.308C195.304 116.116 195.478 115.834 195.478 115.462C195.478 115.126 195.328 114.862 195.028 114.67C194.74 114.466 194.284 114.292 193.66 114.148L192.562 113.896C191.83 113.716 191.224 113.398 190.744 112.942C190.264 112.486 190.024 111.91 190.024 111.214C190.024 110.686 190.18 110.218 190.492 109.81C190.816 109.402 191.242 109.09 191.77 108.874C192.31 108.646 192.898 108.532 193.534 108.532C194.398 108.532 195.148 108.7 195.784 109.036C196.432 109.372 196.9 109.864 197.188 110.512L195.514 111.268C195.142 110.536 194.488 110.17 193.552 110.17C193.096 110.17 192.712 110.266 192.4 110.458C192.1 110.65 191.95 110.89 191.95 111.178C191.95 111.718 192.418 112.108 193.354 112.348L194.686 112.672C195.586 112.9 196.264 113.242 196.72 113.698C197.188 114.154 197.422 114.718 197.422 115.39C197.422 115.966 197.254 116.476 196.918 116.92C196.594 117.352 196.144 117.688 195.568 117.928C194.992 118.168 194.356 118.288 193.66 118.288ZM44.63 138.588L45.908 140.208L44.486 141.288L43.55 140.118C42.71 140.898 41.696 141.288 40.508 141.288C39.632 141.288 38.834 141.096 38.114 140.712C37.394 140.316 36.824 139.776 36.404 139.092C35.996 138.396 35.792 137.622 35.792 136.77C35.792 136.038 35.978 135.342 36.35 134.682C36.734 134.01 37.262 133.452 37.934 133.008C37.658 132.636 37.442 132.282 37.286 131.946C37.142 131.598 37.07 131.244 37.07 130.884C37.07 130.32 37.208 129.804 37.484 129.336C37.772 128.868 38.156 128.502 38.636 128.238C39.128 127.962 39.668 127.824 40.256 127.824C41.036 127.824 41.678 128.028 42.182 128.436C42.698 128.832 43.07 129.348 43.298 129.984L41.696 130.83C41.408 130.002 40.934 129.588 40.274 129.588C39.89 129.588 39.572 129.708 39.32 129.948C39.08 130.176 38.96 130.482 38.96 130.866C38.96 131.262 39.11 131.64 39.41 132L43.514 137.184L44.63 135.33L46.088 136.23L44.63 138.588ZM40.562 139.542C41.33 139.542 41.972 139.284 42.488 138.768L38.978 134.34C38.558 134.616 38.222 134.964 37.97 135.384C37.73 135.804 37.61 136.248 37.61 136.716C37.61 137.256 37.742 137.742 38.006 138.174C38.27 138.606 38.63 138.942 39.086 139.182C39.542 139.422 40.034 139.542 40.562 139.542ZM51.8647 131.82H53.7007V133.062H53.8087C54.0727 132.63 54.4627 132.27 54.9787 131.982C55.5067 131.682 56.1007 131.532 56.7607 131.532C57.5887 131.532 58.3387 131.742 59.0107 132.162C59.6827 132.582 60.2107 133.164 60.5947 133.908C60.9787 134.64 61.1707 135.474 61.1707 136.41C61.1707 137.346 60.9787 138.186 60.5947 138.93C60.2107 139.674 59.6827 140.256 59.0107 140.676C58.3387 141.084 57.5887 141.288 56.7607 141.288C56.1007 141.288 55.5067 141.144 54.9787 140.856C54.4627 140.556 54.0727 140.196 53.8087 139.776H53.7007L53.8087 141.054V144.888H51.8647V131.82ZM56.4727 139.506C56.9647 139.506 57.4207 139.38 57.8407 139.128C58.2727 138.864 58.6147 138.498 58.8667 138.03C59.1187 137.562 59.2447 137.022 59.2447 136.41C59.2447 135.798 59.1187 135.258 58.8667 134.79C58.6147 134.322 58.2727 133.962 57.8407 133.71C57.4207 133.446 56.9647 133.314 56.4727 133.314C55.9927 133.314 55.5367 133.446 55.1047 133.71C54.6847 133.962 54.3427 134.322 54.0787 134.79C53.8267 135.258 53.7007 135.798 53.7007 136.41C53.7007 137.022 53.8267 137.562 54.0787 138.03C54.3427 138.498 54.6847 138.864 55.1047 139.128C55.5367 139.38 55.9927 139.506 56.4727 139.506ZM65.8382 141.288C65.1782 141.288 64.5902 141.162 64.0742 140.91C63.5582 140.646 63.1562 140.28 62.8682 139.812C62.5802 139.344 62.4362 138.81 62.4362 138.21C62.4362 137.574 62.6042 137.028 62.9402 136.572C63.2762 136.104 63.7322 135.75 64.3082 135.51C64.8842 135.258 65.5262 135.132 66.2342 135.132C66.7742 135.132 67.2602 135.186 67.6922 135.294C68.1362 135.39 68.4902 135.504 68.7542 135.636V135.15C68.7542 134.562 68.5382 134.088 68.1062 133.728C67.6742 133.356 67.1162 133.17 66.4322 133.17C65.9642 133.17 65.5202 133.278 65.1002 133.494C64.6802 133.698 64.3442 133.98 64.0922 134.34L62.7602 133.314C63.1562 132.75 63.6782 132.312 64.3262 132C64.9862 131.688 65.7062 131.532 66.4862 131.532C67.8062 131.532 68.8262 131.862 69.5462 132.522C70.2782 133.17 70.6442 134.082 70.6442 135.258V141H68.7542V139.866H68.6462C68.3822 140.274 68.0042 140.616 67.5122 140.892C67.0202 141.156 66.4622 141.288 65.8382 141.288ZM66.1802 139.704C66.6602 139.704 67.0982 139.59 67.4942 139.362C67.8902 139.122 68.1962 138.804 68.4122 138.408C68.6402 138.012 68.7542 137.586 68.7542 137.13C68.4662 136.962 68.1362 136.83 67.7642 136.734C67.3922 136.638 67.0022 136.59 66.5942 136.59C65.8382 136.59 65.2802 136.74 64.9202 137.04C64.5722 137.34 64.3982 137.736 64.3982 138.228C64.3982 138.66 64.5602 139.014 64.8842 139.29C65.2082 139.566 65.6402 139.704 66.1802 139.704ZM76.0445 141.288C75.0005 141.288 74.1365 141.06 73.4525 140.604C72.7805 140.148 72.3065 139.554 72.0305 138.822L73.7765 138.066C73.9925 138.558 74.2985 138.936 74.6945 139.2C75.0905 139.452 75.5405 139.578 76.0445 139.578C76.5605 139.578 76.9925 139.488 77.3405 139.308C77.6885 139.116 77.8625 138.834 77.8625 138.462C77.8625 138.126 77.7125 137.862 77.4125 137.67C77.1245 137.466 76.6685 137.292 76.0445 137.148L74.9465 136.896C74.2145 136.716 73.6085 136.398 73.1285 135.942C72.6485 135.486 72.4085 134.91 72.4085 134.214C72.4085 133.686 72.5645 133.218 72.8765 132.81C73.2005 132.402 73.6265 132.09 74.1545 131.874C74.6945 131.646 75.2825 131.532 75.9185 131.532C76.7825 131.532 77.5325 131.7 78.1685 132.036C78.8165 132.372 79.2845 132.864 79.5725 133.512L77.8985 134.268C77.5265 133.536 76.8725 133.17 75.9365 133.17C75.4805 133.17 75.0965 133.266 74.7845 133.458C74.4845 133.65 74.3345 133.89 74.3345 134.178C74.3345 134.718 74.8025 135.108 75.7385 135.348L77.0705 135.672C77.9705 135.9 78.6485 136.242 79.1045 136.698C79.5725 137.154 79.8065 137.718 79.8065 138.39C79.8065 138.966 79.6385 139.476 79.3025 139.92C78.9785 140.352 78.5285 140.688 77.9525 140.928C77.3765 141.168 76.7405 141.288 76.0445 141.288ZM84.8511 141.288C83.8071 141.288 82.9431 141.06 82.2591 140.604C81.5871 140.148 81.1131 139.554 80.8371 138.822L82.5831 138.066C82.7991 138.558 83.1051 138.936 83.5011 139.2C83.8971 139.452 84.3471 139.578 84.8511 139.578C85.3671 139.578 85.7991 139.488 86.1471 139.308C86.4951 139.116 86.6691 138.834 86.6691 138.462C86.6691 138.126 86.5191 137.862 86.2191 137.67C85.9311 137.466 85.4751 137.292 84.8511 137.148L83.7531 136.896C83.0211 136.716 82.4151 136.398 81.9351 135.942C81.4551 135.486 81.2151 134.91 81.2151 134.214C81.2151 133.686 81.3711 133.218 81.6831 132.81C82.0071 132.402 82.4331 132.09 82.9611 131.874C83.5011 131.646 84.0891 131.532 84.7251 131.532C85.5891 131.532 86.3391 131.7 86.9751 132.036C87.6231 132.372 88.0911 132.864 88.3791 133.512L86.7051 134.268C86.3331 133.536 85.6791 133.17 84.7431 133.17C84.2871 133.17 83.9031 133.266 83.5911 133.458C83.2911 133.65 83.1411 133.89 83.1411 134.178C83.1411 134.718 83.6091 135.108 84.5451 135.348L85.8771 135.672C86.7771 135.9 87.4551 136.242 87.9111 136.698C88.3791 137.154 88.6131 137.718 88.6131 138.39C88.6131 138.966 88.4451 139.476 88.1091 139.92C87.7851 140.352 87.3351 140.688 86.7591 140.928C86.1831 141.168 85.5471 141.288 84.8511 141.288ZM91.3379 130.47C90.9779 130.47 90.6659 130.344 90.4019 130.092C90.1499 129.828 90.0239 129.516 90.0239 129.156C90.0239 128.796 90.1499 128.49 90.4019 128.238C90.6659 127.986 90.9779 127.86 91.3379 127.86C91.6979 127.86 92.0039 127.986 92.2559 128.238C92.5199 128.49 92.6519 128.796 92.6519 129.156C92.6519 129.516 92.5199 129.828 92.2559 130.092C92.0039 130.344 91.6979 130.47 91.3379 130.47ZM90.3659 131.82H92.3099V141H90.3659V131.82ZM98.954 141.288C98.03 141.288 97.202 141.078 96.47 140.658C95.738 140.226 95.168 139.638 94.76 138.894C94.352 138.15 94.148 137.322 94.148 136.41C94.148 135.498 94.352 134.67 94.76 133.926C95.168 133.182 95.738 132.6 96.47 132.18C97.202 131.748 98.03 131.532 98.954 131.532C99.866 131.532 100.688 131.748 101.42 132.18C102.152 132.612 102.722 133.2 103.13 133.944C103.538 134.688 103.742 135.51 103.742 136.41C103.742 137.322 103.538 138.15 103.13 138.894C102.722 139.638 102.152 140.226 101.42 140.658C100.7 141.078 99.878 141.288 98.954 141.288ZM98.954 139.506C99.47 139.506 99.944 139.38 100.376 139.128C100.808 138.876 101.156 138.516 101.42 138.048C101.684 137.58 101.816 137.034 101.816 136.41C101.816 135.786 101.684 135.24 101.42 134.772C101.156 134.304 100.808 133.944 100.376 133.692C99.944 133.44 99.47 133.314 98.954 133.314C98.438 133.314 97.958 133.44 97.514 133.692C97.082 133.944 96.734 134.304 96.47 134.772C96.206 135.24 96.074 135.786 96.074 136.41C96.074 137.034 96.206 137.58 96.47 138.048C96.734 138.516 97.082 138.876 97.514 139.128C97.958 139.38 98.438 139.506 98.954 139.506ZM105.357 131.82H107.193V133.08H107.301C107.565 132.624 107.961 132.252 108.489 131.964C109.017 131.676 109.587 131.532 110.199 131.532C111.303 131.532 112.143 131.862 112.719 132.522C113.295 133.17 113.583 134.064 113.583 135.204V141H111.657V135.456C111.657 134.736 111.477 134.202 111.117 133.854C110.757 133.494 110.265 133.314 109.641 133.314C109.185 133.314 108.777 133.44 108.417 133.692C108.069 133.944 107.793 134.28 107.589 134.7C107.397 135.12 107.301 135.576 107.301 136.068V141H105.357V131.82ZM119.058 141.288C118.014 141.288 117.15 141.06 116.466 140.604C115.794 140.148 115.32 139.554 115.044 138.822L116.79 138.066C117.006 138.558 117.312 138.936 117.708 139.2C118.104 139.452 118.554 139.578 119.058 139.578C119.574 139.578 120.006 139.488 120.354 139.308C120.702 139.116 120.876 138.834 120.876 138.462C120.876 138.126 120.726 137.862 120.426 137.67C120.138 137.466 119.682 137.292 119.058 137.148L117.96 136.896C117.228 136.716 116.622 136.398 116.142 135.942C115.662 135.486 115.422 134.91 115.422 134.214C115.422 133.686 115.578 133.218 115.89 132.81C116.214 132.402 116.64 132.09 117.168 131.874C117.708 131.646 118.296 131.532 118.932 131.532C119.796 131.532 120.546 131.7 121.182 132.036C121.83 132.372 122.298 132.864 122.586 133.512L120.912 134.268C120.54 133.536 119.886 133.17 118.95 133.17C118.494 133.17 118.11 133.266 117.798 133.458C117.498 133.65 117.348 133.89 117.348 134.178C117.348 134.718 117.816 135.108 118.752 135.348L120.084 135.672C120.984 135.9 121.662 136.242 122.118 136.698C122.586 137.154 122.82 137.718 122.82 138.39C122.82 138.966 122.652 139.476 122.316 139.92C121.992 140.352 121.542 140.688 120.966 140.928C120.39 141.168 119.754 141.288 119.058 141.288Z" fill="black"/>
<g filter="url(#filter1_d_5_805)">
<g clip-path="url(#clip1_5_805)">
<rect x="35" y="43" width="46" height="46" rx="23" fill="white" fill-opacity="0.2" shape-rendering="crispEdges"/>
<g filter="url(#filter2_d_5_805)">
<path d="M38 66C38 54.9543 46.9543 46 58 46C69.0457 46 78 54.9543 78 66C78 77.0457 69.0457 86 58 86C46.9543 86 38 77.0457 38 66Z" fill="#F3EFFF"/>
</g>
<path d="M69.6023 62.3381L58.3523 56.3381C58.2438 56.2803 58.1227 56.2501 57.9998 56.2501C57.8768 56.2501 57.7558 56.2803 57.6473 56.3381L46.3973 62.3381C46.2773 62.4021 46.1769 62.4974 46.1069 62.614C46.037 62.7306 46 62.864 46 63C46 63.136 46.037 63.2694 46.1069 63.386C46.1769 63.5026 46.2773 63.5979 46.3973 63.6619L48.9998 65.0503V69.5897C48.999 69.9581 49.1346 70.3137 49.3804 70.5881C50.6085 71.9559 53.3601 74.25 57.9998 74.25C59.5382 74.2627 61.065 73.9841 62.4998 73.4287V76.5C62.4998 76.6989 62.5788 76.8897 62.7194 77.0303C62.8601 77.171 63.0509 77.25 63.2498 77.25C63.4487 77.25 63.6394 77.171 63.7801 77.0303C63.9207 76.8897 63.9998 76.6989 63.9998 76.5V72.7041C64.9778 72.1395 65.8616 71.4256 66.6191 70.5881C66.865 70.3137 67.0005 69.9581 66.9998 69.5897V65.0503L69.6023 63.6619C69.7223 63.5979 69.8226 63.5026 69.8926 63.386C69.9626 63.2694 69.9995 63.136 69.9995 63C69.9995 62.864 69.9626 62.7306 69.8926 62.614C69.8226 62.4974 69.7223 62.4021 69.6023 62.3381ZM57.9998 72.75C53.9432 72.75 51.5573 70.7681 50.4998 69.5897V65.85L57.6473 69.6619C57.7558 69.7197 57.8768 69.7499 57.9998 69.7499C58.1227 69.7499 58.2438 69.7197 58.3523 69.6619L62.4998 67.4503V71.7947C61.3185 72.3459 59.8298 72.75 57.9998 72.75ZM65.4998 69.5859C65.0502 70.0848 64.5472 70.5328 63.9998 70.9219V66.6497L65.4998 65.85V69.5859ZM63.6248 65.1506L63.6041 65.1384L58.3541 62.3381C58.179 62.2487 57.9757 62.2316 57.7881 62.2906C57.6004 62.3496 57.4435 62.4799 57.351 62.6535C57.2586 62.8271 57.238 63.0301 57.2938 63.2187C57.3495 63.4073 57.4771 63.5665 57.6491 63.6619L62.031 66L57.9998 68.1497L48.3435 63L57.9998 57.8503L67.656 63L63.6248 65.1506Z" fill="#603AC8"/>
</g>
<rect x="35.25" y="43.25" width="45.5" height="45.5" rx="22.75" stroke="#603AC8" stroke-width="0.5" shape-rendering="crispEdges"/>
</g>
</g>
<path d="M18.5 26C18.5 21.8579 21.8579 18.5 26 18.5H251C255.142 18.5 258.5 21.8579 258.5 26V171C258.5 175.142 255.142 178.5 251 178.5H26C21.8579 178.5 18.5 175.142 18.5 171V26Z" stroke="#603AC8"/>
</g>
<defs>
<filter id="filter0_d_5_805" x="0" y="0" width="277" height="197" filterUnits="userSpaceOnUse" color-interpolation-filters="sRGB">
<feFlood flood-opacity="0" result="BackgroundImageFix"/>
<feColorMatrix in="SourceAlpha" type="matrix" values="0 0 0 0 0 0 0 0 0 0 0 0 0 0 0 0 0 0 127 0" result="hardAlpha"/>
<feOffset/>
<feGaussianBlur stdDeviation="9"/>
<feComposite in2="hardAlpha" operator="out"/>
<feColorMatrix type="matrix" values="0 0 0 0 0 0 0 0 0 0 0 0 0 0 0 0 0 0 0.08 0"/>
<feBlend mode="normal" in2="BackgroundImageFix" result="effect1_dropShadow_5_805"/>
<feBlend mode="normal" in="SourceGraphic" in2="effect1_dropShadow_5_805" result="shape"/>
</filter>
<filter id="filter1_d_5_805" x="31" y="39" width="54" height="54" filterUnits="userSpaceOnUse" color-interpolation-filters="sRGB">
<feFlood flood-opacity="0" result="BackgroundImageFix"/>
<feColorMatrix in="SourceAlpha" type="matrix" values="0 0 0 0 0 0 0 0 0 0 0 0 0 0 0 0 0 0 127 0" result="hardAlpha"/>
<feOffset/>
<feGaussianBlur stdDeviation="2"/>
<feComposite in2="hardAlpha" operator="out"/>
<feColorMatrix type="matrix" values="0 0 0 0 0 0 0 0 0 0 0 0 0 0 0 0 0 0 0.08 0"/>
<feBlend mode="normal" in2="BackgroundImageFix" result="effect1_dropShadow_5_805"/>
<feBlend mode="normal" in="SourceGraphic" in2="effect1_dropShadow_5_805" result="shape"/>
</filter>
<filter id="filter2_d_5_805" x="26" y="34" width="64" height="64" filterUnits="userSpaceOnUse" color-interpolation-filters="sRGB">
<feFlood flood-opacity="0" result="BackgroundImageFix"/>
<feColorMatrix in="SourceAlpha" type="matrix" values="0 0 0 0 0 0 0 0 0 0 0 0 0 0 0 0 0 0 127 0" result="hardAlpha"/>
<feOffset/>
<feGaussianBlur stdDeviation="6"/>
<feComposite in2="hardAlpha" operator="out"/>
<feColorMatrix type="matrix" values="0 0 0 0 0 0 0 0 0 0 0 0 0 0 0 0 0 0 0.15 0"/>
<feBlend mode="normal" in2="BackgroundImageFix" result="effect1_dropShadow_5_805"/>
<feBlend mode="normal" in="SourceGraphic" in2="effect1_dropShadow_5_805" result="shape"/>
</filter>
<clipPath id="clip0_5_805">
<path d="M18 26C18 21.5817 21.5817 18 26 18H251C255.418 18 259 21.5817 259 26V171C259 175.418 255.418 179 251 179H26C21.5817 179 18 175.418 18 171V26Z" fill="white"/>
</clipPath>
<clipPath id="clip1_5_805">
<rect x="35" y="43" width="46" height="46" rx="23" fill="white"/>
</clipPath>
</defs>
</svg>
