<svg width="395" height="406" viewBox="0 0 395 406" fill="none" xmlns="http://www.w3.org/2000/svg">
<g filter="url(#filter0_d_5_1569)">
<rect x="24" y="24" width="347" height="358" rx="12" fill="white" fill-opacity="0.1" shape-rendering="crispEdges"/>
<rect x="24.25" y="24.25" width="346.5" height="357.5" rx="11.75" stroke="#603AC8" stroke-width="0.5" shape-rendering="crispEdges"/>
<rect x="35" y="38" width="325" height="325" rx="12" fill="white"/>
<path d="M61.4998 67.4287C62.0171 67.2249 62.5185 66.9827 62.9998 66.7041V70.5C62.9998 70.6989 62.9207 70.8897 62.7801 71.0303C62.6394 71.171 62.4487 71.25 62.2498 71.25C62.0509 71.25 61.8601 71.171 61.7194 71.0303C61.5788 70.8897 61.4998 70.6989 61.4998 70.5V67.4287ZM62.6023 59.1384L57.3523 56.3381C57.1771 56.2487 56.9738 56.2316 56.7862 56.2906C56.5985 56.3496 56.4416 56.4799 56.3491 56.6535C56.2567 56.8271 56.2361 57.0301 56.2919 57.2187C56.3476 57.4073 56.4753 57.5665 56.6473 57.6619L61.031 60L62.6248 59.1506L62.6023 59.1384ZM68.6023 56.3381L57.3523 50.3381C57.2438 50.2803 57.1227 50.2501 56.9998 50.2501C56.8768 50.2501 56.7558 50.2803 56.6473 50.3381L45.3973 56.3381C45.2773 56.4021 45.1769 56.4974 45.1069 56.614C45.037 56.7306 45 56.864 45 57C45 57.136 45.037 57.2694 45.1069 57.386C45.1769 57.5026 45.2773 57.5979 45.3973 57.6619L47.9998 59.0503V63.5897C47.999 63.9581 48.1346 64.3137 48.3804 64.5881C49.6085 65.9559 52.3601 68.25 56.9998 68.25C58.5382 68.2627 60.065 67.9841 61.4998 67.4287V60.2503L61.031 60L56.9998 62.1497L49.1088 57.9375L47.3435 57L56.9998 51.8503L66.656 57L64.8954 57.9375H64.8898L62.6248 59.1506C62.7388 59.2165 62.8335 59.3112 62.8993 59.4252C62.9652 59.5393 62.9998 59.6686 62.9998 59.8003V66.7041C63.9778 66.1395 64.8616 65.4256 65.6191 64.5881C65.865 64.3137 66.0005 63.9581 65.9998 63.5897V59.0503L68.6023 57.6619C68.7223 57.5979 68.8226 57.5026 68.8926 57.386C68.9626 57.2694 68.9995 57.136 68.9995 57C68.9995 56.864 68.9626 56.7306 68.8926 56.614C68.8226 56.4974 68.7223 56.4021 68.6023 56.3381Z" fill="#603AC8"/>
<path d="M82.16 58.688L79.688 60.488L78.104 58.064L82.928 54.584H85.304V71H82.16V58.688ZM92.5663 58.688L90.0943 60.488L88.5103 58.064L93.3343 54.584H95.7103V71H92.5663V58.688ZM104.677 71.192C104.069 71.192 103.509 71.104 102.997 70.928C102.485 70.736 102.069 70.48 101.749 70.16C100.997 69.44 100.621 68.416 100.621 67.088V61.448H98.4845V58.76H100.621V55.304H103.765V58.76H106.765V61.448H103.765V66.512C103.765 67.136 103.901 67.584 104.173 67.856C104.397 68.112 104.781 68.24 105.325 68.24C105.629 68.24 105.877 68.2 106.069 68.12C106.277 68.04 106.541 67.904 106.861 67.712V70.784C106.173 71.056 105.445 71.192 104.677 71.192ZM109.497 53.816H112.641V58.16L112.449 60.296H112.641C112.993 59.72 113.505 59.256 114.177 58.904C114.849 58.552 115.577 58.376 116.361 58.376C117.849 58.376 118.985 58.824 119.769 59.72C120.569 60.6 120.969 61.824 120.969 63.392V71H117.825V63.776C117.825 62.992 117.609 62.384 117.177 61.952C116.761 61.52 116.201 61.304 115.497 61.304C114.665 61.304 113.977 61.64 113.433 62.312C112.905 62.984 112.641 63.808 112.641 64.784V71H109.497V53.816ZM135.199 76.568C133.647 76.568 132.359 76.216 131.335 75.512C130.311 74.824 129.623 73.992 129.271 73.016L132.223 71.816C132.479 72.424 132.871 72.904 133.399 73.256C133.927 73.608 134.527 73.784 135.199 73.784C136.191 73.784 136.975 73.48 137.551 72.872C138.143 72.264 138.439 71.4 138.439 70.28V69.32H138.247C137.863 69.864 137.359 70.28 136.735 70.568C136.111 70.856 135.399 71 134.599 71C133.591 71 132.647 70.744 131.767 70.232C130.903 69.704 130.207 68.968 129.679 68.024C129.151 67.064 128.887 65.952 128.887 64.688C128.887 63.424 129.151 62.32 129.679 61.376C130.207 60.416 130.903 59.68 131.767 59.168C132.647 58.64 133.591 58.376 134.599 58.376C135.399 58.376 136.111 58.52 136.735 58.808C137.359 59.096 137.863 59.512 138.247 60.056H138.439V58.76H141.463V70.16C141.463 71.472 141.207 72.608 140.695 73.568C140.183 74.528 139.455 75.264 138.511 75.776C137.567 76.304 136.463 76.568 135.199 76.568ZM135.247 68.144C136.127 68.144 136.879 67.84 137.503 67.232C138.127 66.608 138.439 65.76 138.439 64.688C138.439 63.584 138.127 62.736 137.503 62.144C136.895 61.536 136.143 61.232 135.247 61.232C134.351 61.232 133.591 61.536 132.967 62.144C132.343 62.752 132.031 63.6 132.031 64.688C132.031 65.776 132.343 66.624 132.967 67.232C133.591 67.84 134.351 68.144 135.247 68.144ZM144.536 58.76H147.488V60.392H147.68C147.984 59.816 148.456 59.344 149.096 58.976C149.736 58.592 150.44 58.4 151.208 58.4C151.768 58.4 152.28 58.488 152.744 58.664V61.808C152.312 61.648 151.944 61.536 151.64 61.472C151.352 61.392 151.04 61.352 150.704 61.352C149.776 61.352 149.04 61.688 148.496 62.36C147.952 63.032 147.68 63.88 147.68 64.904V71H144.536V58.76ZM158.147 71.384C156.851 71.384 155.787 71.008 154.955 70.256C154.123 69.488 153.707 68.488 153.707 67.256C153.707 66.44 153.923 65.72 154.355 65.096C154.787 64.472 155.379 63.992 156.131 63.656C156.883 63.32 157.715 63.152 158.627 63.152C159.891 63.152 160.971 63.336 161.867 63.704V63.176C161.867 62.504 161.611 61.96 161.099 61.544C160.603 61.128 159.931 60.92 159.083 60.92C158.507 60.92 157.947 61.056 157.403 61.328C156.875 61.584 156.435 61.928 156.083 62.36L154.067 60.776C154.659 60.008 155.403 59.416 156.299 59C157.195 58.584 158.171 58.376 159.227 58.376C161.099 58.376 162.523 58.808 163.499 59.672C164.475 60.536 164.963 61.8 164.963 63.464V71H161.867V69.752H161.675C161.307 70.232 160.819 70.624 160.211 70.928C159.619 71.232 158.931 71.384 158.147 71.384ZM158.891 68.936C159.803 68.936 160.523 68.648 161.051 68.072C161.595 67.48 161.867 66.792 161.867 66.008C161.051 65.624 160.195 65.432 159.299 65.432C157.667 65.432 156.851 66.04 156.851 67.256C156.851 67.752 157.027 68.16 157.379 68.48C157.731 68.784 158.235 68.936 158.891 68.936ZM172.995 71.384C171.891 71.384 170.883 71.112 169.971 70.568C169.075 70.008 168.363 69.24 167.835 68.264C167.323 67.272 167.067 66.144 167.067 64.88C167.067 63.632 167.323 62.512 167.835 61.52C168.363 60.528 169.075 59.76 169.971 59.216C170.883 58.656 171.891 58.376 172.995 58.376C173.827 58.376 174.563 58.56 175.203 58.928C175.843 59.28 176.331 59.72 176.667 60.248H176.859L176.667 58.52V53.816H179.787V71H176.859V69.536H176.667C176.347 70.064 175.859 70.504 175.203 70.856C174.563 71.208 173.827 71.384 172.995 71.384ZM173.523 68.48C174.115 68.48 174.667 68.328 175.179 68.024C175.691 67.72 176.099 67.296 176.403 66.752C176.707 66.208 176.859 65.584 176.859 64.88C176.859 64.176 176.707 63.552 176.403 63.008C176.099 62.464 175.691 62.048 175.179 61.76C174.667 61.456 174.115 61.304 173.523 61.304C172.947 61.304 172.403 61.456 171.891 61.76C171.379 62.048 170.971 62.464 170.667 63.008C170.363 63.552 170.211 64.176 170.211 64.88C170.211 65.584 170.363 66.208 170.667 66.752C170.971 67.296 171.379 67.72 171.891 68.024C172.403 68.328 172.947 68.48 173.523 68.48ZM188.499 71.384C187.283 71.384 186.187 71.104 185.211 70.544C184.235 69.984 183.467 69.216 182.907 68.24C182.363 67.248 182.091 66.136 182.091 64.904C182.091 63.736 182.363 62.656 182.907 61.664C183.451 60.656 184.203 59.856 185.163 59.264C186.123 58.672 187.195 58.376 188.379 58.376C189.643 58.376 190.731 58.648 191.643 59.192C192.555 59.736 193.243 60.48 193.707 61.424C194.187 62.368 194.427 63.416 194.427 64.568C194.427 64.936 194.403 65.288 194.355 65.624H185.163C185.323 66.6 185.707 67.344 186.315 67.856C186.939 68.352 187.683 68.6 188.547 68.6C189.267 68.6 189.883 68.448 190.395 68.144C190.923 67.824 191.339 67.4 191.643 66.872L194.187 68.12C192.939 70.296 191.043 71.384 188.499 71.384ZM191.403 63.392C191.371 63.008 191.227 62.632 190.971 62.264C190.731 61.88 190.387 61.568 189.939 61.328C189.507 61.072 188.995 60.944 188.403 60.944C187.651 60.944 187.003 61.168 186.459 61.616C185.931 62.048 185.547 62.64 185.307 63.392H191.403Z" fill="#603AC8"/>
<path d="M46.458 95.112H50.976C51.756 95.112 52.458 95.28 53.082 95.616C53.718 95.952 54.216 96.42 54.576 97.02C54.948 97.62 55.134 98.298 55.134 99.054C55.134 99.918 54.852 100.686 54.288 101.358C53.736 102.018 53.04 102.462 52.2 102.69L52.182 102.78L55.728 107.892V108H53.442L50.004 102.942H48.438V108H46.458V95.112ZM50.922 101.124C51.546 101.124 52.068 100.926 52.488 100.53C52.92 100.134 53.136 99.636 53.136 99.036C53.136 98.484 52.938 98.004 52.542 97.596C52.158 97.176 51.642 96.966 50.994 96.966H48.438V101.124H50.922ZM61.1385 108.288C60.2505 108.288 59.4465 108.078 58.7265 107.658C58.0185 107.238 57.4605 106.662 57.0525 105.93C56.6565 105.186 56.4585 104.352 56.4585 103.428C56.4585 102.552 56.6505 101.742 57.0345 100.998C57.4305 100.242 57.9765 99.642 58.6725 99.198C59.3685 98.754 60.1545 98.532 61.0305 98.532C61.9545 98.532 62.7525 98.736 63.4245 99.144C64.0965 99.54 64.6065 100.092 64.9545 100.8C65.3145 101.508 65.4945 102.312 65.4945 103.212C65.4945 103.452 65.4825 103.656 65.4585 103.824H58.3665C58.4505 104.7 58.7625 105.378 59.3025 105.858C59.8425 106.326 60.4725 106.56 61.1925 106.56C61.7805 106.56 62.2845 106.428 62.7045 106.164C63.1245 105.888 63.4605 105.528 63.7125 105.084L65.3145 105.858C64.8945 106.614 64.3365 107.208 63.6405 107.64C62.9445 108.072 62.1105 108.288 61.1385 108.288ZM63.5685 102.366C63.5445 102.03 63.4365 101.694 63.2445 101.358C63.0525 101.022 62.7705 100.746 62.3985 100.53C62.0385 100.302 61.5885 100.188 61.0485 100.188C60.4005 100.188 59.8485 100.386 59.3925 100.782C58.9485 101.178 58.6425 101.706 58.4745 102.366H63.5685ZM71.526 112.176C70.41 112.176 69.48 111.918 68.736 111.402C68.004 110.898 67.512 110.286 67.26 109.566L69.06 108.81C69.252 109.302 69.564 109.698 69.996 109.998C70.44 110.298 70.95 110.448 71.526 110.448C72.378 110.448 73.044 110.196 73.524 109.692C74.004 109.188 74.244 108.474 74.244 107.55V106.668H74.136C73.836 107.112 73.434 107.46 72.93 107.712C72.426 107.964 71.85 108.09 71.202 108.09C70.422 108.09 69.702 107.892 69.042 107.496C68.394 107.1 67.872 106.542 67.476 105.822C67.092 105.09 66.9 104.256 66.9 103.32C66.9 102.384 67.092 101.556 67.476 100.836C67.872 100.104 68.394 99.54 69.042 99.144C69.702 98.736 70.422 98.532 71.202 98.532C71.838 98.532 72.408 98.664 72.912 98.928C73.428 99.18 73.836 99.528 74.136 99.972H74.244V98.82H76.098V107.514C76.098 108.498 75.906 109.338 75.522 110.034C75.138 110.742 74.598 111.276 73.902 111.636C73.218 111.996 72.426 112.176 71.526 112.176ZM71.544 106.326C72.036 106.326 72.486 106.206 72.894 105.966C73.302 105.726 73.626 105.384 73.866 104.94C74.118 104.484 74.244 103.944 74.244 103.32C74.244 102.684 74.118 102.138 73.866 101.682C73.626 101.226 73.302 100.884 72.894 100.656C72.486 100.416 72.036 100.296 71.544 100.296C71.052 100.296 70.596 100.416 70.176 100.656C69.768 100.884 69.438 101.226 69.186 101.682C68.946 102.138 68.826 102.684 68.826 103.32C68.826 103.944 68.946 104.484 69.186 104.94C69.438 105.396 69.768 105.744 70.176 105.984C70.596 106.212 71.052 106.326 71.544 106.326ZM81.6144 108.288C80.5104 108.288 79.6644 107.958 79.0764 107.298C78.5004 106.626 78.2124 105.696 78.2124 104.508V98.82H80.1564V104.238C80.1564 104.982 80.3304 105.546 80.6784 105.93C81.0264 106.314 81.4944 106.506 82.0824 106.506C82.5624 106.506 82.9884 106.38 83.3604 106.128C83.7324 105.876 84.0144 105.54 84.2064 105.12C84.4104 104.7 84.5124 104.244 84.5124 103.752V98.82H86.4384V108H84.6204V106.758H84.5124C84.2484 107.202 83.8524 107.568 83.3244 107.856C82.7964 108.144 82.2264 108.288 81.6144 108.288ZM88.7258 95.112H90.6698V108H88.7258V95.112ZM95.7542 108.288C95.0942 108.288 94.5062 108.162 93.9902 107.91C93.4742 107.646 93.0722 107.28 92.7842 106.812C92.4962 106.344 92.3522 105.81 92.3522 105.21C92.3522 104.574 92.5202 104.028 92.8562 103.572C93.1922 103.104 93.6482 102.75 94.2242 102.51C94.8002 102.258 95.4422 102.132 96.1502 102.132C96.6902 102.132 97.1762 102.186 97.6082 102.294C98.0522 102.39 98.4062 102.504 98.6702 102.636V102.15C98.6702 101.562 98.4542 101.088 98.0222 100.728C97.5902 100.356 97.0322 100.17 96.3482 100.17C95.8802 100.17 95.4362 100.278 95.0162 100.494C94.5962 100.698 94.2602 100.98 94.0082 101.34L92.6762 100.314C93.0722 99.75 93.5942 99.312 94.2422 99C94.9022 98.688 95.6222 98.532 96.4022 98.532C97.7222 98.532 98.7422 98.862 99.4622 99.522C100.194 100.17 100.56 101.082 100.56 102.258V108H98.6702V106.866H98.5622C98.2982 107.274 97.9202 107.616 97.4282 107.892C96.9362 108.156 96.3782 108.288 95.7542 108.288ZM96.0962 106.704C96.5762 106.704 97.0142 106.59 97.4102 106.362C97.8062 106.122 98.1122 105.804 98.3282 105.408C98.5562 105.012 98.6702 104.586 98.6702 104.13C98.3822 103.962 98.0522 103.83 97.6802 103.734C97.3082 103.638 96.9182 103.59 96.5102 103.59C95.7542 103.59 95.1962 103.74 94.8362 104.04C94.4882 104.34 94.3142 104.736 94.3142 105.228C94.3142 105.66 94.4762 106.014 94.8002 106.29C95.1242 106.566 95.5562 106.704 96.0962 106.704ZM102.7 98.82H104.536V100.17H104.644C104.848 99.702 105.196 99.318 105.688 99.018C106.192 98.706 106.732 98.55 107.308 98.55C107.728 98.55 108.1 98.61 108.424 98.73V100.746C107.932 100.53 107.458 100.422 107.002 100.422C106.318 100.422 105.754 100.686 105.31 101.214C104.866 101.742 104.644 102.384 104.644 103.14V108H102.7V98.82ZM117.888 108.144C117.48 108.144 117.096 108.084 116.736 107.964C116.388 107.832 116.1 107.652 115.872 107.424C115.356 106.932 115.098 106.236 115.098 105.336V100.512H113.496V98.82H115.098V96.228H117.042V98.82H119.292V100.512H117.042V104.922C117.042 105.426 117.138 105.78 117.33 105.984C117.534 106.212 117.846 106.326 118.266 106.326C118.482 106.326 118.668 106.302 118.824 106.254C118.98 106.194 119.154 106.104 119.346 105.984V107.874C118.938 108.054 118.452 108.144 117.888 108.144ZM121.175 98.82H123.011V100.17H123.119C123.323 99.702 123.671 99.318 124.163 99.018C124.667 98.706 125.207 98.55 125.783 98.55C126.203 98.55 126.575 98.61 126.899 98.73V100.746C126.407 100.53 125.933 100.422 125.477 100.422C124.793 100.422 124.229 100.686 123.785 101.214C123.341 101.742 123.119 102.384 123.119 103.14V108H121.175V98.82ZM130.963 108.288C130.303 108.288 129.715 108.162 129.199 107.91C128.683 107.646 128.281 107.28 127.993 106.812C127.705 106.344 127.561 105.81 127.561 105.21C127.561 104.574 127.729 104.028 128.065 103.572C128.401 103.104 128.857 102.75 129.433 102.51C130.009 102.258 130.651 102.132 131.359 102.132C131.899 102.132 132.385 102.186 132.817 102.294C133.261 102.39 133.615 102.504 133.879 102.636V102.15C133.879 101.562 133.663 101.088 133.231 100.728C132.799 100.356 132.241 100.17 131.557 100.17C131.089 100.17 130.645 100.278 130.225 100.494C129.805 100.698 129.469 100.98 129.217 101.34L127.885 100.314C128.281 99.75 128.803 99.312 129.451 99C130.111 98.688 130.831 98.532 131.611 98.532C132.931 98.532 133.951 98.862 134.671 99.522C135.403 100.17 135.769 101.082 135.769 102.258V108H133.879V106.866H133.771C133.507 107.274 133.129 107.616 132.637 107.892C132.145 108.156 131.587 108.288 130.963 108.288ZM131.305 106.704C131.785 106.704 132.223 106.59 132.619 106.362C133.015 106.122 133.321 105.804 133.537 105.408C133.765 105.012 133.879 104.586 133.879 104.13C133.591 103.962 133.261 103.83 132.889 103.734C132.517 103.638 132.127 103.59 131.719 103.59C130.963 103.59 130.405 103.74 130.045 104.04C129.697 104.34 129.523 104.736 129.523 105.228C129.523 105.66 129.685 106.014 130.009 106.29C130.333 106.566 130.765 106.704 131.305 106.704ZM142.07 108.288C141.158 108.288 140.342 108.078 139.622 107.658C138.902 107.238 138.338 106.662 137.93 105.93C137.534 105.186 137.336 104.346 137.336 103.41C137.336 102.474 137.534 101.64 137.93 100.908C138.338 100.164 138.902 99.582 139.622 99.162C140.342 98.742 141.158 98.532 142.07 98.532C143.078 98.532 143.93 98.76 144.626 99.216C145.334 99.66 145.844 100.278 146.156 101.07L144.392 101.79C143.96 100.806 143.174 100.314 142.034 100.314C141.53 100.314 141.062 100.446 140.63 100.71C140.21 100.962 139.874 101.322 139.622 101.79C139.382 102.258 139.262 102.798 139.262 103.41C139.262 104.022 139.382 104.562 139.622 105.03C139.874 105.498 140.21 105.864 140.63 106.128C141.062 106.38 141.53 106.506 142.034 106.506C142.61 106.506 143.102 106.38 143.51 106.128C143.93 105.864 144.254 105.486 144.482 104.994L146.228 105.75C145.868 106.53 145.334 107.148 144.626 107.604C143.918 108.06 143.066 108.288 142.07 108.288ZM147.876 95.112H149.82V102.672H149.892L153.708 98.82H156.12V98.928L152.574 102.456L156.246 107.892V108H153.942L151.206 103.788L149.82 105.174V108H147.876V95.112Z" fill="#8F8F8F"/>
<rect width="305" height="1" transform="translate(45 122)" fill="#E9E3E3"/>
<g filter="url(#filter1_d_5_1569)">
<path d="M45 145C45 142.791 46.7909 141 49 141H125C127.209 141 129 142.791 129 145V172C129 174.209 127.209 176 125 176H49C46.7909 176 45 174.209 45 172V145Z" fill="white"/>
<path d="M45.25 145C45.25 142.929 46.9289 141.25 49 141.25H125C127.071 141.25 128.75 142.929 128.75 145V172C128.75 174.071 127.071 175.75 125 175.75H49C46.9289 175.75 45.25 174.071 45.25 172V145Z" stroke="#603AC8" stroke-width="0.5"/>
<path d="M58.2 152.26H64.41V153.475H59.475V157.03H63.93V158.23H59.475V161.785H64.41V163H58.2V152.26ZM66.0602 155.35H67.2752V156.475H67.3352C67.5452 156.095 67.8802 155.775 68.3402 155.515C68.8002 155.245 69.2902 155.11 69.8102 155.11C70.7302 155.11 71.4302 155.38 71.9102 155.92C72.4002 156.45 72.6452 157.175 72.6452 158.095V163H71.3702V158.29C71.3702 157.58 71.2002 157.065 70.8602 156.745C70.5202 156.425 70.0552 156.265 69.4652 156.265C69.0552 156.265 68.6852 156.38 68.3552 156.61C68.0352 156.84 67.7852 157.145 67.6052 157.525C67.4252 157.895 67.3352 158.285 67.3352 158.695V163H66.0602V155.35ZM77.7552 166.48C76.8552 166.48 76.1102 166.27 75.5202 165.85C74.9402 165.43 74.5502 164.925 74.3502 164.335L75.5202 163.84C75.6802 164.28 75.9552 164.635 76.3452 164.905C76.7452 165.185 77.2152 165.325 77.7552 165.325C78.5452 165.325 79.1552 165.095 79.5852 164.635C80.0252 164.175 80.2452 163.525 80.2452 162.685V161.83H80.1852C79.9352 162.22 79.5802 162.54 79.1202 162.79C78.6702 163.03 78.1552 163.15 77.5752 163.15C76.9152 163.15 76.3102 162.98 75.7602 162.64C75.2202 162.3 74.7902 161.825 74.4702 161.215C74.1502 160.605 73.9902 159.91 73.9902 159.13C73.9902 158.36 74.1502 157.67 74.4702 157.06C74.7902 156.44 75.2202 155.96 75.7602 155.62C76.3102 155.28 76.9152 155.11 77.5752 155.11C78.1552 155.11 78.6702 155.235 79.1202 155.485C79.5802 155.725 79.9352 156.045 80.1852 156.445H80.2452V155.35H81.4602V162.7C81.4602 163.93 81.1202 164.865 80.4402 165.505C79.7602 166.155 78.8652 166.48 77.7552 166.48ZM77.7552 161.995C78.2152 161.995 78.6302 161.88 79.0002 161.65C79.3802 161.42 79.6802 161.09 79.9002 160.66C80.1302 160.23 80.2452 159.72 80.2452 159.13C80.2452 158.53 80.1302 158.015 79.9002 157.585C79.6802 157.155 79.3802 156.83 79.0002 156.61C78.6302 156.38 78.2152 156.265 77.7552 156.265C77.2952 156.265 76.8752 156.38 76.4952 156.61C76.1152 156.84 75.8102 157.17 75.5802 157.6C75.3602 158.03 75.2502 158.54 75.2502 159.13C75.2502 159.72 75.3602 160.235 75.5802 160.675C75.8102 161.105 76.1152 161.435 76.4952 161.665C76.8752 161.885 77.2952 161.995 77.7552 161.995ZM83.3454 152.26H84.6204V163H83.3454V152.26ZM87.2595 153.94C87.0095 153.94 86.7945 153.85 86.6145 153.67C86.4345 153.49 86.3445 153.275 86.3445 153.025C86.3445 152.765 86.4345 152.55 86.6145 152.38C86.7945 152.2 87.0095 152.11 87.2595 152.11C87.5195 152.11 87.7345 152.2 87.9045 152.38C88.0845 152.55 88.1745 152.765 88.1745 153.025C88.1745 153.275 88.0845 153.49 87.9045 153.67C87.7345 153.85 87.5195 153.94 87.2595 153.94ZM86.6295 155.35H87.9045V163H86.6295V155.35ZM92.5632 163.24C91.7432 163.24 91.0582 163.05 90.5082 162.67C89.9582 162.28 89.5682 161.785 89.3382 161.185L90.4782 160.675C90.6682 161.135 90.9482 161.49 91.3182 161.74C91.6982 161.99 92.1132 162.115 92.5632 162.115C93.0432 162.115 93.4532 162.02 93.7932 161.83C94.1332 161.63 94.3032 161.35 94.3032 160.99C94.3032 160.67 94.1682 160.415 93.8982 160.225C93.6282 160.025 93.2032 159.855 92.6232 159.715L91.6932 159.475C91.0832 159.325 90.5832 159.07 90.1932 158.71C89.8032 158.35 89.6082 157.885 89.6082 157.315C89.6082 156.875 89.7382 156.49 89.9982 156.16C90.2682 155.82 90.6232 155.56 91.0632 155.38C91.5032 155.2 91.9782 155.11 92.4882 155.11C93.1582 155.11 93.7532 155.255 94.2732 155.545C94.8032 155.835 95.1782 156.24 95.3982 156.76L94.2882 157.27C93.9482 156.59 93.3432 156.25 92.4732 156.25C92.0532 156.25 91.6832 156.35 91.3632 156.55C91.0532 156.74 90.8982 156.985 90.8982 157.285C90.8982 157.565 91.0082 157.795 91.2282 157.975C91.4482 158.145 91.7782 158.285 92.2182 158.395L93.3282 158.68C94.0782 158.87 94.6432 159.155 95.0232 159.535C95.4032 159.905 95.5932 160.36 95.5932 160.9C95.5932 161.37 95.4582 161.785 95.1882 162.145C94.9182 162.495 94.5532 162.765 94.0932 162.955C93.6332 163.145 93.1232 163.24 92.5632 163.24ZM96.9831 152.26H98.2581V155.425L98.1981 156.475H98.2581C98.4681 156.085 98.7981 155.76 99.2481 155.5C99.7081 155.24 100.208 155.11 100.748 155.11C101.678 155.11 102.388 155.385 102.878 155.935C103.368 156.475 103.613 157.195 103.613 158.095V163H102.338V158.29C102.338 157.6 102.163 157.09 101.813 156.76C101.463 156.43 101.008 156.265 100.448 156.265C100.048 156.265 99.6781 156.385 99.3381 156.625C99.0081 156.865 98.7431 157.175 98.5431 157.555C98.3531 157.935 98.2581 158.33 98.2581 158.74V163H96.9831V152.26ZM111.906 163.24C111.476 163.24 111.036 163.15 110.586 162.97C110.136 162.79 109.726 162.51 109.356 162.13C108.996 161.74 108.736 161.255 108.576 160.675L109.731 160.195C109.891 160.775 110.161 161.225 110.541 161.545C110.931 161.865 111.386 162.025 111.906 162.025C112.286 162.025 112.641 161.945 112.971 161.785C113.301 161.615 113.561 161.385 113.751 161.095C113.951 160.795 114.051 160.465 114.051 160.105C114.051 159.755 113.951 159.435 113.751 159.145C113.561 158.855 113.296 158.63 112.956 158.47C112.626 158.3 112.261 158.215 111.861 158.215H110.976V157.03H111.771C112.321 157.03 112.781 156.875 113.151 156.565C113.521 156.245 113.706 155.825 113.706 155.305C113.706 154.825 113.526 154.44 113.166 154.15C112.806 153.86 112.361 153.715 111.831 153.715C111.311 153.715 110.901 153.85 110.601 154.12C110.311 154.39 110.101 154.72 109.971 155.11L108.801 154.615C108.981 154.075 109.326 153.59 109.836 153.16C110.356 152.72 111.021 152.5 111.831 152.5C112.431 152.5 112.971 152.62 113.451 152.86C113.931 153.1 114.306 153.435 114.576 153.865C114.856 154.295 114.996 154.775 114.996 155.305C114.996 155.835 114.861 156.285 114.591 156.655C114.321 157.025 113.986 157.315 113.586 157.525V157.585C114.096 157.795 114.516 158.12 114.846 158.56C115.176 158.99 115.341 159.5 115.341 160.09C115.341 160.69 115.186 161.23 114.876 161.71C114.576 162.19 114.161 162.565 113.631 162.835C113.111 163.105 112.536 163.24 111.906 163.24Z" fill="#212121"/>
</g>
<g filter="url(#filter2_d_5_1569)">
<rect x="141" y="141" width="163" height="35" rx="4" fill="white"/>
<rect x="141.25" y="141.25" width="162.5" height="34.5" rx="3.75" stroke="#603AC8" stroke-width="0.5"/>
<path d="M157.89 163.24C157.12 163.24 156.435 163.065 155.835 162.715C155.235 162.355 154.77 161.86 154.44 161.23C154.11 160.59 153.945 159.855 153.945 159.025V152.26H155.22V159.085C155.22 159.955 155.45 160.665 155.91 161.215C156.37 161.755 157.03 162.025 157.89 162.025C158.75 162.025 159.41 161.755 159.87 161.215C160.34 160.665 160.575 159.955 160.575 159.085V152.26H161.85V159.025C161.85 159.855 161.69 160.59 161.37 161.23C161.06 161.87 160.605 162.365 160.005 162.715C159.405 163.065 158.7 163.24 157.89 163.24ZM163.745 155.35H164.96V156.475H165.02C165.23 156.095 165.565 155.775 166.025 155.515C166.485 155.245 166.975 155.11 167.495 155.11C168.415 155.11 169.115 155.38 169.595 155.92C170.085 156.45 170.33 157.175 170.33 158.095V163H169.055V158.29C169.055 157.58 168.885 157.065 168.545 156.745C168.205 156.425 167.74 156.265 167.15 156.265C166.74 156.265 166.37 156.38 166.04 156.61C165.72 156.84 165.47 157.145 165.29 157.525C165.11 157.895 165.02 158.285 165.02 158.695V163H163.745V155.35ZM172.903 153.94C172.653 153.94 172.438 153.85 172.258 153.67C172.078 153.49 171.988 153.275 171.988 153.025C171.988 152.765 172.078 152.55 172.258 152.38C172.438 152.2 172.653 152.11 172.903 152.11C173.163 152.11 173.378 152.2 173.548 152.38C173.728 152.55 173.818 152.765 173.818 153.025C173.818 153.275 173.728 153.49 173.548 153.67C173.378 153.85 173.163 153.94 172.903 153.94ZM172.273 155.35H173.548V163H172.273V155.35ZM178.404 163.12C178.094 163.12 177.804 163.07 177.534 162.97C177.274 162.87 177.054 162.735 176.874 162.565C176.474 162.185 176.274 161.66 176.274 160.99V156.505H174.939V155.35H176.274V153.19H177.549V155.35H179.424V156.505H177.549V160.675C177.549 161.095 177.629 161.405 177.789 161.605C177.979 161.825 178.254 161.935 178.614 161.935C178.924 161.935 179.204 161.85 179.454 161.68V162.925C179.304 162.995 179.149 163.045 178.989 163.075C178.839 163.105 178.644 163.12 178.404 163.12ZM184.025 163.24C183.295 163.24 182.64 163.065 182.06 162.715C181.48 162.365 181.025 161.885 180.695 161.275C180.375 160.655 180.215 159.96 180.215 159.19C180.215 158.46 180.365 157.785 180.665 157.165C180.975 156.535 181.41 156.035 181.97 155.665C182.54 155.295 183.19 155.11 183.92 155.11C184.67 155.11 185.32 155.28 185.87 155.62C186.42 155.95 186.84 156.41 187.13 157C187.43 157.59 187.58 158.265 187.58 159.025C187.58 159.145 187.57 159.275 187.55 159.415H181.49C181.52 159.995 181.66 160.485 181.91 160.885C182.16 161.285 182.475 161.585 182.855 161.785C183.245 161.985 183.65 162.085 184.07 162.085C185.07 162.085 185.825 161.625 186.335 160.705L187.415 161.23C187.095 161.84 186.65 162.33 186.08 162.7C185.51 163.06 184.825 163.24 184.025 163.24ZM186.23 158.365C186.21 158.045 186.12 157.725 185.96 157.405C185.8 157.085 185.55 156.815 185.21 156.595C184.87 156.375 184.44 156.265 183.92 156.265C183.32 156.265 182.81 156.46 182.39 156.85C181.97 157.23 181.695 157.735 181.565 158.365H186.23ZM192.4 163.24C191.71 163.24 191.085 163.065 190.525 162.715C189.975 162.365 189.54 161.885 189.22 161.275C188.9 160.655 188.74 159.955 188.74 159.175C188.74 158.405 188.9 157.71 189.22 157.09C189.54 156.47 189.975 155.985 190.525 155.635C191.085 155.285 191.71 155.11 192.4 155.11C192.98 155.11 193.5 155.245 193.96 155.515C194.42 155.775 194.77 156.1 195.01 156.49H195.07L195.01 155.425V152.26H196.285V163H195.07V161.875H195.01C194.77 162.255 194.42 162.58 193.96 162.85C193.5 163.11 192.98 163.24 192.4 163.24ZM192.535 162.085C192.985 162.085 193.4 161.965 193.78 161.725C194.17 161.485 194.48 161.145 194.71 160.705C194.95 160.265 195.07 159.755 195.07 159.175C195.07 158.595 194.95 158.085 194.71 157.645C194.48 157.205 194.17 156.865 193.78 156.625C193.4 156.385 192.985 156.265 192.535 156.265C192.095 156.265 191.68 156.385 191.29 156.625C190.9 156.865 190.585 157.21 190.345 157.66C190.115 158.1 190 158.605 190 159.175C190 159.745 190.115 160.255 190.345 160.705C190.585 161.145 190.9 161.485 191.29 161.725C191.68 161.965 192.095 162.085 192.535 162.085ZM204.325 163.24C203.505 163.24 202.82 163.05 202.27 162.67C201.72 162.28 201.33 161.785 201.1 161.185L202.24 160.675C202.43 161.135 202.71 161.49 203.08 161.74C203.46 161.99 203.875 162.115 204.325 162.115C204.805 162.115 205.215 162.02 205.555 161.83C205.895 161.63 206.065 161.35 206.065 160.99C206.065 160.67 205.93 160.415 205.66 160.225C205.39 160.025 204.965 159.855 204.385 159.715L203.455 159.475C202.845 159.325 202.345 159.07 201.955 158.71C201.565 158.35 201.37 157.885 201.37 157.315C201.37 156.875 201.5 156.49 201.76 156.16C202.03 155.82 202.385 155.56 202.825 155.38C203.265 155.2 203.74 155.11 204.25 155.11C204.92 155.11 205.515 155.255 206.035 155.545C206.565 155.835 206.94 156.24 207.16 156.76L206.05 157.27C205.71 156.59 205.105 156.25 204.235 156.25C203.815 156.25 203.445 156.35 203.125 156.55C202.815 156.74 202.66 156.985 202.66 157.285C202.66 157.565 202.77 157.795 202.99 157.975C203.21 158.145 203.54 158.285 203.98 158.395L205.09 158.68C205.84 158.87 206.405 159.155 206.785 159.535C207.165 159.905 207.355 160.36 207.355 160.9C207.355 161.37 207.22 161.785 206.95 162.145C206.68 162.495 206.315 162.765 205.855 162.955C205.395 163.145 204.885 163.24 204.325 163.24ZM211.612 163.12C211.302 163.12 211.012 163.07 210.742 162.97C210.482 162.87 210.262 162.735 210.082 162.565C209.682 162.185 209.482 161.66 209.482 160.99V156.505H208.147V155.35H209.482V153.19H210.757V155.35H212.632V156.505H210.757V160.675C210.757 161.095 210.837 161.405 210.997 161.605C211.187 161.825 211.462 161.935 211.822 161.935C212.132 161.935 212.412 161.85 212.662 161.68V162.925C212.512 162.995 212.357 163.045 212.197 163.075C212.047 163.105 211.852 163.12 211.612 163.12ZM216.463 163.24C215.903 163.24 215.403 163.13 214.963 162.91C214.523 162.69 214.183 162.39 213.943 162.01C213.703 161.62 213.583 161.18 213.583 160.69C213.583 159.88 213.888 159.25 214.498 158.8C215.108 158.34 215.878 158.11 216.808 158.11C217.268 158.11 217.693 158.16 218.083 158.26C218.483 158.36 218.788 158.475 218.998 158.605V158.14C218.998 157.57 218.798 157.115 218.398 156.775C217.998 156.425 217.493 156.25 216.883 156.25C216.463 156.25 216.068 156.345 215.698 156.535C215.338 156.715 215.053 156.97 214.843 157.3L213.883 156.58C214.183 156.12 214.598 155.76 215.128 155.5C215.658 155.24 216.243 155.11 216.883 155.11C217.923 155.11 218.738 155.385 219.328 155.935C219.918 156.475 220.213 157.215 220.213 158.155V163H218.998V161.905H218.938C218.718 162.275 218.388 162.59 217.948 162.85C217.508 163.11 217.013 163.24 216.463 163.24ZM216.583 162.115C217.013 162.115 217.413 162.005 217.783 161.785C218.153 161.565 218.448 161.27 218.668 160.9C218.888 160.53 218.998 160.125 218.998 159.685C218.758 159.525 218.463 159.395 218.113 159.295C217.763 159.195 217.393 159.145 217.003 159.145C216.303 159.145 215.773 159.29 215.413 159.58C215.063 159.87 214.888 160.245 214.888 160.705C214.888 161.125 215.048 161.465 215.368 161.725C215.688 161.985 216.093 162.115 216.583 162.115ZM224.781 163.12C224.471 163.12 224.181 163.07 223.911 162.97C223.651 162.87 223.431 162.735 223.251 162.565C222.851 162.185 222.651 161.66 222.651 160.99V156.505H221.316V155.35H222.651V153.19H223.926V155.35H225.801V156.505H223.926V160.675C223.926 161.095 224.006 161.405 224.166 161.605C224.356 161.825 224.631 161.935 224.991 161.935C225.301 161.935 225.581 161.85 225.831 161.68V162.925C225.681 162.995 225.526 163.045 225.366 163.075C225.216 163.105 225.021 163.12 224.781 163.12ZM230.402 163.24C229.672 163.24 229.017 163.065 228.437 162.715C227.857 162.365 227.402 161.885 227.072 161.275C226.752 160.655 226.592 159.96 226.592 159.19C226.592 158.46 226.742 157.785 227.042 157.165C227.352 156.535 227.787 156.035 228.347 155.665C228.917 155.295 229.567 155.11 230.297 155.11C231.047 155.11 231.697 155.28 232.247 155.62C232.797 155.95 233.217 156.41 233.507 157C233.807 157.59 233.957 158.265 233.957 159.025C233.957 159.145 233.947 159.275 233.927 159.415H227.867C227.897 159.995 228.037 160.485 228.287 160.885C228.537 161.285 228.852 161.585 229.232 161.785C229.622 161.985 230.027 162.085 230.447 162.085C231.447 162.085 232.202 161.625 232.712 160.705L233.792 161.23C233.472 161.84 233.027 162.33 232.457 162.7C231.887 163.06 231.202 163.24 230.402 163.24ZM232.607 158.365C232.587 158.045 232.497 157.725 232.337 157.405C232.177 157.085 231.927 156.815 231.587 156.595C231.247 156.375 230.817 156.265 230.297 156.265C229.697 156.265 229.187 156.46 228.767 156.85C228.347 157.23 228.072 157.735 227.942 158.365H232.607ZM238.192 163.24C237.372 163.24 236.687 163.05 236.137 162.67C235.587 162.28 235.197 161.785 234.967 161.185L236.107 160.675C236.297 161.135 236.577 161.49 236.947 161.74C237.327 161.99 237.742 162.115 238.192 162.115C238.672 162.115 239.082 162.02 239.422 161.83C239.762 161.63 239.932 161.35 239.932 160.99C239.932 160.67 239.797 160.415 239.527 160.225C239.257 160.025 238.832 159.855 238.252 159.715L237.322 159.475C236.712 159.325 236.212 159.07 235.822 158.71C235.432 158.35 235.237 157.885 235.237 157.315C235.237 156.875 235.367 156.49 235.627 156.16C235.897 155.82 236.252 155.56 236.692 155.38C237.132 155.2 237.607 155.11 238.117 155.11C238.787 155.11 239.382 155.255 239.902 155.545C240.432 155.835 240.807 156.24 241.027 156.76L239.917 157.27C239.577 156.59 238.972 156.25 238.102 156.25C237.682 156.25 237.312 156.35 236.992 156.55C236.682 156.74 236.527 156.985 236.527 157.285C236.527 157.565 236.637 157.795 236.857 157.975C237.077 158.145 237.407 158.285 237.847 158.395L238.957 158.68C239.707 158.87 240.272 159.155 240.652 159.535C241.032 159.905 241.222 160.36 241.222 160.9C241.222 161.37 241.087 161.785 240.817 162.145C240.547 162.495 240.182 162.765 239.722 162.955C239.262 163.145 238.752 163.24 238.192 163.24ZM246.098 152.26H247.373V155.425L247.313 156.475H247.373C247.583 156.085 247.913 155.76 248.363 155.5C248.823 155.24 249.323 155.11 249.863 155.11C250.793 155.11 251.503 155.385 251.993 155.935C252.483 156.475 252.728 157.195 252.728 158.095V163H251.453V158.29C251.453 157.6 251.278 157.09 250.928 156.76C250.578 156.43 250.123 156.265 249.563 156.265C249.163 156.265 248.793 156.385 248.453 156.625C248.123 156.865 247.858 157.175 247.658 157.555C247.468 157.935 247.373 158.33 247.373 158.74V163H246.098V152.26ZM255.315 153.94C255.065 153.94 254.85 153.85 254.67 153.67C254.49 153.49 254.4 153.275 254.4 153.025C254.4 152.765 254.49 152.55 254.67 152.38C254.85 152.2 255.065 152.11 255.315 152.11C255.575 152.11 255.79 152.2 255.96 152.38C256.14 152.55 256.23 152.765 256.23 153.025C256.23 153.275 256.14 153.49 255.96 153.67C255.79 153.85 255.575 153.94 255.315 153.94ZM254.685 155.35H255.96V163H254.685V155.35ZM260.619 163.24C259.799 163.24 259.114 163.05 258.564 162.67C258.014 162.28 257.624 161.785 257.394 161.185L258.534 160.675C258.724 161.135 259.004 161.49 259.374 161.74C259.754 161.99 260.169 162.115 260.619 162.115C261.099 162.115 261.509 162.02 261.849 161.83C262.189 161.63 262.359 161.35 262.359 160.99C262.359 160.67 262.224 160.415 261.954 160.225C261.684 160.025 261.259 159.855 260.679 159.715L259.749 159.475C259.139 159.325 258.639 159.07 258.249 158.71C257.859 158.35 257.664 157.885 257.664 157.315C257.664 156.875 257.794 156.49 258.054 156.16C258.324 155.82 258.679 155.56 259.119 155.38C259.559 155.2 260.034 155.11 260.544 155.11C261.214 155.11 261.809 155.255 262.329 155.545C262.859 155.835 263.234 156.24 263.454 156.76L262.344 157.27C262.004 156.59 261.399 156.25 260.529 156.25C260.109 156.25 259.739 156.35 259.419 156.55C259.109 156.74 258.954 156.985 258.954 157.285C258.954 157.565 259.064 157.795 259.284 157.975C259.504 158.145 259.834 158.285 260.274 158.395L261.384 158.68C262.134 158.87 262.699 159.155 263.079 159.535C263.459 159.905 263.649 160.36 263.649 160.9C263.649 161.37 263.514 161.785 263.244 162.145C262.974 162.495 262.609 162.765 262.149 162.955C261.689 163.145 261.179 163.24 260.619 163.24ZM267.906 163.12C267.596 163.12 267.306 163.07 267.036 162.97C266.776 162.87 266.556 162.735 266.376 162.565C265.976 162.185 265.776 161.66 265.776 160.99V156.505H264.441V155.35H265.776V153.19H267.051V155.35H268.926V156.505H267.051V160.675C267.051 161.095 267.131 161.405 267.291 161.605C267.481 161.825 267.756 161.935 268.116 161.935C268.426 161.935 268.706 161.85 268.956 161.68V162.925C268.806 162.995 268.651 163.045 268.491 163.075C268.341 163.105 268.146 163.12 267.906 163.12ZM273.647 163.24C272.897 163.24 272.222 163.06 271.622 162.7C271.022 162.34 270.552 161.85 270.212 161.23C269.882 160.61 269.717 159.925 269.717 159.175C269.717 158.425 269.882 157.74 270.212 157.12C270.552 156.5 271.022 156.01 271.622 155.65C272.222 155.29 272.897 155.11 273.647 155.11C274.397 155.11 275.072 155.29 275.672 155.65C276.272 156.01 276.737 156.5 277.067 157.12C277.407 157.74 277.577 158.425 277.577 159.175C277.577 159.925 277.407 160.61 277.067 161.23C276.737 161.85 276.272 162.34 275.672 162.7C275.072 163.06 274.397 163.24 273.647 163.24ZM273.647 162.085C274.117 162.085 274.552 161.97 274.952 161.74C275.362 161.5 275.687 161.16 275.927 160.72C276.177 160.28 276.302 159.765 276.302 159.175C276.302 158.585 276.177 158.07 275.927 157.63C275.687 157.19 275.362 156.855 274.952 156.625C274.552 156.385 274.117 156.265 273.647 156.265C273.177 156.265 272.737 156.385 272.327 156.625C271.917 156.855 271.587 157.19 271.337 157.63C271.097 158.07 270.977 158.585 270.977 159.175C270.977 159.765 271.097 160.28 271.337 160.72C271.587 161.16 271.917 161.5 272.327 161.74C272.737 161.97 273.177 162.085 273.647 162.085ZM278.911 155.35H280.126V156.58H280.186C280.336 156.16 280.626 155.815 281.056 155.545C281.486 155.265 281.936 155.125 282.406 155.125C282.756 155.125 283.056 155.175 283.306 155.275V156.655C282.986 156.495 282.626 156.415 282.226 156.415C281.856 156.415 281.516 156.52 281.206 156.73C280.896 156.94 280.646 157.225 280.456 157.585C280.276 157.935 280.186 158.315 280.186 158.725V163H278.911V155.35ZM287.213 162.52L284.048 155.35H285.428L287.828 161.035H287.858L290.168 155.35H291.548L286.823 166.24H285.503L287.213 162.52Z" fill="#212121"/>
</g>
<g filter="url(#filter3_d_5_1569)">
<path d="M45 192C45 189.791 46.7909 188 49 188H130C132.209 188 134 189.791 134 192V219C134 221.209 132.209 223 130 223H49C46.7909 223 45 221.209 45 219V192Z" fill="white"/>
<path d="M45.25 192C45.25 189.929 46.9289 188.25 49 188.25H130C132.071 188.25 133.75 189.929 133.75 192V219C133.75 221.071 132.071 222.75 130 222.75H49C46.9289 222.75 45.25 221.071 45.25 219V192Z" stroke="#603AC8" stroke-width="0.5"/>
<path d="M61.305 199.26H62.745L66.825 210H65.43L64.35 207.045H59.7L58.62 210H57.225L61.305 199.26ZM63.915 205.845L62.475 201.975L62.055 200.82H61.995L61.575 201.975L60.135 205.845H63.915ZM67.9938 199.26H69.2688V210H67.9938V199.26ZM74.4446 213.48C73.5446 213.48 72.7996 213.27 72.2096 212.85C71.6296 212.43 71.2396 211.925 71.0396 211.335L72.2096 210.84C72.3696 211.28 72.6446 211.635 73.0346 211.905C73.4346 212.185 73.9046 212.325 74.4446 212.325C75.2346 212.325 75.8446 212.095 76.2746 211.635C76.7146 211.175 76.9346 210.525 76.9346 209.685V208.83H76.8746C76.6246 209.22 76.2696 209.54 75.8096 209.79C75.3596 210.03 74.8446 210.15 74.2646 210.15C73.6046 210.15 72.9996 209.98 72.4496 209.64C71.9096 209.3 71.4796 208.825 71.1596 208.215C70.8396 207.605 70.6796 206.91 70.6796 206.13C70.6796 205.36 70.8396 204.67 71.1596 204.06C71.4796 203.44 71.9096 202.96 72.4496 202.62C72.9996 202.28 73.6046 202.11 74.2646 202.11C74.8446 202.11 75.3596 202.235 75.8096 202.485C76.2696 202.725 76.6246 203.045 76.8746 203.445H76.9346V202.35H78.1496V209.7C78.1496 210.93 77.8096 211.865 77.1296 212.505C76.4496 213.155 75.5546 213.48 74.4446 213.48ZM74.4446 208.995C74.9046 208.995 75.3196 208.88 75.6896 208.65C76.0696 208.42 76.3696 208.09 76.5896 207.66C76.8196 207.23 76.9346 206.72 76.9346 206.13C76.9346 205.53 76.8196 205.015 76.5896 204.585C76.3696 204.155 76.0696 203.83 75.6896 203.61C75.3196 203.38 74.9046 203.265 74.4446 203.265C73.9846 203.265 73.5646 203.38 73.1846 203.61C72.8046 203.84 72.4996 204.17 72.2696 204.6C72.0496 205.03 71.9396 205.54 71.9396 206.13C71.9396 206.72 72.0496 207.235 72.2696 207.675C72.4996 208.105 72.8046 208.435 73.1846 208.665C73.5646 208.885 73.9846 208.995 74.4446 208.995ZM83.3666 210.24C82.6366 210.24 81.9816 210.065 81.4016 209.715C80.8216 209.365 80.3666 208.885 80.0366 208.275C79.7166 207.655 79.5566 206.96 79.5566 206.19C79.5566 205.46 79.7066 204.785 80.0066 204.165C80.3166 203.535 80.7516 203.035 81.3116 202.665C81.8816 202.295 82.5316 202.11 83.2616 202.11C84.0116 202.11 84.6616 202.28 85.2116 202.62C85.7616 202.95 86.1816 203.41 86.4716 204C86.7716 204.59 86.9216 205.265 86.9216 206.025C86.9216 206.145 86.9116 206.275 86.8916 206.415H80.8316C80.8616 206.995 81.0016 207.485 81.2516 207.885C81.5016 208.285 81.8166 208.585 82.1966 208.785C82.5866 208.985 82.9916 209.085 83.4116 209.085C84.4116 209.085 85.1666 208.625 85.6766 207.705L86.7566 208.23C86.4366 208.84 85.9916 209.33 85.4216 209.7C84.8516 210.06 84.1666 210.24 83.3666 210.24ZM85.5716 205.365C85.5516 205.045 85.4616 204.725 85.3016 204.405C85.1416 204.085 84.8916 203.815 84.5516 203.595C84.2116 203.375 83.7816 203.265 83.2616 203.265C82.6616 203.265 82.1516 203.46 81.7316 203.85C81.3116 204.23 81.0366 204.735 80.9066 205.365H85.5716ZM92.2988 210.24C91.7188 210.24 91.1938 210.11 90.7238 209.85C90.2638 209.58 89.9188 209.255 89.6888 208.875H89.6288V210H88.4138V199.26H89.6888V202.425L89.6288 203.49H89.6888C89.9188 203.1 90.2638 202.775 90.7238 202.515C91.1938 202.245 91.7188 202.11 92.2988 202.11C92.9888 202.11 93.6088 202.285 94.1588 202.635C94.7188 202.985 95.1588 203.47 95.4788 204.09C95.7988 204.71 95.9588 205.405 95.9588 206.175C95.9588 206.955 95.7988 207.655 95.4788 208.275C95.1588 208.885 94.7188 209.365 94.1588 209.715C93.6088 210.065 92.9888 210.24 92.2988 210.24ZM92.1638 209.085C92.6038 209.085 93.0188 208.965 93.4088 208.725C93.7988 208.485 94.1088 208.145 94.3388 207.705C94.5688 207.265 94.6838 206.755 94.6838 206.175C94.6838 205.595 94.5688 205.085 94.3388 204.645C94.1088 204.205 93.7988 203.865 93.4088 203.625C93.0188 203.385 92.6038 203.265 92.1638 203.265C91.7138 203.265 91.2938 203.385 90.9038 203.625C90.5238 203.865 90.2138 204.205 89.9738 204.645C89.7438 205.085 89.6288 205.595 89.6288 206.175C89.6288 206.755 89.7438 207.265 89.9738 207.705C90.2138 208.145 90.5238 208.485 90.9038 208.725C91.2938 208.965 91.7138 209.085 92.1638 209.085ZM97.2907 202.35H98.5057V203.58H98.5657C98.7157 203.16 99.0057 202.815 99.4357 202.545C99.8657 202.265 100.316 202.125 100.786 202.125C101.136 202.125 101.436 202.175 101.686 202.275V203.655C101.366 203.495 101.006 203.415 100.606 203.415C100.236 203.415 99.8957 203.52 99.5857 203.73C99.2757 203.94 99.0257 204.225 98.8357 204.585C98.6557 204.935 98.5657 205.315 98.5657 205.725V210H97.2907V202.35ZM105.068 210.24C104.508 210.24 104.008 210.13 103.568 209.91C103.128 209.69 102.788 209.39 102.548 209.01C102.308 208.62 102.188 208.18 102.188 207.69C102.188 206.88 102.493 206.25 103.103 205.8C103.713 205.34 104.483 205.11 105.413 205.11C105.873 205.11 106.298 205.16 106.688 205.26C107.088 205.36 107.393 205.475 107.603 205.605V205.14C107.603 204.57 107.403 204.115 107.003 203.775C106.603 203.425 106.098 203.25 105.488 203.25C105.068 203.25 104.673 203.345 104.303 203.535C103.943 203.715 103.658 203.97 103.448 204.3L102.488 203.58C102.788 203.12 103.203 202.76 103.733 202.5C104.263 202.24 104.848 202.11 105.488 202.11C106.528 202.11 107.343 202.385 107.933 202.935C108.523 203.475 108.818 204.215 108.818 205.155V210H107.603V208.905H107.543C107.323 209.275 106.993 209.59 106.553 209.85C106.113 210.11 105.618 210.24 105.068 210.24ZM105.188 209.115C105.618 209.115 106.018 209.005 106.388 208.785C106.758 208.565 107.053 208.27 107.273 207.9C107.493 207.53 107.603 207.125 107.603 206.685C107.363 206.525 107.068 206.395 106.718 206.295C106.368 206.195 105.998 206.145 105.608 206.145C104.908 206.145 104.378 206.29 104.018 206.58C103.668 206.87 103.493 207.245 103.493 207.705C103.493 208.125 103.653 208.465 103.973 208.725C104.293 208.985 104.698 209.115 105.188 209.115ZM113.808 208.725C115.768 206.755 117.023 205.47 117.573 204.87C118.083 204.32 118.428 203.89 118.608 203.58C118.788 203.27 118.878 202.895 118.878 202.455C118.878 202.165 118.803 201.885 118.653 201.615C118.503 201.345 118.278 201.13 117.978 200.97C117.688 200.8 117.338 200.715 116.928 200.715C116.388 200.715 115.953 200.875 115.623 201.195C115.293 201.505 115.078 201.845 114.978 202.215L113.823 201.75C113.913 201.43 114.088 201.1 114.348 200.76C114.608 200.41 114.958 200.115 115.398 199.875C115.838 199.625 116.358 199.5 116.958 199.5C117.588 199.5 118.143 199.635 118.623 199.905C119.113 200.175 119.493 200.535 119.763 200.985C120.033 201.435 120.168 201.92 120.168 202.44C120.168 203.49 119.618 204.575 118.518 205.695L115.443 208.785H120.288V210H113.808V208.725Z" fill="#212121"/>
</g>
<g filter="url(#filter4_d_5_1569)">
<path d="M146 192C146 189.791 147.791 188 150 188H272C274.209 188 276 189.791 276 192V219C276 221.209 274.209 223 272 223H150C147.791 223 146 221.209 146 219V192Z" fill="white"/>
<path d="M146.25 192C146.25 189.929 147.929 188.25 150 188.25H272C274.071 188.25 275.75 189.929 275.75 192V219C275.75 221.071 274.071 222.75 272 222.75H150C147.929 222.75 146.25 221.071 146.25 219V192Z" stroke="#603AC8" stroke-width="0.5"/>
<path d="M158.255 199.26H159.665L161.615 207.15L161.795 207.885H161.855L162.08 207.15L164.48 199.26H165.8L168.095 207.15L168.32 207.885H168.38L170.495 199.26H171.905L169.01 210H167.69L165.41 202.23L165.17 201.39H165.11L164.855 202.23L162.485 210H161.165L158.255 199.26ZM175.785 210.24C175.035 210.24 174.36 210.06 173.76 209.7C173.16 209.34 172.69 208.85 172.35 208.23C172.02 207.61 171.855 206.925 171.855 206.175C171.855 205.425 172.02 204.74 172.35 204.12C172.69 203.5 173.16 203.01 173.76 202.65C174.36 202.29 175.035 202.11 175.785 202.11C176.535 202.11 177.21 202.29 177.81 202.65C178.41 203.01 178.875 203.5 179.205 204.12C179.545 204.74 179.715 205.425 179.715 206.175C179.715 206.925 179.545 207.61 179.205 208.23C178.875 208.85 178.41 209.34 177.81 209.7C177.21 210.06 176.535 210.24 175.785 210.24ZM175.785 209.085C176.255 209.085 176.69 208.97 177.09 208.74C177.5 208.5 177.825 208.16 178.065 207.72C178.315 207.28 178.44 206.765 178.44 206.175C178.44 205.585 178.315 205.07 178.065 204.63C177.825 204.19 177.5 203.855 177.09 203.625C176.69 203.385 176.255 203.265 175.785 203.265C175.315 203.265 174.875 203.385 174.465 203.625C174.055 203.855 173.725 204.19 173.475 204.63C173.235 205.07 173.115 205.585 173.115 206.175C173.115 206.765 173.235 207.28 173.475 207.72C173.725 208.16 174.055 208.5 174.465 208.74C174.875 208.97 175.315 209.085 175.785 209.085ZM181.049 202.35H182.264V203.58H182.324C182.474 203.16 182.764 202.815 183.194 202.545C183.624 202.265 184.074 202.125 184.544 202.125C184.894 202.125 185.194 202.175 185.444 202.275V203.655C185.124 203.495 184.764 203.415 184.364 203.415C183.994 203.415 183.654 203.52 183.344 203.73C183.034 203.94 182.784 204.225 182.594 204.585C182.414 204.935 182.324 205.315 182.324 205.725V210H181.049V202.35ZM186.748 199.26H188.023V210H186.748V199.26ZM193.094 210.24C192.404 210.24 191.779 210.065 191.219 209.715C190.669 209.365 190.234 208.885 189.914 208.275C189.594 207.655 189.434 206.955 189.434 206.175C189.434 205.405 189.594 204.71 189.914 204.09C190.234 203.47 190.669 202.985 191.219 202.635C191.779 202.285 192.404 202.11 193.094 202.11C193.674 202.11 194.194 202.245 194.654 202.515C195.114 202.775 195.464 203.1 195.704 203.49H195.764L195.704 202.425V199.26H196.979V210H195.764V208.875H195.704C195.464 209.255 195.114 209.58 194.654 209.85C194.194 210.11 193.674 210.24 193.094 210.24ZM193.229 209.085C193.679 209.085 194.094 208.965 194.474 208.725C194.864 208.485 195.174 208.145 195.404 207.705C195.644 207.265 195.764 206.755 195.764 206.175C195.764 205.595 195.644 205.085 195.404 204.645C195.174 204.205 194.864 203.865 194.474 203.625C194.094 203.385 193.679 203.265 193.229 203.265C192.789 203.265 192.374 203.385 191.984 203.625C191.594 203.865 191.279 204.21 191.039 204.66C190.809 205.1 190.694 205.605 190.694 206.175C190.694 206.745 190.809 207.255 191.039 207.705C191.279 208.145 191.594 208.485 191.984 208.725C192.374 208.965 192.789 209.085 193.229 209.085ZM202.348 199.26H203.623V210H202.348V199.26ZM207.884 210.24C207.324 210.24 206.824 210.13 206.384 209.91C205.944 209.69 205.604 209.39 205.364 209.01C205.124 208.62 205.004 208.18 205.004 207.69C205.004 206.88 205.309 206.25 205.919 205.8C206.529 205.34 207.299 205.11 208.229 205.11C208.689 205.11 209.114 205.16 209.504 205.26C209.904 205.36 210.209 205.475 210.419 205.605V205.14C210.419 204.57 210.219 204.115 209.819 203.775C209.419 203.425 208.914 203.25 208.304 203.25C207.884 203.25 207.489 203.345 207.119 203.535C206.759 203.715 206.474 203.97 206.264 204.3L205.304 203.58C205.604 203.12 206.019 202.76 206.549 202.5C207.079 202.24 207.664 202.11 208.304 202.11C209.344 202.11 210.159 202.385 210.749 202.935C211.339 203.475 211.634 204.215 211.634 205.155V210H210.419V208.905H210.359C210.139 209.275 209.809 209.59 209.369 209.85C208.929 210.11 208.434 210.24 207.884 210.24ZM208.004 209.115C208.434 209.115 208.834 209.005 209.204 208.785C209.574 208.565 209.869 208.27 210.089 207.9C210.309 207.53 210.419 207.125 210.419 206.685C210.179 206.525 209.884 206.395 209.534 206.295C209.184 206.195 208.814 206.145 208.424 206.145C207.724 206.145 207.194 206.29 206.834 206.58C206.484 206.87 206.309 207.245 206.309 207.705C206.309 208.125 206.469 208.465 206.789 208.725C207.109 208.985 207.514 209.115 208.004 209.115ZM213.408 202.35H214.623V203.475H214.683C214.893 203.095 215.228 202.775 215.688 202.515C216.148 202.245 216.638 202.11 217.158 202.11C218.078 202.11 218.778 202.38 219.258 202.92C219.748 203.45 219.993 204.175 219.993 205.095V210H218.718V205.29C218.718 204.58 218.548 204.065 218.208 203.745C217.868 203.425 217.403 203.265 216.813 203.265C216.403 203.265 216.033 203.38 215.703 203.61C215.383 203.84 215.133 204.145 214.953 204.525C214.773 204.895 214.683 205.285 214.683 205.695V210H213.408V202.35ZM225.103 213.48C224.203 213.48 223.458 213.27 222.868 212.85C222.288 212.43 221.898 211.925 221.698 211.335L222.868 210.84C223.028 211.28 223.303 211.635 223.693 211.905C224.093 212.185 224.563 212.325 225.103 212.325C225.893 212.325 226.503 212.095 226.933 211.635C227.373 211.175 227.593 210.525 227.593 209.685V208.83H227.533C227.283 209.22 226.928 209.54 226.468 209.79C226.018 210.03 225.503 210.15 224.923 210.15C224.263 210.15 223.658 209.98 223.108 209.64C222.568 209.3 222.138 208.825 221.818 208.215C221.498 207.605 221.338 206.91 221.338 206.13C221.338 205.36 221.498 204.67 221.818 204.06C222.138 203.44 222.568 202.96 223.108 202.62C223.658 202.28 224.263 202.11 224.923 202.11C225.503 202.11 226.018 202.235 226.468 202.485C226.928 202.725 227.283 203.045 227.533 203.445H227.593V202.35H228.808V209.7C228.808 210.93 228.468 211.865 227.788 212.505C227.108 213.155 226.213 213.48 225.103 213.48ZM225.103 208.995C225.563 208.995 225.978 208.88 226.348 208.65C226.728 208.42 227.028 208.09 227.248 207.66C227.478 207.23 227.593 206.72 227.593 206.13C227.593 205.53 227.478 205.015 227.248 204.585C227.028 204.155 226.728 203.83 226.348 203.61C225.978 203.38 225.563 203.265 225.103 203.265C224.643 203.265 224.223 203.38 223.843 203.61C223.463 203.84 223.158 204.17 222.928 204.6C222.708 205.03 222.598 205.54 222.598 206.13C222.598 206.72 222.708 207.235 222.928 207.675C223.158 208.105 223.463 208.435 223.843 208.665C224.223 208.885 224.643 208.995 225.103 208.995ZM233.395 210.24C232.475 210.24 231.77 209.97 231.28 209.43C230.8 208.89 230.56 208.135 230.56 207.165V202.35H231.835V206.97C231.835 207.7 232 208.235 232.33 208.575C232.66 208.915 233.105 209.085 233.665 209.085C234.095 209.085 234.475 208.97 234.805 208.74C235.145 208.51 235.405 208.21 235.585 207.84C235.775 207.47 235.87 207.08 235.87 206.67V202.35H237.145V210H235.93V208.89H235.87C235.66 209.27 235.325 209.59 234.865 209.85C234.405 210.11 233.915 210.24 233.395 210.24ZM241.4 210.24C240.84 210.24 240.34 210.13 239.9 209.91C239.46 209.69 239.12 209.39 238.88 209.01C238.64 208.62 238.52 208.18 238.52 207.69C238.52 206.88 238.825 206.25 239.435 205.8C240.045 205.34 240.815 205.11 241.745 205.11C242.205 205.11 242.63 205.16 243.02 205.26C243.42 205.36 243.725 205.475 243.935 205.605V205.14C243.935 204.57 243.735 204.115 243.335 203.775C242.935 203.425 242.43 203.25 241.82 203.25C241.4 203.25 241.005 203.345 240.635 203.535C240.275 203.715 239.99 203.97 239.78 204.3L238.82 203.58C239.12 203.12 239.535 202.76 240.065 202.5C240.595 202.24 241.18 202.11 241.82 202.11C242.86 202.11 243.675 202.385 244.265 202.935C244.855 203.475 245.15 204.215 245.15 205.155V210H243.935V208.905H243.875C243.655 209.275 243.325 209.59 242.885 209.85C242.445 210.11 241.95 210.24 241.4 210.24ZM241.52 209.115C241.95 209.115 242.35 209.005 242.72 208.785C243.09 208.565 243.385 208.27 243.605 207.9C243.825 207.53 243.935 207.125 243.935 206.685C243.695 206.525 243.4 206.395 243.05 206.295C242.7 206.195 242.33 206.145 241.94 206.145C241.24 206.145 240.71 206.29 240.35 206.58C240 206.87 239.825 207.245 239.825 207.705C239.825 208.125 239.985 208.465 240.305 208.725C240.625 208.985 241.03 209.115 241.52 209.115ZM250.21 213.48C249.31 213.48 248.565 213.27 247.975 212.85C247.395 212.43 247.005 211.925 246.805 211.335L247.975 210.84C248.135 211.28 248.41 211.635 248.8 211.905C249.2 212.185 249.67 212.325 250.21 212.325C251 212.325 251.61 212.095 252.04 211.635C252.48 211.175 252.7 210.525 252.7 209.685V208.83H252.64C252.39 209.22 252.035 209.54 251.575 209.79C251.125 210.03 250.61 210.15 250.03 210.15C249.37 210.15 248.765 209.98 248.215 209.64C247.675 209.3 247.245 208.825 246.925 208.215C246.605 207.605 246.445 206.91 246.445 206.13C246.445 205.36 246.605 204.67 246.925 204.06C247.245 203.44 247.675 202.96 248.215 202.62C248.765 202.28 249.37 202.11 250.03 202.11C250.61 202.11 251.125 202.235 251.575 202.485C252.035 202.725 252.39 203.045 252.64 203.445H252.7V202.35H253.915V209.7C253.915 210.93 253.575 211.865 252.895 212.505C252.215 213.155 251.32 213.48 250.21 213.48ZM250.21 208.995C250.67 208.995 251.085 208.88 251.455 208.65C251.835 208.42 252.135 208.09 252.355 207.66C252.585 207.23 252.7 206.72 252.7 206.13C252.7 205.53 252.585 205.015 252.355 204.585C252.135 204.155 251.835 203.83 251.455 203.61C251.085 203.38 250.67 203.265 250.21 203.265C249.75 203.265 249.33 203.38 248.95 203.61C248.57 203.84 248.265 204.17 248.035 204.6C247.815 205.03 247.705 205.54 247.705 206.13C247.705 206.72 247.815 207.235 248.035 207.675C248.265 208.105 248.57 208.435 248.95 208.665C249.33 208.885 249.75 208.995 250.21 208.995ZM259.132 210.24C258.402 210.24 257.747 210.065 257.167 209.715C256.587 209.365 256.132 208.885 255.802 208.275C255.482 207.655 255.322 206.96 255.322 206.19C255.322 205.46 255.472 204.785 255.772 204.165C256.082 203.535 256.517 203.035 257.077 202.665C257.647 202.295 258.297 202.11 259.027 202.11C259.777 202.11 260.427 202.28 260.977 202.62C261.527 202.95 261.947 203.41 262.237 204C262.537 204.59 262.687 205.265 262.687 206.025C262.687 206.145 262.677 206.275 262.657 206.415H256.597C256.627 206.995 256.767 207.485 257.017 207.885C257.267 208.285 257.582 208.585 257.962 208.785C258.352 208.985 258.757 209.085 259.177 209.085C260.177 209.085 260.932 208.625 261.442 207.705L262.522 208.23C262.202 208.84 261.757 209.33 261.187 209.7C260.617 210.06 259.932 210.24 259.132 210.24ZM261.337 205.365C261.317 205.045 261.227 204.725 261.067 204.405C260.907 204.085 260.657 203.815 260.317 203.595C259.977 203.375 259.547 203.265 259.027 203.265C258.427 203.265 257.917 203.46 257.497 203.85C257.077 204.23 256.802 204.735 256.672 205.365H261.337Z" fill="#212121"/>
</g>
<g filter="url(#filter5_d_5_1569)">
<path d="M45 239C45 236.791 46.7909 235 49 235H258C260.209 235 262 236.791 262 239V266C262 268.209 260.209 270 258 270H49C46.7909 270 45 268.209 45 266V239Z" fill="white"/>
<path d="M45.25 239C45.25 236.929 46.9289 235.25 49 235.25H258C260.071 235.25 261.75 236.929 261.75 239V266C261.75 268.071 260.071 269.75 258 269.75H49C46.9289 269.75 45.25 268.071 45.25 266V239Z" stroke="#603AC8" stroke-width="0.5"/>
<path d="M63.24 257.24C62.2 257.24 61.255 256.995 60.405 256.505C59.555 256.015 58.885 255.345 58.395 254.495C57.915 253.635 57.675 252.68 57.675 251.63C57.675 250.58 57.915 249.63 58.395 248.78C58.885 247.92 59.555 247.245 60.405 246.755C61.255 246.265 62.2 246.02 63.24 246.02C64.04 246.02 64.77 246.17 65.43 246.47C66.1 246.77 66.68 247.205 67.17 247.775L66.255 248.66C65.845 248.17 65.395 247.81 64.905 247.58C64.425 247.35 63.87 247.235 63.24 247.235C62.46 247.235 61.745 247.42 61.095 247.79C60.445 248.15 59.925 248.665 59.535 249.335C59.155 249.995 58.965 250.76 58.965 251.63C58.965 252.5 59.155 253.27 59.535 253.94C59.925 254.6 60.445 255.115 61.095 255.485C61.745 255.845 62.46 256.025 63.24 256.025C64.54 256.025 65.645 255.49 66.555 254.42L67.485 255.32C66.995 255.91 66.38 256.38 65.64 256.73C64.91 257.07 64.11 257.24 63.24 257.24ZM68.9167 246.26H70.1917V249.425L70.1317 250.475H70.1917C70.4017 250.085 70.7317 249.76 71.1817 249.5C71.6417 249.24 72.1417 249.11 72.6817 249.11C73.6117 249.11 74.3217 249.385 74.8117 249.935C75.3017 250.475 75.5467 251.195 75.5467 252.095V257H74.2717V252.29C74.2717 251.6 74.0967 251.09 73.7467 250.76C73.3967 250.43 72.9417 250.265 72.3817 250.265C71.9817 250.265 71.6117 250.385 71.2717 250.625C70.9417 250.865 70.6767 251.175 70.4767 251.555C70.2867 251.935 70.1917 252.33 70.1917 252.74V257H68.9167V246.26ZM80.7885 257.24C80.0585 257.24 79.4035 257.065 78.8235 256.715C78.2435 256.365 77.7885 255.885 77.4585 255.275C77.1385 254.655 76.9785 253.96 76.9785 253.19C76.9785 252.46 77.1285 251.785 77.4285 251.165C77.7385 250.535 78.1735 250.035 78.7335 249.665C79.3035 249.295 79.9535 249.11 80.6835 249.11C81.4335 249.11 82.0835 249.28 82.6335 249.62C83.1835 249.95 83.6035 250.41 83.8935 251C84.1935 251.59 84.3435 252.265 84.3435 253.025C84.3435 253.145 84.3335 253.275 84.3135 253.415H78.2535C78.2835 253.995 78.4235 254.485 78.6735 254.885C78.9235 255.285 79.2385 255.585 79.6185 255.785C80.0085 255.985 80.4135 256.085 80.8335 256.085C81.8335 256.085 82.5885 255.625 83.0985 254.705L84.1785 255.23C83.8585 255.84 83.4135 256.33 82.8435 256.7C82.2735 257.06 81.5885 257.24 80.7885 257.24ZM82.9935 252.365C82.9735 252.045 82.8835 251.725 82.7235 251.405C82.5635 251.085 82.3135 250.815 81.9735 250.595C81.6335 250.375 81.2035 250.265 80.6835 250.265C80.0835 250.265 79.5735 250.46 79.1535 250.85C78.7335 251.23 78.4585 251.735 78.3285 252.365H82.9935ZM85.8356 249.35H87.0506V250.475H87.1106C87.3306 250.085 87.6606 249.76 88.1006 249.5C88.5406 249.24 89.0056 249.11 89.4956 249.11C90.0556 249.11 90.5406 249.245 90.9506 249.515C91.3706 249.785 91.6706 250.145 91.8506 250.595C92.1206 250.145 92.4756 249.785 92.9156 249.515C93.3656 249.245 93.8856 249.11 94.4756 249.11C95.3556 249.11 96.0156 249.38 96.4556 249.92C96.9056 250.45 97.1306 251.175 97.1306 252.095V257H95.8706V252.29C95.8706 251.58 95.7256 251.065 95.4356 250.745C95.1456 250.425 94.7156 250.265 94.1456 250.265C93.7656 250.265 93.4206 250.375 93.1106 250.595C92.8006 250.815 92.5556 251.11 92.3756 251.48C92.2056 251.85 92.1206 252.25 92.1206 252.68V257H90.8456V252.305C90.8456 251.585 90.7006 251.065 90.4106 250.745C90.1206 250.425 89.6956 250.265 89.1356 250.265C88.7556 250.265 88.4106 250.38 88.1006 250.61C87.7906 250.83 87.5456 251.13 87.3656 251.51C87.1956 251.88 87.1106 252.28 87.1106 252.71V257H85.8356V249.35ZM99.7253 247.94C99.4753 247.94 99.2603 247.85 99.0803 247.67C98.9003 247.49 98.8103 247.275 98.8103 247.025C98.8103 246.765 98.9003 246.55 99.0803 246.38C99.2603 246.2 99.4753 246.11 99.7253 246.11C99.9853 246.11 100.2 246.2 100.37 246.38C100.55 246.55 100.64 246.765 100.64 247.025C100.64 247.275 100.55 247.49 100.37 247.67C100.2 247.85 99.9853 247.94 99.7253 247.94ZM99.0953 249.35H100.37V257H99.0953V249.35ZM105.029 257.24C104.209 257.24 103.524 257.05 102.974 256.67C102.424 256.28 102.034 255.785 101.804 255.185L102.944 254.675C103.134 255.135 103.414 255.49 103.784 255.74C104.164 255.99 104.579 256.115 105.029 256.115C105.509 256.115 105.919 256.02 106.259 255.83C106.599 255.63 106.769 255.35 106.769 254.99C106.769 254.67 106.634 254.415 106.364 254.225C106.094 254.025 105.669 253.855 105.089 253.715L104.159 253.475C103.549 253.325 103.049 253.07 102.659 252.71C102.269 252.35 102.074 251.885 102.074 251.315C102.074 250.875 102.204 250.49 102.464 250.16C102.734 249.82 103.089 249.56 103.529 249.38C103.969 249.2 104.444 249.11 104.954 249.11C105.624 249.11 106.219 249.255 106.739 249.545C107.269 249.835 107.644 250.24 107.864 250.76L106.754 251.27C106.414 250.59 105.809 250.25 104.939 250.25C104.519 250.25 104.149 250.35 103.829 250.55C103.519 250.74 103.364 250.985 103.364 251.285C103.364 251.565 103.474 251.795 103.694 251.975C103.914 252.145 104.244 252.285 104.684 252.395L105.794 252.68C106.544 252.87 107.109 253.155 107.489 253.535C107.869 253.905 108.059 254.36 108.059 254.9C108.059 255.37 107.924 255.785 107.654 256.145C107.384 256.495 107.019 256.765 106.559 256.955C106.099 257.145 105.589 257.24 105.029 257.24ZM112.316 257.12C112.006 257.12 111.716 257.07 111.446 256.97C111.186 256.87 110.966 256.735 110.786 256.565C110.386 256.185 110.186 255.66 110.186 254.99V250.505H108.851V249.35H110.186V247.19H111.461V249.35H113.336V250.505H111.461V254.675C111.461 255.095 111.541 255.405 111.701 255.605C111.891 255.825 112.166 255.935 112.526 255.935C112.836 255.935 113.116 255.85 113.366 255.68V256.925C113.216 256.995 113.061 257.045 112.901 257.075C112.751 257.105 112.556 257.12 112.316 257.12ZM114.869 249.35H116.084V250.58H116.144C116.294 250.16 116.584 249.815 117.014 249.545C117.444 249.265 117.894 249.125 118.364 249.125C118.714 249.125 119.014 249.175 119.264 249.275V250.655C118.944 250.495 118.584 250.415 118.184 250.415C117.814 250.415 117.474 250.52 117.164 250.73C116.854 250.94 116.604 251.225 116.414 251.585C116.234 251.935 116.144 252.315 116.144 252.725V257H114.869V249.35ZM123.171 256.52L120.006 249.35H121.386L123.786 255.035H123.816L126.126 249.35H127.506L122.781 260.24H121.461L123.171 256.52ZM135.576 257.24C134.826 257.24 134.151 257.06 133.551 256.7C132.951 256.34 132.481 255.85 132.141 255.23C131.811 254.61 131.646 253.925 131.646 253.175C131.646 252.425 131.811 251.74 132.141 251.12C132.481 250.5 132.951 250.01 133.551 249.65C134.151 249.29 134.826 249.11 135.576 249.11C136.326 249.11 137.001 249.29 137.601 249.65C138.201 250.01 138.666 250.5 138.996 251.12C139.336 251.74 139.506 252.425 139.506 253.175C139.506 253.925 139.336 254.61 138.996 255.23C138.666 255.85 138.201 256.34 137.601 256.7C137.001 257.06 136.326 257.24 135.576 257.24ZM135.576 256.085C136.046 256.085 136.481 255.97 136.881 255.74C137.291 255.5 137.616 255.16 137.856 254.72C138.106 254.28 138.231 253.765 138.231 253.175C138.231 252.585 138.106 252.07 137.856 251.63C137.616 251.19 137.291 250.855 136.881 250.625C136.481 250.385 136.046 250.265 135.576 250.265C135.106 250.265 134.666 250.385 134.256 250.625C133.846 250.855 133.516 251.19 133.266 251.63C133.026 252.07 132.906 252.585 132.906 253.175C132.906 253.765 133.026 254.28 133.266 254.72C133.516 255.16 133.846 255.5 134.256 255.74C134.666 255.97 135.106 256.085 135.576 256.085ZM140.841 249.35H142.056V250.58H142.116C142.266 250.16 142.556 249.815 142.986 249.545C143.416 249.265 143.866 249.125 144.336 249.125C144.686 249.125 144.986 249.175 145.236 249.275V250.655C144.916 250.495 144.556 250.415 144.156 250.415C143.786 250.415 143.446 250.52 143.136 250.73C142.826 250.94 142.576 251.225 142.386 251.585C142.206 251.935 142.116 252.315 142.116 252.725V257H140.841V249.35ZM149.952 249.35H151.167V250.475H151.227C151.447 250.085 151.777 249.76 152.217 249.5C152.657 249.24 153.122 249.11 153.612 249.11C154.172 249.11 154.657 249.245 155.067 249.515C155.487 249.785 155.787 250.145 155.967 250.595C156.237 250.145 156.592 249.785 157.032 249.515C157.482 249.245 158.002 249.11 158.592 249.11C159.472 249.11 160.132 249.38 160.572 249.92C161.022 250.45 161.247 251.175 161.247 252.095V257H159.987V252.29C159.987 251.58 159.842 251.065 159.552 250.745C159.262 250.425 158.832 250.265 158.262 250.265C157.882 250.265 157.537 250.375 157.227 250.595C156.917 250.815 156.672 251.11 156.492 251.48C156.322 251.85 156.237 252.25 156.237 252.68V257H154.962V252.305C154.962 251.585 154.817 251.065 154.527 250.745C154.237 250.425 153.812 250.265 153.252 250.265C152.872 250.265 152.527 250.38 152.217 250.61C151.907 250.83 151.662 251.13 151.482 251.51C151.312 251.88 151.227 252.28 151.227 252.71V257H149.952V249.35ZM165.463 257.24C164.903 257.24 164.403 257.13 163.963 256.91C163.523 256.69 163.183 256.39 162.943 256.01C162.703 255.62 162.583 255.18 162.583 254.69C162.583 253.88 162.888 253.25 163.498 252.8C164.108 252.34 164.878 252.11 165.808 252.11C166.268 252.11 166.693 252.16 167.083 252.26C167.483 252.36 167.788 252.475 167.998 252.605V252.14C167.998 251.57 167.798 251.115 167.398 250.775C166.998 250.425 166.493 250.25 165.883 250.25C165.463 250.25 165.068 250.345 164.698 250.535C164.338 250.715 164.053 250.97 163.843 251.3L162.883 250.58C163.183 250.12 163.598 249.76 164.128 249.5C164.658 249.24 165.243 249.11 165.883 249.11C166.923 249.11 167.738 249.385 168.328 249.935C168.918 250.475 169.213 251.215 169.213 252.155V257H167.998V255.905H167.938C167.718 256.275 167.388 256.59 166.948 256.85C166.508 257.11 166.013 257.24 165.463 257.24ZM165.583 256.115C166.013 256.115 166.413 256.005 166.783 255.785C167.153 255.565 167.448 255.27 167.668 254.9C167.888 254.53 167.998 254.125 167.998 253.685C167.758 253.525 167.463 253.395 167.113 253.295C166.763 253.195 166.393 253.145 166.003 253.145C165.303 253.145 164.773 253.29 164.413 253.58C164.063 253.87 163.888 254.245 163.888 254.705C163.888 255.125 164.048 255.465 164.368 255.725C164.688 255.985 165.093 256.115 165.583 256.115ZM170.987 249.35H172.202V250.58H172.262C172.412 250.16 172.702 249.815 173.132 249.545C173.562 249.265 174.012 249.125 174.482 249.125C174.832 249.125 175.132 249.175 175.382 249.275V250.655C175.062 250.495 174.702 250.415 174.302 250.415C173.932 250.415 173.592 250.52 173.282 250.73C172.972 250.94 172.722 251.225 172.532 251.585C172.352 251.935 172.262 252.315 172.262 252.725V257H170.987V249.35ZM177.362 247.94C177.112 247.94 176.897 247.85 176.717 247.67C176.537 247.49 176.447 247.275 176.447 247.025C176.447 246.765 176.537 246.55 176.717 246.38C176.897 246.2 177.112 246.11 177.362 246.11C177.622 246.11 177.837 246.2 178.007 246.38C178.187 246.55 178.277 246.765 178.277 247.025C178.277 247.275 178.187 247.49 178.007 247.67C177.837 247.85 177.622 247.94 177.362 247.94ZM176.732 249.35H178.007V257H176.732V249.35ZM179.996 249.35H181.211V250.475H181.271C181.481 250.095 181.816 249.775 182.276 249.515C182.736 249.245 183.226 249.11 183.746 249.11C184.666 249.11 185.366 249.38 185.846 249.92C186.336 250.45 186.581 251.175 186.581 252.095V257H185.306V252.29C185.306 251.58 185.136 251.065 184.796 250.745C184.456 250.425 183.991 250.265 183.401 250.265C182.991 250.265 182.621 250.38 182.291 250.61C181.971 250.84 181.721 251.145 181.541 251.525C181.361 251.895 181.271 252.285 181.271 252.695V257H179.996V249.35ZM191.809 257.24C191.079 257.24 190.424 257.065 189.844 256.715C189.264 256.365 188.809 255.885 188.479 255.275C188.159 254.655 187.999 253.96 187.999 253.19C187.999 252.46 188.149 251.785 188.449 251.165C188.759 250.535 189.194 250.035 189.754 249.665C190.324 249.295 190.974 249.11 191.704 249.11C192.454 249.11 193.104 249.28 193.654 249.62C194.204 249.95 194.624 250.41 194.914 251C195.214 251.59 195.364 252.265 195.364 253.025C195.364 253.145 195.354 253.275 195.334 253.415H189.274C189.304 253.995 189.444 254.485 189.694 254.885C189.944 255.285 190.259 255.585 190.639 255.785C191.029 255.985 191.434 256.085 191.854 256.085C192.854 256.085 193.609 255.625 194.119 254.705L195.199 255.23C194.879 255.84 194.434 256.33 193.864 256.7C193.294 257.06 192.609 257.24 191.809 257.24ZM194.014 252.365C193.994 252.045 193.904 251.725 193.744 251.405C193.584 251.085 193.334 250.815 192.994 250.595C192.654 250.375 192.224 250.265 191.704 250.265C191.104 250.265 190.594 250.46 190.174 250.85C189.754 251.23 189.479 251.735 189.349 252.365H194.014ZM204.227 257.24C203.647 257.24 203.122 257.11 202.652 256.85C202.192 256.58 201.847 256.255 201.617 255.875H201.557V257H200.342V246.26H201.617V249.425L201.557 250.49H201.617C201.847 250.1 202.192 249.775 202.652 249.515C203.122 249.245 203.647 249.11 204.227 249.11C204.917 249.11 205.537 249.285 206.087 249.635C206.647 249.985 207.087 250.47 207.407 251.09C207.727 251.71 207.887 252.405 207.887 253.175C207.887 253.955 207.727 254.655 207.407 255.275C207.087 255.885 206.647 256.365 206.087 256.715C205.537 257.065 204.917 257.24 204.227 257.24ZM204.092 256.085C204.532 256.085 204.947 255.965 205.337 255.725C205.727 255.485 206.037 255.145 206.267 254.705C206.497 254.265 206.612 253.755 206.612 253.175C206.612 252.595 206.497 252.085 206.267 251.645C206.037 251.205 205.727 250.865 205.337 250.625C204.947 250.385 204.532 250.265 204.092 250.265C203.642 250.265 203.222 250.385 202.832 250.625C202.452 250.865 202.142 251.205 201.902 251.645C201.672 252.085 201.557 252.595 201.557 253.175C201.557 253.755 201.672 254.265 201.902 254.705C202.142 255.145 202.452 255.485 202.832 255.725C203.222 255.965 203.642 256.085 204.092 256.085ZM210.043 247.94C209.793 247.94 209.578 247.85 209.398 247.67C209.218 247.49 209.128 247.275 209.128 247.025C209.128 246.765 209.218 246.55 209.398 246.38C209.578 246.2 209.793 246.11 210.043 246.11C210.303 246.11 210.518 246.2 210.688 246.38C210.868 246.55 210.958 246.765 210.958 247.025C210.958 247.275 210.868 247.49 210.688 247.67C210.518 247.85 210.303 247.94 210.043 247.94ZM209.413 249.35H210.688V257H209.413V249.35ZM216.128 257.24C215.378 257.24 214.703 257.06 214.103 256.7C213.503 256.34 213.033 255.85 212.693 255.23C212.363 254.61 212.198 253.925 212.198 253.175C212.198 252.425 212.363 251.74 212.693 251.12C213.033 250.5 213.503 250.01 214.103 249.65C214.703 249.29 215.378 249.11 216.128 249.11C216.878 249.11 217.553 249.29 218.153 249.65C218.753 250.01 219.218 250.5 219.548 251.12C219.888 251.74 220.058 252.425 220.058 253.175C220.058 253.925 219.888 254.61 219.548 255.23C219.218 255.85 218.753 256.34 218.153 256.7C217.553 257.06 216.878 257.24 216.128 257.24ZM216.128 256.085C216.598 256.085 217.033 255.97 217.433 255.74C217.843 255.5 218.168 255.16 218.408 254.72C218.658 254.28 218.783 253.765 218.783 253.175C218.783 252.585 218.658 252.07 218.408 251.63C218.168 251.19 217.843 250.855 217.433 250.625C217.033 250.385 216.598 250.265 216.128 250.265C215.658 250.265 215.218 250.385 214.808 250.625C214.398 250.855 214.068 251.19 213.818 251.63C213.578 252.07 213.458 252.585 213.458 253.175C213.458 253.765 213.578 254.28 213.818 254.72C214.068 255.16 214.398 255.5 214.808 255.74C215.218 255.97 215.658 256.085 216.128 256.085ZM221.466 246.26H222.741V257H221.466V246.26ZM228.081 257.24C227.331 257.24 226.656 257.06 226.056 256.7C225.456 256.34 224.986 255.85 224.646 255.23C224.316 254.61 224.151 253.925 224.151 253.175C224.151 252.425 224.316 251.74 224.646 251.12C224.986 250.5 225.456 250.01 226.056 249.65C226.656 249.29 227.331 249.11 228.081 249.11C228.831 249.11 229.506 249.29 230.106 249.65C230.706 250.01 231.171 250.5 231.501 251.12C231.841 251.74 232.011 252.425 232.011 253.175C232.011 253.925 231.841 254.61 231.501 255.23C231.171 255.85 230.706 256.34 230.106 256.7C229.506 257.06 228.831 257.24 228.081 257.24ZM228.081 256.085C228.551 256.085 228.986 255.97 229.386 255.74C229.796 255.5 230.121 255.16 230.361 254.72C230.611 254.28 230.736 253.765 230.736 253.175C230.736 252.585 230.611 252.07 230.361 251.63C230.121 251.19 229.796 250.855 229.386 250.625C228.986 250.385 228.551 250.265 228.081 250.265C227.611 250.265 227.171 250.385 226.761 250.625C226.351 250.855 226.021 251.19 225.771 251.63C225.531 252.07 225.411 252.585 225.411 253.175C225.411 253.765 225.531 254.28 225.771 254.72C226.021 255.16 226.351 255.5 226.761 255.74C227.171 255.97 227.611 256.085 228.081 256.085ZM236.852 260.48C235.952 260.48 235.207 260.27 234.617 259.85C234.037 259.43 233.647 258.925 233.447 258.335L234.617 257.84C234.777 258.28 235.052 258.635 235.442 258.905C235.842 259.185 236.312 259.325 236.852 259.325C237.642 259.325 238.252 259.095 238.682 258.635C239.122 258.175 239.342 257.525 239.342 256.685V255.83H239.282C239.032 256.22 238.677 256.54 238.217 256.79C237.767 257.03 237.252 257.15 236.672 257.15C236.012 257.15 235.407 256.98 234.857 256.64C234.317 256.3 233.887 255.825 233.567 255.215C233.247 254.605 233.087 253.91 233.087 253.13C233.087 252.36 233.247 251.67 233.567 251.06C233.887 250.44 234.317 249.96 234.857 249.62C235.407 249.28 236.012 249.11 236.672 249.11C237.252 249.11 237.767 249.235 238.217 249.485C238.677 249.725 239.032 250.045 239.282 250.445H239.342V249.35H240.557V256.7C240.557 257.93 240.217 258.865 239.537 259.505C238.857 260.155 237.962 260.48 236.852 260.48ZM236.852 255.995C237.312 255.995 237.727 255.88 238.097 255.65C238.477 255.42 238.777 255.09 238.997 254.66C239.227 254.23 239.342 253.72 239.342 253.13C239.342 252.53 239.227 252.015 238.997 251.585C238.777 251.155 238.477 250.83 238.097 250.61C237.727 250.38 237.312 250.265 236.852 250.265C236.392 250.265 235.972 250.38 235.592 250.61C235.212 250.84 234.907 251.17 234.677 251.6C234.457 252.03 234.347 252.54 234.347 253.13C234.347 253.72 234.457 254.235 234.677 254.675C234.907 255.105 235.212 255.435 235.592 255.665C235.972 255.885 236.392 255.995 236.852 255.995ZM244.782 256.52L241.617 249.35H242.997L245.397 255.035H245.427L247.737 249.35H249.117L244.392 260.24H243.072L244.782 256.52Z" fill="#212121"/>
</g>
<g filter="url(#filter6_d_5_1569)">
<path d="M45 286C45 283.791 46.7909 282 49 282H183C185.209 282 187 283.791 187 286V313C187 315.209 185.209 317 183 317H49C46.7909 317 45 315.209 45 313V286Z" fill="white"/>
<path d="M45.25 286C45.25 283.929 46.9289 282.25 49 282.25H183C185.071 282.25 186.75 283.929 186.75 286V313C186.75 315.071 185.071 316.75 183 316.75H49C46.9289 316.75 45.25 315.071 45.25 313V286Z" stroke="#603AC8" stroke-width="0.5"/>
<path d="M58.2 293.26H64.41V294.475H59.475V298.03H63.93V299.23H59.475V302.785H64.41V304H58.2V293.26ZM66.2067 293.26H67.4817V304H66.2067V293.26ZM72.7025 304.24C71.9725 304.24 71.3175 304.065 70.7375 303.715C70.1575 303.365 69.7025 302.885 69.3725 302.275C69.0525 301.655 68.8925 300.96 68.8925 300.19C68.8925 299.46 69.0425 298.785 69.3425 298.165C69.6525 297.535 70.0875 297.035 70.6475 296.665C71.2175 296.295 71.8675 296.11 72.5975 296.11C73.3475 296.11 73.9975 296.28 74.5475 296.62C75.0975 296.95 75.5175 297.41 75.8075 298C76.1075 298.59 76.2575 299.265 76.2575 300.025C76.2575 300.145 76.2475 300.275 76.2275 300.415H70.1675C70.1975 300.995 70.3375 301.485 70.5875 301.885C70.8375 302.285 71.1525 302.585 71.5325 302.785C71.9225 302.985 72.3275 303.085 72.7475 303.085C73.7475 303.085 74.5025 302.625 75.0125 301.705L76.0925 302.23C75.7725 302.84 75.3275 303.33 74.7575 303.7C74.1875 304.06 73.5025 304.24 72.7025 304.24ZM74.9075 299.365C74.8875 299.045 74.7975 298.725 74.6375 298.405C74.4775 298.085 74.2275 297.815 73.8875 297.595C73.5475 297.375 73.1175 297.265 72.5975 297.265C71.9975 297.265 71.4875 297.46 71.0675 297.85C70.6475 298.23 70.3725 298.735 70.2425 299.365H74.9075ZM81.2879 304.24C80.5479 304.24 79.8829 304.065 79.2929 303.715C78.7029 303.355 78.2429 302.87 77.9129 302.26C77.5829 301.64 77.4179 300.945 77.4179 300.175C77.4179 299.405 77.5829 298.71 77.9129 298.09C78.2429 297.47 78.7029 296.985 79.2929 296.635C79.8829 296.285 80.5479 296.11 81.2879 296.11C82.1179 296.11 82.8129 296.305 83.3729 296.695C83.9429 297.075 84.3479 297.585 84.5879 298.225L83.4329 298.705C83.2429 298.235 82.9579 297.88 82.5779 297.64C82.2079 297.39 81.7579 297.265 81.2279 297.265C80.7779 297.265 80.3579 297.39 79.9679 297.64C79.5779 297.88 79.2629 298.22 79.0229 298.66C78.7929 299.1 78.6779 299.605 78.6779 300.175C78.6779 300.745 78.7929 301.25 79.0229 301.69C79.2629 302.13 79.5779 302.475 79.9679 302.725C80.3579 302.965 80.7779 303.085 81.2279 303.085C81.7679 303.085 82.2329 302.96 82.6229 302.71C83.0129 302.46 83.3029 302.105 83.4929 301.645L84.6329 302.125C84.3729 302.755 83.9529 303.265 83.3729 303.655C82.8029 304.045 82.1079 304.24 81.2879 304.24ZM88.8782 304.12C88.5682 304.12 88.2782 304.07 88.0082 303.97C87.7482 303.87 87.5282 303.735 87.3482 303.565C86.9482 303.185 86.7482 302.66 86.7482 301.99V297.505H85.4132V296.35H86.7482V294.19H88.0232V296.35H89.8982V297.505H88.0232V301.675C88.0232 302.095 88.1032 302.405 88.2632 302.605C88.4532 302.825 88.7282 302.935 89.0882 302.935C89.3982 302.935 89.6782 302.85 89.9282 302.68V303.925C89.7782 303.995 89.6232 304.045 89.4632 304.075C89.3132 304.105 89.1182 304.12 88.8782 304.12ZM92.2546 294.94C92.0046 294.94 91.7896 294.85 91.6096 294.67C91.4296 294.49 91.3396 294.275 91.3396 294.025C91.3396 293.765 91.4296 293.55 91.6096 293.38C91.7896 293.2 92.0046 293.11 92.2546 293.11C92.5146 293.11 92.7296 293.2 92.8996 293.38C93.0796 293.55 93.1696 293.765 93.1696 294.025C93.1696 294.275 93.0796 294.49 92.8996 294.67C92.7296 294.85 92.5146 294.94 92.2546 294.94ZM91.6246 296.35H92.8996V304H91.6246V296.35ZM94.0484 296.35H95.4134L97.7834 302.5H97.8134L100.213 296.35H101.548L98.4284 304H97.1384L94.0484 296.35ZM105.779 304.24C105.049 304.24 104.394 304.065 103.814 303.715C103.234 303.365 102.779 302.885 102.449 302.275C102.129 301.655 101.969 300.96 101.969 300.19C101.969 299.46 102.119 298.785 102.419 298.165C102.729 297.535 103.164 297.035 103.724 296.665C104.294 296.295 104.944 296.11 105.674 296.11C106.424 296.11 107.074 296.28 107.624 296.62C108.174 296.95 108.594 297.41 108.884 298C109.184 298.59 109.334 299.265 109.334 300.025C109.334 300.145 109.324 300.275 109.304 300.415H103.244C103.274 300.995 103.414 301.485 103.664 301.885C103.914 302.285 104.229 302.585 104.609 302.785C104.999 302.985 105.404 303.085 105.824 303.085C106.824 303.085 107.579 302.625 108.089 301.705L109.169 302.23C108.849 302.84 108.404 303.33 107.834 303.7C107.264 304.06 106.579 304.24 105.779 304.24ZM107.984 299.365C107.964 299.045 107.874 298.725 107.714 298.405C107.554 298.085 107.304 297.815 106.964 297.595C106.624 297.375 106.194 297.265 105.674 297.265C105.074 297.265 104.564 297.46 104.144 297.85C103.724 298.23 103.449 298.735 103.319 299.365H107.984ZM116.982 306.04C116.252 305.2 115.622 304.185 115.092 302.995C114.572 301.795 114.312 300.52 114.312 299.17C114.312 297.82 114.572 296.55 115.092 295.36C115.622 294.16 116.252 293.14 116.982 292.3L117.912 292.96C117.232 293.77 116.672 294.725 116.232 295.825C115.792 296.915 115.572 298.03 115.572 299.17C115.572 300.31 115.792 301.43 116.232 302.53C116.672 303.62 117.232 304.57 117.912 305.38L116.982 306.04ZM121.351 295.525L119.551 296.815L118.891 295.84L121.816 293.74H122.626V304H121.351V295.525ZM133.347 304.24C132.307 304.24 131.362 303.995 130.512 303.505C129.662 303.015 128.992 302.345 128.502 301.495C128.022 300.635 127.782 299.68 127.782 298.63C127.782 297.58 128.022 296.63 128.502 295.78C128.992 294.92 129.662 294.245 130.512 293.755C131.362 293.265 132.307 293.02 133.347 293.02C134.147 293.02 134.877 293.17 135.537 293.47C136.207 293.77 136.787 294.205 137.277 294.775L136.362 295.66C135.952 295.17 135.502 294.81 135.012 294.58C134.532 294.35 133.977 294.235 133.347 294.235C132.567 294.235 131.852 294.42 131.202 294.79C130.552 295.15 130.032 295.665 129.642 296.335C129.262 296.995 129.072 297.76 129.072 298.63C129.072 299.5 129.262 300.27 129.642 300.94C130.032 301.6 130.552 302.115 131.202 302.485C131.852 302.845 132.567 303.025 133.347 303.025C134.647 303.025 135.752 302.49 136.662 301.42L137.592 302.32C137.102 302.91 136.487 303.38 135.747 303.73C135.017 304.07 134.217 304.24 133.347 304.24ZM139.024 296.35H140.239V297.58H140.299C140.449 297.16 140.739 296.815 141.169 296.545C141.599 296.265 142.049 296.125 142.519 296.125C142.869 296.125 143.169 296.175 143.419 296.275V297.655C143.099 297.495 142.739 297.415 142.339 297.415C141.969 297.415 141.629 297.52 141.319 297.73C141.009 297.94 140.759 298.225 140.569 298.585C140.389 298.935 140.299 299.315 140.299 299.725V304H139.024V296.35ZM147.6 304.24C146.87 304.24 146.215 304.065 145.635 303.715C145.055 303.365 144.6 302.885 144.27 302.275C143.95 301.655 143.79 300.96 143.79 300.19C143.79 299.46 143.94 298.785 144.24 298.165C144.55 297.535 144.985 297.035 145.545 296.665C146.115 296.295 146.765 296.11 147.495 296.11C148.245 296.11 148.895 296.28 149.445 296.62C149.995 296.95 150.415 297.41 150.705 298C151.005 298.59 151.155 299.265 151.155 300.025C151.155 300.145 151.145 300.275 151.125 300.415H145.065C145.095 300.995 145.235 301.485 145.485 301.885C145.735 302.285 146.05 302.585 146.43 302.785C146.82 302.985 147.225 303.085 147.645 303.085C148.645 303.085 149.4 302.625 149.91 301.705L150.99 302.23C150.67 302.84 150.225 303.33 149.655 303.7C149.085 304.06 148.4 304.24 147.6 304.24ZM149.805 299.365C149.785 299.045 149.695 298.725 149.535 298.405C149.375 298.085 149.125 297.815 148.785 297.595C148.445 297.375 148.015 297.265 147.495 297.265C146.895 297.265 146.385 297.46 145.965 297.85C145.545 298.23 145.27 298.735 145.14 299.365H149.805ZM155.975 304.24C155.285 304.24 154.66 304.065 154.1 303.715C153.55 303.365 153.115 302.885 152.795 302.275C152.475 301.655 152.315 300.955 152.315 300.175C152.315 299.405 152.475 298.71 152.795 298.09C153.115 297.47 153.55 296.985 154.1 296.635C154.66 296.285 155.285 296.11 155.975 296.11C156.555 296.11 157.075 296.245 157.535 296.515C157.995 296.775 158.345 297.1 158.585 297.49H158.645L158.585 296.425V293.26H159.86V304H158.645V302.875H158.585C158.345 303.255 157.995 303.58 157.535 303.85C157.075 304.11 156.555 304.24 155.975 304.24ZM156.11 303.085C156.56 303.085 156.975 302.965 157.355 302.725C157.745 302.485 158.055 302.145 158.285 301.705C158.525 301.265 158.645 300.755 158.645 300.175C158.645 299.595 158.525 299.085 158.285 298.645C158.055 298.205 157.745 297.865 157.355 297.625C156.975 297.385 156.56 297.265 156.11 297.265C155.67 297.265 155.255 297.385 154.865 297.625C154.475 297.865 154.16 298.21 153.92 298.66C153.69 299.1 153.575 299.605 153.575 300.175C153.575 300.745 153.69 301.255 153.92 301.705C154.16 302.145 154.475 302.485 154.865 302.725C155.255 302.965 155.67 303.085 156.11 303.085ZM162.494 294.94C162.244 294.94 162.029 294.85 161.849 294.67C161.669 294.49 161.579 294.275 161.579 294.025C161.579 293.765 161.669 293.55 161.849 293.38C162.029 293.2 162.244 293.11 162.494 293.11C162.754 293.11 162.969 293.2 163.139 293.38C163.319 293.55 163.409 293.765 163.409 294.025C163.409 294.275 163.319 294.49 163.139 294.67C162.969 294.85 162.754 294.94 162.494 294.94ZM161.864 296.35H163.139V304H161.864V296.35ZM167.994 304.12C167.684 304.12 167.394 304.07 167.124 303.97C166.864 303.87 166.644 303.735 166.464 303.565C166.064 303.185 165.864 302.66 165.864 301.99V297.505H164.529V296.35H165.864V294.19H167.139V296.35H169.014V297.505H167.139V301.675C167.139 302.095 167.219 302.405 167.379 302.605C167.569 302.825 167.844 302.935 168.204 302.935C168.514 302.935 168.794 302.85 169.044 302.68V303.925C168.894 303.995 168.739 304.045 168.579 304.075C168.429 304.105 168.234 304.12 167.994 304.12ZM169.903 305.38C170.583 304.57 171.143 303.62 171.583 302.53C172.023 301.43 172.243 300.31 172.243 299.17C172.243 298.03 172.023 296.915 171.583 295.825C171.143 294.725 170.583 293.77 169.903 292.96L170.833 292.3C171.563 293.14 172.188 294.16 172.708 295.36C173.238 296.55 173.503 297.82 173.503 299.17C173.503 300.52 173.238 301.795 172.708 302.995C172.188 304.185 171.563 305.2 170.833 306.04L169.903 305.38Z" fill="#212121"/>
</g>
</g>
<defs>
<filter id="filter0_d_5_1569" x="0" y="0" width="395" height="406" filterUnits="userSpaceOnUse" color-interpolation-filters="sRGB">
<feFlood flood-opacity="0" result="BackgroundImageFix"/>
<feColorMatrix in="SourceAlpha" type="matrix" values="0 0 0 0 0 0 0 0 0 0 0 0 0 0 0 0 0 0 127 0" result="hardAlpha"/>
<feOffset/>
<feGaussianBlur stdDeviation="12"/>
<feComposite in2="hardAlpha" operator="out"/>
<feColorMatrix type="matrix" values="0 0 0 0 0 0 0 0 0 0 0 0 0 0 0 0 0 0 0.12 0"/>
<feBlend mode="normal" in2="BackgroundImageFix" result="effect1_dropShadow_5_1569"/>
<feBlend mode="normal" in="SourceGraphic" in2="effect1_dropShadow_5_1569" result="shape"/>
</filter>
<filter id="filter1_d_5_1569" x="41" y="137" width="92" height="43" filterUnits="userSpaceOnUse" color-interpolation-filters="sRGB">
<feFlood flood-opacity="0" result="BackgroundImageFix"/>
<feColorMatrix in="SourceAlpha" type="matrix" values="0 0 0 0 0 0 0 0 0 0 0 0 0 0 0 0 0 0 127 0" result="hardAlpha"/>
<feOffset/>
<feGaussianBlur stdDeviation="2"/>
<feComposite in2="hardAlpha" operator="out"/>
<feColorMatrix type="matrix" values="0 0 0 0 0 0 0 0 0 0 0 0 0 0 0 0 0 0 0.12 0"/>
<feBlend mode="normal" in2="BackgroundImageFix" result="effect1_dropShadow_5_1569"/>
<feBlend mode="normal" in="SourceGraphic" in2="effect1_dropShadow_5_1569" result="shape"/>
</filter>
<filter id="filter2_d_5_1569" x="137" y="137" width="171" height="43" filterUnits="userSpaceOnUse" color-interpolation-filters="sRGB">
<feFlood flood-opacity="0" result="BackgroundImageFix"/>
<feColorMatrix in="SourceAlpha" type="matrix" values="0 0 0 0 0 0 0 0 0 0 0 0 0 0 0 0 0 0 127 0" result="hardAlpha"/>
<feOffset/>
<feGaussianBlur stdDeviation="2"/>
<feComposite in2="hardAlpha" operator="out"/>
<feColorMatrix type="matrix" values="0 0 0 0 0 0 0 0 0 0 0 0 0 0 0 0 0 0 0.12 0"/>
<feBlend mode="normal" in2="BackgroundImageFix" result="effect1_dropShadow_5_1569"/>
<feBlend mode="normal" in="SourceGraphic" in2="effect1_dropShadow_5_1569" result="shape"/>
</filter>
<filter id="filter3_d_5_1569" x="41" y="184" width="97" height="43" filterUnits="userSpaceOnUse" color-interpolation-filters="sRGB">
<feFlood flood-opacity="0" result="BackgroundImageFix"/>
<feColorMatrix in="SourceAlpha" type="matrix" values="0 0 0 0 0 0 0 0 0 0 0 0 0 0 0 0 0 0 127 0" result="hardAlpha"/>
<feOffset/>
<feGaussianBlur stdDeviation="2"/>
<feComposite in2="hardAlpha" operator="out"/>
<feColorMatrix type="matrix" values="0 0 0 0 0 0 0 0 0 0 0 0 0 0 0 0 0 0 0.12 0"/>
<feBlend mode="normal" in2="BackgroundImageFix" result="effect1_dropShadow_5_1569"/>
<feBlend mode="normal" in="SourceGraphic" in2="effect1_dropShadow_5_1569" result="shape"/>
</filter>
<filter id="filter4_d_5_1569" x="142" y="184" width="138" height="43" filterUnits="userSpaceOnUse" color-interpolation-filters="sRGB">
<feFlood flood-opacity="0" result="BackgroundImageFix"/>
<feColorMatrix in="SourceAlpha" type="matrix" values="0 0 0 0 0 0 0 0 0 0 0 0 0 0 0 0 0 0 127 0" result="hardAlpha"/>
<feOffset/>
<feGaussianBlur stdDeviation="2"/>
<feComposite in2="hardAlpha" operator="out"/>
<feColorMatrix type="matrix" values="0 0 0 0 0 0 0 0 0 0 0 0 0 0 0 0 0 0 0.12 0"/>
<feBlend mode="normal" in2="BackgroundImageFix" result="effect1_dropShadow_5_1569"/>
<feBlend mode="normal" in="SourceGraphic" in2="effect1_dropShadow_5_1569" result="shape"/>
</filter>
<filter id="filter5_d_5_1569" x="41" y="231" width="225" height="43" filterUnits="userSpaceOnUse" color-interpolation-filters="sRGB">
<feFlood flood-opacity="0" result="BackgroundImageFix"/>
<feColorMatrix in="SourceAlpha" type="matrix" values="0 0 0 0 0 0 0 0 0 0 0 0 0 0 0 0 0 0 127 0" result="hardAlpha"/>
<feOffset/>
<feGaussianBlur stdDeviation="2"/>
<feComposite in2="hardAlpha" operator="out"/>
<feColorMatrix type="matrix" values="0 0 0 0 0 0 0 0 0 0 0 0 0 0 0 0 0 0 0.12 0"/>
<feBlend mode="normal" in2="BackgroundImageFix" result="effect1_dropShadow_5_1569"/>
<feBlend mode="normal" in="SourceGraphic" in2="effect1_dropShadow_5_1569" result="shape"/>
</filter>
<filter id="filter6_d_5_1569" x="41" y="278" width="150" height="43" filterUnits="userSpaceOnUse" color-interpolation-filters="sRGB">
<feFlood flood-opacity="0" result="BackgroundImageFix"/>
<feColorMatrix in="SourceAlpha" type="matrix" values="0 0 0 0 0 0 0 0 0 0 0 0 0 0 0 0 0 0 127 0" result="hardAlpha"/>
<feOffset/>
<feGaussianBlur stdDeviation="2"/>
<feComposite in2="hardAlpha" operator="out"/>
<feColorMatrix type="matrix" values="0 0 0 0 0 0 0 0 0 0 0 0 0 0 0 0 0 0 0.12 0"/>
<feBlend mode="normal" in2="BackgroundImageFix" result="effect1_dropShadow_5_1569"/>
<feBlend mode="normal" in="SourceGraphic" in2="effect1_dropShadow_5_1569" result="shape"/>
</filter>
</defs>
</svg>
