<svg width="277" height="197" viewBox="0 0 277 197" fill="none" xmlns="http://www.w3.org/2000/svg">
<g filter="url(#filter0_d_5_791)">
<g clip-path="url(#clip0_5_791)">
<path d="M18 26C18 21.5817 21.5817 18 26 18H251C255.418 18 259 21.5817 259 26V171C259 175.418 255.418 179 251 179H26C21.5817 179 18 175.418 18 171V26Z" fill="white"/>
<path d="M52.312 121.544H56.792C57.432 121.544 58.0187 121.677 58.552 121.944C59.096 122.211 59.5227 122.573 59.832 123.032C60.1413 123.491 60.296 123.992 60.296 124.536C60.296 125.112 60.152 125.613 59.864 126.04C59.5867 126.456 59.2187 126.776 58.76 127V127.128C59.3573 127.341 59.832 127.683 60.184 128.152C60.536 128.611 60.712 129.165 60.712 129.816C60.712 130.445 60.5413 131.005 60.2 131.496C59.8693 131.976 59.416 132.349 58.84 132.616C58.2747 132.872 57.6453 133 56.952 133H52.312V121.544ZM56.632 126.216C57.1013 126.216 57.4747 126.088 57.752 125.832C58.04 125.565 58.184 125.235 58.184 124.84C58.184 124.456 58.0453 124.136 57.768 123.88C57.5013 123.613 57.144 123.48 56.696 123.48H54.472V126.216H56.632ZM56.872 131.032C57.3947 131.032 57.8 130.899 58.088 130.632C58.3867 130.355 58.536 129.997 58.536 129.56C58.536 129.123 58.3867 128.765 58.088 128.488C57.7893 128.211 57.3627 128.072 56.808 128.072H54.472V131.032H56.872ZM66.2874 133.256C65.4447 133.256 64.6927 133.069 64.0314 132.696C63.37 132.312 62.8527 131.795 62.4794 131.144C62.1167 130.483 61.9354 129.741 61.9354 128.92C61.9354 128.109 62.1167 127.373 62.4794 126.712C62.8527 126.051 63.37 125.533 64.0314 125.16C64.6927 124.776 65.4447 124.584 66.2874 124.584C67.1194 124.584 67.866 124.776 68.5274 125.16C69.1887 125.533 69.7007 126.051 70.0634 126.712C70.4367 127.373 70.6234 128.109 70.6234 128.92C70.6234 129.741 70.4367 130.483 70.0634 131.144C69.7007 131.795 69.1887 132.312 68.5274 132.696C67.866 133.069 67.1194 133.256 66.2874 133.256ZM66.2874 131.32C66.6927 131.32 67.066 131.224 67.4074 131.032C67.7487 130.84 68.0207 130.563 68.2234 130.2C68.426 129.837 68.5274 129.411 68.5274 128.92C68.5274 128.44 68.426 128.019 68.2234 127.656C68.0207 127.293 67.7487 127.016 67.4074 126.824C67.066 126.632 66.6927 126.536 66.2874 126.536C65.882 126.536 65.5087 126.632 65.1674 126.824C64.826 127.016 64.5487 127.293 64.3354 127.656C64.1327 128.019 64.0314 128.44 64.0314 128.92C64.0314 129.4 64.1327 129.827 64.3354 130.2C64.5487 130.563 64.826 130.84 65.1674 131.032C65.5087 131.224 65.882 131.32 66.2874 131.32ZM76.1311 133.256C75.2885 133.256 74.5365 133.069 73.8751 132.696C73.2138 132.312 72.6965 131.795 72.3231 131.144C71.9605 130.483 71.7791 129.741 71.7791 128.92C71.7791 128.109 71.9605 127.373 72.3231 126.712C72.6965 126.051 73.2138 125.533 73.8751 125.16C74.5365 124.776 75.2885 124.584 76.1311 124.584C76.9631 124.584 77.7098 124.776 78.3711 125.16C79.0325 125.533 79.5445 126.051 79.9071 126.712C80.2805 127.373 80.4671 128.109 80.4671 128.92C80.4671 129.741 80.2805 130.483 79.9071 131.144C79.5445 131.795 79.0325 132.312 78.3711 132.696C77.7098 133.069 76.9631 133.256 76.1311 133.256ZM76.1311 131.32C76.5365 131.32 76.9098 131.224 77.2511 131.032C77.5925 130.84 77.8645 130.563 78.0671 130.2C78.2698 129.837 78.3711 129.411 78.3711 128.92C78.3711 128.44 78.2698 128.019 78.0671 127.656C77.8645 127.293 77.5925 127.016 77.2511 126.824C76.9098 126.632 76.5365 126.536 76.1311 126.536C75.7258 126.536 75.3525 126.632 75.0111 126.824C74.6698 127.016 74.3925 127.293 74.1791 127.656C73.9765 128.019 73.8751 128.44 73.8751 128.92C73.8751 129.4 73.9765 129.827 74.1791 130.2C74.3925 130.563 74.6698 130.84 75.0111 131.032C75.3525 131.224 75.7258 131.32 76.1311 131.32ZM85.0968 133.256C84.1048 133.256 83.2994 133.053 82.6808 132.648C82.0728 132.243 81.6461 131.715 81.4008 131.064L83.2728 130.248C83.4434 130.632 83.6834 130.925 83.9928 131.128C84.3128 131.32 84.6808 131.416 85.0968 131.416C85.4808 131.416 85.8008 131.357 86.0568 131.24C86.3128 131.112 86.4408 130.909 86.4408 130.632C86.4408 130.365 86.3234 130.168 86.0888 130.04C85.8541 129.901 85.5021 129.779 85.0328 129.672L84.0728 129.464C83.4114 129.304 82.8621 129.016 82.4248 128.6C81.9874 128.173 81.7688 127.645 81.7688 127.016C81.7688 126.547 81.9074 126.125 82.1848 125.752C82.4728 125.379 82.8568 125.091 83.3368 124.888C83.8274 124.685 84.3661 124.584 84.9528 124.584C86.6381 124.584 87.7634 125.176 88.3288 126.36L86.5368 127.144C86.2168 126.568 85.7048 126.28 85.0008 126.28C84.6381 126.28 84.3501 126.349 84.1368 126.488C83.9234 126.616 83.8168 126.781 83.8168 126.984C83.8168 127.368 84.1794 127.656 84.9048 127.848L86.1048 128.136C86.9154 128.339 87.5234 128.648 87.9288 129.064C88.3448 129.48 88.5528 129.992 88.5528 130.6C88.5528 131.123 88.3981 131.587 88.0888 131.992C87.7901 132.387 87.3741 132.696 86.8408 132.92C86.3181 133.144 85.7368 133.256 85.0968 133.256ZM93.5448 133.128C93.1394 133.128 92.7661 133.069 92.4248 132.952C92.0834 132.824 91.8061 132.653 91.5928 132.44C91.0914 131.96 90.8408 131.277 90.8408 130.392V126.632H89.4168V124.84H90.8408V122.536H92.9368V124.84H94.9368V126.632H92.9368V130.008C92.9368 130.424 93.0274 130.723 93.2088 130.904C93.3581 131.075 93.6141 131.16 93.9768 131.16C94.1794 131.16 94.3448 131.133 94.4728 131.08C94.6114 131.027 94.7874 130.936 95.0008 130.808V132.856C94.5421 133.037 94.0568 133.128 93.5448 133.128ZM104.27 133.256C103.449 133.256 102.713 133.075 102.062 132.712C101.412 132.339 100.9 131.821 100.526 131.16C100.164 130.499 99.9823 129.752 99.9823 128.92C99.9823 128.088 100.164 127.347 100.526 126.696C100.9 126.035 101.412 125.517 102.062 125.144C102.713 124.771 103.449 124.584 104.27 124.584C105.177 124.584 105.956 124.781 106.606 125.176C107.257 125.56 107.726 126.109 108.014 126.824L106.094 127.624C105.753 126.899 105.145 126.536 104.27 126.536C103.63 126.536 103.102 126.755 102.686 127.192C102.281 127.629 102.078 128.205 102.078 128.92C102.078 129.645 102.281 130.227 102.686 130.664C103.102 131.101 103.63 131.32 104.27 131.32C105.156 131.32 105.796 130.936 106.19 130.168L108.094 131C107.742 131.715 107.241 132.269 106.59 132.664C105.94 133.059 105.166 133.256 104.27 133.256ZM113.428 133.256C112.585 133.256 111.833 133.069 111.172 132.696C110.511 132.312 109.993 131.795 109.62 131.144C109.257 130.483 109.076 129.741 109.076 128.92C109.076 128.109 109.257 127.373 109.62 126.712C109.993 126.051 110.511 125.533 111.172 125.16C111.833 124.776 112.585 124.584 113.428 124.584C114.26 124.584 115.007 124.776 115.668 125.16C116.329 125.533 116.841 126.051 117.204 126.712C117.577 127.373 117.764 128.109 117.764 128.92C117.764 129.741 117.577 130.483 117.204 131.144C116.841 131.795 116.329 132.312 115.668 132.696C115.007 133.069 114.26 133.256 113.428 133.256ZM113.428 131.32C113.833 131.32 114.207 131.224 114.548 131.032C114.889 130.84 115.161 130.563 115.364 130.2C115.567 129.837 115.668 129.411 115.668 128.92C115.668 128.44 115.567 128.019 115.364 127.656C115.161 127.293 114.889 127.016 114.548 126.824C114.207 126.632 113.833 126.536 113.428 126.536C113.023 126.536 112.649 126.632 112.308 126.824C111.967 127.016 111.689 127.293 111.476 127.656C111.273 128.019 111.172 128.44 111.172 128.92C111.172 129.4 111.273 129.827 111.476 130.2C111.689 130.563 111.967 130.84 112.308 131.032C112.649 131.224 113.023 131.32 113.428 131.32ZM119.29 121.544H121.386V133H119.29V121.544ZM123.446 121.544H125.542V133H123.446V121.544ZM131.348 133.256C130.537 133.256 129.807 133.069 129.156 132.696C128.505 132.323 127.993 131.811 127.62 131.16C127.257 130.499 127.076 129.757 127.076 128.936C127.076 128.157 127.257 127.437 127.62 126.776C127.983 126.104 128.484 125.571 129.124 125.176C129.764 124.781 130.479 124.584 131.268 124.584C132.111 124.584 132.836 124.765 133.444 125.128C134.052 125.491 134.511 125.987 134.82 126.616C135.14 127.245 135.3 127.944 135.3 128.712C135.3 128.957 135.284 129.192 135.252 129.416H129.124C129.231 130.067 129.487 130.563 129.892 130.904C130.308 131.235 130.804 131.4 131.38 131.4C131.86 131.4 132.271 131.299 132.612 131.096C132.964 130.883 133.241 130.6 133.444 130.248L135.14 131.08C134.308 132.531 133.044 133.256 131.348 133.256ZM133.284 127.928C133.263 127.672 133.167 127.421 132.996 127.176C132.836 126.92 132.607 126.712 132.308 126.552C132.02 126.381 131.679 126.296 131.284 126.296C130.783 126.296 130.351 126.445 129.988 126.744C129.636 127.032 129.38 127.427 129.22 127.928H133.284ZM140.753 136.712C139.718 136.712 138.859 136.477 138.177 136.008C137.494 135.549 137.035 134.995 136.801 134.344L138.769 133.544C138.939 133.949 139.201 134.269 139.553 134.504C139.905 134.739 140.305 134.856 140.753 134.856C141.414 134.856 141.937 134.653 142.321 134.248C142.715 133.843 142.913 133.267 142.913 132.52V131.88H142.785C142.529 132.243 142.193 132.52 141.777 132.712C141.361 132.904 140.886 133 140.353 133C139.681 133 139.051 132.829 138.465 132.488C137.889 132.136 137.425 131.645 137.073 131.016C136.721 130.376 136.545 129.635 136.545 128.792C136.545 127.949 136.721 127.213 137.073 126.584C137.425 125.944 137.889 125.453 138.465 125.112C139.051 124.76 139.681 124.584 140.353 124.584C140.886 124.584 141.361 124.68 141.777 124.872C142.193 125.064 142.529 125.341 142.785 125.704H142.913V124.84H144.929V132.44C144.929 133.315 144.758 134.072 144.417 134.712C144.075 135.352 143.59 135.843 142.961 136.184C142.331 136.536 141.595 136.712 140.753 136.712ZM140.785 131.096C141.371 131.096 141.873 130.893 142.289 130.488C142.705 130.072 142.913 129.507 142.913 128.792C142.913 128.056 142.705 127.491 142.289 127.096C141.883 126.691 141.382 126.488 140.785 126.488C140.187 126.488 139.681 126.691 139.265 127.096C138.849 127.501 138.641 128.067 138.641 128.792C138.641 129.517 138.849 130.083 139.265 130.488C139.681 130.893 140.187 131.096 140.785 131.096ZM150.723 133.256C149.912 133.256 149.182 133.069 148.531 132.696C147.88 132.323 147.368 131.811 146.995 131.16C146.632 130.499 146.451 129.757 146.451 128.936C146.451 128.157 146.632 127.437 146.995 126.776C147.358 126.104 147.859 125.571 148.499 125.176C149.139 124.781 149.854 124.584 150.643 124.584C151.486 124.584 152.211 124.765 152.819 125.128C153.427 125.491 153.886 125.987 154.195 126.616C154.515 127.245 154.675 127.944 154.675 128.712C154.675 128.957 154.659 129.192 154.627 129.416H148.499C148.606 130.067 148.862 130.563 149.267 130.904C149.683 131.235 150.179 131.4 150.755 131.4C151.235 131.4 151.646 131.299 151.987 131.096C152.339 130.883 152.616 130.6 152.819 130.248L154.515 131.08C153.683 132.531 152.419 133.256 150.723 133.256ZM152.659 127.928C152.638 127.672 152.542 127.421 152.371 127.176C152.211 126.92 151.982 126.712 151.683 126.552C151.395 126.381 151.054 126.296 150.659 126.296C150.158 126.296 149.726 126.445 149.363 126.744C149.011 127.032 148.755 127.427 148.595 127.928H152.659ZM162.536 133.256C161.672 133.256 160.962 133.005 160.408 132.504C159.853 131.992 159.576 131.325 159.576 130.504C159.576 129.96 159.72 129.48 160.008 129.064C160.296 128.648 160.69 128.328 161.192 128.104C161.693 127.88 162.248 127.768 162.856 127.768C163.698 127.768 164.418 127.891 165.016 128.136V127.784C165.016 127.336 164.845 126.973 164.504 126.696C164.173 126.419 163.725 126.28 163.16 126.28C162.776 126.28 162.402 126.371 162.04 126.552C161.688 126.723 161.394 126.952 161.16 127.24L159.816 126.184C160.21 125.672 160.706 125.277 161.304 125C161.901 124.723 162.552 124.584 163.256 124.584C164.504 124.584 165.453 124.872 166.104 125.448C166.754 126.024 167.08 126.867 167.08 127.976V133H165.016V132.168H164.888C164.642 132.488 164.317 132.749 163.912 132.952C163.517 133.155 163.058 133.256 162.536 133.256ZM163.032 131.624C163.64 131.624 164.12 131.432 164.472 131.048C164.834 130.653 165.016 130.195 165.016 129.672C164.472 129.416 163.901 129.288 163.304 129.288C162.216 129.288 161.672 129.693 161.672 130.504C161.672 130.835 161.789 131.107 162.024 131.32C162.258 131.523 162.594 131.624 163.032 131.624ZM172.434 133.256C171.698 133.256 171.026 133.075 170.418 132.712C169.821 132.339 169.346 131.827 168.994 131.176C168.653 130.515 168.482 129.763 168.482 128.92C168.482 128.088 168.653 127.341 168.994 126.68C169.346 126.019 169.821 125.507 170.418 125.144C171.026 124.771 171.698 124.584 172.434 124.584C172.989 124.584 173.48 124.707 173.906 124.952C174.333 125.187 174.658 125.48 174.882 125.832H175.01L174.882 124.68V121.544H176.962V133H175.01V132.024H174.882C174.669 132.376 174.344 132.669 173.906 132.904C173.48 133.139 172.989 133.256 172.434 133.256ZM172.786 131.32C173.181 131.32 173.549 131.219 173.89 131.016C174.232 130.813 174.504 130.531 174.706 130.168C174.909 129.805 175.01 129.389 175.01 128.92C175.01 128.451 174.909 128.035 174.706 127.672C174.504 127.309 174.232 127.032 173.89 126.84C173.549 126.637 173.181 126.536 172.786 126.536C172.402 126.536 172.04 126.637 171.698 126.84C171.357 127.032 171.085 127.309 170.882 127.672C170.68 128.035 170.578 128.451 170.578 128.92C170.578 129.389 170.68 129.805 170.882 130.168C171.085 130.531 171.357 130.813 171.698 131.016C172.04 131.219 172.402 131.32 172.786 131.32ZM179.024 124.84H180.992V125.864H181.12C181.376 125.469 181.717 125.16 182.144 124.936C182.581 124.701 183.067 124.584 183.6 124.584C184.176 124.584 184.677 124.723 185.104 125C185.531 125.267 185.835 125.608 186.016 126.024C186.283 125.597 186.645 125.251 187.104 124.984C187.573 124.717 188.123 124.584 188.752 124.584C189.68 124.584 190.384 124.872 190.864 125.448C191.355 126.013 191.6 126.781 191.6 127.752V133H189.52V128.136C189.52 127.624 189.397 127.229 189.152 126.952C188.917 126.675 188.587 126.536 188.16 126.536C187.616 126.536 187.179 126.755 186.848 127.192C186.528 127.619 186.368 128.184 186.368 128.888V133H184.272V128.136C184.272 127.624 184.144 127.229 183.888 126.952C183.643 126.675 183.291 126.536 182.832 126.536C182.32 126.536 181.904 126.755 181.584 127.192C181.275 127.619 181.12 128.184 181.12 128.888V133H179.024V124.84ZM194.786 123.944C194.413 123.944 194.093 123.811 193.826 123.544C193.559 123.277 193.426 122.957 193.426 122.584C193.426 122.211 193.559 121.896 193.826 121.64C194.093 121.373 194.413 121.24 194.786 121.24C195.159 121.24 195.474 121.373 195.73 121.64C195.997 121.896 196.13 122.211 196.13 122.584C196.13 122.957 195.997 123.277 195.73 123.544C195.474 123.811 195.159 123.944 194.786 123.944ZM193.73 124.84H195.826V133H193.73V124.84ZM201.112 133.256C200.12 133.256 199.315 133.053 198.696 132.648C198.088 132.243 197.662 131.715 197.416 131.064L199.288 130.248C199.459 130.632 199.699 130.925 200.008 131.128C200.328 131.32 200.696 131.416 201.112 131.416C201.496 131.416 201.816 131.357 202.072 131.24C202.328 131.112 202.456 130.909 202.456 130.632C202.456 130.365 202.339 130.168 202.104 130.04C201.87 129.901 201.518 129.779 201.048 129.672L200.088 129.464C199.427 129.304 198.878 129.016 198.44 128.6C198.003 128.173 197.784 127.645 197.784 127.016C197.784 126.547 197.923 126.125 198.2 125.752C198.488 125.379 198.872 125.091 199.352 124.888C199.843 124.685 200.382 124.584 200.968 124.584C202.654 124.584 203.779 125.176 204.344 126.36L202.552 127.144C202.232 126.568 201.72 126.28 201.016 126.28C200.654 126.28 200.366 126.349 200.152 126.488C199.939 126.616 199.832 126.781 199.832 126.984C199.832 127.368 200.195 127.656 200.92 127.848L202.12 128.136C202.931 128.339 203.539 128.648 203.944 129.064C204.36 129.48 204.568 129.992 204.568 130.6C204.568 131.123 204.414 131.587 204.104 131.992C203.806 132.387 203.39 132.696 202.856 132.92C202.334 133.144 201.752 133.256 201.112 133.256ZM209.191 133.256C208.199 133.256 207.393 133.053 206.775 132.648C206.167 132.243 205.74 131.715 205.495 131.064L207.367 130.248C207.537 130.632 207.777 130.925 208.087 131.128C208.407 131.32 208.775 131.416 209.191 131.416C209.575 131.416 209.895 131.357 210.151 131.24C210.407 131.112 210.535 130.909 210.535 130.632C210.535 130.365 210.417 130.168 210.183 130.04C209.948 129.901 209.596 129.779 209.127 129.672L208.167 129.464C207.505 129.304 206.956 129.016 206.519 128.6C206.081 128.173 205.863 127.645 205.863 127.016C205.863 126.547 206.001 126.125 206.279 125.752C206.567 125.379 206.951 125.091 207.431 124.888C207.921 124.685 208.46 124.584 209.047 124.584C210.732 124.584 211.857 125.176 212.423 126.36L210.631 127.144C210.311 126.568 209.799 126.28 209.095 126.28C208.732 126.28 208.444 126.349 208.231 126.488C208.017 126.616 207.911 126.781 207.911 126.984C207.911 127.368 208.273 127.656 208.999 127.848L210.199 128.136C211.009 128.339 211.617 128.648 212.023 129.064C212.439 129.48 212.647 129.992 212.647 130.6C212.647 131.123 212.492 131.587 212.183 131.992C211.884 132.387 211.468 132.696 210.935 132.92C210.412 133.144 209.831 133.256 209.191 133.256ZM215.271 123.944C214.897 123.944 214.577 123.811 214.311 123.544C214.044 123.277 213.911 122.957 213.911 122.584C213.911 122.211 214.044 121.896 214.311 121.64C214.577 121.373 214.897 121.24 215.271 121.24C215.644 121.24 215.959 121.373 216.215 121.64C216.481 121.896 216.615 122.211 216.615 122.584C216.615 122.957 216.481 123.277 216.215 123.544C215.959 123.811 215.644 123.944 215.271 123.944ZM214.215 124.84H216.311V133H214.215V124.84ZM222.319 133.256C221.476 133.256 220.724 133.069 220.063 132.696C219.401 132.312 218.884 131.795 218.511 131.144C218.148 130.483 217.967 129.741 217.967 128.92C217.967 128.109 218.148 127.373 218.511 126.712C218.884 126.051 219.401 125.533 220.063 125.16C220.724 124.776 221.476 124.584 222.319 124.584C223.151 124.584 223.897 124.776 224.559 125.16C225.22 125.533 225.732 126.051 226.095 126.712C226.468 127.373 226.655 128.109 226.655 128.92C226.655 129.741 226.468 130.483 226.095 131.144C225.732 131.795 225.22 132.312 224.559 132.696C223.897 133.069 223.151 133.256 222.319 133.256ZM222.319 131.32C222.724 131.32 223.097 131.224 223.439 131.032C223.78 130.84 224.052 130.563 224.255 130.2C224.457 129.837 224.559 129.411 224.559 128.92C224.559 128.44 224.457 128.019 224.255 127.656C224.052 127.293 223.78 127.016 223.439 126.824C223.097 126.632 222.724 126.536 222.319 126.536C221.913 126.536 221.54 126.632 221.199 126.824C220.857 127.016 220.58 127.293 220.367 127.656C220.164 128.019 220.063 128.44 220.063 128.92C220.063 129.4 220.164 129.827 220.367 130.2C220.58 130.563 220.857 130.84 221.199 131.032C221.54 131.224 221.913 131.32 222.319 131.32ZM228.102 124.84H230.07V125.864H230.198C230.443 125.469 230.79 125.16 231.238 124.936C231.686 124.701 232.171 124.584 232.694 124.584C233.675 124.584 234.422 124.883 234.934 125.48C235.446 126.077 235.702 126.893 235.702 127.928V133H233.606V128.184C233.606 127.661 233.473 127.256 233.206 126.968C232.939 126.68 232.566 126.536 232.086 126.536C231.521 126.536 231.062 126.755 230.71 127.192C230.369 127.629 230.198 128.179 230.198 128.84V133H228.102V124.84ZM245.27 133.256C244.449 133.256 243.713 133.075 243.062 132.712C242.412 132.339 241.9 131.821 241.526 131.16C241.164 130.499 240.982 129.752 240.982 128.92C240.982 128.088 241.164 127.347 241.526 126.696C241.9 126.035 242.412 125.517 243.062 125.144C243.713 124.771 244.449 124.584 245.27 124.584C246.177 124.584 246.956 124.781 247.606 125.176C248.257 125.56 248.726 126.109 249.014 126.824L247.094 127.624C246.753 126.899 246.145 126.536 245.27 126.536C244.63 126.536 244.102 126.755 243.686 127.192C243.281 127.629 243.078 128.205 243.078 128.92C243.078 129.645 243.281 130.227 243.686 130.664C244.102 131.101 244.63 131.32 245.27 131.32C246.156 131.32 246.796 130.936 247.19 130.168L249.094 131C248.742 131.715 248.241 132.269 247.59 132.664C246.94 133.059 246.166 133.256 245.27 133.256ZM250.602 121.544H252.698V124.44L252.57 125.864H252.698C252.933 125.48 253.274 125.171 253.722 124.936C254.17 124.701 254.655 124.584 255.178 124.584C256.17 124.584 256.927 124.883 257.45 125.48C257.983 126.067 258.25 126.883 258.25 127.928V133H256.154V128.184C256.154 127.661 256.01 127.256 255.722 126.968C255.445 126.68 255.071 126.536 254.602 126.536C254.047 126.536 253.589 126.76 253.226 127.208C252.874 127.656 252.698 128.205 252.698 128.856V133H250.602V121.544ZM262.645 133.256C261.781 133.256 261.072 133.005 260.517 132.504C259.962 131.992 259.685 131.325 259.685 130.504C259.685 129.96 259.829 129.48 260.117 129.064C260.405 128.648 260.8 128.328 261.301 128.104C261.802 127.88 262.357 127.768 262.965 127.768C263.808 127.768 264.528 127.891 265.125 128.136V127.784C265.125 127.336 264.954 126.973 264.613 126.696C264.282 126.419 263.834 126.28 263.269 126.28C262.885 126.28 262.512 126.371 262.149 126.552C261.797 126.723 261.504 126.952 261.269 127.24L259.925 126.184C260.32 125.672 260.816 125.277 261.413 125C262.01 124.723 262.661 124.584 263.365 124.584C264.613 124.584 265.562 124.872 266.213 125.448C266.864 126.024 267.189 126.867 267.189 127.976V133H265.125V132.168H264.997C264.752 132.488 264.426 132.749 264.021 132.952C263.626 133.155 263.168 133.256 262.645 133.256ZM263.141 131.624C263.749 131.624 264.229 131.432 264.581 131.048C264.944 130.653 265.125 130.195 265.125 129.672C264.581 129.416 264.01 129.288 263.413 129.288C262.325 129.288 261.781 129.693 261.781 130.504C261.781 130.835 261.898 131.107 262.133 131.32C262.368 131.523 262.704 131.624 263.141 131.624ZM269.118 124.84H271.086V125.864H271.214C271.459 125.469 271.806 125.16 272.254 124.936C272.702 124.701 273.187 124.584 273.71 124.584C274.691 124.584 275.438 124.883 275.95 125.48C276.462 126.077 276.718 126.893 276.718 127.928V133H274.622V128.184C274.622 127.661 274.488 127.256 274.222 126.968C273.955 126.68 273.582 126.536 273.102 126.536C272.536 126.536 272.078 126.755 271.726 127.192C271.384 127.629 271.214 128.179 271.214 128.84V133H269.118V124.84ZM282.536 133.256C281.715 133.256 280.979 133.075 280.328 132.712C279.677 132.339 279.165 131.821 278.792 131.16C278.429 130.499 278.248 129.752 278.248 128.92C278.248 128.088 278.429 127.347 278.792 126.696C279.165 126.035 279.677 125.517 280.328 125.144C280.979 124.771 281.715 124.584 282.536 124.584C283.443 124.584 284.221 124.781 284.872 125.176C285.523 125.56 285.992 126.109 286.28 126.824L284.36 127.624C284.019 126.899 283.411 126.536 282.536 126.536C281.896 126.536 281.368 126.755 280.952 127.192C280.547 127.629 280.344 128.205 280.344 128.92C280.344 129.645 280.547 130.227 280.952 130.664C281.368 131.101 281.896 131.32 282.536 131.32C283.421 131.32 284.061 130.936 284.456 130.168L286.36 131C286.008 131.715 285.507 132.269 284.856 132.664C284.205 133.059 283.432 133.256 282.536 133.256ZM291.614 133.256C290.803 133.256 290.072 133.069 289.422 132.696C288.771 132.323 288.259 131.811 287.886 131.16C287.523 130.499 287.342 129.757 287.342 128.936C287.342 128.157 287.523 127.437 287.886 126.776C288.248 126.104 288.75 125.571 289.39 125.176C290.03 124.781 290.744 124.584 291.534 124.584C292.376 124.584 293.102 124.765 293.71 125.128C294.318 125.491 294.776 125.987 295.086 126.616C295.406 127.245 295.566 127.944 295.566 128.712C295.566 128.957 295.55 129.192 295.518 129.416H289.39C289.496 130.067 289.752 130.563 290.158 130.904C290.574 131.235 291.07 131.4 291.646 131.4C292.126 131.4 292.536 131.299 292.878 131.096C293.23 130.883 293.507 130.6 293.71 130.248L295.406 131.08C294.574 132.531 293.31 133.256 291.614 133.256ZM293.55 127.928C293.528 127.672 293.432 127.421 293.262 127.176C293.102 126.92 292.872 126.712 292.574 126.552C292.286 126.381 291.944 126.296 291.55 126.296C291.048 126.296 290.616 126.445 290.254 126.744C289.902 127.032 289.646 127.427 289.486 127.928H293.55ZM300.362 133.256C299.37 133.256 298.565 133.053 297.946 132.648C297.338 132.243 296.912 131.715 296.666 131.064L298.538 130.248C298.709 130.632 298.949 130.925 299.258 131.128C299.578 131.32 299.946 131.416 300.362 131.416C300.746 131.416 301.066 131.357 301.322 131.24C301.578 131.112 301.706 130.909 301.706 130.632C301.706 130.365 301.589 130.168 301.354 130.04C301.12 129.901 300.768 129.779 300.298 129.672L299.338 129.464C298.677 129.304 298.128 129.016 297.69 128.6C297.253 128.173 297.034 127.645 297.034 127.016C297.034 126.547 297.173 126.125 297.45 125.752C297.738 125.379 298.122 125.091 298.602 124.888C299.093 124.685 299.632 124.584 300.218 124.584C301.904 124.584 303.029 125.176 303.594 126.36L301.802 127.144C301.482 126.568 300.97 126.28 300.266 126.28C299.904 126.28 299.616 126.349 299.402 126.488C299.189 126.616 299.082 126.781 299.082 126.984C299.082 127.368 299.445 127.656 300.17 127.848L301.37 128.136C302.181 128.339 302.789 128.648 303.194 129.064C303.61 129.48 303.818 129.992 303.818 130.6C303.818 131.123 303.664 131.587 303.354 131.992C303.056 132.387 302.64 132.696 302.106 132.92C301.584 133.144 301.002 133.256 300.362 133.256Z" fill="white"/>
<path d="M36.458 115.112H41.282C41.966 115.112 42.602 115.262 43.19 115.562C43.778 115.862 44.24 116.276 44.576 116.804C44.924 117.32 45.098 117.896 45.098 118.532C45.098 119.168 44.936 119.726 44.612 120.206C44.3 120.674 43.88 121.034 43.352 121.286V121.376C44.024 121.604 44.558 121.982 44.954 122.51C45.35 123.038 45.548 123.662 45.548 124.382C45.548 125.09 45.362 125.72 44.99 126.272C44.63 126.812 44.138 127.238 43.514 127.55C42.902 127.85 42.23 128 41.498 128H36.458V115.112ZM41.192 120.53C41.792 120.53 42.272 120.35 42.632 119.99C42.992 119.618 43.172 119.192 43.172 118.712C43.172 118.232 42.992 117.818 42.632 117.47C42.284 117.11 41.828 116.93 41.264 116.93H38.438V120.53H41.192ZM41.498 126.164C42.122 126.164 42.62 125.978 42.992 125.606C43.376 125.222 43.568 124.766 43.568 124.238C43.568 123.71 43.37 123.254 42.974 122.87C42.59 122.486 42.074 122.294 41.426 122.294H38.438V126.164H41.498ZM51.7216 128.288C50.7976 128.288 49.9696 128.078 49.2376 127.658C48.5056 127.226 47.9356 126.638 47.5276 125.894C47.1196 125.15 46.9156 124.322 46.9156 123.41C46.9156 122.498 47.1196 121.67 47.5276 120.926C47.9356 120.182 48.5056 119.6 49.2376 119.18C49.9696 118.748 50.7976 118.532 51.7216 118.532C52.6336 118.532 53.4556 118.748 54.1876 119.18C54.9196 119.612 55.4896 120.2 55.8976 120.944C56.3056 121.688 56.5096 122.51 56.5096 123.41C56.5096 124.322 56.3056 125.15 55.8976 125.894C55.4896 126.638 54.9196 127.226 54.1876 127.658C53.4676 128.078 52.6456 128.288 51.7216 128.288ZM51.7216 126.506C52.2376 126.506 52.7116 126.38 53.1436 126.128C53.5756 125.876 53.9236 125.516 54.1876 125.048C54.4516 124.58 54.5836 124.034 54.5836 123.41C54.5836 122.786 54.4516 122.24 54.1876 121.772C53.9236 121.304 53.5756 120.944 53.1436 120.692C52.7116 120.44 52.2376 120.314 51.7216 120.314C51.2056 120.314 50.7256 120.44 50.2816 120.692C49.8496 120.944 49.5016 121.304 49.2376 121.772C48.9736 122.24 48.8416 122.786 48.8416 123.41C48.8416 124.034 48.9736 124.58 49.2376 125.048C49.5016 125.516 49.8496 125.876 50.2816 126.128C50.7256 126.38 51.2056 126.506 51.7216 126.506ZM62.62 128.288C61.696 128.288 60.868 128.078 60.136 127.658C59.404 127.226 58.834 126.638 58.426 125.894C58.018 125.15 57.814 124.322 57.814 123.41C57.814 122.498 58.018 121.67 58.426 120.926C58.834 120.182 59.404 119.6 60.136 119.18C60.868 118.748 61.696 118.532 62.62 118.532C63.532 118.532 64.354 118.748 65.086 119.18C65.818 119.612 66.388 120.2 66.796 120.944C67.204 121.688 67.408 122.51 67.408 123.41C67.408 124.322 67.204 125.15 66.796 125.894C66.388 126.638 65.818 127.226 65.086 127.658C64.366 128.078 63.544 128.288 62.62 128.288ZM62.62 126.506C63.136 126.506 63.61 126.38 64.042 126.128C64.474 125.876 64.822 125.516 65.086 125.048C65.35 124.58 65.482 124.034 65.482 123.41C65.482 122.786 65.35 122.24 65.086 121.772C64.822 121.304 64.474 120.944 64.042 120.692C63.61 120.44 63.136 120.314 62.62 120.314C62.104 120.314 61.624 120.44 61.18 120.692C60.748 120.944 60.4 121.304 60.136 121.772C59.872 122.24 59.74 122.786 59.74 123.41C59.74 124.034 59.872 124.58 60.136 125.048C60.4 125.516 60.748 125.876 61.18 126.128C61.624 126.38 62.104 126.506 62.62 126.506ZM72.4586 128.288C71.4146 128.288 70.5506 128.06 69.8666 127.604C69.1946 127.148 68.7206 126.554 68.4446 125.822L70.1906 125.066C70.4066 125.558 70.7126 125.936 71.1086 126.2C71.5046 126.452 71.9546 126.578 72.4586 126.578C72.9746 126.578 73.4066 126.488 73.7546 126.308C74.1026 126.116 74.2766 125.834 74.2766 125.462C74.2766 125.126 74.1266 124.862 73.8266 124.67C73.5386 124.466 73.0826 124.292 72.4586 124.148L71.3606 123.896C70.6286 123.716 70.0226 123.398 69.5426 122.942C69.0626 122.486 68.8226 121.91 68.8226 121.214C68.8226 120.686 68.9786 120.218 69.2906 119.81C69.6146 119.402 70.0406 119.09 70.5686 118.874C71.1086 118.646 71.6966 118.532 72.3326 118.532C73.1966 118.532 73.9466 118.7 74.5826 119.036C75.2306 119.372 75.6986 119.864 75.9866 120.512L74.3126 121.268C73.9406 120.536 73.2866 120.17 72.3506 120.17C71.8946 120.17 71.5106 120.266 71.1986 120.458C70.8986 120.65 70.7486 120.89 70.7486 121.178C70.7486 121.718 71.2166 122.108 72.1526 122.348L73.4846 122.672C74.3846 122.9 75.0626 123.242 75.5186 123.698C75.9866 124.154 76.2206 124.718 76.2206 125.39C76.2206 125.966 76.0526 126.476 75.7166 126.92C75.3926 127.352 74.9426 127.688 74.3666 127.928C73.7906 128.168 73.1546 128.288 72.4586 128.288ZM81.5913 128.144C81.1833 128.144 80.7993 128.084 80.4393 127.964C80.0913 127.832 79.8033 127.652 79.5753 127.424C79.0593 126.932 78.8013 126.236 78.8013 125.336V120.512H77.1993V118.82H78.8013V116.228H80.7453V118.82H82.9953V120.512H80.7453V124.922C80.7453 125.426 80.8413 125.78 81.0333 125.984C81.2373 126.212 81.5493 126.326 81.9693 126.326C82.1853 126.326 82.3713 126.302 82.5273 126.254C82.6833 126.194 82.8573 126.104 83.0493 125.984V127.874C82.6413 128.054 82.1553 128.144 81.5913 128.144ZM93.3273 128.288C92.4153 128.288 91.5993 128.078 90.8793 127.658C90.1593 127.238 89.5953 126.662 89.1873 125.93C88.7913 125.186 88.5933 124.346 88.5933 123.41C88.5933 122.474 88.7913 121.64 89.1873 120.908C89.5953 120.164 90.1593 119.582 90.8793 119.162C91.5993 118.742 92.4153 118.532 93.3273 118.532C94.3353 118.532 95.1873 118.76 95.8833 119.216C96.5913 119.66 97.1013 120.278 97.4133 121.07L95.6493 121.79C95.2173 120.806 94.4313 120.314 93.2913 120.314C92.7873 120.314 92.3193 120.446 91.8873 120.71C91.4673 120.962 91.1313 121.322 90.8793 121.79C90.6393 122.258 90.5193 122.798 90.5193 123.41C90.5193 124.022 90.6393 124.562 90.8793 125.03C91.1313 125.498 91.4673 125.864 91.8873 126.128C92.3193 126.38 92.7873 126.506 93.2913 126.506C93.8673 126.506 94.3593 126.38 94.7673 126.128C95.1873 125.864 95.5113 125.486 95.7393 124.994L97.4853 125.75C97.1253 126.53 96.5913 127.148 95.8833 127.604C95.1753 128.06 94.3233 128.288 93.3273 128.288ZM103.366 128.288C102.442 128.288 101.614 128.078 100.882 127.658C100.15 127.226 99.5801 126.638 99.1721 125.894C98.7641 125.15 98.5601 124.322 98.5601 123.41C98.5601 122.498 98.7641 121.67 99.1721 120.926C99.5801 120.182 100.15 119.6 100.882 119.18C101.614 118.748 102.442 118.532 103.366 118.532C104.278 118.532 105.1 118.748 105.832 119.18C106.564 119.612 107.134 120.2 107.542 120.944C107.95 121.688 108.154 122.51 108.154 123.41C108.154 124.322 107.95 125.15 107.542 125.894C107.134 126.638 106.564 127.226 105.832 127.658C105.112 128.078 104.29 128.288 103.366 128.288ZM103.366 126.506C103.882 126.506 104.356 126.38 104.788 126.128C105.22 125.876 105.568 125.516 105.832 125.048C106.096 124.58 106.228 124.034 106.228 123.41C106.228 122.786 106.096 122.24 105.832 121.772C105.568 121.304 105.22 120.944 104.788 120.692C104.356 120.44 103.882 120.314 103.366 120.314C102.85 120.314 102.37 120.44 101.926 120.692C101.494 120.944 101.146 121.304 100.882 121.772C100.618 122.24 100.486 122.786 100.486 123.41C100.486 124.034 100.618 124.58 100.882 125.048C101.146 125.516 101.494 125.876 101.926 126.128C102.37 126.38 102.85 126.506 103.366 126.506ZM109.857 115.112H111.801V128H109.857V115.112ZM114.093 115.112H116.037V128H114.093V115.112ZM122.435 128.288C121.547 128.288 120.743 128.078 120.023 127.658C119.315 127.238 118.757 126.662 118.349 125.93C117.953 125.186 117.755 124.352 117.755 123.428C117.755 122.552 117.947 121.742 118.331 120.998C118.727 120.242 119.273 119.642 119.969 119.198C120.665 118.754 121.451 118.532 122.327 118.532C123.251 118.532 124.049 118.736 124.721 119.144C125.393 119.54 125.903 120.092 126.251 120.8C126.611 121.508 126.791 122.312 126.791 123.212C126.791 123.452 126.779 123.656 126.755 123.824H119.663C119.747 124.7 120.059 125.378 120.599 125.858C121.139 126.326 121.769 126.56 122.489 126.56C123.077 126.56 123.581 126.428 124.001 126.164C124.421 125.888 124.757 125.528 125.009 125.084L126.611 125.858C126.191 126.614 125.633 127.208 124.937 127.64C124.241 128.072 123.407 128.288 122.435 128.288ZM124.865 122.366C124.841 122.03 124.733 121.694 124.541 121.358C124.349 121.022 124.067 120.746 123.695 120.53C123.335 120.302 122.885 120.188 122.345 120.188C121.697 120.188 121.145 120.386 120.689 120.782C120.245 121.178 119.939 121.706 119.771 122.366H124.865ZM132.823 132.176C131.707 132.176 130.777 131.918 130.033 131.402C129.301 130.898 128.809 130.286 128.557 129.566L130.357 128.81C130.549 129.302 130.861 129.698 131.293 129.998C131.737 130.298 132.247 130.448 132.823 130.448C133.675 130.448 134.341 130.196 134.821 129.692C135.301 129.188 135.541 128.474 135.541 127.55V126.668H135.433C135.133 127.112 134.731 127.46 134.227 127.712C133.723 127.964 133.147 128.09 132.499 128.09C131.719 128.09 130.999 127.892 130.339 127.496C129.691 127.1 129.169 126.542 128.773 125.822C128.389 125.09 128.197 124.256 128.197 123.32C128.197 122.384 128.389 121.556 128.773 120.836C129.169 120.104 129.691 119.54 130.339 119.144C130.999 118.736 131.719 118.532 132.499 118.532C133.135 118.532 133.705 118.664 134.209 118.928C134.725 119.18 135.133 119.528 135.433 119.972H135.541V118.82H137.395V127.514C137.395 128.498 137.203 129.338 136.819 130.034C136.435 130.742 135.895 131.276 135.199 131.636C134.515 131.996 133.723 132.176 132.823 132.176ZM132.841 126.326C133.333 126.326 133.783 126.206 134.191 125.966C134.599 125.726 134.923 125.384 135.163 124.94C135.415 124.484 135.541 123.944 135.541 123.32C135.541 122.684 135.415 122.138 135.163 121.682C134.923 121.226 134.599 120.884 134.191 120.656C133.783 120.416 133.333 120.296 132.841 120.296C132.349 120.296 131.893 120.416 131.473 120.656C131.065 120.884 130.735 121.226 130.483 121.682C130.243 122.138 130.123 122.684 130.123 123.32C130.123 123.944 130.243 124.484 130.483 124.94C130.735 125.396 131.065 125.744 131.473 125.984C131.893 126.212 132.349 126.326 132.841 126.326ZM143.775 128.288C142.887 128.288 142.083 128.078 141.363 127.658C140.655 127.238 140.097 126.662 139.689 125.93C139.293 125.186 139.095 124.352 139.095 123.428C139.095 122.552 139.287 121.742 139.671 120.998C140.067 120.242 140.613 119.642 141.309 119.198C142.005 118.754 142.791 118.532 143.667 118.532C144.591 118.532 145.389 118.736 146.061 119.144C146.733 119.54 147.243 120.092 147.591 120.8C147.951 121.508 148.131 122.312 148.131 123.212C148.131 123.452 148.119 123.656 148.095 123.824H141.003C141.087 124.7 141.399 125.378 141.939 125.858C142.479 126.326 143.109 126.56 143.829 126.56C144.417 126.56 144.921 126.428 145.341 126.164C145.761 125.888 146.097 125.528 146.349 125.084L147.951 125.858C147.531 126.614 146.973 127.208 146.277 127.64C145.581 128.072 144.747 128.288 143.775 128.288ZM146.205 122.366C146.181 122.03 146.073 121.694 145.881 121.358C145.689 121.022 145.407 120.746 145.035 120.53C144.675 120.302 144.225 120.188 143.685 120.188C143.037 120.188 142.485 120.386 142.029 120.782C141.585 121.178 141.279 121.706 141.111 122.366H146.205ZM157.016 128.288C156.356 128.288 155.768 128.162 155.252 127.91C154.736 127.646 154.334 127.28 154.046 126.812C153.758 126.344 153.614 125.81 153.614 125.21C153.614 124.574 153.782 124.028 154.118 123.572C154.454 123.104 154.91 122.75 155.486 122.51C156.062 122.258 156.704 122.132 157.412 122.132C157.952 122.132 158.438 122.186 158.87 122.294C159.314 122.39 159.668 122.504 159.932 122.636V122.15C159.932 121.562 159.716 121.088 159.284 120.728C158.852 120.356 158.294 120.17 157.61 120.17C157.142 120.17 156.698 120.278 156.278 120.494C155.858 120.698 155.522 120.98 155.27 121.34L153.938 120.314C154.334 119.75 154.856 119.312 155.504 119C156.164 118.688 156.884 118.532 157.664 118.532C158.984 118.532 160.004 118.862 160.724 119.522C161.456 120.17 161.822 121.082 161.822 122.258V128H159.932V126.866H159.824C159.56 127.274 159.182 127.616 158.69 127.892C158.198 128.156 157.64 128.288 157.016 128.288ZM157.358 126.704C157.838 126.704 158.276 126.59 158.672 126.362C159.068 126.122 159.374 125.804 159.59 125.408C159.818 125.012 159.932 124.586 159.932 124.13C159.644 123.962 159.314 123.83 158.942 123.734C158.57 123.638 158.18 123.59 157.772 123.59C157.016 123.59 156.458 123.74 156.098 124.04C155.75 124.34 155.576 124.736 155.576 125.228C155.576 125.66 155.738 126.014 156.062 126.29C156.386 126.566 156.818 126.704 157.358 126.704ZM167.798 128.288C166.97 128.288 166.22 128.084 165.548 127.676C164.876 127.256 164.348 126.674 163.964 125.93C163.58 125.186 163.388 124.346 163.388 123.41C163.388 122.474 163.58 121.64 163.964 120.908C164.348 120.164 164.876 119.582 165.548 119.162C166.22 118.742 166.97 118.532 167.798 118.532C168.47 118.532 169.064 118.682 169.58 118.982C170.096 119.27 170.486 119.63 170.75 120.062H170.858L170.75 118.784V115.112H172.676V128H170.858V126.776H170.75C170.486 127.196 170.096 127.556 169.58 127.856C169.064 128.144 168.47 128.288 167.798 128.288ZM168.086 126.506C168.566 126.506 169.016 126.38 169.436 126.128C169.868 125.864 170.21 125.498 170.462 125.03C170.726 124.562 170.858 124.022 170.858 123.41C170.858 122.798 170.726 122.258 170.462 121.79C170.21 121.322 169.868 120.962 169.436 120.71C169.016 120.446 168.566 120.314 168.086 120.314C167.606 120.314 167.15 120.446 166.718 120.71C166.298 120.962 165.956 121.322 165.692 121.79C165.44 122.258 165.314 122.798 165.314 123.41C165.314 124.022 165.44 124.562 165.692 125.03C165.956 125.498 166.298 125.864 166.718 126.128C167.15 126.38 167.606 126.506 168.086 126.506ZM174.966 118.82H176.802V120.08H176.91C177.186 119.624 177.576 119.252 178.08 118.964C178.584 118.676 179.136 118.532 179.736 118.532C180.396 118.532 180.966 118.688 181.446 119C181.938 119.312 182.292 119.726 182.508 120.242C182.832 119.726 183.252 119.312 183.768 119C184.296 118.688 184.914 118.532 185.622 118.532C186.678 118.532 187.476 118.856 188.016 119.504C188.556 120.14 188.826 121.01 188.826 122.114V128H186.9V122.438C186.9 121.022 186.3 120.314 185.1 120.314C184.44 120.314 183.9 120.578 183.48 121.106C183.072 121.634 182.868 122.294 182.868 123.086V128H180.942V122.438C180.942 121.022 180.324 120.314 179.088 120.314C178.452 120.314 177.93 120.584 177.522 121.124C177.114 121.652 176.91 122.312 176.91 123.104V128H174.966V118.82ZM192.148 117.47C191.788 117.47 191.476 117.344 191.212 117.092C190.96 116.828 190.834 116.516 190.834 116.156C190.834 115.796 190.96 115.49 191.212 115.238C191.476 114.986 191.788 114.86 192.148 114.86C192.508 114.86 192.814 114.986 193.066 115.238C193.33 115.49 193.462 115.796 193.462 116.156C193.462 116.516 193.33 116.828 193.066 117.092C192.814 117.344 192.508 117.47 192.148 117.47ZM191.176 118.82H193.12V128H191.176V118.82ZM198.88 128.288C197.836 128.288 196.972 128.06 196.288 127.604C195.616 127.148 195.142 126.554 194.866 125.822L196.612 125.066C196.828 125.558 197.134 125.936 197.53 126.2C197.926 126.452 198.376 126.578 198.88 126.578C199.396 126.578 199.828 126.488 200.176 126.308C200.524 126.116 200.698 125.834 200.698 125.462C200.698 125.126 200.548 124.862 200.248 124.67C199.96 124.466 199.504 124.292 198.88 124.148L197.782 123.896C197.05 123.716 196.444 123.398 195.964 122.942C195.484 122.486 195.244 121.91 195.244 121.214C195.244 120.686 195.4 120.218 195.712 119.81C196.036 119.402 196.462 119.09 196.99 118.874C197.53 118.646 198.118 118.532 198.754 118.532C199.618 118.532 200.368 118.7 201.004 119.036C201.652 119.372 202.12 119.864 202.408 120.512L200.734 121.268C200.362 120.536 199.708 120.17 198.772 120.17C198.316 120.17 197.932 120.266 197.62 120.458C197.32 120.65 197.17 120.89 197.17 121.178C197.17 121.718 197.638 122.108 198.574 122.348L199.906 122.672C200.806 122.9 201.484 123.242 201.94 123.698C202.408 124.154 202.642 124.718 202.642 125.39C202.642 125.966 202.474 126.476 202.138 126.92C201.814 127.352 201.364 127.688 200.788 127.928C200.212 128.168 199.576 128.288 198.88 128.288ZM207.687 128.288C206.643 128.288 205.779 128.06 205.095 127.604C204.423 127.148 203.949 126.554 203.673 125.822L205.419 125.066C205.635 125.558 205.941 125.936 206.337 126.2C206.733 126.452 207.183 126.578 207.687 126.578C208.203 126.578 208.635 126.488 208.983 126.308C209.331 126.116 209.505 125.834 209.505 125.462C209.505 125.126 209.355 124.862 209.055 124.67C208.767 124.466 208.311 124.292 207.687 124.148L206.589 123.896C205.857 123.716 205.251 123.398 204.771 122.942C204.291 122.486 204.051 121.91 204.051 121.214C204.051 120.686 204.207 120.218 204.519 119.81C204.843 119.402 205.269 119.09 205.797 118.874C206.337 118.646 206.925 118.532 207.561 118.532C208.425 118.532 209.175 118.7 209.811 119.036C210.459 119.372 210.927 119.864 211.215 120.512L209.541 121.268C209.169 120.536 208.515 120.17 207.579 120.17C207.123 120.17 206.739 120.266 206.427 120.458C206.127 120.65 205.977 120.89 205.977 121.178C205.977 121.718 206.445 122.108 207.381 122.348L208.713 122.672C209.613 122.9 210.291 123.242 210.747 123.698C211.215 124.154 211.449 124.718 211.449 125.39C211.449 125.966 211.281 126.476 210.945 126.92C210.621 127.352 210.171 127.688 209.595 127.928C209.019 128.168 208.383 128.288 207.687 128.288ZM214.174 117.47C213.814 117.47 213.502 117.344 213.238 117.092C212.986 116.828 212.86 116.516 212.86 116.156C212.86 115.796 212.986 115.49 213.238 115.238C213.502 114.986 213.814 114.86 214.174 114.86C214.534 114.86 214.84 114.986 215.092 115.238C215.356 115.49 215.488 115.796 215.488 116.156C215.488 116.516 215.356 116.828 215.092 117.092C214.84 117.344 214.534 117.47 214.174 117.47ZM213.202 118.82H215.146V128H213.202V118.82ZM221.79 128.288C220.866 128.288 220.038 128.078 219.306 127.658C218.574 127.226 218.004 126.638 217.596 125.894C217.188 125.15 216.984 124.322 216.984 123.41C216.984 122.498 217.188 121.67 217.596 120.926C218.004 120.182 218.574 119.6 219.306 119.18C220.038 118.748 220.866 118.532 221.79 118.532C222.702 118.532 223.524 118.748 224.256 119.18C224.988 119.612 225.558 120.2 225.966 120.944C226.374 121.688 226.578 122.51 226.578 123.41C226.578 124.322 226.374 125.15 225.966 125.894C225.558 126.638 224.988 127.226 224.256 127.658C223.536 128.078 222.714 128.288 221.79 128.288ZM221.79 126.506C222.306 126.506 222.78 126.38 223.212 126.128C223.644 125.876 223.992 125.516 224.256 125.048C224.52 124.58 224.652 124.034 224.652 123.41C224.652 122.786 224.52 122.24 224.256 121.772C223.992 121.304 223.644 120.944 223.212 120.692C222.78 120.44 222.306 120.314 221.79 120.314C221.274 120.314 220.794 120.44 220.35 120.692C219.918 120.944 219.57 121.304 219.306 121.772C219.042 122.24 218.91 122.786 218.91 123.41C218.91 124.034 219.042 124.58 219.306 125.048C219.57 125.516 219.918 125.876 220.35 126.128C220.794 126.38 221.274 126.506 221.79 126.506ZM228.193 118.82H230.029V120.08H230.137C230.401 119.624 230.797 119.252 231.325 118.964C231.853 118.676 232.423 118.532 233.035 118.532C234.139 118.532 234.979 118.862 235.555 119.522C236.131 120.17 236.419 121.064 236.419 122.204V128H234.493V122.456C234.493 121.736 234.313 121.202 233.953 120.854C233.593 120.494 233.101 120.314 232.477 120.314C232.021 120.314 231.613 120.44 231.253 120.692C230.905 120.944 230.629 121.28 230.425 121.7C230.233 122.12 230.137 122.576 230.137 123.068V128H228.193V118.82ZM40.382 151.288C39.47 151.288 38.654 151.078 37.934 150.658C37.214 150.238 36.65 149.662 36.242 148.93C35.846 148.186 35.648 147.346 35.648 146.41C35.648 145.474 35.846 144.64 36.242 143.908C36.65 143.164 37.214 142.582 37.934 142.162C38.654 141.742 39.47 141.532 40.382 141.532C41.39 141.532 42.242 141.76 42.938 142.216C43.646 142.66 44.156 143.278 44.468 144.07L42.704 144.79C42.272 143.806 41.486 143.314 40.346 143.314C39.842 143.314 39.374 143.446 38.942 143.71C38.522 143.962 38.186 144.322 37.934 144.79C37.694 145.258 37.574 145.798 37.574 146.41C37.574 147.022 37.694 147.562 37.934 148.03C38.186 148.498 38.522 148.864 38.942 149.128C39.374 149.38 39.842 149.506 40.346 149.506C40.922 149.506 41.414 149.38 41.822 149.128C42.242 148.864 42.566 148.486 42.794 147.994L44.54 148.75C44.18 149.53 43.646 150.148 42.938 150.604C42.23 151.06 41.378 151.288 40.382 151.288ZM46.1887 138.112H48.1327V141.64L48.0247 143.08H48.1327C48.3967 142.624 48.7867 142.252 49.3027 141.964C49.8307 141.676 50.4067 141.532 51.0307 141.532C52.1467 141.532 52.9987 141.868 53.5867 142.54C54.1747 143.2 54.4687 144.088 54.4687 145.204V151H52.5427V145.456C52.5427 144.748 52.3507 144.214 51.9667 143.854C51.5947 143.494 51.1147 143.314 50.5267 143.314C50.0827 143.314 49.6747 143.446 49.3027 143.71C48.9427 143.962 48.6547 144.304 48.4387 144.736C48.2347 145.168 48.1327 145.624 48.1327 146.104V151H46.1887V138.112ZM59.4749 151.288C58.8149 151.288 58.2269 151.162 57.7109 150.91C57.1949 150.646 56.7929 150.28 56.5049 149.812C56.2169 149.344 56.0729 148.81 56.0729 148.21C56.0729 147.574 56.2409 147.028 56.5769 146.572C56.9129 146.104 57.3689 145.75 57.9449 145.51C58.5209 145.258 59.1629 145.132 59.8709 145.132C60.4109 145.132 60.8969 145.186 61.3289 145.294C61.7729 145.39 62.1269 145.504 62.3909 145.636V145.15C62.3909 144.562 62.1749 144.088 61.7429 143.728C61.3109 143.356 60.7529 143.17 60.0689 143.17C59.6009 143.17 59.1569 143.278 58.7369 143.494C58.3169 143.698 57.9809 143.98 57.7289 144.34L56.3969 143.314C56.7929 142.75 57.3149 142.312 57.9629 142C58.6229 141.688 59.3429 141.532 60.1229 141.532C61.4429 141.532 62.4629 141.862 63.1829 142.522C63.9149 143.17 64.2809 144.082 64.2809 145.258V151H62.3909V149.866H62.2829C62.0189 150.274 61.6409 150.616 61.1489 150.892C60.6569 151.156 60.0989 151.288 59.4749 151.288ZM59.8169 149.704C60.2969 149.704 60.7349 149.59 61.1309 149.362C61.5269 149.122 61.8329 148.804 62.0489 148.408C62.2769 148.012 62.3909 147.586 62.3909 147.13C62.1029 146.962 61.7729 146.83 61.4009 146.734C61.0289 146.638 60.6389 146.59 60.2309 146.59C59.4749 146.59 58.9169 146.74 58.5569 147.04C58.2089 147.34 58.0349 147.736 58.0349 148.228C58.0349 148.66 58.1969 149.014 58.5209 149.29C58.8449 149.566 59.2769 149.704 59.8169 149.704ZM66.4211 141.82H68.2571V143.08H68.3651C68.6291 142.624 69.0251 142.252 69.5531 141.964C70.0811 141.676 70.6511 141.532 71.2631 141.532C72.3671 141.532 73.2071 141.862 73.7831 142.522C74.3591 143.17 74.6471 144.064 74.6471 145.204V151H72.7211V145.456C72.7211 144.736 72.5411 144.202 72.1811 143.854C71.8211 143.494 71.3291 143.314 70.7051 143.314C70.2491 143.314 69.8411 143.44 69.4811 143.692C69.1331 143.944 68.8571 144.28 68.6531 144.7C68.4611 145.12 68.3651 145.576 68.3651 146.068V151H66.4211V141.82ZM81.1105 151.288C80.1985 151.288 79.3825 151.078 78.6625 150.658C77.9425 150.238 77.3785 149.662 76.9705 148.93C76.5745 148.186 76.3765 147.346 76.3765 146.41C76.3765 145.474 76.5745 144.64 76.9705 143.908C77.3785 143.164 77.9425 142.582 78.6625 142.162C79.3825 141.742 80.1985 141.532 81.1105 141.532C82.1185 141.532 82.9705 141.76 83.6665 142.216C84.3745 142.66 84.8845 143.278 85.1965 144.07L83.4325 144.79C83.0005 143.806 82.2145 143.314 81.0745 143.314C80.5705 143.314 80.1025 143.446 79.6705 143.71C79.2505 143.962 78.9145 144.322 78.6625 144.79C78.4225 145.258 78.3025 145.798 78.3025 146.41C78.3025 147.022 78.4225 147.562 78.6625 148.03C78.9145 148.498 79.2505 148.864 79.6705 149.128C80.1025 149.38 80.5705 149.506 81.0745 149.506C81.6505 149.506 82.1425 149.38 82.5505 149.128C82.9705 148.864 83.2945 148.486 83.5225 147.994L85.2685 148.75C84.9085 149.53 84.3745 150.148 83.6665 150.604C82.9585 151.06 82.1065 151.288 81.1105 151.288ZM91.0233 151.288C90.1353 151.288 89.3313 151.078 88.6113 150.658C87.9033 150.238 87.3453 149.662 86.9373 148.93C86.5413 148.186 86.3433 147.352 86.3433 146.428C86.3433 145.552 86.5353 144.742 86.9193 143.998C87.3153 143.242 87.8613 142.642 88.5573 142.198C89.2533 141.754 90.0393 141.532 90.9153 141.532C91.8393 141.532 92.6373 141.736 93.3093 142.144C93.9813 142.54 94.4913 143.092 94.8393 143.8C95.1993 144.508 95.3793 145.312 95.3793 146.212C95.3793 146.452 95.3673 146.656 95.3433 146.824H88.2513C88.3353 147.7 88.6473 148.378 89.1873 148.858C89.7273 149.326 90.3573 149.56 91.0773 149.56C91.6653 149.56 92.1693 149.428 92.5893 149.164C93.0093 148.888 93.3453 148.528 93.5973 148.084L95.1993 148.858C94.7793 149.614 94.2213 150.208 93.5253 150.64C92.8293 151.072 91.9953 151.288 91.0233 151.288ZM93.4533 145.366C93.4293 145.03 93.3213 144.694 93.1293 144.358C92.9373 144.022 92.6553 143.746 92.2833 143.53C91.9233 143.302 91.4733 143.188 90.9333 143.188C90.2853 143.188 89.7333 143.386 89.2773 143.782C88.8333 144.178 88.5273 144.706 88.3593 145.366H93.4533ZM100.619 151.288C99.5747 151.288 98.7107 151.06 98.0267 150.604C97.3547 150.148 96.8807 149.554 96.6047 148.822L98.3507 148.066C98.5667 148.558 98.8727 148.936 99.2687 149.2C99.6647 149.452 100.115 149.578 100.619 149.578C101.135 149.578 101.567 149.488 101.915 149.308C102.263 149.116 102.437 148.834 102.437 148.462C102.437 148.126 102.287 147.862 101.987 147.67C101.699 147.466 101.243 147.292 100.619 147.148L99.5207 146.896C98.7887 146.716 98.1827 146.398 97.7027 145.942C97.2227 145.486 96.9827 144.91 96.9827 144.214C96.9827 143.686 97.1387 143.218 97.4507 142.81C97.7747 142.402 98.2007 142.09 98.7287 141.874C99.2687 141.646 99.8567 141.532 100.493 141.532C101.357 141.532 102.107 141.7 102.743 142.036C103.391 142.372 103.859 142.864 104.147 143.512L102.473 144.268C102.101 143.536 101.447 143.17 100.511 143.17C100.055 143.17 99.6707 143.266 99.3587 143.458C99.0587 143.65 98.9087 143.89 98.9087 144.178C98.9087 144.718 99.3767 145.108 100.313 145.348L101.645 145.672C102.545 145.9 103.223 146.242 103.679 146.698C104.147 147.154 104.381 147.718 104.381 148.39C104.381 148.966 104.213 149.476 103.877 149.92C103.553 150.352 103.103 150.688 102.527 150.928C101.951 151.168 101.315 151.288 100.619 151.288Z" fill="black"/>
<g filter="url(#filter1_d_5_791)">
<g clip-path="url(#clip1_5_791)">
<rect x="35" y="43" width="46" height="46" rx="23" fill="white" fill-opacity="0.2" shape-rendering="crispEdges"/>
<g filter="url(#filter2_d_5_791)">
<path d="M38 66C38 54.9543 46.9543 46 58 46C69.0457 46 78 54.9543 78 66C78 77.0457 69.0457 86 58 86C46.9543 86 38 77.0457 38 66Z" fill="#F3EFFF"/>
<path d="M60.7417 74.9621C60.7417 75.161 60.6627 75.3518 60.522 75.4924C60.3814 75.6331 60.1906 75.7121 59.9917 75.7121H56.9917C56.7928 75.7121 56.602 75.6331 56.4613 75.4924C56.3207 75.3518 56.2417 75.161 56.2417 74.9621C56.2417 74.7632 56.3207 74.5724 56.4613 74.4318C56.602 74.2911 56.7928 74.2121 56.9917 74.2121H59.9917C60.1906 74.2121 60.3814 74.2911 60.522 74.4318C60.6627 74.5724 60.7417 74.7632 60.7417 74.9621ZM58.4917 64.4621C58.7142 64.4621 58.9317 64.3961 59.1167 64.2725C59.3017 64.1489 59.4459 63.9732 59.531 63.7676C59.6162 63.5621 59.6385 63.3359 59.5951 63.1176C59.5517 62.8994 59.4445 62.6989 59.2872 62.5416C59.1298 62.3843 58.9294 62.2771 58.7112 62.2337C58.4929 62.1903 58.2667 62.2126 58.0612 62.2977C57.8556 62.3829 57.6799 62.5271 57.5563 62.7121C57.4327 62.8971 57.3667 63.1146 57.3667 63.3371C57.3667 63.6355 57.4852 63.9216 57.6962 64.1326C57.9072 64.3436 58.1933 64.4621 58.4917 64.4621ZM67.456 68.5712L66.2973 73.7865C66.2423 74.0341 66.1254 74.2638 65.9576 74.454C65.7897 74.6442 65.5763 74.7887 65.3374 74.8741C65.0985 74.9594 64.8419 74.9827 64.5915 74.9419C64.3411 74.901 64.1052 74.7974 63.9057 74.6405L61.352 72.7121H55.6332L53.0776 74.6405C52.8782 74.7974 52.6423 74.901 52.3919 74.9419C52.1415 74.9827 51.8849 74.9594 51.6459 74.8741C51.407 74.7887 51.1937 74.6442 51.0258 74.454C50.8579 74.2638 50.741 74.0341 50.686 73.7865L49.5273 68.5712C49.4781 68.3474 49.4806 68.1153 49.5346 67.8926C49.5885 67.6699 49.6925 67.4624 49.8385 67.2859L52.516 64.074C52.6059 62.8936 52.8769 61.7341 53.3195 60.6362C54.5289 57.6043 56.6945 55.7021 57.5729 55.0252C57.8359 54.8215 58.159 54.7109 58.4917 54.7109C58.8243 54.7109 59.1475 54.8215 59.4104 55.0252C60.286 55.7021 62.4545 57.6043 63.6639 60.6362C64.1065 61.7341 64.3774 62.8936 64.4673 64.074L67.1448 67.2859C67.2909 67.4624 67.3949 67.6699 67.4488 67.8926C67.5027 68.1153 67.5052 68.3474 67.456 68.5712ZM55.8132 71.2121H61.1701C63.1501 67.6927 63.5204 64.3234 62.2707 61.1921C61.1682 58.4284 59.1001 56.6809 58.4917 56.2121C57.8814 56.6809 55.8132 58.4284 54.7107 61.1921C53.4629 64.3234 53.8332 67.6927 55.8132 71.2121ZM54.407 71.7605C53.3976 69.9262 52.7851 68.1234 52.5695 66.3521L50.9917 68.2459L52.1504 73.4621L52.1673 73.4499L54.407 71.7605ZM65.9917 68.2459L64.4139 66.3521C64.2001 68.1196 63.5889 69.9224 62.5801 71.7605L64.8161 73.448L64.8329 73.4602L65.9917 68.2459Z" fill="#603AC8"/>
</g>
</g>
<rect x="35.25" y="43.25" width="45.5" height="45.5" rx="22.75" stroke="#603AC8" stroke-width="0.5" shape-rendering="crispEdges"/>
</g>
</g>
<path d="M18.5 26C18.5 21.8579 21.8579 18.5 26 18.5H251C255.142 18.5 258.5 21.8579 258.5 26V171C258.5 175.142 255.142 178.5 251 178.5H26C21.8579 178.5 18.5 175.142 18.5 171V26Z" stroke="#603AC8"/>
</g>
<defs>
<filter id="filter0_d_5_791" x="0" y="0" width="277" height="197" filterUnits="userSpaceOnUse" color-interpolation-filters="sRGB">
<feFlood flood-opacity="0" result="BackgroundImageFix"/>
<feColorMatrix in="SourceAlpha" type="matrix" values="0 0 0 0 0 0 0 0 0 0 0 0 0 0 0 0 0 0 127 0" result="hardAlpha"/>
<feOffset/>
<feGaussianBlur stdDeviation="9"/>
<feComposite in2="hardAlpha" operator="out"/>
<feColorMatrix type="matrix" values="0 0 0 0 0 0 0 0 0 0 0 0 0 0 0 0 0 0 0.08 0"/>
<feBlend mode="normal" in2="BackgroundImageFix" result="effect1_dropShadow_5_791"/>
<feBlend mode="normal" in="SourceGraphic" in2="effect1_dropShadow_5_791" result="shape"/>
</filter>
<filter id="filter1_d_5_791" x="31" y="39" width="54" height="54" filterUnits="userSpaceOnUse" color-interpolation-filters="sRGB">
<feFlood flood-opacity="0" result="BackgroundImageFix"/>
<feColorMatrix in="SourceAlpha" type="matrix" values="0 0 0 0 0 0 0 0 0 0 0 0 0 0 0 0 0 0 127 0" result="hardAlpha"/>
<feOffset/>
<feGaussianBlur stdDeviation="2"/>
<feComposite in2="hardAlpha" operator="out"/>
<feColorMatrix type="matrix" values="0 0 0 0 0 0 0 0 0 0 0 0 0 0 0 0 0 0 0.08 0"/>
<feBlend mode="normal" in2="BackgroundImageFix" result="effect1_dropShadow_5_791"/>
<feBlend mode="normal" in="SourceGraphic" in2="effect1_dropShadow_5_791" result="shape"/>
</filter>
<filter id="filter2_d_5_791" x="26" y="34" width="64" height="64" filterUnits="userSpaceOnUse" color-interpolation-filters="sRGB">
<feFlood flood-opacity="0" result="BackgroundImageFix"/>
<feColorMatrix in="SourceAlpha" type="matrix" values="0 0 0 0 0 0 0 0 0 0 0 0 0 0 0 0 0 0 127 0" result="hardAlpha"/>
<feOffset/>
<feGaussianBlur stdDeviation="6"/>
<feComposite in2="hardAlpha" operator="out"/>
<feColorMatrix type="matrix" values="0 0 0 0 0 0 0 0 0 0 0 0 0 0 0 0 0 0 0.15 0"/>
<feBlend mode="normal" in2="BackgroundImageFix" result="effect1_dropShadow_5_791"/>
<feBlend mode="normal" in="SourceGraphic" in2="effect1_dropShadow_5_791" result="shape"/>
</filter>
<clipPath id="clip0_5_791">
<path d="M18 26C18 21.5817 21.5817 18 26 18H251C255.418 18 259 21.5817 259 26V171C259 175.418 255.418 179 251 179H26C21.5817 179 18 175.418 18 171V26Z" fill="white"/>
</clipPath>
<clipPath id="clip1_5_791">
<rect x="35" y="43" width="46" height="46" rx="23" fill="white"/>
</clipPath>
</defs>
</svg>
