<svg width="16" height="12" viewBox="0 0 16 12" fill="none" xmlns="http://www.w3.org/2000/svg">
<path d="M15.707 6.70704C15.8945 6.51951 15.9998 6.26521 15.9998 6.00004C15.9998 5.73488 15.8945 5.48057 15.707 5.29304L10.707 0.293041C10.5184 0.110883 10.2658 0.0100885 10.0036 0.0123669C9.7414 0.0146453 9.49059 0.119815 9.30518 0.305223C9.11977 0.490631 9.0146 0.741443 9.01233 1.00364C9.01005 1.26584 9.11084 1.51844 9.293 1.70704L12.586 5.00004H1C0.734784 5.00004 0.48043 5.1054 0.292893 5.29293C0.105357 5.48047 0 5.73482 0 6.00004C0 6.26526 0.105357 6.51961 0.292893 6.70715C0.48043 6.89468 0.734784 7.00004 1 7.00004H12.586L9.293 10.293C9.11084 10.4816 9.01005 10.7342 9.01233 10.9964C9.0146 11.2586 9.11977 11.5095 9.30518 11.6949C9.49059 11.8803 9.7414 11.9854 10.0036 11.9877C10.2658 11.99 10.5184 11.8892 10.707 11.707L15.707 6.70704Z" fill="white"/>
</svg>
