<svg width="395" height="365" viewBox="0 0 395 365" fill="none" xmlns="http://www.w3.org/2000/svg">
<g filter="url(#filter0_d_5_1613)">
<rect x="24" y="24" width="347" height="317" rx="12" fill="white" fill-opacity="0.1" shape-rendering="crispEdges"/>
<rect x="24.25" y="24.25" width="346.5" height="316.5" rx="11.75" stroke="#603AC8" stroke-width="0.5" shape-rendering="crispEdges"/>
<rect x="35" y="38" width="325" height="289" rx="12" fill="white"/>
<path d="M61.4998 67.4287C62.0171 67.2249 62.5185 66.9827 62.9998 66.7041V70.5C62.9998 70.6989 62.9207 70.8897 62.7801 71.0303C62.6394 71.171 62.4487 71.25 62.2498 71.25C62.0509 71.25 61.8601 71.171 61.7194 71.0303C61.5788 70.8897 61.4998 70.6989 61.4998 70.5V67.4287ZM62.6023 59.1384L57.3523 56.3381C57.1771 56.2487 56.9738 56.2316 56.7862 56.2906C56.5985 56.3496 56.4416 56.4799 56.3491 56.6535C56.2567 56.8271 56.2361 57.0301 56.2919 57.2187C56.3476 57.4073 56.4753 57.5665 56.6473 57.6619L61.031 60L62.6248 59.1506L62.6023 59.1384ZM68.6023 56.3381L57.3523 50.3381C57.2438 50.2803 57.1227 50.2501 56.9998 50.2501C56.8768 50.2501 56.7558 50.2803 56.6473 50.3381L45.3973 56.3381C45.2773 56.4021 45.1769 56.4974 45.1069 56.614C45.037 56.7306 45 56.864 45 57C45 57.136 45.037 57.2694 45.1069 57.386C45.1769 57.5026 45.2773 57.5979 45.3973 57.6619L47.9998 59.0503V63.5897C47.999 63.9581 48.1346 64.3137 48.3804 64.5881C49.6085 65.9559 52.3601 68.25 56.9998 68.25C58.5382 68.2627 60.065 67.9841 61.4998 67.4287V60.2503L61.031 60L56.9998 62.1497L49.1088 57.9375L47.3435 57L56.9998 51.8503L66.656 57L64.8954 57.9375H64.8898L62.6248 59.1506C62.7388 59.2165 62.8335 59.3112 62.8993 59.4252C62.9652 59.5393 62.9998 59.6686 62.9998 59.8003V66.7041C63.9778 66.1395 64.8616 65.4256 65.6191 64.5881C65.865 64.3137 66.0005 63.9581 65.9998 63.5897V59.0503L68.6023 57.6619C68.7223 57.5979 68.8226 57.5026 68.8926 57.386C68.9626 57.2694 68.9995 57.136 68.9995 57C68.9995 56.864 68.9626 56.7306 68.8926 56.614C68.8226 56.4974 68.7223 56.4021 68.6023 56.3381Z" fill="#603AC8"/>
<path d="M82.16 58.688L79.688 60.488L78.104 58.064L82.928 54.584H85.304V71H82.16V58.688ZM95.4943 71.384C94.1183 71.384 92.9103 71.016 91.8703 70.28C90.8303 69.528 90.0223 68.504 89.4463 67.208C88.8863 65.896 88.6063 64.424 88.6063 62.792C88.6063 61.16 88.8863 59.696 89.4463 58.4C90.0223 57.088 90.8303 56.064 91.8703 55.328C92.9103 54.576 94.1183 54.2 95.4943 54.2C96.8703 54.2 98.0783 54.576 99.1183 55.328C100.158 56.064 100.958 57.088 101.518 58.4C102.094 59.696 102.382 61.16 102.382 62.792C102.382 64.424 102.094 65.896 101.518 67.208C100.958 68.504 100.158 69.528 99.1183 70.28C98.0783 71.016 96.8703 71.384 95.4943 71.384ZM95.4943 68.432C96.2623 68.432 96.9263 68.192 97.4863 67.712C98.0623 67.216 98.4943 66.544 98.7823 65.696C99.0863 64.832 99.2383 63.864 99.2383 62.792C99.2383 61.128 98.9023 59.776 98.2303 58.736C97.5583 57.68 96.6463 57.152 95.4943 57.152C94.3583 57.152 93.4543 57.68 92.7823 58.736C92.1103 59.792 91.7743 61.144 91.7743 62.792C91.7743 63.864 91.9183 64.832 92.2063 65.696C92.5103 66.544 92.9423 67.216 93.5023 67.712C94.0783 68.192 94.7423 68.432 95.4943 68.432ZM110.466 71.192C109.858 71.192 109.298 71.104 108.786 70.928C108.274 70.736 107.858 70.48 107.538 70.16C106.786 69.44 106.41 68.416 106.41 67.088V61.448H104.274V58.76H106.41V55.304H109.554V58.76H112.554V61.448H109.554V66.512C109.554 67.136 109.69 67.584 109.962 67.856C110.186 68.112 110.57 68.24 111.114 68.24C111.418 68.24 111.666 68.2 111.858 68.12C112.066 68.04 112.33 67.904 112.65 67.712V70.784C111.962 71.056 111.234 71.192 110.466 71.192ZM115.286 53.816H118.43V58.16L118.238 60.296H118.43C118.782 59.72 119.294 59.256 119.966 58.904C120.638 58.552 121.366 58.376 122.15 58.376C123.638 58.376 124.774 58.824 125.558 59.72C126.358 60.6 126.758 61.824 126.758 63.392V71H123.614V63.776C123.614 62.992 123.398 62.384 122.966 61.952C122.55 61.52 121.99 61.304 121.286 61.304C120.454 61.304 119.766 61.64 119.222 62.312C118.694 62.984 118.43 63.808 118.43 64.784V71H115.286V53.816ZM140.989 76.568C139.437 76.568 138.149 76.216 137.125 75.512C136.101 74.824 135.413 73.992 135.061 73.016L138.013 71.816C138.269 72.424 138.661 72.904 139.189 73.256C139.717 73.608 140.317 73.784 140.989 73.784C141.981 73.784 142.765 73.48 143.341 72.872C143.933 72.264 144.229 71.4 144.229 70.28V69.32H144.037C143.653 69.864 143.149 70.28 142.525 70.568C141.901 70.856 141.189 71 140.389 71C139.381 71 138.437 70.744 137.557 70.232C136.693 69.704 135.997 68.968 135.469 68.024C134.941 67.064 134.677 65.952 134.677 64.688C134.677 63.424 134.941 62.32 135.469 61.376C135.997 60.416 136.693 59.68 137.557 59.168C138.437 58.64 139.381 58.376 140.389 58.376C141.189 58.376 141.901 58.52 142.525 58.808C143.149 59.096 143.653 59.512 144.037 60.056H144.229V58.76H147.253V70.16C147.253 71.472 146.997 72.608 146.484 73.568C145.973 74.528 145.245 75.264 144.301 75.776C143.357 76.304 142.253 76.568 140.989 76.568ZM141.037 68.144C141.917 68.144 142.669 67.84 143.293 67.232C143.917 66.608 144.229 65.76 144.229 64.688C144.229 63.584 143.917 62.736 143.293 62.144C142.685 61.536 141.933 61.232 141.037 61.232C140.141 61.232 139.381 61.536 138.757 62.144C138.133 62.752 137.821 63.6 137.821 64.688C137.821 65.776 138.133 66.624 138.757 67.232C139.381 67.84 140.141 68.144 141.037 68.144ZM150.325 58.76H153.277V60.392H153.469C153.773 59.816 154.245 59.344 154.885 58.976C155.525 58.592 156.229 58.4 156.997 58.4C157.557 58.4 158.069 58.488 158.533 58.664V61.808C158.101 61.648 157.733 61.536 157.429 61.472C157.141 61.392 156.829 61.352 156.493 61.352C155.565 61.352 154.829 61.688 154.285 62.36C153.741 63.032 153.469 63.88 153.469 64.904V71H150.325V58.76ZM163.936 71.384C162.64 71.384 161.576 71.008 160.744 70.256C159.912 69.488 159.496 68.488 159.496 67.256C159.496 66.44 159.712 65.72 160.144 65.096C160.576 64.472 161.168 63.992 161.92 63.656C162.672 63.32 163.504 63.152 164.416 63.152C165.68 63.152 166.76 63.336 167.656 63.704V63.176C167.656 62.504 167.4 61.96 166.888 61.544C166.392 61.128 165.72 60.92 164.872 60.92C164.296 60.92 163.736 61.056 163.192 61.328C162.664 61.584 162.224 61.928 161.872 62.36L159.856 60.776C160.448 60.008 161.192 59.416 162.088 59C162.984 58.584 163.96 58.376 165.016 58.376C166.888 58.376 168.312 58.808 169.288 59.672C170.264 60.536 170.752 61.8 170.752 63.464V71H167.656V69.752H167.464C167.096 70.232 166.608 70.624 166 70.928C165.408 71.232 164.72 71.384 163.936 71.384ZM164.68 68.936C165.592 68.936 166.312 68.648 166.84 68.072C167.384 67.48 167.656 66.792 167.656 66.008C166.84 65.624 165.984 65.432 165.088 65.432C163.456 65.432 162.64 66.04 162.64 67.256C162.64 67.752 162.816 68.16 163.168 68.48C163.52 68.784 164.024 68.936 164.68 68.936ZM178.784 71.384C177.68 71.384 176.672 71.112 175.76 70.568C174.864 70.008 174.152 69.24 173.624 68.264C173.112 67.272 172.856 66.144 172.856 64.88C172.856 63.632 173.112 62.512 173.624 61.52C174.152 60.528 174.864 59.76 175.76 59.216C176.672 58.656 177.68 58.376 178.784 58.376C179.616 58.376 180.352 58.56 180.992 58.928C181.632 59.28 182.12 59.72 182.456 60.248H182.648L182.456 58.52V53.816H185.576V71H182.648V69.536H182.456C182.136 70.064 181.648 70.504 180.992 70.856C180.352 71.208 179.616 71.384 178.784 71.384ZM179.312 68.48C179.904 68.48 180.456 68.328 180.968 68.024C181.48 67.72 181.888 67.296 182.192 66.752C182.496 66.208 182.648 65.584 182.648 64.88C182.648 64.176 182.496 63.552 182.192 63.008C181.888 62.464 181.48 62.048 180.968 61.76C180.456 61.456 179.904 61.304 179.312 61.304C178.736 61.304 178.192 61.456 177.68 61.76C177.168 62.048 176.76 62.464 176.456 63.008C176.152 63.552 176 64.176 176 64.88C176 65.584 176.152 66.208 176.456 66.752C176.76 67.296 177.168 67.72 177.68 68.024C178.192 68.328 178.736 68.48 179.312 68.48ZM194.288 71.384C193.072 71.384 191.976 71.104 191 70.544C190.024 69.984 189.256 69.216 188.696 68.24C188.152 67.248 187.88 66.136 187.88 64.904C187.88 63.736 188.152 62.656 188.696 61.664C189.24 60.656 189.992 59.856 190.952 59.264C191.912 58.672 192.984 58.376 194.168 58.376C195.432 58.376 196.52 58.648 197.432 59.192C198.344 59.736 199.032 60.48 199.496 61.424C199.976 62.368 200.216 63.416 200.216 64.568C200.216 64.936 200.192 65.288 200.144 65.624H190.952C191.112 66.6 191.496 67.344 192.104 67.856C192.728 68.352 193.472 68.6 194.336 68.6C195.056 68.6 195.672 68.448 196.184 68.144C196.712 67.824 197.128 67.4 197.432 66.872L199.976 68.12C198.728 70.296 196.832 71.384 194.288 71.384ZM197.192 63.392C197.16 63.008 197.016 62.632 196.76 62.264C196.52 61.88 196.176 61.568 195.728 61.328C195.296 61.072 194.784 60.944 194.192 60.944C193.44 60.944 192.792 61.168 192.248 61.616C191.72 62.048 191.336 62.64 191.096 63.392H197.192Z" fill="#603AC8"/>
<path d="M46.458 95.112H50.976C51.756 95.112 52.458 95.28 53.082 95.616C53.718 95.952 54.216 96.42 54.576 97.02C54.948 97.62 55.134 98.298 55.134 99.054C55.134 99.918 54.852 100.686 54.288 101.358C53.736 102.018 53.04 102.462 52.2 102.69L52.182 102.78L55.728 107.892V108H53.442L50.004 102.942H48.438V108H46.458V95.112ZM50.922 101.124C51.546 101.124 52.068 100.926 52.488 100.53C52.92 100.134 53.136 99.636 53.136 99.036C53.136 98.484 52.938 98.004 52.542 97.596C52.158 97.176 51.642 96.966 50.994 96.966H48.438V101.124H50.922ZM61.1385 108.288C60.2505 108.288 59.4465 108.078 58.7265 107.658C58.0185 107.238 57.4605 106.662 57.0525 105.93C56.6565 105.186 56.4585 104.352 56.4585 103.428C56.4585 102.552 56.6505 101.742 57.0345 100.998C57.4305 100.242 57.9765 99.642 58.6725 99.198C59.3685 98.754 60.1545 98.532 61.0305 98.532C61.9545 98.532 62.7525 98.736 63.4245 99.144C64.0965 99.54 64.6065 100.092 64.9545 100.8C65.3145 101.508 65.4945 102.312 65.4945 103.212C65.4945 103.452 65.4825 103.656 65.4585 103.824H58.3665C58.4505 104.7 58.7625 105.378 59.3025 105.858C59.8425 106.326 60.4725 106.56 61.1925 106.56C61.7805 106.56 62.2845 106.428 62.7045 106.164C63.1245 105.888 63.4605 105.528 63.7125 105.084L65.3145 105.858C64.8945 106.614 64.3365 107.208 63.6405 107.64C62.9445 108.072 62.1105 108.288 61.1385 108.288ZM63.5685 102.366C63.5445 102.03 63.4365 101.694 63.2445 101.358C63.0525 101.022 62.7705 100.746 62.3985 100.53C62.0385 100.302 61.5885 100.188 61.0485 100.188C60.4005 100.188 59.8485 100.386 59.3925 100.782C58.9485 101.178 58.6425 101.706 58.4745 102.366H63.5685ZM71.526 112.176C70.41 112.176 69.48 111.918 68.736 111.402C68.004 110.898 67.512 110.286 67.26 109.566L69.06 108.81C69.252 109.302 69.564 109.698 69.996 109.998C70.44 110.298 70.95 110.448 71.526 110.448C72.378 110.448 73.044 110.196 73.524 109.692C74.004 109.188 74.244 108.474 74.244 107.55V106.668H74.136C73.836 107.112 73.434 107.46 72.93 107.712C72.426 107.964 71.85 108.09 71.202 108.09C70.422 108.09 69.702 107.892 69.042 107.496C68.394 107.1 67.872 106.542 67.476 105.822C67.092 105.09 66.9 104.256 66.9 103.32C66.9 102.384 67.092 101.556 67.476 100.836C67.872 100.104 68.394 99.54 69.042 99.144C69.702 98.736 70.422 98.532 71.202 98.532C71.838 98.532 72.408 98.664 72.912 98.928C73.428 99.18 73.836 99.528 74.136 99.972H74.244V98.82H76.098V107.514C76.098 108.498 75.906 109.338 75.522 110.034C75.138 110.742 74.598 111.276 73.902 111.636C73.218 111.996 72.426 112.176 71.526 112.176ZM71.544 106.326C72.036 106.326 72.486 106.206 72.894 105.966C73.302 105.726 73.626 105.384 73.866 104.94C74.118 104.484 74.244 103.944 74.244 103.32C74.244 102.684 74.118 102.138 73.866 101.682C73.626 101.226 73.302 100.884 72.894 100.656C72.486 100.416 72.036 100.296 71.544 100.296C71.052 100.296 70.596 100.416 70.176 100.656C69.768 100.884 69.438 101.226 69.186 101.682C68.946 102.138 68.826 102.684 68.826 103.32C68.826 103.944 68.946 104.484 69.186 104.94C69.438 105.396 69.768 105.744 70.176 105.984C70.596 106.212 71.052 106.326 71.544 106.326ZM81.6144 108.288C80.5104 108.288 79.6644 107.958 79.0764 107.298C78.5004 106.626 78.2124 105.696 78.2124 104.508V98.82H80.1564V104.238C80.1564 104.982 80.3304 105.546 80.6784 105.93C81.0264 106.314 81.4944 106.506 82.0824 106.506C82.5624 106.506 82.9884 106.38 83.3604 106.128C83.7324 105.876 84.0144 105.54 84.2064 105.12C84.4104 104.7 84.5124 104.244 84.5124 103.752V98.82H86.4384V108H84.6204V106.758H84.5124C84.2484 107.202 83.8524 107.568 83.3244 107.856C82.7964 108.144 82.2264 108.288 81.6144 108.288ZM88.7258 95.112H90.6698V108H88.7258V95.112ZM95.7542 108.288C95.0942 108.288 94.5062 108.162 93.9902 107.91C93.4742 107.646 93.0722 107.28 92.7842 106.812C92.4962 106.344 92.3522 105.81 92.3522 105.21C92.3522 104.574 92.5202 104.028 92.8562 103.572C93.1922 103.104 93.6482 102.75 94.2242 102.51C94.8002 102.258 95.4422 102.132 96.1502 102.132C96.6902 102.132 97.1762 102.186 97.6082 102.294C98.0522 102.39 98.4062 102.504 98.6702 102.636V102.15C98.6702 101.562 98.4542 101.088 98.0222 100.728C97.5902 100.356 97.0322 100.17 96.3482 100.17C95.8802 100.17 95.4362 100.278 95.0162 100.494C94.5962 100.698 94.2602 100.98 94.0082 101.34L92.6762 100.314C93.0722 99.75 93.5942 99.312 94.2422 99C94.9022 98.688 95.6222 98.532 96.4022 98.532C97.7222 98.532 98.7422 98.862 99.4622 99.522C100.194 100.17 100.56 101.082 100.56 102.258V108H98.6702V106.866H98.5622C98.2982 107.274 97.9202 107.616 97.4282 107.892C96.9362 108.156 96.3782 108.288 95.7542 108.288ZM96.0962 106.704C96.5762 106.704 97.0142 106.59 97.4102 106.362C97.8062 106.122 98.1122 105.804 98.3282 105.408C98.5562 105.012 98.6702 104.586 98.6702 104.13C98.3822 103.962 98.0522 103.83 97.6802 103.734C97.3082 103.638 96.9182 103.59 96.5102 103.59C95.7542 103.59 95.1962 103.74 94.8362 104.04C94.4882 104.34 94.3142 104.736 94.3142 105.228C94.3142 105.66 94.4762 106.014 94.8002 106.29C95.1242 106.566 95.5562 106.704 96.0962 106.704ZM102.7 98.82H104.536V100.17H104.644C104.848 99.702 105.196 99.318 105.688 99.018C106.192 98.706 106.732 98.55 107.308 98.55C107.728 98.55 108.1 98.61 108.424 98.73V100.746C107.932 100.53 107.458 100.422 107.002 100.422C106.318 100.422 105.754 100.686 105.31 101.214C104.866 101.742 104.644 102.384 104.644 103.14V108H102.7V98.82ZM117.888 108.144C117.48 108.144 117.096 108.084 116.736 107.964C116.388 107.832 116.1 107.652 115.872 107.424C115.356 106.932 115.098 106.236 115.098 105.336V100.512H113.496V98.82H115.098V96.228H117.042V98.82H119.292V100.512H117.042V104.922C117.042 105.426 117.138 105.78 117.33 105.984C117.534 106.212 117.846 106.326 118.266 106.326C118.482 106.326 118.668 106.302 118.824 106.254C118.98 106.194 119.154 106.104 119.346 105.984V107.874C118.938 108.054 118.452 108.144 117.888 108.144ZM121.175 98.82H123.011V100.17H123.119C123.323 99.702 123.671 99.318 124.163 99.018C124.667 98.706 125.207 98.55 125.783 98.55C126.203 98.55 126.575 98.61 126.899 98.73V100.746C126.407 100.53 125.933 100.422 125.477 100.422C124.793 100.422 124.229 100.686 123.785 101.214C123.341 101.742 123.119 102.384 123.119 103.14V108H121.175V98.82ZM130.963 108.288C130.303 108.288 129.715 108.162 129.199 107.91C128.683 107.646 128.281 107.28 127.993 106.812C127.705 106.344 127.561 105.81 127.561 105.21C127.561 104.574 127.729 104.028 128.065 103.572C128.401 103.104 128.857 102.75 129.433 102.51C130.009 102.258 130.651 102.132 131.359 102.132C131.899 102.132 132.385 102.186 132.817 102.294C133.261 102.39 133.615 102.504 133.879 102.636V102.15C133.879 101.562 133.663 101.088 133.231 100.728C132.799 100.356 132.241 100.17 131.557 100.17C131.089 100.17 130.645 100.278 130.225 100.494C129.805 100.698 129.469 100.98 129.217 101.34L127.885 100.314C128.281 99.75 128.803 99.312 129.451 99C130.111 98.688 130.831 98.532 131.611 98.532C132.931 98.532 133.951 98.862 134.671 99.522C135.403 100.17 135.769 101.082 135.769 102.258V108H133.879V106.866H133.771C133.507 107.274 133.129 107.616 132.637 107.892C132.145 108.156 131.587 108.288 130.963 108.288ZM131.305 106.704C131.785 106.704 132.223 106.59 132.619 106.362C133.015 106.122 133.321 105.804 133.537 105.408C133.765 105.012 133.879 104.586 133.879 104.13C133.591 103.962 133.261 103.83 132.889 103.734C132.517 103.638 132.127 103.59 131.719 103.59C130.963 103.59 130.405 103.74 130.045 104.04C129.697 104.34 129.523 104.736 129.523 105.228C129.523 105.66 129.685 106.014 130.009 106.29C130.333 106.566 130.765 106.704 131.305 106.704ZM142.07 108.288C141.158 108.288 140.342 108.078 139.622 107.658C138.902 107.238 138.338 106.662 137.93 105.93C137.534 105.186 137.336 104.346 137.336 103.41C137.336 102.474 137.534 101.64 137.93 100.908C138.338 100.164 138.902 99.582 139.622 99.162C140.342 98.742 141.158 98.532 142.07 98.532C143.078 98.532 143.93 98.76 144.626 99.216C145.334 99.66 145.844 100.278 146.156 101.07L144.392 101.79C143.96 100.806 143.174 100.314 142.034 100.314C141.53 100.314 141.062 100.446 140.63 100.71C140.21 100.962 139.874 101.322 139.622 101.79C139.382 102.258 139.262 102.798 139.262 103.41C139.262 104.022 139.382 104.562 139.622 105.03C139.874 105.498 140.21 105.864 140.63 106.128C141.062 106.38 141.53 106.506 142.034 106.506C142.61 106.506 143.102 106.38 143.51 106.128C143.93 105.864 144.254 105.486 144.482 104.994L146.228 105.75C145.868 106.53 145.334 107.148 144.626 107.604C143.918 108.06 143.066 108.288 142.07 108.288ZM147.876 95.112H149.82V102.672H149.892L153.708 98.82H156.12V98.928L152.574 102.456L156.246 107.892V108H153.942L151.206 103.788L149.82 105.174V108H147.876V95.112Z" fill="#8F8F8F"/>
<rect width="305" height="1" transform="translate(45 122)" fill="#E9E3E3"/>
<g filter="url(#filter1_d_5_1613)">
<path d="M45 145C45 142.791 46.7909 141 49 141H124C126.209 141 128 142.791 128 145V172C128 174.209 126.209 176 124 176H49C46.7909 176 45 174.209 45 172V145Z" fill="white"/>
<path d="M45.25 145C45.25 142.929 46.9289 141.25 49 141.25H124C126.071 141.25 127.75 142.929 127.75 145V172C127.75 174.071 126.071 175.75 124 175.75H49C46.9289 175.75 45.25 174.071 45.25 172V145Z" stroke="#603AC8" stroke-width="0.5"/>
<path d="M58.2 152.26H64.41V153.475H59.475V157.03H63.93V158.23H59.475V161.785H64.41V163H58.2V152.26ZM66.0602 155.35H67.2752V156.475H67.3352C67.5452 156.095 67.8802 155.775 68.3402 155.515C68.8002 155.245 69.2902 155.11 69.8102 155.11C70.7302 155.11 71.4302 155.38 71.9102 155.92C72.4002 156.45 72.6452 157.175 72.6452 158.095V163H71.3702V158.29C71.3702 157.58 71.2002 157.065 70.8602 156.745C70.5202 156.425 70.0552 156.265 69.4652 156.265C69.0552 156.265 68.6852 156.38 68.3552 156.61C68.0352 156.84 67.7852 157.145 67.6052 157.525C67.4252 157.895 67.3352 158.285 67.3352 158.695V163H66.0602V155.35ZM77.7552 166.48C76.8552 166.48 76.1102 166.27 75.5202 165.85C74.9402 165.43 74.5502 164.925 74.3502 164.335L75.5202 163.84C75.6802 164.28 75.9552 164.635 76.3452 164.905C76.7452 165.185 77.2152 165.325 77.7552 165.325C78.5452 165.325 79.1552 165.095 79.5852 164.635C80.0252 164.175 80.2452 163.525 80.2452 162.685V161.83H80.1852C79.9352 162.22 79.5802 162.54 79.1202 162.79C78.6702 163.03 78.1552 163.15 77.5752 163.15C76.9152 163.15 76.3102 162.98 75.7602 162.64C75.2202 162.3 74.7902 161.825 74.4702 161.215C74.1502 160.605 73.9902 159.91 73.9902 159.13C73.9902 158.36 74.1502 157.67 74.4702 157.06C74.7902 156.44 75.2202 155.96 75.7602 155.62C76.3102 155.28 76.9152 155.11 77.5752 155.11C78.1552 155.11 78.6702 155.235 79.1202 155.485C79.5802 155.725 79.9352 156.045 80.1852 156.445H80.2452V155.35H81.4602V162.7C81.4602 163.93 81.1202 164.865 80.4402 165.505C79.7602 166.155 78.8652 166.48 77.7552 166.48ZM77.7552 161.995C78.2152 161.995 78.6302 161.88 79.0002 161.65C79.3802 161.42 79.6802 161.09 79.9002 160.66C80.1302 160.23 80.2452 159.72 80.2452 159.13C80.2452 158.53 80.1302 158.015 79.9002 157.585C79.6802 157.155 79.3802 156.83 79.0002 156.61C78.6302 156.38 78.2152 156.265 77.7552 156.265C77.2952 156.265 76.8752 156.38 76.4952 156.61C76.1152 156.84 75.8102 157.17 75.5802 157.6C75.3602 158.03 75.2502 158.54 75.2502 159.13C75.2502 159.72 75.3602 160.235 75.5802 160.675C75.8102 161.105 76.1152 161.435 76.4952 161.665C76.8752 161.885 77.2952 161.995 77.7552 161.995ZM83.3454 152.26H84.6204V163H83.3454V152.26ZM87.2595 153.94C87.0095 153.94 86.7945 153.85 86.6145 153.67C86.4345 153.49 86.3445 153.275 86.3445 153.025C86.3445 152.765 86.4345 152.55 86.6145 152.38C86.7945 152.2 87.0095 152.11 87.2595 152.11C87.5195 152.11 87.7345 152.2 87.9045 152.38C88.0845 152.55 88.1745 152.765 88.1745 153.025C88.1745 153.275 88.0845 153.49 87.9045 153.67C87.7345 153.85 87.5195 153.94 87.2595 153.94ZM86.6295 155.35H87.9045V163H86.6295V155.35ZM92.5632 163.24C91.7432 163.24 91.0582 163.05 90.5082 162.67C89.9582 162.28 89.5682 161.785 89.3382 161.185L90.4782 160.675C90.6682 161.135 90.9482 161.49 91.3182 161.74C91.6982 161.99 92.1132 162.115 92.5632 162.115C93.0432 162.115 93.4532 162.02 93.7932 161.83C94.1332 161.63 94.3032 161.35 94.3032 160.99C94.3032 160.67 94.1682 160.415 93.8982 160.225C93.6282 160.025 93.2032 159.855 92.6232 159.715L91.6932 159.475C91.0832 159.325 90.5832 159.07 90.1932 158.71C89.8032 158.35 89.6082 157.885 89.6082 157.315C89.6082 156.875 89.7382 156.49 89.9982 156.16C90.2682 155.82 90.6232 155.56 91.0632 155.38C91.5032 155.2 91.9782 155.11 92.4882 155.11C93.1582 155.11 93.7532 155.255 94.2732 155.545C94.8032 155.835 95.1782 156.24 95.3982 156.76L94.2882 157.27C93.9482 156.59 93.3432 156.25 92.4732 156.25C92.0532 156.25 91.6832 156.35 91.3632 156.55C91.0532 156.74 90.8982 156.985 90.8982 157.285C90.8982 157.565 91.0082 157.795 91.2282 157.975C91.4482 158.145 91.7782 158.285 92.2182 158.395L93.3282 158.68C94.0782 158.87 94.6432 159.155 95.0232 159.535C95.4032 159.905 95.5932 160.36 95.5932 160.9C95.5932 161.37 95.4582 161.785 95.1882 162.145C94.9182 162.495 94.5532 162.765 94.0932 162.955C93.6332 163.145 93.1232 163.24 92.5632 163.24ZM96.9831 152.26H98.2581V155.425L98.1981 156.475H98.2581C98.4681 156.085 98.7981 155.76 99.2481 155.5C99.7081 155.24 100.208 155.11 100.748 155.11C101.678 155.11 102.388 155.385 102.878 155.935C103.368 156.475 103.613 157.195 103.613 158.095V163H102.338V158.29C102.338 157.6 102.163 157.09 101.813 156.76C101.463 156.43 101.008 156.265 100.448 156.265C100.048 156.265 99.6781 156.385 99.3381 156.625C99.0081 156.865 98.7431 157.175 98.5431 157.555C98.3531 157.935 98.2581 158.33 98.2581 158.74V163H96.9831V152.26ZM108.666 161.725C110.626 159.755 111.881 158.47 112.431 157.87C112.941 157.32 113.286 156.89 113.466 156.58C113.646 156.27 113.736 155.895 113.736 155.455C113.736 155.165 113.661 154.885 113.511 154.615C113.361 154.345 113.136 154.13 112.836 153.97C112.546 153.8 112.196 153.715 111.786 153.715C111.246 153.715 110.811 153.875 110.481 154.195C110.151 154.505 109.936 154.845 109.836 155.215L108.681 154.75C108.771 154.43 108.946 154.1 109.206 153.76C109.466 153.41 109.816 153.115 110.256 152.875C110.696 152.625 111.216 152.5 111.816 152.5C112.446 152.5 113.001 152.635 113.481 152.905C113.971 153.175 114.351 153.535 114.621 153.985C114.891 154.435 115.026 154.92 115.026 155.44C115.026 156.49 114.476 157.575 113.376 158.695L110.301 161.785H115.146V163H108.666V161.725Z" fill="#212121"/>
</g>
<g filter="url(#filter2_d_5_1613)">
<rect x="140" y="141" width="95" height="35" rx="4" fill="white"/>
<rect x="140.25" y="141.25" width="94.5" height="34.5" rx="3.75" stroke="#603AC8" stroke-width="0.5"/>
<path d="M158.24 163.24C157.23 163.24 156.3 162.995 155.45 162.505C154.6 162.015 153.925 161.34 153.425 160.48C152.925 159.62 152.675 158.67 152.675 157.63C152.675 156.59 152.925 155.64 153.425 154.78C153.925 153.92 154.6 153.245 155.45 152.755C156.3 152.265 157.23 152.02 158.24 152.02C159.03 152.02 159.77 152.16 160.46 152.44C161.16 152.72 161.735 153.115 162.185 153.625L161.285 154.54C160.935 154.12 160.495 153.8 159.965 153.58C159.435 153.35 158.865 153.235 158.255 153.235C157.505 153.235 156.8 153.42 156.14 153.79C155.48 154.15 154.95 154.665 154.55 155.335C154.16 155.995 153.965 156.76 153.965 157.63C153.965 158.5 154.16 159.27 154.55 159.94C154.95 160.6 155.48 161.115 156.14 161.485C156.8 161.845 157.505 162.025 158.255 162.025C158.975 162.025 159.575 161.915 160.055 161.695C160.545 161.465 160.965 161.165 161.315 160.795C161.575 160.515 161.785 160.18 161.945 159.79C162.105 159.39 162.205 158.95 162.245 158.47H158.27V157.285H163.43C163.48 157.565 163.505 157.825 163.505 158.065C163.505 158.725 163.4 159.37 163.19 160C162.98 160.62 162.645 161.165 162.185 161.635C161.195 162.705 159.88 163.24 158.24 163.24ZM168.479 163.24C167.749 163.24 167.094 163.065 166.514 162.715C165.934 162.365 165.479 161.885 165.149 161.275C164.829 160.655 164.669 159.96 164.669 159.19C164.669 158.46 164.819 157.785 165.119 157.165C165.429 156.535 165.864 156.035 166.424 155.665C166.994 155.295 167.644 155.11 168.374 155.11C169.124 155.11 169.774 155.28 170.324 155.62C170.874 155.95 171.294 156.41 171.584 157C171.884 157.59 172.034 158.265 172.034 159.025C172.034 159.145 172.024 159.275 172.004 159.415H165.944C165.974 159.995 166.114 160.485 166.364 160.885C166.614 161.285 166.929 161.585 167.309 161.785C167.699 161.985 168.104 162.085 168.524 162.085C169.524 162.085 170.279 161.625 170.789 160.705L171.869 161.23C171.549 161.84 171.104 162.33 170.534 162.7C169.964 163.06 169.279 163.24 168.479 163.24ZM170.684 158.365C170.664 158.045 170.574 157.725 170.414 157.405C170.254 157.085 170.004 156.815 169.664 156.595C169.324 156.375 168.894 156.265 168.374 156.265C167.774 156.265 167.264 156.46 166.844 156.85C166.424 157.23 166.149 157.735 166.019 158.365H170.684ZM177.124 163.24C176.374 163.24 175.699 163.06 175.099 162.7C174.499 162.34 174.029 161.85 173.689 161.23C173.359 160.61 173.194 159.925 173.194 159.175C173.194 158.425 173.359 157.74 173.689 157.12C174.029 156.5 174.499 156.01 175.099 155.65C175.699 155.29 176.374 155.11 177.124 155.11C177.874 155.11 178.549 155.29 179.149 155.65C179.749 156.01 180.214 156.5 180.544 157.12C180.884 157.74 181.054 158.425 181.054 159.175C181.054 159.925 180.884 160.61 180.544 161.23C180.214 161.85 179.749 162.34 179.149 162.7C178.549 163.06 177.874 163.24 177.124 163.24ZM177.124 162.085C177.594 162.085 178.029 161.97 178.429 161.74C178.839 161.5 179.164 161.16 179.404 160.72C179.654 160.28 179.779 159.765 179.779 159.175C179.779 158.585 179.654 158.07 179.404 157.63C179.164 157.19 178.839 156.855 178.429 156.625C178.029 156.385 177.594 156.265 177.124 156.265C176.654 156.265 176.214 156.385 175.804 156.625C175.394 156.855 175.064 157.19 174.814 157.63C174.574 158.07 174.454 158.585 174.454 159.175C174.454 159.765 174.574 160.28 174.814 160.72C175.064 161.16 175.394 161.5 175.804 161.74C176.214 161.97 176.654 162.085 177.124 162.085ZM182.388 155.35H183.603V156.475H183.663C183.883 156.085 184.213 155.76 184.653 155.5C185.093 155.24 185.558 155.11 186.048 155.11C186.608 155.11 187.093 155.245 187.503 155.515C187.923 155.785 188.223 156.145 188.403 156.595C188.673 156.145 189.028 155.785 189.468 155.515C189.918 155.245 190.438 155.11 191.028 155.11C191.908 155.11 192.568 155.38 193.008 155.92C193.458 156.45 193.683 157.175 193.683 158.095V163H192.423V158.29C192.423 157.58 192.278 157.065 191.988 156.745C191.698 156.425 191.268 156.265 190.698 156.265C190.318 156.265 189.973 156.375 189.663 156.595C189.353 156.815 189.108 157.11 188.928 157.48C188.758 157.85 188.673 158.25 188.673 158.68V163H187.398V158.305C187.398 157.585 187.253 157.065 186.963 156.745C186.673 156.425 186.248 156.265 185.688 156.265C185.308 156.265 184.963 156.38 184.653 156.61C184.343 156.83 184.098 157.13 183.918 157.51C183.748 157.88 183.663 158.28 183.663 158.71V163H182.388V155.35ZM198.933 163.24C198.203 163.24 197.548 163.065 196.968 162.715C196.388 162.365 195.933 161.885 195.603 161.275C195.283 160.655 195.123 159.96 195.123 159.19C195.123 158.46 195.273 157.785 195.573 157.165C195.883 156.535 196.318 156.035 196.878 155.665C197.448 155.295 198.098 155.11 198.828 155.11C199.578 155.11 200.228 155.28 200.778 155.62C201.328 155.95 201.748 156.41 202.038 157C202.338 157.59 202.488 158.265 202.488 159.025C202.488 159.145 202.478 159.275 202.458 159.415H196.398C196.428 159.995 196.568 160.485 196.818 160.885C197.068 161.285 197.383 161.585 197.763 161.785C198.153 161.985 198.558 162.085 198.978 162.085C199.978 162.085 200.733 161.625 201.243 160.705L202.323 161.23C202.003 161.84 201.558 162.33 200.988 162.7C200.418 163.06 199.733 163.24 198.933 163.24ZM201.138 158.365C201.118 158.045 201.028 157.725 200.868 157.405C200.708 157.085 200.458 156.815 200.118 156.595C199.778 156.375 199.348 156.265 198.828 156.265C198.228 156.265 197.718 156.46 197.298 156.85C196.878 157.23 196.603 157.735 196.473 158.365H201.138ZM206.7 163.12C206.39 163.12 206.1 163.07 205.83 162.97C205.57 162.87 205.35 162.735 205.17 162.565C204.77 162.185 204.57 161.66 204.57 160.99V156.505H203.235V155.35H204.57V153.19H205.845V155.35H207.72V156.505H205.845V160.675C205.845 161.095 205.925 161.405 206.085 161.605C206.275 161.825 206.55 161.935 206.91 161.935C207.22 161.935 207.5 161.85 207.75 161.68V162.925C207.6 162.995 207.445 163.045 207.285 163.075C207.135 163.105 206.94 163.12 206.7 163.12ZM209.254 155.35H210.469V156.58H210.529C210.679 156.16 210.969 155.815 211.399 155.545C211.829 155.265 212.279 155.125 212.749 155.125C213.099 155.125 213.399 155.175 213.649 155.275V156.655C213.329 156.495 212.969 156.415 212.569 156.415C212.199 156.415 211.859 156.52 211.549 156.73C211.239 156.94 210.989 157.225 210.799 157.585C210.619 157.935 210.529 158.315 210.529 158.725V163H209.254V155.35ZM217.556 162.52L214.391 155.35H215.771L218.171 161.035H218.201L220.511 155.35H221.891L217.166 166.24H215.846L217.556 162.52Z" fill="#212121"/>
</g>
<g filter="url(#filter3_d_5_1613)">
<path d="M247 145C247 142.791 248.791 141 251 141H317C319.209 141 321 142.791 321 145V172C321 174.209 319.209 176 317 176H251C248.791 176 247 174.209 247 172V145Z" fill="white"/>
<path d="M247.25 145C247.25 142.929 248.929 141.25 251 141.25H317C319.071 141.25 320.75 142.929 320.75 145V172C320.75 174.071 319.071 175.75 317 175.75H251C248.929 175.75 247.25 174.071 247.25 172V145Z" stroke="#603AC8" stroke-width="0.5"/>
<path d="M260.2 152.26H264.055C264.595 152.26 265.1 152.385 265.57 152.635C266.05 152.885 266.43 153.23 266.71 153.67C266.99 154.11 267.13 154.605 267.13 155.155C267.13 155.675 266.995 156.13 266.725 156.52C266.465 156.91 266.11 157.21 265.66 157.42V157.48C266.2 157.66 266.64 157.97 266.98 158.41C267.32 158.85 267.49 159.365 267.49 159.955C267.49 160.535 267.34 161.06 267.04 161.53C266.75 161.99 266.355 162.35 265.855 162.61C265.365 162.87 264.835 163 264.265 163H260.2V152.26ZM264.055 156.895C264.415 156.895 264.73 156.815 265 156.655C265.28 156.485 265.495 156.27 265.645 156.01C265.795 155.74 265.87 155.465 265.87 155.185C265.87 154.915 265.795 154.65 265.645 154.39C265.505 154.12 265.3 153.9 265.03 153.73C264.77 153.56 264.465 153.475 264.115 153.475H261.475V156.895H264.055ZM264.34 161.785C264.7 161.785 265.02 161.695 265.3 161.515C265.59 161.335 265.81 161.105 265.96 160.825C266.12 160.535 266.2 160.24 266.2 159.94C266.2 159.64 266.12 159.35 265.96 159.07C265.8 158.78 265.575 158.55 265.285 158.38C264.995 158.2 264.66 158.11 264.28 158.11H261.475V161.785H264.34ZM269.792 153.94C269.542 153.94 269.327 153.85 269.147 153.67C268.967 153.49 268.877 153.275 268.877 153.025C268.877 152.765 268.967 152.55 269.147 152.38C269.327 152.2 269.542 152.11 269.792 152.11C270.052 152.11 270.267 152.2 270.437 152.38C270.617 152.55 270.707 152.765 270.707 153.025C270.707 153.275 270.617 153.49 270.437 153.67C270.267 153.85 270.052 153.94 269.792 153.94ZM269.162 155.35H270.437V163H269.162V155.35ZM275.877 163.24C275.127 163.24 274.452 163.06 273.852 162.7C273.252 162.34 272.782 161.85 272.442 161.23C272.112 160.61 271.947 159.925 271.947 159.175C271.947 158.425 272.112 157.74 272.442 157.12C272.782 156.5 273.252 156.01 273.852 155.65C274.452 155.29 275.127 155.11 275.877 155.11C276.627 155.11 277.302 155.29 277.902 155.65C278.502 156.01 278.967 156.5 279.297 157.12C279.637 157.74 279.807 158.425 279.807 159.175C279.807 159.925 279.637 160.61 279.297 161.23C278.967 161.85 278.502 162.34 277.902 162.7C277.302 163.06 276.627 163.24 275.877 163.24ZM275.877 162.085C276.347 162.085 276.782 161.97 277.182 161.74C277.592 161.5 277.917 161.16 278.157 160.72C278.407 160.28 278.532 159.765 278.532 159.175C278.532 158.585 278.407 158.07 278.157 157.63C277.917 157.19 277.592 156.855 277.182 156.625C276.782 156.385 276.347 156.265 275.877 156.265C275.407 156.265 274.967 156.385 274.557 156.625C274.147 156.855 273.817 157.19 273.567 157.63C273.327 158.07 273.207 158.585 273.207 159.175C273.207 159.765 273.327 160.28 273.567 160.72C273.817 161.16 274.147 161.5 274.557 161.74C274.967 161.97 275.407 162.085 275.877 162.085ZM281.215 152.26H282.49V163H281.215V152.26ZM287.83 163.24C287.08 163.24 286.405 163.06 285.805 162.7C285.205 162.34 284.735 161.85 284.395 161.23C284.065 160.61 283.9 159.925 283.9 159.175C283.9 158.425 284.065 157.74 284.395 157.12C284.735 156.5 285.205 156.01 285.805 155.65C286.405 155.29 287.08 155.11 287.83 155.11C288.58 155.11 289.255 155.29 289.855 155.65C290.455 156.01 290.92 156.5 291.25 157.12C291.59 157.74 291.76 158.425 291.76 159.175C291.76 159.925 291.59 160.61 291.25 161.23C290.92 161.85 290.455 162.34 289.855 162.7C289.255 163.06 288.58 163.24 287.83 163.24ZM287.83 162.085C288.3 162.085 288.735 161.97 289.135 161.74C289.545 161.5 289.87 161.16 290.11 160.72C290.36 160.28 290.485 159.765 290.485 159.175C290.485 158.585 290.36 158.07 290.11 157.63C289.87 157.19 289.545 156.855 289.135 156.625C288.735 156.385 288.3 156.265 287.83 156.265C287.36 156.265 286.92 156.385 286.51 156.625C286.1 156.855 285.77 157.19 285.52 157.63C285.28 158.07 285.16 158.585 285.16 159.175C285.16 159.765 285.28 160.28 285.52 160.72C285.77 161.16 286.1 161.5 286.51 161.74C286.92 161.97 287.36 162.085 287.83 162.085ZM296.601 166.48C295.701 166.48 294.956 166.27 294.366 165.85C293.786 165.43 293.396 164.925 293.196 164.335L294.366 163.84C294.526 164.28 294.801 164.635 295.191 164.905C295.591 165.185 296.061 165.325 296.601 165.325C297.391 165.325 298.001 165.095 298.431 164.635C298.871 164.175 299.091 163.525 299.091 162.685V161.83H299.031C298.781 162.22 298.426 162.54 297.966 162.79C297.516 163.03 297.001 163.15 296.421 163.15C295.761 163.15 295.156 162.98 294.606 162.64C294.066 162.3 293.636 161.825 293.316 161.215C292.996 160.605 292.836 159.91 292.836 159.13C292.836 158.36 292.996 157.67 293.316 157.06C293.636 156.44 294.066 155.96 294.606 155.62C295.156 155.28 295.761 155.11 296.421 155.11C297.001 155.11 297.516 155.235 297.966 155.485C298.426 155.725 298.781 156.045 299.031 156.445H299.091V155.35H300.306V162.7C300.306 163.93 299.966 164.865 299.286 165.505C298.606 166.155 297.711 166.48 296.601 166.48ZM296.601 161.995C297.061 161.995 297.476 161.88 297.846 161.65C298.226 161.42 298.526 161.09 298.746 160.66C298.976 160.23 299.091 159.72 299.091 159.13C299.091 158.53 298.976 158.015 298.746 157.585C298.526 157.155 298.226 156.83 297.846 156.61C297.476 156.38 297.061 156.265 296.601 156.265C296.141 156.265 295.721 156.38 295.341 156.61C294.961 156.84 294.656 157.17 294.426 157.6C294.206 158.03 294.096 158.54 294.096 159.13C294.096 159.72 294.206 160.235 294.426 160.675C294.656 161.105 294.961 161.435 295.341 161.665C295.721 161.885 296.141 161.995 296.601 161.995ZM304.531 162.52L301.366 155.35H302.746L305.146 161.035H305.176L307.486 155.35H308.866L304.141 166.24H302.821L304.531 162.52Z" fill="#212121"/>
</g>
<g filter="url(#filter4_d_5_1613)">
<path d="M45 192C45 189.791 46.7909 188 49 188H228C230.209 188 232 189.791 232 192V219C232 221.209 230.209 223 228 223H49C46.7909 223 45 221.209 45 219V192Z" fill="white"/>
<path d="M45.25 192C45.25 189.929 46.9289 188.25 49 188.25H228C230.071 188.25 231.75 189.929 231.75 192V219C231.75 221.071 230.071 222.75 228 222.75H49C46.9289 222.75 45.25 221.071 45.25 219V192Z" stroke="#603AC8" stroke-width="0.5"/>
<path d="M57.255 199.26H58.665L60.615 207.15L60.795 207.885H60.855L61.08 207.15L63.48 199.26H64.8L67.095 207.15L67.32 207.885H67.38L69.495 199.26H70.905L68.01 210H66.69L64.41 202.23L64.17 201.39H64.11L63.855 202.23L61.485 210H60.165L57.255 199.26ZM74.7854 210.24C74.0354 210.24 73.3604 210.06 72.7604 209.7C72.1604 209.34 71.6904 208.85 71.3504 208.23C71.0204 207.61 70.8554 206.925 70.8554 206.175C70.8554 205.425 71.0204 204.74 71.3504 204.12C71.6904 203.5 72.1604 203.01 72.7604 202.65C73.3604 202.29 74.0354 202.11 74.7854 202.11C75.5354 202.11 76.2104 202.29 76.8104 202.65C77.4104 203.01 77.8754 203.5 78.2054 204.12C78.5454 204.74 78.7154 205.425 78.7154 206.175C78.7154 206.925 78.5454 207.61 78.2054 208.23C77.8754 208.85 77.4104 209.34 76.8104 209.7C76.2104 210.06 75.5354 210.24 74.7854 210.24ZM74.7854 209.085C75.2554 209.085 75.6904 208.97 76.0904 208.74C76.5004 208.5 76.8254 208.16 77.0654 207.72C77.3154 207.28 77.4404 206.765 77.4404 206.175C77.4404 205.585 77.3154 205.07 77.0654 204.63C76.8254 204.19 76.5004 203.855 76.0904 203.625C75.6904 203.385 75.2554 203.265 74.7854 203.265C74.3154 203.265 73.8754 203.385 73.4654 203.625C73.0554 203.855 72.7254 204.19 72.4754 204.63C72.2354 205.07 72.1154 205.585 72.1154 206.175C72.1154 206.765 72.2354 207.28 72.4754 207.72C72.7254 208.16 73.0554 208.5 73.4654 208.74C73.8754 208.97 74.3154 209.085 74.7854 209.085ZM80.0495 202.35H81.2645V203.58H81.3245C81.4745 203.16 81.7645 202.815 82.1945 202.545C82.6245 202.265 83.0745 202.125 83.5445 202.125C83.8945 202.125 84.1945 202.175 84.4445 202.275V203.655C84.1245 203.495 83.7645 203.415 83.3645 203.415C82.9945 203.415 82.6545 203.52 82.3445 203.73C82.0345 203.94 81.7845 204.225 81.5945 204.585C81.4145 204.935 81.3245 205.315 81.3245 205.725V210H80.0495V202.35ZM85.7477 199.26H87.0227V210H85.7477V199.26ZM92.0936 210.24C91.4036 210.24 90.7786 210.065 90.2186 209.715C89.6686 209.365 89.2336 208.885 88.9136 208.275C88.5936 207.655 88.4336 206.955 88.4336 206.175C88.4336 205.405 88.5936 204.71 88.9136 204.09C89.2336 203.47 89.6686 202.985 90.2186 202.635C90.7786 202.285 91.4036 202.11 92.0936 202.11C92.6736 202.11 93.1936 202.245 93.6536 202.515C94.1136 202.775 94.4636 203.1 94.7036 203.49H94.7636L94.7036 202.425V199.26H95.9786V210H94.7636V208.875H94.7036C94.4636 209.255 94.1136 209.58 93.6536 209.85C93.1936 210.11 92.6736 210.24 92.0936 210.24ZM92.2286 209.085C92.6786 209.085 93.0936 208.965 93.4736 208.725C93.8636 208.485 94.1736 208.145 94.4036 207.705C94.6436 207.265 94.7636 206.755 94.7636 206.175C94.7636 205.595 94.6436 205.085 94.4036 204.645C94.1736 204.205 93.8636 203.865 93.4736 203.625C93.0936 203.385 92.6786 203.265 92.2286 203.265C91.7886 203.265 91.3736 203.385 90.9836 203.625C90.5936 203.865 90.2786 204.21 90.0386 204.66C89.8086 205.1 89.6936 205.605 89.6936 206.175C89.6936 206.745 89.8086 207.255 90.0386 207.705C90.2786 208.145 90.5936 208.485 90.9836 208.725C91.3736 208.965 91.7886 209.085 92.2286 209.085ZM101.348 199.26H102.623V210H101.348V199.26ZM106.884 210.24C106.324 210.24 105.824 210.13 105.384 209.91C104.944 209.69 104.604 209.39 104.364 209.01C104.124 208.62 104.004 208.18 104.004 207.69C104.004 206.88 104.309 206.25 104.919 205.8C105.529 205.34 106.299 205.11 107.229 205.11C107.689 205.11 108.114 205.16 108.504 205.26C108.904 205.36 109.209 205.475 109.419 205.605V205.14C109.419 204.57 109.219 204.115 108.819 203.775C108.419 203.425 107.914 203.25 107.304 203.25C106.884 203.25 106.489 203.345 106.119 203.535C105.759 203.715 105.474 203.97 105.264 204.3L104.304 203.58C104.604 203.12 105.019 202.76 105.549 202.5C106.079 202.24 106.664 202.11 107.304 202.11C108.344 202.11 109.159 202.385 109.749 202.935C110.339 203.475 110.634 204.215 110.634 205.155V210H109.419V208.905H109.359C109.139 209.275 108.809 209.59 108.369 209.85C107.929 210.11 107.434 210.24 106.884 210.24ZM107.004 209.115C107.434 209.115 107.834 209.005 108.204 208.785C108.574 208.565 108.869 208.27 109.089 207.9C109.309 207.53 109.419 207.125 109.419 206.685C109.179 206.525 108.884 206.395 108.534 206.295C108.184 206.195 107.814 206.145 107.424 206.145C106.724 206.145 106.194 206.29 105.834 206.58C105.484 206.87 105.309 207.245 105.309 207.705C105.309 208.125 105.469 208.465 105.789 208.725C106.109 208.985 106.514 209.115 107.004 209.115ZM112.408 202.35H113.623V203.475H113.683C113.893 203.095 114.228 202.775 114.688 202.515C115.148 202.245 115.638 202.11 116.158 202.11C117.078 202.11 117.778 202.38 118.258 202.92C118.748 203.45 118.993 204.175 118.993 205.095V210H117.718V205.29C117.718 204.58 117.548 204.065 117.208 203.745C116.868 203.425 116.403 203.265 115.813 203.265C115.403 203.265 115.033 203.38 114.703 203.61C114.383 203.84 114.133 204.145 113.953 204.525C113.773 204.895 113.683 205.285 113.683 205.695V210H112.408V202.35ZM124.103 213.48C123.203 213.48 122.458 213.27 121.868 212.85C121.288 212.43 120.898 211.925 120.698 211.335L121.868 210.84C122.028 211.28 122.303 211.635 122.693 211.905C123.093 212.185 123.563 212.325 124.103 212.325C124.893 212.325 125.503 212.095 125.933 211.635C126.373 211.175 126.593 210.525 126.593 209.685V208.83H126.533C126.283 209.22 125.928 209.54 125.468 209.79C125.018 210.03 124.503 210.15 123.923 210.15C123.263 210.15 122.658 209.98 122.108 209.64C121.568 209.3 121.138 208.825 120.818 208.215C120.498 207.605 120.338 206.91 120.338 206.13C120.338 205.36 120.498 204.67 120.818 204.06C121.138 203.44 121.568 202.96 122.108 202.62C122.658 202.28 123.263 202.11 123.923 202.11C124.503 202.11 125.018 202.235 125.468 202.485C125.928 202.725 126.283 203.045 126.533 203.445H126.593V202.35H127.808V209.7C127.808 210.93 127.468 211.865 126.788 212.505C126.108 213.155 125.213 213.48 124.103 213.48ZM124.103 208.995C124.563 208.995 124.978 208.88 125.348 208.65C125.728 208.42 126.028 208.09 126.248 207.66C126.478 207.23 126.593 206.72 126.593 206.13C126.593 205.53 126.478 205.015 126.248 204.585C126.028 204.155 125.728 203.83 125.348 203.61C124.978 203.38 124.563 203.265 124.103 203.265C123.643 203.265 123.223 203.38 122.843 203.61C122.463 203.84 122.158 204.17 121.928 204.6C121.708 205.03 121.598 205.54 121.598 206.13C121.598 206.72 121.708 207.235 121.928 207.675C122.158 208.105 122.463 208.435 122.843 208.665C123.223 208.885 123.643 208.995 124.103 208.995ZM132.395 210.24C131.475 210.24 130.77 209.97 130.28 209.43C129.8 208.89 129.56 208.135 129.56 207.165V202.35H130.835V206.97C130.835 207.7 131 208.235 131.33 208.575C131.66 208.915 132.105 209.085 132.665 209.085C133.095 209.085 133.475 208.97 133.805 208.74C134.145 208.51 134.405 208.21 134.585 207.84C134.775 207.47 134.87 207.08 134.87 206.67V202.35H136.145V210H134.93V208.89H134.87C134.66 209.27 134.325 209.59 133.865 209.85C133.405 210.11 132.915 210.24 132.395 210.24ZM140.4 210.24C139.84 210.24 139.34 210.13 138.9 209.91C138.46 209.69 138.12 209.39 137.88 209.01C137.64 208.62 137.52 208.18 137.52 207.69C137.52 206.88 137.825 206.25 138.435 205.8C139.045 205.34 139.815 205.11 140.745 205.11C141.205 205.11 141.63 205.16 142.02 205.26C142.42 205.36 142.725 205.475 142.935 205.605V205.14C142.935 204.57 142.735 204.115 142.335 203.775C141.935 203.425 141.43 203.25 140.82 203.25C140.4 203.25 140.005 203.345 139.635 203.535C139.275 203.715 138.99 203.97 138.78 204.3L137.82 203.58C138.12 203.12 138.535 202.76 139.065 202.5C139.595 202.24 140.18 202.11 140.82 202.11C141.86 202.11 142.675 202.385 143.265 202.935C143.855 203.475 144.15 204.215 144.15 205.155V210H142.935V208.905H142.875C142.655 209.275 142.325 209.59 141.885 209.85C141.445 210.11 140.95 210.24 140.4 210.24ZM140.52 209.115C140.95 209.115 141.35 209.005 141.72 208.785C142.09 208.565 142.385 208.27 142.605 207.9C142.825 207.53 142.935 207.125 142.935 206.685C142.695 206.525 142.4 206.395 142.05 206.295C141.7 206.195 141.33 206.145 140.94 206.145C140.24 206.145 139.71 206.29 139.35 206.58C139 206.87 138.825 207.245 138.825 207.705C138.825 208.125 138.985 208.465 139.305 208.725C139.625 208.985 140.03 209.115 140.52 209.115ZM149.21 213.48C148.31 213.48 147.565 213.27 146.975 212.85C146.395 212.43 146.005 211.925 145.805 211.335L146.975 210.84C147.135 211.28 147.41 211.635 147.8 211.905C148.2 212.185 148.67 212.325 149.21 212.325C150 212.325 150.61 212.095 151.04 211.635C151.48 211.175 151.7 210.525 151.7 209.685V208.83H151.64C151.39 209.22 151.035 209.54 150.575 209.79C150.125 210.03 149.61 210.15 149.03 210.15C148.37 210.15 147.765 209.98 147.215 209.64C146.675 209.3 146.245 208.825 145.925 208.215C145.605 207.605 145.445 206.91 145.445 206.13C145.445 205.36 145.605 204.67 145.925 204.06C146.245 203.44 146.675 202.96 147.215 202.62C147.765 202.28 148.37 202.11 149.03 202.11C149.61 202.11 150.125 202.235 150.575 202.485C151.035 202.725 151.39 203.045 151.64 203.445H151.7V202.35H152.915V209.7C152.915 210.93 152.575 211.865 151.895 212.505C151.215 213.155 150.32 213.48 149.21 213.48ZM149.21 208.995C149.67 208.995 150.085 208.88 150.455 208.65C150.835 208.42 151.135 208.09 151.355 207.66C151.585 207.23 151.7 206.72 151.7 206.13C151.7 205.53 151.585 205.015 151.355 204.585C151.135 204.155 150.835 203.83 150.455 203.61C150.085 203.38 149.67 203.265 149.21 203.265C148.75 203.265 148.33 203.38 147.95 203.61C147.57 203.84 147.265 204.17 147.035 204.6C146.815 205.03 146.705 205.54 146.705 206.13C146.705 206.72 146.815 207.235 147.035 207.675C147.265 208.105 147.57 208.435 147.95 208.665C148.33 208.885 148.75 208.995 149.21 208.995ZM158.132 210.24C157.402 210.24 156.747 210.065 156.167 209.715C155.587 209.365 155.132 208.885 154.802 208.275C154.482 207.655 154.322 206.96 154.322 206.19C154.322 205.46 154.472 204.785 154.772 204.165C155.082 203.535 155.517 203.035 156.077 202.665C156.647 202.295 157.297 202.11 158.027 202.11C158.777 202.11 159.427 202.28 159.977 202.62C160.527 202.95 160.947 203.41 161.237 204C161.537 204.59 161.687 205.265 161.687 206.025C161.687 206.145 161.677 206.275 161.657 206.415H155.597C155.627 206.995 155.767 207.485 156.017 207.885C156.267 208.285 156.582 208.585 156.962 208.785C157.352 208.985 157.757 209.085 158.177 209.085C159.177 209.085 159.932 208.625 160.442 207.705L161.522 208.23C161.202 208.84 160.757 209.33 160.187 209.7C159.617 210.06 158.932 210.24 158.132 210.24ZM160.337 205.365C160.317 205.045 160.227 204.725 160.067 204.405C159.907 204.085 159.657 203.815 159.317 203.595C158.977 203.375 158.547 203.265 158.027 203.265C157.427 203.265 156.917 203.46 156.497 203.85C156.077 204.23 155.802 204.735 155.672 205.365H160.337ZM169.336 212.04C168.606 211.2 167.976 210.185 167.446 208.995C166.926 207.795 166.666 206.52 166.666 205.17C166.666 203.82 166.926 202.55 167.446 201.36C167.976 200.16 168.606 199.14 169.336 198.3L170.266 198.96C169.586 199.77 169.026 200.725 168.586 201.825C168.146 202.915 167.926 204.03 167.926 205.17C167.926 206.31 168.146 207.43 168.586 208.53C169.026 209.62 169.586 210.57 170.266 211.38L169.336 212.04ZM171.769 199.26H173.044V208.785H177.739V210H171.769V199.26ZM182.375 210.24C181.645 210.24 180.99 210.065 180.41 209.715C179.83 209.365 179.375 208.885 179.045 208.275C178.725 207.655 178.565 206.96 178.565 206.19C178.565 205.46 178.715 204.785 179.015 204.165C179.325 203.535 179.76 203.035 180.32 202.665C180.89 202.295 181.54 202.11 182.27 202.11C183.02 202.11 183.67 202.28 184.22 202.62C184.77 202.95 185.19 203.41 185.48 204C185.78 204.59 185.93 205.265 185.93 206.025C185.93 206.145 185.92 206.275 185.9 206.415H179.84C179.87 206.995 180.01 207.485 180.26 207.885C180.51 208.285 180.825 208.585 181.205 208.785C181.595 208.985 182 209.085 182.42 209.085C183.42 209.085 184.175 208.625 184.685 207.705L185.765 208.23C185.445 208.84 185 209.33 184.43 209.7C183.86 210.06 183.175 210.24 182.375 210.24ZM184.58 205.365C184.56 205.045 184.47 204.725 184.31 204.405C184.15 204.085 183.9 203.815 183.56 203.595C183.22 203.375 182.79 203.265 182.27 203.265C181.67 203.265 181.16 203.46 180.74 203.85C180.32 204.23 180.045 204.735 179.915 205.365H184.58ZM186.436 202.35H187.801L190.171 208.5H190.201L192.601 202.35H193.936L190.816 210H189.526L186.436 202.35ZM198.166 210.24C197.436 210.24 196.781 210.065 196.201 209.715C195.621 209.365 195.166 208.885 194.836 208.275C194.516 207.655 194.356 206.96 194.356 206.19C194.356 205.46 194.506 204.785 194.806 204.165C195.116 203.535 195.551 203.035 196.111 202.665C196.681 202.295 197.331 202.11 198.061 202.11C198.811 202.11 199.461 202.28 200.011 202.62C200.561 202.95 200.981 203.41 201.271 204C201.571 204.59 201.721 205.265 201.721 206.025C201.721 206.145 201.711 206.275 201.691 206.415H195.631C195.661 206.995 195.801 207.485 196.051 207.885C196.301 208.285 196.616 208.585 196.996 208.785C197.386 208.985 197.791 209.085 198.211 209.085C199.211 209.085 199.966 208.625 200.476 207.705L201.556 208.23C201.236 208.84 200.791 209.33 200.221 209.7C199.651 210.06 198.966 210.24 198.166 210.24ZM200.371 205.365C200.351 205.045 200.261 204.725 200.101 204.405C199.941 204.085 199.691 203.815 199.351 203.595C199.011 203.375 198.581 203.265 198.061 203.265C197.461 203.265 196.951 203.46 196.531 203.85C196.111 204.23 195.836 204.735 195.706 205.365H200.371ZM203.214 199.26H204.489V210H203.214V199.26ZM212.054 201.525L210.254 202.815L209.594 201.84L212.519 199.74H213.329V210H212.054V201.525ZM214.917 211.38C215.597 210.57 216.157 209.62 216.597 208.53C217.037 207.43 217.257 206.31 217.257 205.17C217.257 204.03 217.037 202.915 216.597 201.825C216.157 200.725 215.597 199.77 214.917 198.96L215.847 198.3C216.577 199.14 217.202 200.16 217.722 201.36C218.252 202.55 218.517 203.82 218.517 205.17C218.517 206.52 218.252 207.795 217.722 208.995C217.202 210.185 216.577 211.2 215.847 212.04L214.917 211.38Z" fill="#212121"/>
</g>
<g filter="url(#filter5_d_5_1613)">
<path d="M45 239C45 236.791 46.7909 235 49 235H183C185.209 235 187 236.791 187 239V266C187 268.209 185.209 270 183 270H49C46.7909 270 45 268.209 45 266V239Z" fill="white"/>
<path d="M45.25 239C45.25 236.929 46.9289 235.25 49 235.25H183C185.071 235.25 186.75 236.929 186.75 239V266C186.75 268.071 185.071 269.75 183 269.75H49C46.9289 269.75 45.25 268.071 45.25 266V239Z" stroke="#603AC8" stroke-width="0.5"/>
<path d="M58.2 246.26H64.41V247.475H59.475V251.03H63.93V252.23H59.475V255.785H64.41V257H58.2V246.26ZM66.2067 246.26H67.4817V257H66.2067V246.26ZM72.7025 257.24C71.9725 257.24 71.3175 257.065 70.7375 256.715C70.1575 256.365 69.7025 255.885 69.3725 255.275C69.0525 254.655 68.8925 253.96 68.8925 253.19C68.8925 252.46 69.0425 251.785 69.3425 251.165C69.6525 250.535 70.0875 250.035 70.6475 249.665C71.2175 249.295 71.8675 249.11 72.5975 249.11C73.3475 249.11 73.9975 249.28 74.5475 249.62C75.0975 249.95 75.5175 250.41 75.8075 251C76.1075 251.59 76.2575 252.265 76.2575 253.025C76.2575 253.145 76.2475 253.275 76.2275 253.415H70.1675C70.1975 253.995 70.3375 254.485 70.5875 254.885C70.8375 255.285 71.1525 255.585 71.5325 255.785C71.9225 255.985 72.3275 256.085 72.7475 256.085C73.7475 256.085 74.5025 255.625 75.0125 254.705L76.0925 255.23C75.7725 255.84 75.3275 256.33 74.7575 256.7C74.1875 257.06 73.5025 257.24 72.7025 257.24ZM74.9075 252.365C74.8875 252.045 74.7975 251.725 74.6375 251.405C74.4775 251.085 74.2275 250.815 73.8875 250.595C73.5475 250.375 73.1175 250.265 72.5975 250.265C71.9975 250.265 71.4875 250.46 71.0675 250.85C70.6475 251.23 70.3725 251.735 70.2425 252.365H74.9075ZM81.2879 257.24C80.5479 257.24 79.8829 257.065 79.2929 256.715C78.7029 256.355 78.2429 255.87 77.9129 255.26C77.5829 254.64 77.4179 253.945 77.4179 253.175C77.4179 252.405 77.5829 251.71 77.9129 251.09C78.2429 250.47 78.7029 249.985 79.2929 249.635C79.8829 249.285 80.5479 249.11 81.2879 249.11C82.1179 249.11 82.8129 249.305 83.3729 249.695C83.9429 250.075 84.3479 250.585 84.5879 251.225L83.4329 251.705C83.2429 251.235 82.9579 250.88 82.5779 250.64C82.2079 250.39 81.7579 250.265 81.2279 250.265C80.7779 250.265 80.3579 250.39 79.9679 250.64C79.5779 250.88 79.2629 251.22 79.0229 251.66C78.7929 252.1 78.6779 252.605 78.6779 253.175C78.6779 253.745 78.7929 254.25 79.0229 254.69C79.2629 255.13 79.5779 255.475 79.9679 255.725C80.3579 255.965 80.7779 256.085 81.2279 256.085C81.7679 256.085 82.2329 255.96 82.6229 255.71C83.0129 255.46 83.3029 255.105 83.4929 254.645L84.6329 255.125C84.3729 255.755 83.9529 256.265 83.3729 256.655C82.8029 257.045 82.1079 257.24 81.2879 257.24ZM88.8782 257.12C88.5682 257.12 88.2782 257.07 88.0082 256.97C87.7482 256.87 87.5282 256.735 87.3482 256.565C86.9482 256.185 86.7482 255.66 86.7482 254.99V250.505H85.4132V249.35H86.7482V247.19H88.0232V249.35H89.8982V250.505H88.0232V254.675C88.0232 255.095 88.1032 255.405 88.2632 255.605C88.4532 255.825 88.7282 255.935 89.0882 255.935C89.3982 255.935 89.6782 255.85 89.9282 255.68V256.925C89.7782 256.995 89.6232 257.045 89.4632 257.075C89.3132 257.105 89.1182 257.12 88.8782 257.12ZM92.2546 247.94C92.0046 247.94 91.7896 247.85 91.6096 247.67C91.4296 247.49 91.3396 247.275 91.3396 247.025C91.3396 246.765 91.4296 246.55 91.6096 246.38C91.7896 246.2 92.0046 246.11 92.2546 246.11C92.5146 246.11 92.7296 246.2 92.8996 246.38C93.0796 246.55 93.1696 246.765 93.1696 247.025C93.1696 247.275 93.0796 247.49 92.8996 247.67C92.7296 247.85 92.5146 247.94 92.2546 247.94ZM91.6246 249.35H92.8996V257H91.6246V249.35ZM94.0484 249.35H95.4134L97.7834 255.5H97.8134L100.213 249.35H101.548L98.4284 257H97.1384L94.0484 249.35ZM105.779 257.24C105.049 257.24 104.394 257.065 103.814 256.715C103.234 256.365 102.779 255.885 102.449 255.275C102.129 254.655 101.969 253.96 101.969 253.19C101.969 252.46 102.119 251.785 102.419 251.165C102.729 250.535 103.164 250.035 103.724 249.665C104.294 249.295 104.944 249.11 105.674 249.11C106.424 249.11 107.074 249.28 107.624 249.62C108.174 249.95 108.594 250.41 108.884 251C109.184 251.59 109.334 252.265 109.334 253.025C109.334 253.145 109.324 253.275 109.304 253.415H103.244C103.274 253.995 103.414 254.485 103.664 254.885C103.914 255.285 104.229 255.585 104.609 255.785C104.999 255.985 105.404 256.085 105.824 256.085C106.824 256.085 107.579 255.625 108.089 254.705L109.169 255.23C108.849 255.84 108.404 256.33 107.834 256.7C107.264 257.06 106.579 257.24 105.779 257.24ZM107.984 252.365C107.964 252.045 107.874 251.725 107.714 251.405C107.554 251.085 107.304 250.815 106.964 250.595C106.624 250.375 106.194 250.265 105.674 250.265C105.074 250.265 104.564 250.46 104.144 250.85C103.724 251.23 103.449 251.735 103.319 252.365H107.984ZM116.982 259.04C116.252 258.2 115.622 257.185 115.092 255.995C114.572 254.795 114.312 253.52 114.312 252.17C114.312 250.82 114.572 249.55 115.092 248.36C115.622 247.16 116.252 246.14 116.982 245.3L117.912 245.96C117.232 246.77 116.672 247.725 116.232 248.825C115.792 249.915 115.572 251.03 115.572 252.17C115.572 253.31 115.792 254.43 116.232 255.53C116.672 256.62 117.232 257.57 117.912 258.38L116.982 259.04ZM121.351 248.525L119.551 249.815L118.891 248.84L121.816 246.74H122.626V257H121.351V248.525ZM133.347 257.24C132.307 257.24 131.362 256.995 130.512 256.505C129.662 256.015 128.992 255.345 128.502 254.495C128.022 253.635 127.782 252.68 127.782 251.63C127.782 250.58 128.022 249.63 128.502 248.78C128.992 247.92 129.662 247.245 130.512 246.755C131.362 246.265 132.307 246.02 133.347 246.02C134.147 246.02 134.877 246.17 135.537 246.47C136.207 246.77 136.787 247.205 137.277 247.775L136.362 248.66C135.952 248.17 135.502 247.81 135.012 247.58C134.532 247.35 133.977 247.235 133.347 247.235C132.567 247.235 131.852 247.42 131.202 247.79C130.552 248.15 130.032 248.665 129.642 249.335C129.262 249.995 129.072 250.76 129.072 251.63C129.072 252.5 129.262 253.27 129.642 253.94C130.032 254.6 130.552 255.115 131.202 255.485C131.852 255.845 132.567 256.025 133.347 256.025C134.647 256.025 135.752 255.49 136.662 254.42L137.592 255.32C137.102 255.91 136.487 256.38 135.747 256.73C135.017 257.07 134.217 257.24 133.347 257.24ZM139.024 249.35H140.239V250.58H140.299C140.449 250.16 140.739 249.815 141.169 249.545C141.599 249.265 142.049 249.125 142.519 249.125C142.869 249.125 143.169 249.175 143.419 249.275V250.655C143.099 250.495 142.739 250.415 142.339 250.415C141.969 250.415 141.629 250.52 141.319 250.73C141.009 250.94 140.759 251.225 140.569 251.585C140.389 251.935 140.299 252.315 140.299 252.725V257H139.024V249.35ZM147.6 257.24C146.87 257.24 146.215 257.065 145.635 256.715C145.055 256.365 144.6 255.885 144.27 255.275C143.95 254.655 143.79 253.96 143.79 253.19C143.79 252.46 143.94 251.785 144.24 251.165C144.55 250.535 144.985 250.035 145.545 249.665C146.115 249.295 146.765 249.11 147.495 249.11C148.245 249.11 148.895 249.28 149.445 249.62C149.995 249.95 150.415 250.41 150.705 251C151.005 251.59 151.155 252.265 151.155 253.025C151.155 253.145 151.145 253.275 151.125 253.415H145.065C145.095 253.995 145.235 254.485 145.485 254.885C145.735 255.285 146.05 255.585 146.43 255.785C146.82 255.985 147.225 256.085 147.645 256.085C148.645 256.085 149.4 255.625 149.91 254.705L150.99 255.23C150.67 255.84 150.225 256.33 149.655 256.7C149.085 257.06 148.4 257.24 147.6 257.24ZM149.805 252.365C149.785 252.045 149.695 251.725 149.535 251.405C149.375 251.085 149.125 250.815 148.785 250.595C148.445 250.375 148.015 250.265 147.495 250.265C146.895 250.265 146.385 250.46 145.965 250.85C145.545 251.23 145.27 251.735 145.14 252.365H149.805ZM155.975 257.24C155.285 257.24 154.66 257.065 154.1 256.715C153.55 256.365 153.115 255.885 152.795 255.275C152.475 254.655 152.315 253.955 152.315 253.175C152.315 252.405 152.475 251.71 152.795 251.09C153.115 250.47 153.55 249.985 154.1 249.635C154.66 249.285 155.285 249.11 155.975 249.11C156.555 249.11 157.075 249.245 157.535 249.515C157.995 249.775 158.345 250.1 158.585 250.49H158.645L158.585 249.425V246.26H159.86V257H158.645V255.875H158.585C158.345 256.255 157.995 256.58 157.535 256.85C157.075 257.11 156.555 257.24 155.975 257.24ZM156.11 256.085C156.56 256.085 156.975 255.965 157.355 255.725C157.745 255.485 158.055 255.145 158.285 254.705C158.525 254.265 158.645 253.755 158.645 253.175C158.645 252.595 158.525 252.085 158.285 251.645C158.055 251.205 157.745 250.865 157.355 250.625C156.975 250.385 156.56 250.265 156.11 250.265C155.67 250.265 155.255 250.385 154.865 250.625C154.475 250.865 154.16 251.21 153.92 251.66C153.69 252.1 153.575 252.605 153.575 253.175C153.575 253.745 153.69 254.255 153.92 254.705C154.16 255.145 154.475 255.485 154.865 255.725C155.255 255.965 155.67 256.085 156.11 256.085ZM162.494 247.94C162.244 247.94 162.029 247.85 161.849 247.67C161.669 247.49 161.579 247.275 161.579 247.025C161.579 246.765 161.669 246.55 161.849 246.38C162.029 246.2 162.244 246.11 162.494 246.11C162.754 246.11 162.969 246.2 163.139 246.38C163.319 246.55 163.409 246.765 163.409 247.025C163.409 247.275 163.319 247.49 163.139 247.67C162.969 247.85 162.754 247.94 162.494 247.94ZM161.864 249.35H163.139V257H161.864V249.35ZM167.994 257.12C167.684 257.12 167.394 257.07 167.124 256.97C166.864 256.87 166.644 256.735 166.464 256.565C166.064 256.185 165.864 255.66 165.864 254.99V250.505H164.529V249.35H165.864V247.19H167.139V249.35H169.014V250.505H167.139V254.675C167.139 255.095 167.219 255.405 167.379 255.605C167.569 255.825 167.844 255.935 168.204 255.935C168.514 255.935 168.794 255.85 169.044 255.68V256.925C168.894 256.995 168.739 257.045 168.579 257.075C168.429 257.105 168.234 257.12 167.994 257.12ZM169.903 258.38C170.583 257.57 171.143 256.62 171.583 255.53C172.023 254.43 172.243 253.31 172.243 252.17C172.243 251.03 172.023 249.915 171.583 248.825C171.143 247.725 170.583 246.77 169.903 245.96L170.833 245.3C171.563 246.14 172.188 247.16 172.708 248.36C173.238 249.55 173.503 250.82 173.503 252.17C173.503 253.52 173.238 254.795 172.708 255.995C172.188 257.185 171.563 258.2 170.833 259.04L169.903 258.38Z" fill="#212121"/>
</g>
<g filter="url(#filter6_d_5_1613)">
<path d="M45 286C45 283.791 46.7909 282 49 282H275C277.209 282 279 283.791 279 286V313C279 315.209 277.209 317 275 317H49C46.7909 317 45 315.209 45 313V286Z" fill="white"/>
<path d="M45.25 286C45.25 283.929 46.9289 282.25 49 282.25H275C277.071 282.25 278.75 283.929 278.75 286V313C278.75 315.071 277.071 316.75 275 316.75H49C46.9289 316.75 45.25 315.071 45.25 313V286Z" stroke="#603AC8" stroke-width="0.5"/>
<path d="M58.2 293.26H64.41V294.475H59.475V298.03H63.93V299.23H59.475V302.785H64.41V304H58.2V293.26ZM68.432 304.24C67.872 304.24 67.372 304.13 66.932 303.91C66.492 303.69 66.152 303.39 65.912 303.01C65.672 302.62 65.552 302.18 65.552 301.69C65.552 300.88 65.857 300.25 66.467 299.8C67.077 299.34 67.847 299.11 68.777 299.11C69.237 299.11 69.662 299.16 70.052 299.26C70.452 299.36 70.757 299.475 70.967 299.605V299.14C70.967 298.57 70.767 298.115 70.367 297.775C69.967 297.425 69.462 297.25 68.852 297.25C68.432 297.25 68.037 297.345 67.667 297.535C67.307 297.715 67.022 297.97 66.812 298.3L65.852 297.58C66.152 297.12 66.567 296.76 67.097 296.5C67.627 296.24 68.212 296.11 68.852 296.11C69.892 296.11 70.707 296.385 71.297 296.935C71.887 297.475 72.182 298.215 72.182 299.155V304H70.967V302.905H70.907C70.687 303.275 70.357 303.59 69.917 303.85C69.477 304.11 68.982 304.24 68.432 304.24ZM68.552 303.115C68.982 303.115 69.382 303.005 69.752 302.785C70.122 302.565 70.417 302.27 70.637 301.9C70.857 301.53 70.967 301.125 70.967 300.685C70.727 300.525 70.432 300.395 70.082 300.295C69.732 300.195 69.362 300.145 68.972 300.145C68.272 300.145 67.742 300.29 67.382 300.58C67.032 300.87 66.857 301.245 66.857 301.705C66.857 302.125 67.017 302.465 67.337 302.725C67.657 302.985 68.062 303.115 68.552 303.115ZM82.5807 304.12C82.2707 304.12 81.9807 304.07 81.7107 303.97C81.4507 303.87 81.2307 303.735 81.0507 303.565C80.6507 303.185 80.4507 302.66 80.4507 301.99V297.505H79.1157V296.35H80.4507V294.19H81.7257V296.35H83.6007V297.505H81.7257V301.675C81.7257 302.095 81.8057 302.405 81.9657 302.605C82.1557 302.825 82.4307 302.935 82.7907 302.935C83.1007 302.935 83.3807 302.85 83.6307 302.68V303.925C83.4807 303.995 83.3257 304.045 83.1657 304.075C83.0157 304.105 82.8207 304.12 82.5807 304.12ZM73.9557 296.35H75.1707V297.565H75.2307C75.4107 297.115 75.7157 296.765 76.1457 296.515C76.5757 296.265 77.0507 296.14 77.5707 296.14C77.7807 296.14 77.9607 296.155 78.1107 296.185V297.49C77.9407 297.45 77.7107 297.43 77.4207 297.43C76.7707 297.43 76.2407 297.645 75.8307 298.075C75.4307 298.505 75.2307 299.065 75.2307 299.755V304H73.9557V296.35ZM85.2057 293.26H86.4807V296.425L86.4207 297.475H86.4807C86.6907 297.085 87.0207 296.76 87.4707 296.5C87.9307 296.24 88.4307 296.11 88.9707 296.11C89.9007 296.11 90.6107 296.385 91.1007 296.935C91.5907 297.475 91.8357 298.195 91.8357 299.095V304H90.5607V299.29C90.5607 298.6 90.3857 298.09 90.0357 297.76C89.6857 297.43 89.2307 297.265 88.6707 297.265C88.2707 297.265 87.9007 297.385 87.5607 297.625C87.2307 297.865 86.9657 298.175 86.7657 298.555C86.5757 298.935 86.4807 299.33 86.4807 299.74V304H85.2057V293.26ZM99.8289 304.24C99.0089 304.24 98.3239 304.05 97.7739 303.67C97.2239 303.28 96.8339 302.785 96.6039 302.185L97.7439 301.675C97.9339 302.135 98.2139 302.49 98.5839 302.74C98.9639 302.99 99.3789 303.115 99.8289 303.115C100.309 303.115 100.719 303.02 101.059 302.83C101.399 302.63 101.569 302.35 101.569 301.99C101.569 301.67 101.434 301.415 101.164 301.225C100.894 301.025 100.469 300.855 99.8889 300.715L98.9589 300.475C98.3489 300.325 97.8489 300.07 97.4589 299.71C97.0689 299.35 96.8739 298.885 96.8739 298.315C96.8739 297.875 97.0039 297.49 97.2639 297.16C97.5339 296.82 97.8889 296.56 98.3289 296.38C98.7689 296.2 99.2439 296.11 99.7539 296.11C100.424 296.11 101.019 296.255 101.539 296.545C102.069 296.835 102.444 297.24 102.664 297.76L101.554 298.27C101.214 297.59 100.609 297.25 99.7389 297.25C99.3189 297.25 98.9489 297.35 98.6289 297.55C98.3189 297.74 98.1639 297.985 98.1639 298.285C98.1639 298.565 98.2739 298.795 98.4939 298.975C98.7139 299.145 99.0439 299.285 99.4839 299.395L100.594 299.68C101.344 299.87 101.909 300.155 102.289 300.535C102.669 300.905 102.859 301.36 102.859 301.9C102.859 302.37 102.724 302.785 102.454 303.145C102.184 303.495 101.819 303.765 101.359 303.955C100.899 304.145 100.389 304.24 99.8289 304.24ZM104.115 296.35H105.33V297.49H105.39C105.62 297.1 105.965 296.775 106.425 296.515C106.895 296.245 107.42 296.11 108 296.11C108.69 296.11 109.31 296.285 109.86 296.635C110.42 296.985 110.86 297.47 111.18 298.09C111.5 298.71 111.66 299.405 111.66 300.175C111.66 300.955 111.5 301.655 111.18 302.275C110.86 302.885 110.42 303.365 109.86 303.715C109.31 304.065 108.69 304.24 108 304.24C107.42 304.24 106.895 304.11 106.425 303.85C105.965 303.58 105.62 303.255 105.39 302.875H105.33L105.39 303.925V307.24H104.115V296.35ZM107.865 303.085C108.305 303.085 108.72 302.965 109.11 302.725C109.5 302.485 109.81 302.145 110.04 301.705C110.27 301.265 110.385 300.755 110.385 300.175C110.385 299.595 110.27 299.085 110.04 298.645C109.81 298.205 109.5 297.865 109.11 297.625C108.72 297.385 108.305 297.265 107.865 297.265C107.415 297.265 106.995 297.385 106.605 297.625C106.225 297.865 105.915 298.205 105.675 298.645C105.445 299.085 105.33 299.595 105.33 300.175C105.33 300.755 105.445 301.265 105.675 301.705C105.915 302.145 106.225 302.485 106.605 302.725C106.995 302.965 107.415 303.085 107.865 303.085ZM115.585 304.24C115.025 304.24 114.525 304.13 114.085 303.91C113.645 303.69 113.305 303.39 113.065 303.01C112.825 302.62 112.705 302.18 112.705 301.69C112.705 300.88 113.01 300.25 113.62 299.8C114.23 299.34 115 299.11 115.93 299.11C116.39 299.11 116.815 299.16 117.205 299.26C117.605 299.36 117.91 299.475 118.12 299.605V299.14C118.12 298.57 117.92 298.115 117.52 297.775C117.12 297.425 116.615 297.25 116.005 297.25C115.585 297.25 115.19 297.345 114.82 297.535C114.46 297.715 114.175 297.97 113.965 298.3L113.005 297.58C113.305 297.12 113.72 296.76 114.25 296.5C114.78 296.24 115.365 296.11 116.005 296.11C117.045 296.11 117.86 296.385 118.45 296.935C119.04 297.475 119.335 298.215 119.335 299.155V304H118.12V302.905H118.06C117.84 303.275 117.51 303.59 117.07 303.85C116.63 304.11 116.135 304.24 115.585 304.24ZM115.705 303.115C116.135 303.115 116.535 303.005 116.905 302.785C117.275 302.565 117.57 302.27 117.79 301.9C118.01 301.53 118.12 301.125 118.12 300.685C117.88 300.525 117.585 300.395 117.235 300.295C116.885 300.195 116.515 300.145 116.125 300.145C115.425 300.145 114.895 300.29 114.535 300.58C114.185 300.87 114.01 301.245 114.01 301.705C114.01 302.125 114.17 302.465 114.49 302.725C114.81 302.985 115.215 303.115 115.705 303.115ZM124.501 304.24C123.761 304.24 123.096 304.065 122.506 303.715C121.916 303.355 121.456 302.87 121.126 302.26C120.796 301.64 120.631 300.945 120.631 300.175C120.631 299.405 120.796 298.71 121.126 298.09C121.456 297.47 121.916 296.985 122.506 296.635C123.096 296.285 123.761 296.11 124.501 296.11C125.331 296.11 126.026 296.305 126.586 296.695C127.156 297.075 127.561 297.585 127.801 298.225L126.646 298.705C126.456 298.235 126.171 297.88 125.791 297.64C125.421 297.39 124.971 297.265 124.441 297.265C123.991 297.265 123.571 297.39 123.181 297.64C122.791 297.88 122.476 298.22 122.236 298.66C122.006 299.1 121.891 299.605 121.891 300.175C121.891 300.745 122.006 301.25 122.236 301.69C122.476 302.13 122.791 302.475 123.181 302.725C123.571 302.965 123.991 303.085 124.441 303.085C124.981 303.085 125.446 302.96 125.836 302.71C126.226 302.46 126.516 302.105 126.706 301.645L127.846 302.125C127.586 302.755 127.166 303.265 126.586 303.655C126.016 304.045 125.321 304.24 124.501 304.24ZM132.556 304.24C131.826 304.24 131.171 304.065 130.591 303.715C130.011 303.365 129.556 302.885 129.226 302.275C128.906 301.655 128.746 300.96 128.746 300.19C128.746 299.46 128.896 298.785 129.196 298.165C129.506 297.535 129.941 297.035 130.501 296.665C131.071 296.295 131.721 296.11 132.451 296.11C133.201 296.11 133.851 296.28 134.401 296.62C134.951 296.95 135.371 297.41 135.661 298C135.961 298.59 136.111 299.265 136.111 300.025C136.111 300.145 136.101 300.275 136.081 300.415H130.021C130.051 300.995 130.191 301.485 130.441 301.885C130.691 302.285 131.006 302.585 131.386 302.785C131.776 302.985 132.181 303.085 132.601 303.085C133.601 303.085 134.356 302.625 134.866 301.705L135.946 302.23C135.626 302.84 135.181 303.33 134.611 303.7C134.041 304.06 133.356 304.24 132.556 304.24ZM134.761 299.365C134.741 299.045 134.651 298.725 134.491 298.405C134.331 298.085 134.081 297.815 133.741 297.595C133.401 297.375 132.971 297.265 132.451 297.265C131.851 297.265 131.341 297.46 130.921 297.85C130.501 298.23 130.226 298.735 130.096 299.365H134.761ZM143.76 304.24C142.94 304.24 142.255 304.05 141.705 303.67C141.155 303.28 140.765 302.785 140.535 302.185L141.675 301.675C141.865 302.135 142.145 302.49 142.515 302.74C142.895 302.99 143.31 303.115 143.76 303.115C144.24 303.115 144.65 303.02 144.99 302.83C145.33 302.63 145.5 302.35 145.5 301.99C145.5 301.67 145.365 301.415 145.095 301.225C144.825 301.025 144.4 300.855 143.82 300.715L142.89 300.475C142.28 300.325 141.78 300.07 141.39 299.71C141 299.35 140.805 298.885 140.805 298.315C140.805 297.875 140.935 297.49 141.195 297.16C141.465 296.82 141.82 296.56 142.26 296.38C142.7 296.2 143.175 296.11 143.685 296.11C144.355 296.11 144.95 296.255 145.47 296.545C146 296.835 146.375 297.24 146.595 297.76L145.485 298.27C145.145 297.59 144.54 297.25 143.67 297.25C143.25 297.25 142.88 297.35 142.56 297.55C142.25 297.74 142.095 297.985 142.095 298.285C142.095 298.565 142.205 298.795 142.425 298.975C142.645 299.145 142.975 299.285 143.415 299.395L144.525 299.68C145.275 299.87 145.84 300.155 146.22 300.535C146.6 300.905 146.79 301.36 146.79 301.9C146.79 302.37 146.655 302.785 146.385 303.145C146.115 303.495 145.75 303.765 145.29 303.955C144.83 304.145 144.32 304.24 143.76 304.24ZM151.718 304.24C150.978 304.24 150.313 304.065 149.723 303.715C149.133 303.355 148.673 302.87 148.343 302.26C148.013 301.64 147.848 300.945 147.848 300.175C147.848 299.405 148.013 298.71 148.343 298.09C148.673 297.47 149.133 296.985 149.723 296.635C150.313 296.285 150.978 296.11 151.718 296.11C152.548 296.11 153.243 296.305 153.803 296.695C154.373 297.075 154.778 297.585 155.018 298.225L153.863 298.705C153.673 298.235 153.388 297.88 153.008 297.64C152.638 297.39 152.188 297.265 151.658 297.265C151.208 297.265 150.788 297.39 150.398 297.64C150.008 297.88 149.693 298.22 149.453 298.66C149.223 299.1 149.108 299.605 149.108 300.175C149.108 300.745 149.223 301.25 149.453 301.69C149.693 302.13 150.008 302.475 150.398 302.725C150.788 302.965 151.208 303.085 151.658 303.085C152.198 303.085 152.663 302.96 153.053 302.71C153.443 302.46 153.733 302.105 153.923 301.645L155.063 302.125C154.803 302.755 154.383 303.265 153.803 303.655C153.233 304.045 152.538 304.24 151.718 304.24ZM157.191 294.94C156.941 294.94 156.726 294.85 156.546 294.67C156.366 294.49 156.276 294.275 156.276 294.025C156.276 293.765 156.366 293.55 156.546 293.38C156.726 293.2 156.941 293.11 157.191 293.11C157.451 293.11 157.666 293.2 157.836 293.38C158.016 293.55 158.106 293.765 158.106 294.025C158.106 294.275 158.016 294.49 157.836 294.67C157.666 294.85 157.451 294.94 157.191 294.94ZM156.561 296.35H157.836V304H156.561V296.35ZM163.157 304.24C162.427 304.24 161.772 304.065 161.192 303.715C160.612 303.365 160.157 302.885 159.827 302.275C159.507 301.655 159.347 300.96 159.347 300.19C159.347 299.46 159.497 298.785 159.797 298.165C160.107 297.535 160.542 297.035 161.102 296.665C161.672 296.295 162.322 296.11 163.052 296.11C163.802 296.11 164.452 296.28 165.002 296.62C165.552 296.95 165.972 297.41 166.262 298C166.562 298.59 166.712 299.265 166.712 300.025C166.712 300.145 166.702 300.275 166.682 300.415H160.622C160.652 300.995 160.792 301.485 161.042 301.885C161.292 302.285 161.607 302.585 161.987 302.785C162.377 302.985 162.782 303.085 163.202 303.085C164.202 303.085 164.957 302.625 165.467 301.705L166.547 302.23C166.227 302.84 165.782 303.33 165.212 303.7C164.642 304.06 163.957 304.24 163.157 304.24ZM165.362 299.365C165.342 299.045 165.252 298.725 165.092 298.405C164.932 298.085 164.682 297.815 164.342 297.595C164.002 297.375 163.572 297.265 163.052 297.265C162.452 297.265 161.942 297.46 161.522 297.85C161.102 298.23 160.827 298.735 160.697 299.365H165.362ZM168.204 296.35H169.419V297.475H169.479C169.689 297.095 170.024 296.775 170.484 296.515C170.944 296.245 171.434 296.11 171.954 296.11C172.874 296.11 173.574 296.38 174.054 296.92C174.544 297.45 174.789 298.175 174.789 299.095V304H173.514V299.29C173.514 298.58 173.344 298.065 173.004 297.745C172.664 297.425 172.199 297.265 171.609 297.265C171.199 297.265 170.829 297.38 170.499 297.61C170.179 297.84 169.929 298.145 169.749 298.525C169.569 298.895 169.479 299.285 169.479 299.695V304H168.204V296.35ZM180.077 304.24C179.337 304.24 178.672 304.065 178.082 303.715C177.492 303.355 177.032 302.87 176.702 302.26C176.372 301.64 176.207 300.945 176.207 300.175C176.207 299.405 176.372 298.71 176.702 298.09C177.032 297.47 177.492 296.985 178.082 296.635C178.672 296.285 179.337 296.11 180.077 296.11C180.907 296.11 181.602 296.305 182.162 296.695C182.732 297.075 183.137 297.585 183.377 298.225L182.222 298.705C182.032 298.235 181.747 297.88 181.367 297.64C180.997 297.39 180.547 297.265 180.017 297.265C179.567 297.265 179.147 297.39 178.757 297.64C178.367 297.88 178.052 298.22 177.812 298.66C177.582 299.1 177.467 299.605 177.467 300.175C177.467 300.745 177.582 301.25 177.812 301.69C178.052 302.13 178.367 302.475 178.757 302.725C179.147 302.965 179.567 303.085 180.017 303.085C180.557 303.085 181.022 302.96 181.412 302.71C181.802 302.46 182.092 302.105 182.282 301.645L183.422 302.125C183.162 302.755 182.742 303.265 182.162 303.655C181.592 304.045 180.897 304.24 180.077 304.24ZM188.132 304.24C187.402 304.24 186.747 304.065 186.167 303.715C185.587 303.365 185.132 302.885 184.802 302.275C184.482 301.655 184.322 300.96 184.322 300.19C184.322 299.46 184.472 298.785 184.772 298.165C185.082 297.535 185.517 297.035 186.077 296.665C186.647 296.295 187.297 296.11 188.027 296.11C188.777 296.11 189.427 296.28 189.977 296.62C190.527 296.95 190.947 297.41 191.237 298C191.537 298.59 191.687 299.265 191.687 300.025C191.687 300.145 191.677 300.275 191.657 300.415H185.597C185.627 300.995 185.767 301.485 186.017 301.885C186.267 302.285 186.582 302.585 186.962 302.785C187.352 302.985 187.757 303.085 188.177 303.085C189.177 303.085 189.932 302.625 190.442 301.705L191.522 302.23C191.202 302.84 190.757 303.33 190.187 303.7C189.617 304.06 188.932 304.24 188.132 304.24ZM190.337 299.365C190.317 299.045 190.227 298.725 190.067 298.405C189.907 298.085 189.657 297.815 189.317 297.595C188.977 297.375 188.547 297.265 188.027 297.265C187.427 297.265 186.917 297.46 186.497 297.85C186.077 298.23 185.802 298.735 185.672 299.365H190.337ZM200.191 304.24C199.441 304.24 198.766 304.06 198.166 303.7C197.566 303.34 197.096 302.85 196.756 302.23C196.426 301.61 196.261 300.925 196.261 300.175C196.261 299.425 196.426 298.74 196.756 298.12C197.096 297.5 197.566 297.01 198.166 296.65C198.766 296.29 199.441 296.11 200.191 296.11C200.941 296.11 201.616 296.29 202.216 296.65C202.816 297.01 203.281 297.5 203.611 298.12C203.951 298.74 204.121 299.425 204.121 300.175C204.121 300.925 203.951 301.61 203.611 302.23C203.281 302.85 202.816 303.34 202.216 303.7C201.616 304.06 200.941 304.24 200.191 304.24ZM200.191 303.085C200.661 303.085 201.096 302.97 201.496 302.74C201.906 302.5 202.231 302.16 202.471 301.72C202.721 301.28 202.846 300.765 202.846 300.175C202.846 299.585 202.721 299.07 202.471 298.63C202.231 298.19 201.906 297.855 201.496 297.625C201.096 297.385 200.661 297.265 200.191 297.265C199.721 297.265 199.281 297.385 198.871 297.625C198.461 297.855 198.131 298.19 197.881 298.63C197.641 299.07 197.521 299.585 197.521 300.175C197.521 300.765 197.641 301.28 197.881 301.72C198.131 302.16 198.461 302.5 198.871 302.74C199.281 302.97 199.721 303.085 200.191 303.085ZM205.455 296.35H206.67V297.58H206.73C206.88 297.16 207.17 296.815 207.6 296.545C208.03 296.265 208.48 296.125 208.95 296.125C209.3 296.125 209.6 296.175 209.85 296.275V297.655C209.53 297.495 209.17 297.415 208.77 297.415C208.4 297.415 208.06 297.52 207.75 297.73C207.44 297.94 207.19 298.225 207 298.585C206.82 298.935 206.73 299.315 206.73 299.725V304H205.455V296.35ZM214.821 293.26H221.031V294.475H216.096V298.03H220.551V299.23H216.096V302.785H221.031V304H214.821V293.26ZM222.828 293.26H224.103V304H222.828V293.26ZM229.324 304.24C228.594 304.24 227.939 304.065 227.359 303.715C226.779 303.365 226.324 302.885 225.994 302.275C225.674 301.655 225.514 300.96 225.514 300.19C225.514 299.46 225.664 298.785 225.964 298.165C226.274 297.535 226.709 297.035 227.269 296.665C227.839 296.295 228.489 296.11 229.219 296.11C229.969 296.11 230.619 296.28 231.169 296.62C231.719 296.95 232.139 297.41 232.429 298C232.729 298.59 232.879 299.265 232.879 300.025C232.879 300.145 232.869 300.275 232.849 300.415H226.789C226.819 300.995 226.959 301.485 227.209 301.885C227.459 302.285 227.774 302.585 228.154 302.785C228.544 302.985 228.949 303.085 229.369 303.085C230.369 303.085 231.124 302.625 231.634 301.705L232.714 302.23C232.394 302.84 231.949 303.33 231.379 303.7C230.809 304.06 230.124 304.24 229.324 304.24ZM231.529 299.365C231.509 299.045 231.419 298.725 231.259 298.405C231.099 298.085 230.849 297.815 230.509 297.595C230.169 297.375 229.739 297.265 229.219 297.265C228.619 297.265 228.109 297.46 227.689 297.85C227.269 298.23 226.994 298.735 226.864 299.365H231.529ZM237.909 304.24C237.169 304.24 236.504 304.065 235.914 303.715C235.324 303.355 234.864 302.87 234.534 302.26C234.204 301.64 234.039 300.945 234.039 300.175C234.039 299.405 234.204 298.71 234.534 298.09C234.864 297.47 235.324 296.985 235.914 296.635C236.504 296.285 237.169 296.11 237.909 296.11C238.739 296.11 239.434 296.305 239.994 296.695C240.564 297.075 240.969 297.585 241.209 298.225L240.054 298.705C239.864 298.235 239.579 297.88 239.199 297.64C238.829 297.39 238.379 297.265 237.849 297.265C237.399 297.265 236.979 297.39 236.589 297.64C236.199 297.88 235.884 298.22 235.644 298.66C235.414 299.1 235.299 299.605 235.299 300.175C235.299 300.745 235.414 301.25 235.644 301.69C235.884 302.13 236.199 302.475 236.589 302.725C236.979 302.965 237.399 303.085 237.849 303.085C238.389 303.085 238.854 302.96 239.244 302.71C239.634 302.46 239.924 302.105 240.114 301.645L241.254 302.125C240.994 302.755 240.574 303.265 239.994 303.655C239.424 304.045 238.729 304.24 237.909 304.24ZM245.499 304.12C245.189 304.12 244.899 304.07 244.629 303.97C244.369 303.87 244.149 303.735 243.969 303.565C243.569 303.185 243.369 302.66 243.369 301.99V297.505H242.034V296.35H243.369V294.19H244.644V296.35H246.519V297.505H244.644V301.675C244.644 302.095 244.724 302.405 244.884 302.605C245.074 302.825 245.349 302.935 245.709 302.935C246.019 302.935 246.299 302.85 246.549 302.68V303.925C246.399 303.995 246.244 304.045 246.084 304.075C245.934 304.105 245.739 304.12 245.499 304.12ZM248.876 294.94C248.626 294.94 248.411 294.85 248.231 294.67C248.051 294.49 247.961 294.275 247.961 294.025C247.961 293.765 248.051 293.55 248.231 293.38C248.411 293.2 248.626 293.11 248.876 293.11C249.136 293.11 249.351 293.2 249.521 293.38C249.701 293.55 249.791 293.765 249.791 294.025C249.791 294.275 249.701 294.49 249.521 294.67C249.351 294.85 249.136 294.94 248.876 294.94ZM248.246 296.35H249.521V304H248.246V296.35ZM250.669 296.35H252.034L254.404 302.5H254.434L256.834 296.35H258.169L255.049 304H253.759L250.669 296.35ZM262.4 304.24C261.67 304.24 261.015 304.065 260.435 303.715C259.855 303.365 259.4 302.885 259.07 302.275C258.75 301.655 258.59 300.96 258.59 300.19C258.59 299.46 258.74 298.785 259.04 298.165C259.35 297.535 259.785 297.035 260.345 296.665C260.915 296.295 261.565 296.11 262.295 296.11C263.045 296.11 263.695 296.28 264.245 296.62C264.795 296.95 265.215 297.41 265.505 298C265.805 298.59 265.955 299.265 265.955 300.025C265.955 300.145 265.945 300.275 265.925 300.415H259.865C259.895 300.995 260.035 301.485 260.285 301.885C260.535 302.285 260.85 302.585 261.23 302.785C261.62 302.985 262.025 303.085 262.445 303.085C263.445 303.085 264.2 302.625 264.71 301.705L265.79 302.23C265.47 302.84 265.025 303.33 264.455 303.7C263.885 304.06 263.2 304.24 262.4 304.24ZM264.605 299.365C264.585 299.045 264.495 298.725 264.335 298.405C264.175 298.085 263.925 297.815 263.585 297.595C263.245 297.375 262.815 297.265 262.295 297.265C261.695 297.265 261.185 297.46 260.765 297.85C260.345 298.23 260.07 298.735 259.94 299.365H264.605Z" fill="#212121"/>
</g>
</g>
<defs>
<filter id="filter0_d_5_1613" x="0" y="0" width="395" height="365" filterUnits="userSpaceOnUse" color-interpolation-filters="sRGB">
<feFlood flood-opacity="0" result="BackgroundImageFix"/>
<feColorMatrix in="SourceAlpha" type="matrix" values="0 0 0 0 0 0 0 0 0 0 0 0 0 0 0 0 0 0 127 0" result="hardAlpha"/>
<feOffset/>
<feGaussianBlur stdDeviation="12"/>
<feComposite in2="hardAlpha" operator="out"/>
<feColorMatrix type="matrix" values="0 0 0 0 0 0 0 0 0 0 0 0 0 0 0 0 0 0 0.12 0"/>
<feBlend mode="normal" in2="BackgroundImageFix" result="effect1_dropShadow_5_1613"/>
<feBlend mode="normal" in="SourceGraphic" in2="effect1_dropShadow_5_1613" result="shape"/>
</filter>
<filter id="filter1_d_5_1613" x="41" y="137" width="91" height="43" filterUnits="userSpaceOnUse" color-interpolation-filters="sRGB">
<feFlood flood-opacity="0" result="BackgroundImageFix"/>
<feColorMatrix in="SourceAlpha" type="matrix" values="0 0 0 0 0 0 0 0 0 0 0 0 0 0 0 0 0 0 127 0" result="hardAlpha"/>
<feOffset/>
<feGaussianBlur stdDeviation="2"/>
<feComposite in2="hardAlpha" operator="out"/>
<feColorMatrix type="matrix" values="0 0 0 0 0 0 0 0 0 0 0 0 0 0 0 0 0 0 0.12 0"/>
<feBlend mode="normal" in2="BackgroundImageFix" result="effect1_dropShadow_5_1613"/>
<feBlend mode="normal" in="SourceGraphic" in2="effect1_dropShadow_5_1613" result="shape"/>
</filter>
<filter id="filter2_d_5_1613" x="136" y="137" width="103" height="43" filterUnits="userSpaceOnUse" color-interpolation-filters="sRGB">
<feFlood flood-opacity="0" result="BackgroundImageFix"/>
<feColorMatrix in="SourceAlpha" type="matrix" values="0 0 0 0 0 0 0 0 0 0 0 0 0 0 0 0 0 0 127 0" result="hardAlpha"/>
<feOffset/>
<feGaussianBlur stdDeviation="2"/>
<feComposite in2="hardAlpha" operator="out"/>
<feColorMatrix type="matrix" values="0 0 0 0 0 0 0 0 0 0 0 0 0 0 0 0 0 0 0.12 0"/>
<feBlend mode="normal" in2="BackgroundImageFix" result="effect1_dropShadow_5_1613"/>
<feBlend mode="normal" in="SourceGraphic" in2="effect1_dropShadow_5_1613" result="shape"/>
</filter>
<filter id="filter3_d_5_1613" x="243" y="137" width="82" height="43" filterUnits="userSpaceOnUse" color-interpolation-filters="sRGB">
<feFlood flood-opacity="0" result="BackgroundImageFix"/>
<feColorMatrix in="SourceAlpha" type="matrix" values="0 0 0 0 0 0 0 0 0 0 0 0 0 0 0 0 0 0 127 0" result="hardAlpha"/>
<feOffset/>
<feGaussianBlur stdDeviation="2"/>
<feComposite in2="hardAlpha" operator="out"/>
<feColorMatrix type="matrix" values="0 0 0 0 0 0 0 0 0 0 0 0 0 0 0 0 0 0 0.12 0"/>
<feBlend mode="normal" in2="BackgroundImageFix" result="effect1_dropShadow_5_1613"/>
<feBlend mode="normal" in="SourceGraphic" in2="effect1_dropShadow_5_1613" result="shape"/>
</filter>
<filter id="filter4_d_5_1613" x="41" y="184" width="195" height="43" filterUnits="userSpaceOnUse" color-interpolation-filters="sRGB">
<feFlood flood-opacity="0" result="BackgroundImageFix"/>
<feColorMatrix in="SourceAlpha" type="matrix" values="0 0 0 0 0 0 0 0 0 0 0 0 0 0 0 0 0 0 127 0" result="hardAlpha"/>
<feOffset/>
<feGaussianBlur stdDeviation="2"/>
<feComposite in2="hardAlpha" operator="out"/>
<feColorMatrix type="matrix" values="0 0 0 0 0 0 0 0 0 0 0 0 0 0 0 0 0 0 0.12 0"/>
<feBlend mode="normal" in2="BackgroundImageFix" result="effect1_dropShadow_5_1613"/>
<feBlend mode="normal" in="SourceGraphic" in2="effect1_dropShadow_5_1613" result="shape"/>
</filter>
<filter id="filter5_d_5_1613" x="41" y="231" width="150" height="43" filterUnits="userSpaceOnUse" color-interpolation-filters="sRGB">
<feFlood flood-opacity="0" result="BackgroundImageFix"/>
<feColorMatrix in="SourceAlpha" type="matrix" values="0 0 0 0 0 0 0 0 0 0 0 0 0 0 0 0 0 0 127 0" result="hardAlpha"/>
<feOffset/>
<feGaussianBlur stdDeviation="2"/>
<feComposite in2="hardAlpha" operator="out"/>
<feColorMatrix type="matrix" values="0 0 0 0 0 0 0 0 0 0 0 0 0 0 0 0 0 0 0.12 0"/>
<feBlend mode="normal" in2="BackgroundImageFix" result="effect1_dropShadow_5_1613"/>
<feBlend mode="normal" in="SourceGraphic" in2="effect1_dropShadow_5_1613" result="shape"/>
</filter>
<filter id="filter6_d_5_1613" x="41" y="278" width="242" height="43" filterUnits="userSpaceOnUse" color-interpolation-filters="sRGB">
<feFlood flood-opacity="0" result="BackgroundImageFix"/>
<feColorMatrix in="SourceAlpha" type="matrix" values="0 0 0 0 0 0 0 0 0 0 0 0 0 0 0 0 0 0 127 0" result="hardAlpha"/>
<feOffset/>
<feGaussianBlur stdDeviation="2"/>
<feComposite in2="hardAlpha" operator="out"/>
<feColorMatrix type="matrix" values="0 0 0 0 0 0 0 0 0 0 0 0 0 0 0 0 0 0 0.12 0"/>
<feBlend mode="normal" in2="BackgroundImageFix" result="effect1_dropShadow_5_1613"/>
<feBlend mode="normal" in="SourceGraphic" in2="effect1_dropShadow_5_1613" result="shape"/>
</filter>
</defs>
</svg>
