<svg width="277" height="197" viewBox="0 0 277 197" fill="none" xmlns="http://www.w3.org/2000/svg">
<g filter="url(#filter0_d_5_798)">
<g clip-path="url(#clip0_5_798)">
<rect x="18" y="18" width="241" height="161" rx="8" fill="white"/>
<path d="M52.312 121.544H56.792C57.432 121.544 58.0187 121.677 58.552 121.944C59.096 122.211 59.5227 122.573 59.832 123.032C60.1413 123.491 60.296 123.992 60.296 124.536C60.296 125.112 60.152 125.613 59.864 126.04C59.5867 126.456 59.2187 126.776 58.76 127V127.128C59.3573 127.341 59.832 127.683 60.184 128.152C60.536 128.611 60.712 129.165 60.712 129.816C60.712 130.445 60.5413 131.005 60.2 131.496C59.8693 131.976 59.416 132.349 58.84 132.616C58.2747 132.872 57.6453 133 56.952 133H52.312V121.544ZM56.632 126.216C57.1013 126.216 57.4747 126.088 57.752 125.832C58.04 125.565 58.184 125.235 58.184 124.84C58.184 124.456 58.0453 124.136 57.768 123.88C57.5013 123.613 57.144 123.48 56.696 123.48H54.472V126.216H56.632ZM56.872 131.032C57.3947 131.032 57.8 130.899 58.088 130.632C58.3867 130.355 58.536 129.997 58.536 129.56C58.536 129.123 58.3867 128.765 58.088 128.488C57.7893 128.211 57.3627 128.072 56.808 128.072H54.472V131.032H56.872ZM66.2874 133.256C65.4447 133.256 64.6927 133.069 64.0314 132.696C63.37 132.312 62.8527 131.795 62.4794 131.144C62.1167 130.483 61.9354 129.741 61.9354 128.92C61.9354 128.109 62.1167 127.373 62.4794 126.712C62.8527 126.051 63.37 125.533 64.0314 125.16C64.6927 124.776 65.4447 124.584 66.2874 124.584C67.1194 124.584 67.866 124.776 68.5274 125.16C69.1887 125.533 69.7007 126.051 70.0634 126.712C70.4367 127.373 70.6234 128.109 70.6234 128.92C70.6234 129.741 70.4367 130.483 70.0634 131.144C69.7007 131.795 69.1887 132.312 68.5274 132.696C67.866 133.069 67.1194 133.256 66.2874 133.256ZM66.2874 131.32C66.6927 131.32 67.066 131.224 67.4074 131.032C67.7487 130.84 68.0207 130.563 68.2234 130.2C68.426 129.837 68.5274 129.411 68.5274 128.92C68.5274 128.44 68.426 128.019 68.2234 127.656C68.0207 127.293 67.7487 127.016 67.4074 126.824C67.066 126.632 66.6927 126.536 66.2874 126.536C65.882 126.536 65.5087 126.632 65.1674 126.824C64.826 127.016 64.5487 127.293 64.3354 127.656C64.1327 128.019 64.0314 128.44 64.0314 128.92C64.0314 129.4 64.1327 129.827 64.3354 130.2C64.5487 130.563 64.826 130.84 65.1674 131.032C65.5087 131.224 65.882 131.32 66.2874 131.32ZM76.1311 133.256C75.2885 133.256 74.5365 133.069 73.8751 132.696C73.2138 132.312 72.6965 131.795 72.3231 131.144C71.9605 130.483 71.7791 129.741 71.7791 128.92C71.7791 128.109 71.9605 127.373 72.3231 126.712C72.6965 126.051 73.2138 125.533 73.8751 125.16C74.5365 124.776 75.2885 124.584 76.1311 124.584C76.9631 124.584 77.7098 124.776 78.3711 125.16C79.0325 125.533 79.5445 126.051 79.9071 126.712C80.2805 127.373 80.4671 128.109 80.4671 128.92C80.4671 129.741 80.2805 130.483 79.9071 131.144C79.5445 131.795 79.0325 132.312 78.3711 132.696C77.7098 133.069 76.9631 133.256 76.1311 133.256ZM76.1311 131.32C76.5365 131.32 76.9098 131.224 77.2511 131.032C77.5925 130.84 77.8645 130.563 78.0671 130.2C78.2698 129.837 78.3711 129.411 78.3711 128.92C78.3711 128.44 78.2698 128.019 78.0671 127.656C77.8645 127.293 77.5925 127.016 77.2511 126.824C76.9098 126.632 76.5365 126.536 76.1311 126.536C75.7258 126.536 75.3525 126.632 75.0111 126.824C74.6698 127.016 74.3925 127.293 74.1791 127.656C73.9765 128.019 73.8751 128.44 73.8751 128.92C73.8751 129.4 73.9765 129.827 74.1791 130.2C74.3925 130.563 74.6698 130.84 75.0111 131.032C75.3525 131.224 75.7258 131.32 76.1311 131.32ZM85.0968 133.256C84.1048 133.256 83.2994 133.053 82.6808 132.648C82.0728 132.243 81.6461 131.715 81.4008 131.064L83.2728 130.248C83.4434 130.632 83.6834 130.925 83.9928 131.128C84.3128 131.32 84.6808 131.416 85.0968 131.416C85.4808 131.416 85.8008 131.357 86.0568 131.24C86.3128 131.112 86.4408 130.909 86.4408 130.632C86.4408 130.365 86.3234 130.168 86.0888 130.04C85.8541 129.901 85.5021 129.779 85.0328 129.672L84.0728 129.464C83.4114 129.304 82.8621 129.016 82.4248 128.6C81.9874 128.173 81.7688 127.645 81.7688 127.016C81.7688 126.547 81.9074 126.125 82.1848 125.752C82.4728 125.379 82.8568 125.091 83.3368 124.888C83.8274 124.685 84.3661 124.584 84.9528 124.584C86.6381 124.584 87.7634 125.176 88.3288 126.36L86.5368 127.144C86.2168 126.568 85.7048 126.28 85.0008 126.28C84.6381 126.28 84.3501 126.349 84.1368 126.488C83.9234 126.616 83.8168 126.781 83.8168 126.984C83.8168 127.368 84.1794 127.656 84.9048 127.848L86.1048 128.136C86.9154 128.339 87.5234 128.648 87.9288 129.064C88.3448 129.48 88.5528 129.992 88.5528 130.6C88.5528 131.123 88.3981 131.587 88.0888 131.992C87.7901 132.387 87.3741 132.696 86.8408 132.92C86.3181 133.144 85.7368 133.256 85.0968 133.256ZM93.5448 133.128C93.1394 133.128 92.7661 133.069 92.4248 132.952C92.0834 132.824 91.8061 132.653 91.5928 132.44C91.0914 131.96 90.8408 131.277 90.8408 130.392V126.632H89.4168V124.84H90.8408V122.536H92.9368V124.84H94.9368V126.632H92.9368V130.008C92.9368 130.424 93.0274 130.723 93.2088 130.904C93.3581 131.075 93.6141 131.16 93.9768 131.16C94.1794 131.16 94.3448 131.133 94.4728 131.08C94.6114 131.027 94.7874 130.936 95.0008 130.808V132.856C94.5421 133.037 94.0568 133.128 93.5448 133.128ZM104.27 133.256C103.449 133.256 102.713 133.075 102.062 132.712C101.412 132.339 100.9 131.821 100.526 131.16C100.164 130.499 99.9823 129.752 99.9823 128.92C99.9823 128.088 100.164 127.347 100.526 126.696C100.9 126.035 101.412 125.517 102.062 125.144C102.713 124.771 103.449 124.584 104.27 124.584C105.177 124.584 105.956 124.781 106.606 125.176C107.257 125.56 107.726 126.109 108.014 126.824L106.094 127.624C105.753 126.899 105.145 126.536 104.27 126.536C103.63 126.536 103.102 126.755 102.686 127.192C102.281 127.629 102.078 128.205 102.078 128.92C102.078 129.645 102.281 130.227 102.686 130.664C103.102 131.101 103.63 131.32 104.27 131.32C105.156 131.32 105.796 130.936 106.19 130.168L108.094 131C107.742 131.715 107.241 132.269 106.59 132.664C105.94 133.059 105.166 133.256 104.27 133.256ZM113.428 133.256C112.585 133.256 111.833 133.069 111.172 132.696C110.511 132.312 109.993 131.795 109.62 131.144C109.257 130.483 109.076 129.741 109.076 128.92C109.076 128.109 109.257 127.373 109.62 126.712C109.993 126.051 110.511 125.533 111.172 125.16C111.833 124.776 112.585 124.584 113.428 124.584C114.26 124.584 115.007 124.776 115.668 125.16C116.329 125.533 116.841 126.051 117.204 126.712C117.577 127.373 117.764 128.109 117.764 128.92C117.764 129.741 117.577 130.483 117.204 131.144C116.841 131.795 116.329 132.312 115.668 132.696C115.007 133.069 114.26 133.256 113.428 133.256ZM113.428 131.32C113.833 131.32 114.207 131.224 114.548 131.032C114.889 130.84 115.161 130.563 115.364 130.2C115.567 129.837 115.668 129.411 115.668 128.92C115.668 128.44 115.567 128.019 115.364 127.656C115.161 127.293 114.889 127.016 114.548 126.824C114.207 126.632 113.833 126.536 113.428 126.536C113.023 126.536 112.649 126.632 112.308 126.824C111.967 127.016 111.689 127.293 111.476 127.656C111.273 128.019 111.172 128.44 111.172 128.92C111.172 129.4 111.273 129.827 111.476 130.2C111.689 130.563 111.967 130.84 112.308 131.032C112.649 131.224 113.023 131.32 113.428 131.32ZM119.29 121.544H121.386V133H119.29V121.544ZM123.446 121.544H125.542V133H123.446V121.544ZM131.348 133.256C130.537 133.256 129.807 133.069 129.156 132.696C128.505 132.323 127.993 131.811 127.62 131.16C127.257 130.499 127.076 129.757 127.076 128.936C127.076 128.157 127.257 127.437 127.62 126.776C127.983 126.104 128.484 125.571 129.124 125.176C129.764 124.781 130.479 124.584 131.268 124.584C132.111 124.584 132.836 124.765 133.444 125.128C134.052 125.491 134.511 125.987 134.82 126.616C135.14 127.245 135.3 127.944 135.3 128.712C135.3 128.957 135.284 129.192 135.252 129.416H129.124C129.231 130.067 129.487 130.563 129.892 130.904C130.308 131.235 130.804 131.4 131.38 131.4C131.86 131.4 132.271 131.299 132.612 131.096C132.964 130.883 133.241 130.6 133.444 130.248L135.14 131.08C134.308 132.531 133.044 133.256 131.348 133.256ZM133.284 127.928C133.263 127.672 133.167 127.421 132.996 127.176C132.836 126.92 132.607 126.712 132.308 126.552C132.02 126.381 131.679 126.296 131.284 126.296C130.783 126.296 130.351 126.445 129.988 126.744C129.636 127.032 129.38 127.427 129.22 127.928H133.284ZM140.753 136.712C139.718 136.712 138.859 136.477 138.177 136.008C137.494 135.549 137.035 134.995 136.801 134.344L138.769 133.544C138.939 133.949 139.201 134.269 139.553 134.504C139.905 134.739 140.305 134.856 140.753 134.856C141.414 134.856 141.937 134.653 142.321 134.248C142.715 133.843 142.913 133.267 142.913 132.52V131.88H142.785C142.529 132.243 142.193 132.52 141.777 132.712C141.361 132.904 140.886 133 140.353 133C139.681 133 139.051 132.829 138.465 132.488C137.889 132.136 137.425 131.645 137.073 131.016C136.721 130.376 136.545 129.635 136.545 128.792C136.545 127.949 136.721 127.213 137.073 126.584C137.425 125.944 137.889 125.453 138.465 125.112C139.051 124.76 139.681 124.584 140.353 124.584C140.886 124.584 141.361 124.68 141.777 124.872C142.193 125.064 142.529 125.341 142.785 125.704H142.913V124.84H144.929V132.44C144.929 133.315 144.758 134.072 144.417 134.712C144.075 135.352 143.59 135.843 142.961 136.184C142.331 136.536 141.595 136.712 140.753 136.712ZM140.785 131.096C141.371 131.096 141.873 130.893 142.289 130.488C142.705 130.072 142.913 129.507 142.913 128.792C142.913 128.056 142.705 127.491 142.289 127.096C141.883 126.691 141.382 126.488 140.785 126.488C140.187 126.488 139.681 126.691 139.265 127.096C138.849 127.501 138.641 128.067 138.641 128.792C138.641 129.517 138.849 130.083 139.265 130.488C139.681 130.893 140.187 131.096 140.785 131.096ZM150.723 133.256C149.912 133.256 149.182 133.069 148.531 132.696C147.88 132.323 147.368 131.811 146.995 131.16C146.632 130.499 146.451 129.757 146.451 128.936C146.451 128.157 146.632 127.437 146.995 126.776C147.358 126.104 147.859 125.571 148.499 125.176C149.139 124.781 149.854 124.584 150.643 124.584C151.486 124.584 152.211 124.765 152.819 125.128C153.427 125.491 153.886 125.987 154.195 126.616C154.515 127.245 154.675 127.944 154.675 128.712C154.675 128.957 154.659 129.192 154.627 129.416H148.499C148.606 130.067 148.862 130.563 149.267 130.904C149.683 131.235 150.179 131.4 150.755 131.4C151.235 131.4 151.646 131.299 151.987 131.096C152.339 130.883 152.616 130.6 152.819 130.248L154.515 131.08C153.683 132.531 152.419 133.256 150.723 133.256ZM152.659 127.928C152.638 127.672 152.542 127.421 152.371 127.176C152.211 126.92 151.982 126.712 151.683 126.552C151.395 126.381 151.054 126.296 150.659 126.296C150.158 126.296 149.726 126.445 149.363 126.744C149.011 127.032 148.755 127.427 148.595 127.928H152.659ZM162.536 133.256C161.672 133.256 160.962 133.005 160.408 132.504C159.853 131.992 159.576 131.325 159.576 130.504C159.576 129.96 159.72 129.48 160.008 129.064C160.296 128.648 160.69 128.328 161.192 128.104C161.693 127.88 162.248 127.768 162.856 127.768C163.698 127.768 164.418 127.891 165.016 128.136V127.784C165.016 127.336 164.845 126.973 164.504 126.696C164.173 126.419 163.725 126.28 163.16 126.28C162.776 126.28 162.402 126.371 162.04 126.552C161.688 126.723 161.394 126.952 161.16 127.24L159.816 126.184C160.21 125.672 160.706 125.277 161.304 125C161.901 124.723 162.552 124.584 163.256 124.584C164.504 124.584 165.453 124.872 166.104 125.448C166.754 126.024 167.08 126.867 167.08 127.976V133H165.016V132.168H164.888C164.642 132.488 164.317 132.749 163.912 132.952C163.517 133.155 163.058 133.256 162.536 133.256ZM163.032 131.624C163.64 131.624 164.12 131.432 164.472 131.048C164.834 130.653 165.016 130.195 165.016 129.672C164.472 129.416 163.901 129.288 163.304 129.288C162.216 129.288 161.672 129.693 161.672 130.504C161.672 130.835 161.789 131.107 162.024 131.32C162.258 131.523 162.594 131.624 163.032 131.624ZM172.434 133.256C171.698 133.256 171.026 133.075 170.418 132.712C169.821 132.339 169.346 131.827 168.994 131.176C168.653 130.515 168.482 129.763 168.482 128.92C168.482 128.088 168.653 127.341 168.994 126.68C169.346 126.019 169.821 125.507 170.418 125.144C171.026 124.771 171.698 124.584 172.434 124.584C172.989 124.584 173.48 124.707 173.906 124.952C174.333 125.187 174.658 125.48 174.882 125.832H175.01L174.882 124.68V121.544H176.962V133H175.01V132.024H174.882C174.669 132.376 174.344 132.669 173.906 132.904C173.48 133.139 172.989 133.256 172.434 133.256ZM172.786 131.32C173.181 131.32 173.549 131.219 173.89 131.016C174.232 130.813 174.504 130.531 174.706 130.168C174.909 129.805 175.01 129.389 175.01 128.92C175.01 128.451 174.909 128.035 174.706 127.672C174.504 127.309 174.232 127.032 173.89 126.84C173.549 126.637 173.181 126.536 172.786 126.536C172.402 126.536 172.04 126.637 171.698 126.84C171.357 127.032 171.085 127.309 170.882 127.672C170.68 128.035 170.578 128.451 170.578 128.92C170.578 129.389 170.68 129.805 170.882 130.168C171.085 130.531 171.357 130.813 171.698 131.016C172.04 131.219 172.402 131.32 172.786 131.32ZM179.024 124.84H180.992V125.864H181.12C181.376 125.469 181.717 125.16 182.144 124.936C182.581 124.701 183.067 124.584 183.6 124.584C184.176 124.584 184.677 124.723 185.104 125C185.531 125.267 185.835 125.608 186.016 126.024C186.283 125.597 186.645 125.251 187.104 124.984C187.573 124.717 188.123 124.584 188.752 124.584C189.68 124.584 190.384 124.872 190.864 125.448C191.355 126.013 191.6 126.781 191.6 127.752V133H189.52V128.136C189.52 127.624 189.397 127.229 189.152 126.952C188.917 126.675 188.587 126.536 188.16 126.536C187.616 126.536 187.179 126.755 186.848 127.192C186.528 127.619 186.368 128.184 186.368 128.888V133H184.272V128.136C184.272 127.624 184.144 127.229 183.888 126.952C183.643 126.675 183.291 126.536 182.832 126.536C182.32 126.536 181.904 126.755 181.584 127.192C181.275 127.619 181.12 128.184 181.12 128.888V133H179.024V124.84ZM194.786 123.944C194.413 123.944 194.093 123.811 193.826 123.544C193.559 123.277 193.426 122.957 193.426 122.584C193.426 122.211 193.559 121.896 193.826 121.64C194.093 121.373 194.413 121.24 194.786 121.24C195.159 121.24 195.474 121.373 195.73 121.64C195.997 121.896 196.13 122.211 196.13 122.584C196.13 122.957 195.997 123.277 195.73 123.544C195.474 123.811 195.159 123.944 194.786 123.944ZM193.73 124.84H195.826V133H193.73V124.84ZM201.112 133.256C200.12 133.256 199.315 133.053 198.696 132.648C198.088 132.243 197.662 131.715 197.416 131.064L199.288 130.248C199.459 130.632 199.699 130.925 200.008 131.128C200.328 131.32 200.696 131.416 201.112 131.416C201.496 131.416 201.816 131.357 202.072 131.24C202.328 131.112 202.456 130.909 202.456 130.632C202.456 130.365 202.339 130.168 202.104 130.04C201.87 129.901 201.518 129.779 201.048 129.672L200.088 129.464C199.427 129.304 198.878 129.016 198.44 128.6C198.003 128.173 197.784 127.645 197.784 127.016C197.784 126.547 197.923 126.125 198.2 125.752C198.488 125.379 198.872 125.091 199.352 124.888C199.843 124.685 200.382 124.584 200.968 124.584C202.654 124.584 203.779 125.176 204.344 126.36L202.552 127.144C202.232 126.568 201.72 126.28 201.016 126.28C200.654 126.28 200.366 126.349 200.152 126.488C199.939 126.616 199.832 126.781 199.832 126.984C199.832 127.368 200.195 127.656 200.92 127.848L202.12 128.136C202.931 128.339 203.539 128.648 203.944 129.064C204.36 129.48 204.568 129.992 204.568 130.6C204.568 131.123 204.414 131.587 204.104 131.992C203.806 132.387 203.39 132.696 202.856 132.92C202.334 133.144 201.752 133.256 201.112 133.256ZM209.191 133.256C208.199 133.256 207.393 133.053 206.775 132.648C206.167 132.243 205.74 131.715 205.495 131.064L207.367 130.248C207.537 130.632 207.777 130.925 208.087 131.128C208.407 131.32 208.775 131.416 209.191 131.416C209.575 131.416 209.895 131.357 210.151 131.24C210.407 131.112 210.535 130.909 210.535 130.632C210.535 130.365 210.417 130.168 210.183 130.04C209.948 129.901 209.596 129.779 209.127 129.672L208.167 129.464C207.505 129.304 206.956 129.016 206.519 128.6C206.081 128.173 205.863 127.645 205.863 127.016C205.863 126.547 206.001 126.125 206.279 125.752C206.567 125.379 206.951 125.091 207.431 124.888C207.921 124.685 208.46 124.584 209.047 124.584C210.732 124.584 211.857 125.176 212.423 126.36L210.631 127.144C210.311 126.568 209.799 126.28 209.095 126.28C208.732 126.28 208.444 126.349 208.231 126.488C208.017 126.616 207.911 126.781 207.911 126.984C207.911 127.368 208.273 127.656 208.999 127.848L210.199 128.136C211.009 128.339 211.617 128.648 212.023 129.064C212.439 129.48 212.647 129.992 212.647 130.6C212.647 131.123 212.492 131.587 212.183 131.992C211.884 132.387 211.468 132.696 210.935 132.92C210.412 133.144 209.831 133.256 209.191 133.256ZM215.271 123.944C214.897 123.944 214.577 123.811 214.311 123.544C214.044 123.277 213.911 122.957 213.911 122.584C213.911 122.211 214.044 121.896 214.311 121.64C214.577 121.373 214.897 121.24 215.271 121.24C215.644 121.24 215.959 121.373 216.215 121.64C216.481 121.896 216.615 122.211 216.615 122.584C216.615 122.957 216.481 123.277 216.215 123.544C215.959 123.811 215.644 123.944 215.271 123.944ZM214.215 124.84H216.311V133H214.215V124.84ZM222.319 133.256C221.476 133.256 220.724 133.069 220.063 132.696C219.401 132.312 218.884 131.795 218.511 131.144C218.148 130.483 217.967 129.741 217.967 128.92C217.967 128.109 218.148 127.373 218.511 126.712C218.884 126.051 219.401 125.533 220.063 125.16C220.724 124.776 221.476 124.584 222.319 124.584C223.151 124.584 223.897 124.776 224.559 125.16C225.22 125.533 225.732 126.051 226.095 126.712C226.468 127.373 226.655 128.109 226.655 128.92C226.655 129.741 226.468 130.483 226.095 131.144C225.732 131.795 225.22 132.312 224.559 132.696C223.897 133.069 223.151 133.256 222.319 133.256ZM222.319 131.32C222.724 131.32 223.097 131.224 223.439 131.032C223.78 130.84 224.052 130.563 224.255 130.2C224.457 129.837 224.559 129.411 224.559 128.92C224.559 128.44 224.457 128.019 224.255 127.656C224.052 127.293 223.78 127.016 223.439 126.824C223.097 126.632 222.724 126.536 222.319 126.536C221.913 126.536 221.54 126.632 221.199 126.824C220.857 127.016 220.58 127.293 220.367 127.656C220.164 128.019 220.063 128.44 220.063 128.92C220.063 129.4 220.164 129.827 220.367 130.2C220.58 130.563 220.857 130.84 221.199 131.032C221.54 131.224 221.913 131.32 222.319 131.32ZM228.102 124.84H230.07V125.864H230.198C230.443 125.469 230.79 125.16 231.238 124.936C231.686 124.701 232.171 124.584 232.694 124.584C233.675 124.584 234.422 124.883 234.934 125.48C235.446 126.077 235.702 126.893 235.702 127.928V133H233.606V128.184C233.606 127.661 233.473 127.256 233.206 126.968C232.939 126.68 232.566 126.536 232.086 126.536C231.521 126.536 231.062 126.755 230.71 127.192C230.369 127.629 230.198 128.179 230.198 128.84V133H228.102V124.84ZM245.27 133.256C244.449 133.256 243.713 133.075 243.062 132.712C242.412 132.339 241.9 131.821 241.526 131.16C241.164 130.499 240.982 129.752 240.982 128.92C240.982 128.088 241.164 127.347 241.526 126.696C241.9 126.035 242.412 125.517 243.062 125.144C243.713 124.771 244.449 124.584 245.27 124.584C246.177 124.584 246.956 124.781 247.606 125.176C248.257 125.56 248.726 126.109 249.014 126.824L247.094 127.624C246.753 126.899 246.145 126.536 245.27 126.536C244.63 126.536 244.102 126.755 243.686 127.192C243.281 127.629 243.078 128.205 243.078 128.92C243.078 129.645 243.281 130.227 243.686 130.664C244.102 131.101 244.63 131.32 245.27 131.32C246.156 131.32 246.796 130.936 247.19 130.168L249.094 131C248.742 131.715 248.241 132.269 247.59 132.664C246.94 133.059 246.166 133.256 245.27 133.256ZM250.602 121.544H252.698V124.44L252.57 125.864H252.698C252.933 125.48 253.274 125.171 253.722 124.936C254.17 124.701 254.655 124.584 255.178 124.584C256.17 124.584 256.927 124.883 257.45 125.48C257.983 126.067 258.25 126.883 258.25 127.928V133H256.154V128.184C256.154 127.661 256.01 127.256 255.722 126.968C255.445 126.68 255.071 126.536 254.602 126.536C254.047 126.536 253.589 126.76 253.226 127.208C252.874 127.656 252.698 128.205 252.698 128.856V133H250.602V121.544ZM262.645 133.256C261.781 133.256 261.072 133.005 260.517 132.504C259.962 131.992 259.685 131.325 259.685 130.504C259.685 129.96 259.829 129.48 260.117 129.064C260.405 128.648 260.8 128.328 261.301 128.104C261.802 127.88 262.357 127.768 262.965 127.768C263.808 127.768 264.528 127.891 265.125 128.136V127.784C265.125 127.336 264.954 126.973 264.613 126.696C264.282 126.419 263.834 126.28 263.269 126.28C262.885 126.28 262.512 126.371 262.149 126.552C261.797 126.723 261.504 126.952 261.269 127.24L259.925 126.184C260.32 125.672 260.816 125.277 261.413 125C262.01 124.723 262.661 124.584 263.365 124.584C264.613 124.584 265.562 124.872 266.213 125.448C266.864 126.024 267.189 126.867 267.189 127.976V133H265.125V132.168H264.997C264.752 132.488 264.426 132.749 264.021 132.952C263.626 133.155 263.168 133.256 262.645 133.256ZM263.141 131.624C263.749 131.624 264.229 131.432 264.581 131.048C264.944 130.653 265.125 130.195 265.125 129.672C264.581 129.416 264.01 129.288 263.413 129.288C262.325 129.288 261.781 129.693 261.781 130.504C261.781 130.835 261.898 131.107 262.133 131.32C262.368 131.523 262.704 131.624 263.141 131.624ZM269.118 124.84H271.086V125.864H271.214C271.459 125.469 271.806 125.16 272.254 124.936C272.702 124.701 273.187 124.584 273.71 124.584C274.691 124.584 275.438 124.883 275.95 125.48C276.462 126.077 276.718 126.893 276.718 127.928V133H274.622V128.184C274.622 127.661 274.488 127.256 274.222 126.968C273.955 126.68 273.582 126.536 273.102 126.536C272.536 126.536 272.078 126.755 271.726 127.192C271.384 127.629 271.214 128.179 271.214 128.84V133H269.118V124.84ZM282.536 133.256C281.715 133.256 280.979 133.075 280.328 132.712C279.677 132.339 279.165 131.821 278.792 131.16C278.429 130.499 278.248 129.752 278.248 128.92C278.248 128.088 278.429 127.347 278.792 126.696C279.165 126.035 279.677 125.517 280.328 125.144C280.979 124.771 281.715 124.584 282.536 124.584C283.443 124.584 284.221 124.781 284.872 125.176C285.523 125.56 285.992 126.109 286.28 126.824L284.36 127.624C284.019 126.899 283.411 126.536 282.536 126.536C281.896 126.536 281.368 126.755 280.952 127.192C280.547 127.629 280.344 128.205 280.344 128.92C280.344 129.645 280.547 130.227 280.952 130.664C281.368 131.101 281.896 131.32 282.536 131.32C283.421 131.32 284.061 130.936 284.456 130.168L286.36 131C286.008 131.715 285.507 132.269 284.856 132.664C284.205 133.059 283.432 133.256 282.536 133.256ZM291.614 133.256C290.803 133.256 290.072 133.069 289.422 132.696C288.771 132.323 288.259 131.811 287.886 131.16C287.523 130.499 287.342 129.757 287.342 128.936C287.342 128.157 287.523 127.437 287.886 126.776C288.248 126.104 288.75 125.571 289.39 125.176C290.03 124.781 290.744 124.584 291.534 124.584C292.376 124.584 293.102 124.765 293.71 125.128C294.318 125.491 294.776 125.987 295.086 126.616C295.406 127.245 295.566 127.944 295.566 128.712C295.566 128.957 295.55 129.192 295.518 129.416H289.39C289.496 130.067 289.752 130.563 290.158 130.904C290.574 131.235 291.07 131.4 291.646 131.4C292.126 131.4 292.536 131.299 292.878 131.096C293.23 130.883 293.507 130.6 293.71 130.248L295.406 131.08C294.574 132.531 293.31 133.256 291.614 133.256ZM293.55 127.928C293.528 127.672 293.432 127.421 293.262 127.176C293.102 126.92 292.872 126.712 292.574 126.552C292.286 126.381 291.944 126.296 291.55 126.296C291.048 126.296 290.616 126.445 290.254 126.744C289.902 127.032 289.646 127.427 289.486 127.928H293.55ZM300.362 133.256C299.37 133.256 298.565 133.053 297.946 132.648C297.338 132.243 296.912 131.715 296.666 131.064L298.538 130.248C298.709 130.632 298.949 130.925 299.258 131.128C299.578 131.32 299.946 131.416 300.362 131.416C300.746 131.416 301.066 131.357 301.322 131.24C301.578 131.112 301.706 130.909 301.706 130.632C301.706 130.365 301.589 130.168 301.354 130.04C301.12 129.901 300.768 129.779 300.298 129.672L299.338 129.464C298.677 129.304 298.128 129.016 297.69 128.6C297.253 128.173 297.034 127.645 297.034 127.016C297.034 126.547 297.173 126.125 297.45 125.752C297.738 125.379 298.122 125.091 298.602 124.888C299.093 124.685 299.632 124.584 300.218 124.584C301.904 124.584 303.029 125.176 303.594 126.36L301.802 127.144C301.482 126.568 300.97 126.28 300.266 126.28C299.904 126.28 299.616 126.349 299.402 126.488C299.189 126.616 299.082 126.781 299.082 126.984C299.082 127.368 299.445 127.656 300.17 127.848L301.37 128.136C302.181 128.339 302.789 128.648 303.194 129.064C303.61 129.48 303.818 129.992 303.818 130.6C303.818 131.123 303.664 131.587 303.354 131.992C303.056 132.387 302.64 132.696 302.106 132.92C301.584 133.144 301.002 133.256 300.362 133.256Z" fill="white"/>
<path d="M40.458 105.112H45.282C45.966 105.112 46.602 105.262 47.19 105.562C47.778 105.862 48.24 106.276 48.576 106.804C48.924 107.32 49.098 107.896 49.098 108.532C49.098 109.168 48.936 109.726 48.612 110.206C48.3 110.674 47.88 111.034 47.352 111.286V111.376C48.024 111.604 48.558 111.982 48.954 112.51C49.35 113.038 49.548 113.662 49.548 114.382C49.548 115.09 49.362 115.72 48.99 116.272C48.63 116.812 48.138 117.238 47.514 117.55C46.902 117.85 46.23 118 45.498 118H40.458V105.112ZM45.192 110.53C45.792 110.53 46.272 110.35 46.632 109.99C46.992 109.618 47.172 109.192 47.172 108.712C47.172 108.232 46.992 107.818 46.632 107.47C46.284 107.11 45.828 106.93 45.264 106.93H42.438V110.53H45.192ZM45.498 116.164C46.122 116.164 46.62 115.978 46.992 115.606C47.376 115.222 47.568 114.766 47.568 114.238C47.568 113.71 47.37 113.254 46.974 112.87C46.59 112.486 46.074 112.294 45.426 112.294H42.438V116.164H45.498ZM54.2816 118.288C53.6216 118.288 53.0336 118.162 52.5176 117.91C52.0016 117.646 51.5996 117.28 51.3116 116.812C51.0236 116.344 50.8796 115.81 50.8796 115.21C50.8796 114.574 51.0476 114.028 51.3836 113.572C51.7196 113.104 52.1756 112.75 52.7516 112.51C53.3276 112.258 53.9696 112.132 54.6776 112.132C55.2176 112.132 55.7036 112.186 56.1356 112.294C56.5796 112.39 56.9336 112.504 57.1976 112.636V112.15C57.1976 111.562 56.9816 111.088 56.5496 110.728C56.1176 110.356 55.5596 110.17 54.8756 110.17C54.4076 110.17 53.9636 110.278 53.5436 110.494C53.1236 110.698 52.7876 110.98 52.5356 111.34L51.2036 110.314C51.5996 109.75 52.1216 109.312 52.7696 109C53.4296 108.688 54.1496 108.532 54.9296 108.532C56.2496 108.532 57.2696 108.862 57.9896 109.522C58.7216 110.17 59.0876 111.082 59.0876 112.258V118H57.1976V116.866H57.0896C56.8256 117.274 56.4476 117.616 55.9556 117.892C55.4636 118.156 54.9056 118.288 54.2816 118.288ZM54.6236 116.704C55.1036 116.704 55.5416 116.59 55.9376 116.362C56.3336 116.122 56.6396 115.804 56.8556 115.408C57.0836 115.012 57.1976 114.586 57.1976 114.13C56.9096 113.962 56.5796 113.83 56.2076 113.734C55.8356 113.638 55.4456 113.59 55.0376 113.59C54.2816 113.59 53.7236 113.74 53.3636 114.04C53.0156 114.34 52.8416 114.736 52.8416 115.228C52.8416 115.66 53.0036 116.014 53.3276 116.29C53.6516 116.566 54.0836 116.704 54.6236 116.704ZM61.2278 105.112H63.1718V118H61.2278V105.112ZM68.2562 118.288C67.5962 118.288 67.0082 118.162 66.4922 117.91C65.9762 117.646 65.5742 117.28 65.2862 116.812C64.9982 116.344 64.8542 115.81 64.8542 115.21C64.8542 114.574 65.0222 114.028 65.3582 113.572C65.6942 113.104 66.1502 112.75 66.7262 112.51C67.3022 112.258 67.9442 112.132 68.6522 112.132C69.1922 112.132 69.6782 112.186 70.1102 112.294C70.5542 112.39 70.9082 112.504 71.1722 112.636V112.15C71.1722 111.562 70.9562 111.088 70.5242 110.728C70.0922 110.356 69.5342 110.17 68.8502 110.17C68.3822 110.17 67.9382 110.278 67.5182 110.494C67.0982 110.698 66.7622 110.98 66.5102 111.34L65.1782 110.314C65.5742 109.75 66.0962 109.312 66.7442 109C67.4042 108.688 68.1242 108.532 68.9042 108.532C70.2242 108.532 71.2442 108.862 71.9642 109.522C72.6962 110.17 73.0622 111.082 73.0622 112.258V118H71.1722V116.866H71.0642C70.8002 117.274 70.4222 117.616 69.9302 117.892C69.4382 118.156 68.8802 118.288 68.2562 118.288ZM68.5982 116.704C69.0782 116.704 69.5162 116.59 69.9122 116.362C70.3082 116.122 70.6142 115.804 70.8302 115.408C71.0582 115.012 71.1722 114.586 71.1722 114.13C70.8842 113.962 70.5542 113.83 70.1822 113.734C69.8102 113.638 69.4202 113.59 69.0122 113.59C68.2562 113.59 67.6982 113.74 67.3382 114.04C66.9902 114.34 66.8162 114.736 66.8162 115.228C66.8162 115.66 66.9782 116.014 67.3022 116.29C67.6262 116.566 68.0582 116.704 68.5982 116.704ZM75.2024 108.82H77.0384V110.08H77.1464C77.4104 109.624 77.8064 109.252 78.3344 108.964C78.8624 108.676 79.4324 108.532 80.0444 108.532C81.1484 108.532 81.9884 108.862 82.5644 109.522C83.1404 110.17 83.4284 111.064 83.4284 112.204V118H81.5024V112.456C81.5024 111.736 81.3224 111.202 80.9624 110.854C80.6024 110.494 80.1104 110.314 79.4864 110.314C79.0304 110.314 78.6224 110.44 78.2624 110.692C77.9144 110.944 77.6384 111.28 77.4344 111.7C77.2424 112.12 77.1464 112.576 77.1464 113.068V118H75.2024V108.82ZM89.8918 118.288C88.9798 118.288 88.1638 118.078 87.4438 117.658C86.7238 117.238 86.1598 116.662 85.7518 115.93C85.3558 115.186 85.1578 114.346 85.1578 113.41C85.1578 112.474 85.3558 111.64 85.7518 110.908C86.1598 110.164 86.7238 109.582 87.4438 109.162C88.1638 108.742 88.9798 108.532 89.8918 108.532C90.8998 108.532 91.7518 108.76 92.4478 109.216C93.1558 109.66 93.6658 110.278 93.9778 111.07L92.2138 111.79C91.7818 110.806 90.9958 110.314 89.8558 110.314C89.3518 110.314 88.8838 110.446 88.4518 110.71C88.0318 110.962 87.6958 111.322 87.4438 111.79C87.2038 112.258 87.0838 112.798 87.0838 113.41C87.0838 114.022 87.2038 114.562 87.4438 115.03C87.6958 115.498 88.0318 115.864 88.4518 116.128C88.8838 116.38 89.3518 116.506 89.8558 116.506C90.4318 116.506 90.9238 116.38 91.3318 116.128C91.7518 115.864 92.0758 115.486 92.3038 114.994L94.0498 115.75C93.6898 116.53 93.1558 117.148 92.4478 117.604C91.7398 118.06 90.8878 118.288 89.8918 118.288ZM99.8046 118.288C98.9166 118.288 98.1126 118.078 97.3926 117.658C96.6846 117.238 96.1266 116.662 95.7186 115.93C95.3226 115.186 95.1246 114.352 95.1246 113.428C95.1246 112.552 95.3166 111.742 95.7006 110.998C96.0966 110.242 96.6426 109.642 97.3386 109.198C98.0346 108.754 98.8206 108.532 99.6966 108.532C100.621 108.532 101.419 108.736 102.091 109.144C102.763 109.54 103.273 110.092 103.621 110.8C103.981 111.508 104.161 112.312 104.161 113.212C104.161 113.452 104.149 113.656 104.125 113.824H97.0326C97.1166 114.7 97.4286 115.378 97.9686 115.858C98.5086 116.326 99.1386 116.56 99.8586 116.56C100.447 116.56 100.951 116.428 101.371 116.164C101.791 115.888 102.127 115.528 102.379 115.084L103.981 115.858C103.561 116.614 103.003 117.208 102.307 117.64C101.611 118.072 100.777 118.288 99.8046 118.288ZM102.235 112.366C102.211 112.03 102.103 111.694 101.911 111.358C101.719 111.022 101.437 110.746 101.065 110.53C100.705 110.302 100.255 110.188 99.7146 110.188C99.0666 110.188 98.5146 110.386 98.0586 110.782C97.6146 111.178 97.3086 111.706 97.1406 112.366H102.235ZM114.413 118.288C113.501 118.288 112.685 118.078 111.965 117.658C111.245 117.238 110.681 116.662 110.273 115.93C109.877 115.186 109.679 114.346 109.679 113.41C109.679 112.474 109.877 111.64 110.273 110.908C110.681 110.164 111.245 109.582 111.965 109.162C112.685 108.742 113.501 108.532 114.413 108.532C115.421 108.532 116.273 108.76 116.969 109.216C117.677 109.66 118.187 110.278 118.499 111.07L116.735 111.79C116.303 110.806 115.517 110.314 114.377 110.314C113.873 110.314 113.405 110.446 112.973 110.71C112.553 110.962 112.217 111.322 111.965 111.79C111.725 112.258 111.605 112.798 111.605 113.41C111.605 114.022 111.725 114.562 111.965 115.03C112.217 115.498 112.553 115.864 112.973 116.128C113.405 116.38 113.873 116.506 114.377 116.506C114.953 116.506 115.445 116.38 115.853 116.128C116.273 115.864 116.597 115.486 116.825 114.994L118.571 115.75C118.211 116.53 117.677 117.148 116.969 117.604C116.261 118.06 115.409 118.288 114.413 118.288ZM123.55 118.288C122.446 118.288 121.6 117.958 121.012 117.298C120.436 116.626 120.148 115.696 120.148 114.508V108.82H122.092V114.238C122.092 114.982 122.266 115.546 122.614 115.93C122.962 116.314 123.43 116.506 124.018 116.506C124.498 116.506 124.924 116.38 125.296 116.128C125.668 115.876 125.95 115.54 126.142 115.12C126.346 114.7 126.448 114.244 126.448 113.752V108.82H128.374V118H126.556V116.758H126.448C126.184 117.202 125.788 117.568 125.26 117.856C124.732 118.144 124.162 118.288 123.55 118.288ZM130.661 108.82H132.497V110.17H132.605C132.809 109.702 133.157 109.318 133.649 109.018C134.153 108.706 134.693 108.55 135.269 108.55C135.689 108.55 136.061 108.61 136.385 108.73V110.746C135.893 110.53 135.419 110.422 134.963 110.422C134.279 110.422 133.715 110.686 133.271 111.214C132.827 111.742 132.605 112.384 132.605 113.14V118H130.661V108.82ZM137.886 108.82H139.722V110.17H139.83C140.034 109.702 140.382 109.318 140.874 109.018C141.378 108.706 141.918 108.55 142.494 108.55C142.914 108.55 143.286 108.61 143.61 108.73V110.746C143.118 110.53 142.644 110.422 142.188 110.422C141.504 110.422 140.94 110.686 140.496 111.214C140.052 111.742 139.83 112.384 139.83 113.14V118H137.886V108.82ZM146.227 107.47C145.867 107.47 145.555 107.344 145.291 107.092C145.039 106.828 144.913 106.516 144.913 106.156C144.913 105.796 145.039 105.49 145.291 105.238C145.555 104.986 145.867 104.86 146.227 104.86C146.587 104.86 146.893 104.986 147.145 105.238C147.409 105.49 147.541 105.796 147.541 106.156C147.541 106.516 147.409 106.828 147.145 107.092C146.893 107.344 146.587 107.47 146.227 107.47ZM145.255 108.82H147.199V118H145.255V108.82ZM153.771 118.288C152.859 118.288 152.043 118.078 151.323 117.658C150.603 117.238 150.039 116.662 149.631 115.93C149.235 115.186 149.037 114.346 149.037 113.41C149.037 112.474 149.235 111.64 149.631 110.908C150.039 110.164 150.603 109.582 151.323 109.162C152.043 108.742 152.859 108.532 153.771 108.532C154.779 108.532 155.631 108.76 156.327 109.216C157.035 109.66 157.545 110.278 157.857 111.07L156.093 111.79C155.661 110.806 154.875 110.314 153.735 110.314C153.231 110.314 152.763 110.446 152.331 110.71C151.911 110.962 151.575 111.322 151.323 111.79C151.083 112.258 150.963 112.798 150.963 113.41C150.963 114.022 151.083 114.562 151.323 115.03C151.575 115.498 151.911 115.864 152.331 116.128C152.763 116.38 153.231 116.506 153.735 116.506C154.311 116.506 154.803 116.38 155.211 116.128C155.631 115.864 155.955 115.486 156.183 114.994L157.929 115.75C157.569 116.53 157.035 117.148 156.327 117.604C155.619 118.06 154.767 118.288 153.771 118.288ZM162.907 118.288C161.803 118.288 160.957 117.958 160.369 117.298C159.793 116.626 159.505 115.696 159.505 114.508V108.82H161.449V114.238C161.449 114.982 161.623 115.546 161.971 115.93C162.319 116.314 162.787 116.506 163.375 116.506C163.855 116.506 164.281 116.38 164.653 116.128C165.025 115.876 165.307 115.54 165.499 115.12C165.703 114.7 165.805 114.244 165.805 113.752V108.82H167.731V118H165.913V116.758H165.805C165.541 117.202 165.145 117.568 164.617 117.856C164.089 118.144 163.519 118.288 162.907 118.288ZM170.019 105.112H171.963V118H170.019V105.112ZM177.585 118.288C176.481 118.288 175.635 117.958 175.047 117.298C174.471 116.626 174.183 115.696 174.183 114.508V108.82H176.127V114.238C176.127 114.982 176.301 115.546 176.649 115.93C176.997 116.314 177.465 116.506 178.053 116.506C178.533 116.506 178.959 116.38 179.331 116.128C179.703 115.876 179.985 115.54 180.177 115.12C180.381 114.7 180.483 114.244 180.483 113.752V108.82H182.409V118H180.591V116.758H180.483C180.219 117.202 179.823 117.568 179.295 117.856C178.767 118.144 178.197 118.288 177.585 118.288ZM184.697 108.82H186.533V110.08H186.641C186.917 109.624 187.307 109.252 187.811 108.964C188.315 108.676 188.867 108.532 189.467 108.532C190.127 108.532 190.697 108.688 191.177 109C191.669 109.312 192.023 109.726 192.239 110.242C192.563 109.726 192.983 109.312 193.499 109C194.027 108.688 194.645 108.532 195.353 108.532C196.409 108.532 197.207 108.856 197.747 109.504C198.287 110.14 198.557 111.01 198.557 112.114V118H196.631V112.438C196.631 111.022 196.031 110.314 194.831 110.314C194.171 110.314 193.631 110.578 193.211 111.106C192.803 111.634 192.599 112.294 192.599 113.086V118H190.673V112.438C190.673 111.022 190.055 110.314 188.819 110.314C188.183 110.314 187.661 110.584 187.253 111.124C186.845 111.652 186.641 112.312 186.641 113.104V118H184.697V108.82ZM204.964 108.82H206.8V110.17H206.908C207.112 109.702 207.46 109.318 207.952 109.018C208.456 108.706 208.996 108.55 209.572 108.55C209.992 108.55 210.364 108.61 210.688 108.73V110.746C210.196 110.53 209.722 110.422 209.266 110.422C208.582 110.422 208.018 110.686 207.574 111.214C207.13 111.742 206.908 112.384 206.908 113.14V118H204.964V108.82ZM213.305 107.47C212.945 107.47 212.633 107.344 212.369 107.092C212.117 106.828 211.991 106.516 211.991 106.156C211.991 105.796 212.117 105.49 212.369 105.238C212.633 104.986 212.945 104.86 213.305 104.86C213.665 104.86 213.971 104.986 214.223 105.238C214.487 105.49 214.619 105.796 214.619 106.156C214.619 106.516 214.487 106.828 214.223 107.092C213.971 107.344 213.665 107.47 213.305 107.47ZM212.333 108.82H214.277V118H212.333V108.82ZM220.741 122.176C219.625 122.176 218.695 121.918 217.951 121.402C217.219 120.898 216.727 120.286 216.475 119.566L218.275 118.81C218.467 119.302 218.779 119.698 219.211 119.998C219.655 120.298 220.165 120.448 220.741 120.448C221.593 120.448 222.259 120.196 222.739 119.692C223.219 119.188 223.459 118.474 223.459 117.55V116.668H223.351C223.051 117.112 222.649 117.46 222.145 117.712C221.641 117.964 221.065 118.09 220.417 118.09C219.637 118.09 218.917 117.892 218.257 117.496C217.609 117.1 217.087 116.542 216.691 115.822C216.307 115.09 216.115 114.256 216.115 113.32C216.115 112.384 216.307 111.556 216.691 110.836C217.087 110.104 217.609 109.54 218.257 109.144C218.917 108.736 219.637 108.532 220.417 108.532C221.053 108.532 221.623 108.664 222.127 108.928C222.643 109.18 223.051 109.528 223.351 109.972H223.459V108.82H225.313V117.514C225.313 118.498 225.121 119.338 224.737 120.034C224.353 120.742 223.813 121.276 223.117 121.636C222.433 121.996 221.641 122.176 220.741 122.176ZM220.759 116.326C221.251 116.326 221.701 116.206 222.109 115.966C222.517 115.726 222.841 115.384 223.081 114.94C223.333 114.484 223.459 113.944 223.459 113.32C223.459 112.684 223.333 112.138 223.081 111.682C222.841 111.226 222.517 110.884 222.109 110.656C221.701 110.416 221.251 110.296 220.759 110.296C220.267 110.296 219.811 110.416 219.391 110.656C218.983 110.884 218.653 111.226 218.401 111.682C218.161 112.138 218.041 112.684 218.041 113.32C218.041 113.944 218.161 114.484 218.401 114.94C218.653 115.396 218.983 115.744 219.391 115.984C219.811 116.212 220.267 116.326 220.759 116.326ZM231.819 118.288C230.895 118.288 230.067 118.078 229.335 117.658C228.603 117.226 228.033 116.638 227.625 115.894C227.217 115.15 227.013 114.322 227.013 113.41C227.013 112.498 227.217 111.67 227.625 110.926C228.033 110.182 228.603 109.6 229.335 109.18C230.067 108.748 230.895 108.532 231.819 108.532C232.731 108.532 233.553 108.748 234.285 109.18C235.017 109.612 235.587 110.2 235.995 110.944C236.403 111.688 236.607 112.51 236.607 113.41C236.607 114.322 236.403 115.15 235.995 115.894C235.587 116.638 235.017 117.226 234.285 117.658C233.565 118.078 232.743 118.288 231.819 118.288ZM231.819 116.506C232.335 116.506 232.809 116.38 233.241 116.128C233.673 115.876 234.021 115.516 234.285 115.048C234.549 114.58 234.681 114.034 234.681 113.41C234.681 112.786 234.549 112.24 234.285 111.772C234.021 111.304 233.673 110.944 233.241 110.692C232.809 110.44 232.335 110.314 231.819 110.314C231.303 110.314 230.823 110.44 230.379 110.692C229.947 110.944 229.599 111.304 229.335 111.772C229.071 112.24 228.939 112.786 228.939 113.41C228.939 114.034 229.071 114.58 229.335 115.048C229.599 115.516 229.947 115.876 230.379 116.128C230.823 116.38 231.303 116.506 231.819 116.506ZM238.222 108.82H240.058V110.17H240.166C240.37 109.702 240.718 109.318 241.21 109.018C241.714 108.706 242.254 108.55 242.83 108.55C243.25 108.55 243.622 108.61 243.946 108.73V110.746C243.454 110.53 242.98 110.422 242.524 110.422C241.84 110.422 241.276 110.686 240.832 111.214C240.388 111.742 240.166 112.384 240.166 113.14V118H238.222V108.82ZM48.63 138.588L49.908 140.208L48.486 141.288L47.55 140.118C46.71 140.898 45.696 141.288 44.508 141.288C43.632 141.288 42.834 141.096 42.114 140.712C41.394 140.316 40.824 139.776 40.404 139.092C39.996 138.396 39.792 137.622 39.792 136.77C39.792 136.038 39.978 135.342 40.35 134.682C40.734 134.01 41.262 133.452 41.934 133.008C41.658 132.636 41.442 132.282 41.286 131.946C41.142 131.598 41.07 131.244 41.07 130.884C41.07 130.32 41.208 129.804 41.484 129.336C41.772 128.868 42.156 128.502 42.636 128.238C43.128 127.962 43.668 127.824 44.256 127.824C45.036 127.824 45.678 128.028 46.182 128.436C46.698 128.832 47.07 129.348 47.298 129.984L45.696 130.83C45.408 130.002 44.934 129.588 44.274 129.588C43.89 129.588 43.572 129.708 43.32 129.948C43.08 130.176 42.96 130.482 42.96 130.866C42.96 131.262 43.11 131.64 43.41 132L47.514 137.184L48.63 135.33L50.088 136.23L48.63 138.588ZM44.562 139.542C45.33 139.542 45.972 139.284 46.488 138.768L42.978 134.34C42.558 134.616 42.222 134.964 41.97 135.384C41.73 135.804 41.61 136.248 41.61 136.716C41.61 137.256 41.742 137.742 42.006 138.174C42.27 138.606 42.63 138.942 43.086 139.182C43.542 139.422 44.034 139.542 44.562 139.542ZM60.8327 141.288C60.1727 141.288 59.5787 141.144 59.0507 140.856C58.5347 140.556 58.1447 140.196 57.8807 139.776H57.7727V141H55.9367V128.112H57.8807V131.784L57.7727 133.062H57.8807C58.1447 132.63 58.5347 132.27 59.0507 131.982C59.5787 131.682 60.1727 131.532 60.8327 131.532C61.6607 131.532 62.4107 131.742 63.0827 132.162C63.7547 132.582 64.2827 133.164 64.6667 133.908C65.0507 134.64 65.2427 135.474 65.2427 136.41C65.2427 137.346 65.0507 138.186 64.6667 138.93C64.2827 139.674 63.7547 140.256 63.0827 140.676C62.4107 141.084 61.6607 141.288 60.8327 141.288ZM60.5447 139.506C61.0367 139.506 61.4927 139.38 61.9127 139.128C62.3447 138.864 62.6867 138.498 62.9387 138.03C63.1907 137.562 63.3167 137.022 63.3167 136.41C63.3167 135.798 63.1907 135.258 62.9387 134.79C62.6867 134.322 62.3447 133.962 61.9127 133.71C61.4927 133.446 61.0367 133.314 60.5447 133.314C60.0647 133.314 59.6087 133.446 59.1767 133.71C58.7567 133.962 58.4147 134.322 58.1507 134.79C57.8987 135.258 57.7727 135.798 57.7727 136.41C57.7727 137.022 57.8987 137.562 58.1507 138.03C58.4147 138.498 58.7567 138.864 59.1767 139.128C59.6087 139.38 60.0647 139.506 60.5447 139.506ZM70.2706 141.288C69.1666 141.288 68.3206 140.958 67.7326 140.298C67.1566 139.626 66.8686 138.696 66.8686 137.508V131.82H68.8126V137.238C68.8126 137.982 68.9866 138.546 69.3346 138.93C69.6826 139.314 70.1506 139.506 70.7386 139.506C71.2186 139.506 71.6446 139.38 72.0166 139.128C72.3886 138.876 72.6706 138.54 72.8626 138.12C73.0666 137.7 73.1686 137.244 73.1686 136.752V131.82H75.0946V141H73.2766V139.758H73.1686C72.9046 140.202 72.5086 140.568 71.9806 140.856C71.4526 141.144 70.8826 141.288 70.2706 141.288ZM78.498 130.47C78.138 130.47 77.826 130.344 77.562 130.092C77.31 129.828 77.184 129.516 77.184 129.156C77.184 128.796 77.31 128.49 77.562 128.238C77.826 127.986 78.138 127.86 78.498 127.86C78.858 127.86 79.164 127.986 79.416 128.238C79.68 128.49 79.812 128.796 79.812 129.156C79.812 129.516 79.68 129.828 79.416 130.092C79.164 130.344 78.858 130.47 78.498 130.47ZM77.526 131.82H79.47V141H77.526V131.82ZM81.882 128.112H83.826V141H81.882V128.112ZM89.9545 141.288C89.1265 141.288 88.3765 141.084 87.7045 140.676C87.0325 140.256 86.5045 139.674 86.1205 138.93C85.7365 138.186 85.5445 137.346 85.5445 136.41C85.5445 135.474 85.7365 134.64 86.1205 133.908C86.5045 133.164 87.0325 132.582 87.7045 132.162C88.3765 131.742 89.1265 131.532 89.9545 131.532C90.6265 131.532 91.2205 131.682 91.7365 131.982C92.2525 132.27 92.6425 132.63 92.9065 133.062H93.0145L92.9065 131.784V128.112H94.8325V141H93.0145V139.776H92.9065C92.6425 140.196 92.2525 140.556 91.7365 140.856C91.2205 141.144 90.6265 141.288 89.9545 141.288ZM90.2425 139.506C90.7225 139.506 91.1725 139.38 91.5925 139.128C92.0245 138.864 92.3665 138.498 92.6185 138.03C92.8825 137.562 93.0145 137.022 93.0145 136.41C93.0145 135.798 92.8825 135.258 92.6185 134.79C92.3665 134.322 92.0245 133.962 91.5925 133.71C91.1725 133.446 90.7225 133.314 90.2425 133.314C89.7625 133.314 89.3065 133.446 88.8745 133.71C88.4545 133.962 88.1125 134.322 87.8485 134.79C87.5965 135.258 87.4705 135.798 87.4705 136.41C87.4705 137.022 87.5965 137.562 87.8485 138.03C88.1125 138.498 88.4545 138.864 88.8745 139.128C89.3065 139.38 89.7625 139.506 90.2425 139.506ZM104.671 141.288C103.627 141.288 102.763 141.06 102.079 140.604C101.407 140.148 100.933 139.554 100.657 138.822L102.403 138.066C102.619 138.558 102.925 138.936 103.321 139.2C103.717 139.452 104.167 139.578 104.671 139.578C105.187 139.578 105.619 139.488 105.967 139.308C106.315 139.116 106.489 138.834 106.489 138.462C106.489 138.126 106.339 137.862 106.039 137.67C105.751 137.466 105.295 137.292 104.671 137.148L103.573 136.896C102.841 136.716 102.235 136.398 101.755 135.942C101.275 135.486 101.035 134.91 101.035 134.214C101.035 133.686 101.191 133.218 101.503 132.81C101.827 132.402 102.253 132.09 102.781 131.874C103.321 131.646 103.909 131.532 104.545 131.532C105.409 131.532 106.159 131.7 106.795 132.036C107.443 132.372 107.911 132.864 108.199 133.512L106.525 134.268C106.153 133.536 105.499 133.17 104.563 133.17C104.107 133.17 103.723 133.266 103.411 133.458C103.111 133.65 102.961 133.89 102.961 134.178C102.961 134.718 103.429 135.108 104.365 135.348L105.697 135.672C106.597 135.9 107.275 136.242 107.731 136.698C108.199 137.154 108.433 137.718 108.433 138.39C108.433 138.966 108.265 139.476 107.929 139.92C107.605 140.352 107.155 140.688 106.579 140.928C106.003 141.168 105.367 141.288 104.671 141.288ZM113.804 141.144C113.396 141.144 113.012 141.084 112.652 140.964C112.304 140.832 112.016 140.652 111.788 140.424C111.272 139.932 111.014 139.236 111.014 138.336V133.512H109.412V131.82H111.014V129.228H112.958V131.82H115.208V133.512H112.958V137.922C112.958 138.426 113.054 138.78 113.246 138.984C113.45 139.212 113.762 139.326 114.182 139.326C114.398 139.326 114.584 139.302 114.74 139.254C114.896 139.194 115.07 139.104 115.262 138.984V140.874C114.854 141.054 114.368 141.144 113.804 141.144ZM117.091 131.82H118.927V133.17H119.035C119.239 132.702 119.587 132.318 120.079 132.018C120.583 131.706 121.123 131.55 121.699 131.55C122.119 131.55 122.491 131.61 122.815 131.73V133.746C122.323 133.53 121.849 133.422 121.393 133.422C120.709 133.422 120.145 133.686 119.701 134.214C119.257 134.742 119.035 135.384 119.035 136.14V141H117.091V131.82ZM128.091 141.288C127.167 141.288 126.339 141.078 125.607 140.658C124.875 140.226 124.305 139.638 123.897 138.894C123.489 138.15 123.285 137.322 123.285 136.41C123.285 135.498 123.489 134.67 123.897 133.926C124.305 133.182 124.875 132.6 125.607 132.18C126.339 131.748 127.167 131.532 128.091 131.532C129.003 131.532 129.825 131.748 130.557 132.18C131.289 132.612 131.859 133.2 132.267 133.944C132.675 134.688 132.879 135.51 132.879 136.41C132.879 137.322 132.675 138.15 132.267 138.894C131.859 139.638 131.289 140.226 130.557 140.658C129.837 141.078 129.015 141.288 128.091 141.288ZM128.091 139.506C128.607 139.506 129.081 139.38 129.513 139.128C129.945 138.876 130.293 138.516 130.557 138.048C130.821 137.58 130.953 137.034 130.953 136.41C130.953 135.786 130.821 135.24 130.557 134.772C130.293 134.304 129.945 133.944 129.513 133.692C129.081 133.44 128.607 133.314 128.091 133.314C127.575 133.314 127.095 133.44 126.651 133.692C126.219 133.944 125.871 134.304 125.607 134.772C125.343 135.24 125.211 135.786 125.211 136.41C125.211 137.034 125.343 137.58 125.607 138.048C125.871 138.516 126.219 138.876 126.651 139.128C127.095 139.38 127.575 139.506 128.091 139.506ZM134.493 131.82H136.329V133.08H136.437C136.701 132.624 137.097 132.252 137.625 131.964C138.153 131.676 138.723 131.532 139.335 131.532C140.439 131.532 141.279 131.862 141.855 132.522C142.431 133.17 142.719 134.064 142.719 135.204V141H140.793V135.456C140.793 134.736 140.613 134.202 140.253 133.854C139.893 133.494 139.401 133.314 138.777 133.314C138.321 133.314 137.913 133.44 137.553 133.692C137.205 133.944 136.929 134.28 136.725 134.7C136.533 135.12 136.437 135.576 136.437 136.068V141H134.493V131.82ZM148.987 145.176C147.871 145.176 146.941 144.918 146.197 144.402C145.465 143.898 144.973 143.286 144.721 142.566L146.521 141.81C146.713 142.302 147.025 142.698 147.457 142.998C147.901 143.298 148.411 143.448 148.987 143.448C149.839 143.448 150.505 143.196 150.985 142.692C151.465 142.188 151.705 141.474 151.705 140.55V139.668H151.597C151.297 140.112 150.895 140.46 150.391 140.712C149.887 140.964 149.311 141.09 148.663 141.09C147.883 141.09 147.163 140.892 146.503 140.496C145.855 140.1 145.333 139.542 144.937 138.822C144.553 138.09 144.361 137.256 144.361 136.32C144.361 135.384 144.553 134.556 144.937 133.836C145.333 133.104 145.855 132.54 146.503 132.144C147.163 131.736 147.883 131.532 148.663 131.532C149.299 131.532 149.869 131.664 150.373 131.928C150.889 132.18 151.297 132.528 151.597 132.972H151.705V131.82H153.559V140.514C153.559 141.498 153.367 142.338 152.983 143.034C152.599 143.742 152.059 144.276 151.363 144.636C150.679 144.996 149.887 145.176 148.987 145.176ZM149.005 139.326C149.497 139.326 149.947 139.206 150.355 138.966C150.763 138.726 151.087 138.384 151.327 137.94C151.579 137.484 151.705 136.944 151.705 136.32C151.705 135.684 151.579 135.138 151.327 134.682C151.087 134.226 150.763 133.884 150.355 133.656C149.947 133.416 149.497 133.296 149.005 133.296C148.513 133.296 148.057 133.416 147.637 133.656C147.229 133.884 146.899 134.226 146.647 134.682C146.407 135.138 146.287 135.684 146.287 136.32C146.287 136.944 146.407 137.484 146.647 137.94C146.899 138.396 147.229 138.744 147.637 138.984C148.057 139.212 148.513 139.326 149.005 139.326ZM162.914 141.288C162.254 141.288 161.666 141.162 161.15 140.91C160.634 140.646 160.232 140.28 159.944 139.812C159.656 139.344 159.512 138.81 159.512 138.21C159.512 137.574 159.68 137.028 160.016 136.572C160.352 136.104 160.808 135.75 161.384 135.51C161.96 135.258 162.602 135.132 163.31 135.132C163.85 135.132 164.336 135.186 164.768 135.294C165.212 135.39 165.566 135.504 165.83 135.636V135.15C165.83 134.562 165.614 134.088 165.182 133.728C164.75 133.356 164.192 133.17 163.508 133.17C163.04 133.17 162.596 133.278 162.176 133.494C161.756 133.698 161.42 133.98 161.168 134.34L159.836 133.314C160.232 132.75 160.754 132.312 161.402 132C162.062 131.688 162.782 131.532 163.562 131.532C164.882 131.532 165.902 131.862 166.622 132.522C167.354 133.17 167.72 134.082 167.72 135.258V141H165.83V139.866H165.722C165.458 140.274 165.08 140.616 164.588 140.892C164.096 141.156 163.538 141.288 162.914 141.288ZM163.256 139.704C163.736 139.704 164.174 139.59 164.57 139.362C164.966 139.122 165.272 138.804 165.488 138.408C165.716 138.012 165.83 137.586 165.83 137.13C165.542 136.962 165.212 136.83 164.84 136.734C164.468 136.638 164.078 136.59 163.67 136.59C162.914 136.59 162.356 136.74 161.996 137.04C161.648 137.34 161.474 137.736 161.474 138.228C161.474 138.66 161.636 139.014 161.96 139.29C162.284 139.566 162.716 139.704 163.256 139.704ZM174.021 141.288C173.109 141.288 172.293 141.078 171.573 140.658C170.853 140.238 170.289 139.662 169.881 138.93C169.485 138.186 169.287 137.346 169.287 136.41C169.287 135.474 169.485 134.64 169.881 133.908C170.289 133.164 170.853 132.582 171.573 132.162C172.293 131.742 173.109 131.532 174.021 131.532C175.029 131.532 175.881 131.76 176.577 132.216C177.285 132.66 177.795 133.278 178.107 134.07L176.343 134.79C175.911 133.806 175.125 133.314 173.985 133.314C173.481 133.314 173.013 133.446 172.581 133.71C172.161 133.962 171.825 134.322 171.573 134.79C171.333 135.258 171.213 135.798 171.213 136.41C171.213 137.022 171.333 137.562 171.573 138.03C171.825 138.498 172.161 138.864 172.581 139.128C173.013 139.38 173.481 139.506 173.985 139.506C174.561 139.506 175.053 139.38 175.461 139.128C175.881 138.864 176.205 138.486 176.433 137.994L178.179 138.75C177.819 139.53 177.285 140.148 176.577 140.604C175.869 141.06 175.017 141.288 174.021 141.288ZM182.619 141.288C181.959 141.288 181.371 141.162 180.855 140.91C180.339 140.646 179.937 140.28 179.649 139.812C179.361 139.344 179.217 138.81 179.217 138.21C179.217 137.574 179.385 137.028 179.721 136.572C180.057 136.104 180.513 135.75 181.089 135.51C181.665 135.258 182.307 135.132 183.015 135.132C183.555 135.132 184.041 135.186 184.473 135.294C184.917 135.39 185.271 135.504 185.535 135.636V135.15C185.535 134.562 185.319 134.088 184.887 133.728C184.455 133.356 183.897 133.17 183.213 133.17C182.745 133.17 182.301 133.278 181.881 133.494C181.461 133.698 181.125 133.98 180.873 134.34L179.541 133.314C179.937 132.75 180.459 132.312 181.107 132C181.767 131.688 182.487 131.532 183.267 131.532C184.587 131.532 185.607 131.862 186.327 132.522C187.059 133.17 187.425 134.082 187.425 135.258V141H185.535V139.866H185.427C185.163 140.274 184.785 140.616 184.293 140.892C183.801 141.156 183.243 141.288 182.619 141.288ZM182.961 139.704C183.441 139.704 183.879 139.59 184.275 139.362C184.671 139.122 184.977 138.804 185.193 138.408C185.421 138.012 185.535 137.586 185.535 137.13C185.247 136.962 184.917 136.83 184.545 136.734C184.173 136.638 183.783 136.59 183.375 136.59C182.619 136.59 182.061 136.74 181.701 137.04C181.353 137.34 181.179 137.736 181.179 138.228C181.179 138.66 181.341 139.014 181.665 139.29C181.989 139.566 182.421 139.704 182.961 139.704ZM193.402 141.288C192.574 141.288 191.824 141.084 191.152 140.676C190.48 140.256 189.952 139.674 189.568 138.93C189.184 138.186 188.992 137.346 188.992 136.41C188.992 135.474 189.184 134.64 189.568 133.908C189.952 133.164 190.48 132.582 191.152 132.162C191.824 131.742 192.574 131.532 193.402 131.532C194.074 131.532 194.668 131.682 195.184 131.982C195.7 132.27 196.09 132.63 196.354 133.062H196.462L196.354 131.784V128.112H198.28V141H196.462V139.776H196.354C196.09 140.196 195.7 140.556 195.184 140.856C194.668 141.144 194.074 141.288 193.402 141.288ZM193.69 139.506C194.17 139.506 194.62 139.38 195.04 139.128C195.472 138.864 195.814 138.498 196.066 138.03C196.33 137.562 196.462 137.022 196.462 136.41C196.462 135.798 196.33 135.258 196.066 134.79C195.814 134.322 195.472 133.962 195.04 133.71C194.62 133.446 194.17 133.314 193.69 133.314C193.21 133.314 192.754 133.446 192.322 133.71C191.902 133.962 191.56 134.322 191.296 134.79C191.044 135.258 190.918 135.798 190.918 136.41C190.918 137.022 191.044 137.562 191.296 138.03C191.56 138.498 191.902 138.864 192.322 139.128C192.754 139.38 193.21 139.506 193.69 139.506ZM204.676 141.288C203.788 141.288 202.984 141.078 202.264 140.658C201.556 140.238 200.998 139.662 200.59 138.93C200.194 138.186 199.996 137.352 199.996 136.428C199.996 135.552 200.188 134.742 200.572 133.998C200.968 133.242 201.514 132.642 202.21 132.198C202.906 131.754 203.692 131.532 204.568 131.532C205.492 131.532 206.29 131.736 206.962 132.144C207.634 132.54 208.144 133.092 208.492 133.8C208.852 134.508 209.032 135.312 209.032 136.212C209.032 136.452 209.02 136.656 208.996 136.824H201.904C201.988 137.7 202.3 138.378 202.84 138.858C203.38 139.326 204.01 139.56 204.73 139.56C205.318 139.56 205.822 139.428 206.242 139.164C206.662 138.888 206.998 138.528 207.25 138.084L208.852 138.858C208.432 139.614 207.874 140.208 207.178 140.64C206.482 141.072 205.648 141.288 204.676 141.288ZM207.106 135.366C207.082 135.03 206.974 134.694 206.782 134.358C206.59 134.022 206.308 133.746 205.936 133.53C205.576 133.302 205.126 133.188 204.586 133.188C203.938 133.188 203.386 133.386 202.93 133.782C202.486 134.178 202.18 134.706 202.012 135.366H207.106ZM210.835 131.82H212.671V133.08H212.779C213.055 132.624 213.445 132.252 213.949 131.964C214.453 131.676 215.005 131.532 215.605 131.532C216.265 131.532 216.835 131.688 217.315 132C217.807 132.312 218.161 132.726 218.377 133.242C218.701 132.726 219.121 132.312 219.637 132C220.165 131.688 220.783 131.532 221.491 131.532C222.547 131.532 223.345 131.856 223.885 132.504C224.425 133.14 224.695 134.01 224.695 135.114V141H222.769V135.438C222.769 134.022 222.169 133.314 220.969 133.314C220.309 133.314 219.769 133.578 219.349 134.106C218.941 134.634 218.737 135.294 218.737 136.086V141H216.811V135.438C216.811 134.022 216.193 133.314 214.957 133.314C214.321 133.314 213.799 133.584 213.391 134.124C212.983 134.652 212.779 135.312 212.779 136.104V141H210.835V131.82ZM228.018 130.47C227.658 130.47 227.346 130.344 227.082 130.092C226.83 129.828 226.704 129.516 226.704 129.156C226.704 128.796 226.83 128.49 227.082 128.238C227.346 127.986 227.658 127.86 228.018 127.86C228.378 127.86 228.684 127.986 228.936 128.238C229.2 128.49 229.332 128.796 229.332 129.156C229.332 129.516 229.2 129.828 228.936 130.092C228.684 130.344 228.378 130.47 228.018 130.47ZM227.046 131.82H228.99V141H227.046V131.82ZM235.562 141.288C234.65 141.288 233.834 141.078 233.114 140.658C232.394 140.238 231.83 139.662 231.422 138.93C231.026 138.186 230.828 137.346 230.828 136.41C230.828 135.474 231.026 134.64 231.422 133.908C231.83 133.164 232.394 132.582 233.114 132.162C233.834 131.742 234.65 131.532 235.562 131.532C236.57 131.532 237.422 131.76 238.118 132.216C238.826 132.66 239.336 133.278 239.648 134.07L237.884 134.79C237.452 133.806 236.666 133.314 235.526 133.314C235.022 133.314 234.554 133.446 234.122 133.71C233.702 133.962 233.366 134.322 233.114 134.79C232.874 135.258 232.754 135.798 232.754 136.41C232.754 137.022 232.874 137.562 233.114 138.03C233.366 138.498 233.702 138.864 234.122 139.128C234.554 139.38 235.022 139.506 235.526 139.506C236.102 139.506 236.594 139.38 237.002 139.128C237.422 138.864 237.746 138.486 237.974 137.994L239.72 138.75C239.36 139.53 238.826 140.148 238.118 140.604C237.41 141.06 236.558 141.288 235.562 141.288ZM40.062 154.82H41.898V156.062H42.006C42.27 155.63 42.66 155.27 43.176 154.982C43.704 154.682 44.298 154.532 44.958 154.532C45.786 154.532 46.536 154.742 47.208 155.162C47.88 155.582 48.408 156.164 48.792 156.908C49.176 157.64 49.368 158.474 49.368 159.41C49.368 160.346 49.176 161.186 48.792 161.93C48.408 162.674 47.88 163.256 47.208 163.676C46.536 164.084 45.786 164.288 44.958 164.288C44.298 164.288 43.704 164.144 43.176 163.856C42.66 163.556 42.27 163.196 42.006 162.776H41.898L42.006 164.054V167.888H40.062V154.82ZM44.67 162.506C45.162 162.506 45.618 162.38 46.038 162.128C46.47 161.864 46.812 161.498 47.064 161.03C47.316 160.562 47.442 160.022 47.442 159.41C47.442 158.798 47.316 158.258 47.064 157.79C46.812 157.322 46.47 156.962 46.038 156.71C45.618 156.446 45.162 156.314 44.67 156.314C44.19 156.314 43.734 156.446 43.302 156.71C42.882 156.962 42.54 157.322 42.276 157.79C42.024 158.258 41.898 158.798 41.898 159.41C41.898 160.022 42.024 160.562 42.276 161.03C42.54 161.498 42.882 161.864 43.302 162.128C43.734 162.38 44.19 162.506 44.67 162.506ZM51.0676 154.82H52.9036V156.17H53.0116C53.2156 155.702 53.5636 155.318 54.0556 155.018C54.5596 154.706 55.0996 154.55 55.6756 154.55C56.0956 154.55 56.4676 154.61 56.7916 154.73V156.746C56.2996 156.53 55.8256 156.422 55.3696 156.422C54.6856 156.422 54.1216 156.686 53.6776 157.214C53.2336 157.742 53.0116 158.384 53.0116 159.14V164H51.0676V154.82ZM62.0673 164.288C61.1433 164.288 60.3153 164.078 59.5833 163.658C58.8513 163.226 58.2813 162.638 57.8733 161.894C57.4653 161.15 57.2613 160.322 57.2613 159.41C57.2613 158.498 57.4653 157.67 57.8733 156.926C58.2813 156.182 58.8513 155.6 59.5833 155.18C60.3153 154.748 61.1433 154.532 62.0673 154.532C62.9793 154.532 63.8013 154.748 64.5333 155.18C65.2653 155.612 65.8353 156.2 66.2433 156.944C66.6513 157.688 66.8553 158.51 66.8553 159.41C66.8553 160.322 66.6513 161.15 66.2433 161.894C65.8353 162.638 65.2653 163.226 64.5333 163.658C63.8133 164.078 62.9913 164.288 62.0673 164.288ZM62.0673 162.506C62.5833 162.506 63.0573 162.38 63.4893 162.128C63.9213 161.876 64.2693 161.516 64.5333 161.048C64.7973 160.58 64.9293 160.034 64.9293 159.41C64.9293 158.786 64.7973 158.24 64.5333 157.772C64.2693 157.304 63.9213 156.944 63.4893 156.692C63.0573 156.44 62.5833 156.314 62.0673 156.314C61.5513 156.314 61.0713 156.44 60.6273 156.692C60.1953 156.944 59.8473 157.304 59.5833 157.772C59.3193 158.24 59.1873 158.786 59.1873 159.41C59.1873 160.034 59.3193 160.58 59.5833 161.048C59.8473 161.516 60.1953 161.876 60.6273 162.128C61.0713 162.38 61.5513 162.506 62.0673 162.506ZM76.23 153.47C75.87 153.47 75.558 153.344 75.294 153.092C75.042 152.828 74.916 152.516 74.916 152.156C74.916 151.796 75.042 151.49 75.294 151.238C75.558 150.986 75.87 150.86 76.23 150.86C76.59 150.86 76.896 150.986 77.148 151.238C77.412 151.49 77.544 151.796 77.544 152.156C77.544 152.516 77.412 152.828 77.148 153.092C76.896 153.344 76.59 153.47 76.23 153.47ZM69.426 156.512H67.752V154.82H69.426V154.064C69.426 153.104 69.72 152.348 70.308 151.796C70.908 151.244 71.664 150.968 72.576 150.968C73.008 150.968 73.398 151.022 73.746 151.13V153.002C73.71 152.99 73.59 152.954 73.386 152.894C73.194 152.822 72.954 152.786 72.666 152.786C72.294 152.786 71.982 152.918 71.73 153.182C71.478 153.434 71.352 153.782 71.352 154.226V154.82H77.202V164H75.258V156.512H71.352V164H69.426V156.512ZM79.6145 151.112H81.5585V164H79.6145V151.112ZM87.9569 164.288C87.0689 164.288 86.2649 164.078 85.5449 163.658C84.8369 163.238 84.2789 162.662 83.8709 161.93C83.4749 161.186 83.2769 160.352 83.2769 159.428C83.2769 158.552 83.4689 157.742 83.8529 156.998C84.2489 156.242 84.7949 155.642 85.4909 155.198C86.1869 154.754 86.9729 154.532 87.8489 154.532C88.7729 154.532 89.5709 154.736 90.2429 155.144C90.9149 155.54 91.4249 156.092 91.7729 156.8C92.1329 157.508 92.3129 158.312 92.3129 159.212C92.3129 159.452 92.3009 159.656 92.2769 159.824H85.1849C85.2689 160.7 85.5809 161.378 86.1209 161.858C86.6609 162.326 87.2909 162.56 88.0109 162.56C88.5989 162.56 89.1029 162.428 89.5229 162.164C89.9429 161.888 90.2789 161.528 90.5309 161.084L92.1329 161.858C91.7129 162.614 91.1549 163.208 90.4589 163.64C89.7629 164.072 88.9289 164.288 87.9569 164.288ZM90.3869 158.366C90.3629 158.03 90.2549 157.694 90.0629 157.358C89.8709 157.022 89.5889 156.746 89.2169 156.53C88.8569 156.302 88.4069 156.188 87.8669 156.188C87.2189 156.188 86.6669 156.386 86.2109 156.782C85.7669 157.178 85.4609 157.706 85.2929 158.366H90.3869Z" fill="black"/>
<g filter="url(#filter1_d_5_798)">
<g clip-path="url(#clip1_5_798)">
<rect x="35" y="43" width="46" height="46" rx="23" fill="white" fill-opacity="0.2" shape-rendering="crispEdges"/>
<g filter="url(#filter2_d_5_798)">
<rect x="38" y="46" width="40" height="40" rx="20" fill="#F3EFFF"/>
<path d="M51.9981 63.8438V57.75C51.9981 57.5511 51.9191 57.3603 51.7784 57.2197C51.6377 57.079 51.447 57 51.2481 57C51.0492 57 50.8584 57.079 50.7177 57.2197C50.5771 57.3603 50.4981 57.5511 50.4981 57.75V63.8438C49.8528 64.009 49.2808 64.3843 48.8723 64.9105C48.4639 65.4367 48.2422 66.0839 48.2422 66.75C48.2422 67.4161 48.4639 68.0633 48.8723 68.5895C49.2808 69.1157 49.8528 69.491 50.4981 69.6562V74.25C50.4981 74.4489 50.5771 74.6397 50.7177 74.7803C50.8584 74.921 51.0492 75 51.2481 75C51.447 75 51.6377 74.921 51.7784 74.7803C51.9191 74.6397 51.9981 74.4489 51.9981 74.25V69.6562C52.6434 69.491 53.2153 69.1157 53.6238 68.5895C54.0323 68.0633 54.254 67.4161 54.254 66.75C54.254 66.0839 54.0323 65.4367 53.6238 64.9105C53.2153 64.3843 52.6434 64.009 51.9981 63.8438ZM51.2481 68.25C50.9514 68.25 50.6614 68.162 50.4147 67.9972C50.168 67.8324 49.9758 67.5981 49.8623 67.324C49.7487 67.0499 49.719 66.7483 49.7769 66.4574C49.8348 66.1664 49.9776 65.8991 50.1874 65.6893C50.3972 65.4796 50.6645 65.3367 50.9554 65.2788C51.2464 65.2209 51.548 65.2506 51.8221 65.3642C52.0962 65.4777 52.3305 65.67 52.4953 65.9166C52.6601 66.1633 52.7481 66.4533 52.7481 66.75C52.7481 67.1478 52.59 67.5294 52.3087 67.8107C52.0274 68.092 51.6459 68.25 51.2481 68.25ZM58.7481 59.3438V57.75C58.7481 57.5511 58.6691 57.3603 58.5284 57.2197C58.3877 57.079 58.197 57 57.9981 57C57.7992 57 57.6084 57.079 57.4677 57.2197C57.3271 57.3603 57.2481 57.5511 57.2481 57.75V59.3438C56.6028 59.509 56.0308 59.8843 55.6223 60.4105C55.2139 60.9367 54.9922 61.5839 54.9922 62.25C54.9922 62.9161 55.2139 63.5633 55.6223 64.0895C56.0308 64.6157 56.6028 64.991 57.2481 65.1562V74.25C57.2481 74.4489 57.3271 74.6397 57.4677 74.7803C57.6084 74.921 57.7992 75 57.9981 75C58.197 75 58.3877 74.921 58.5284 74.7803C58.6691 74.6397 58.7481 74.4489 58.7481 74.25V65.1562C59.3934 64.991 59.9653 64.6157 60.3738 64.0895C60.7823 63.5633 61.004 62.9161 61.004 62.25C61.004 61.5839 60.7823 60.9367 60.3738 60.4105C59.9653 59.8843 59.3934 59.509 58.7481 59.3438ZM57.9981 63.75C57.7014 63.75 57.4114 63.662 57.1647 63.4972C56.918 63.3324 56.7258 63.0981 56.6123 62.824C56.4987 62.5499 56.469 62.2483 56.5269 61.9574C56.5848 61.6664 56.7276 61.3991 56.9374 61.1893C57.1472 60.9796 57.4145 60.8367 57.7054 60.7788C57.9964 60.7209 58.298 60.7506 58.5721 60.8642C58.8462 60.9777 59.0805 61.17 59.2453 61.4166C59.4101 61.6633 59.4981 61.9533 59.4981 62.25C59.4981 62.6478 59.34 63.0294 59.0587 63.3107C58.7774 63.592 58.3959 63.75 57.9981 63.75ZM67.7481 69.75C67.7474 69.0849 67.5262 68.4388 67.1191 67.9129C66.7119 67.387 66.1418 67.011 65.4981 66.8438V57.75C65.4981 57.5511 65.4191 57.3603 65.2784 57.2197C65.1377 57.079 64.947 57 64.7481 57C64.5492 57 64.3584 57.079 64.2177 57.2197C64.0771 57.3603 63.9981 57.5511 63.9981 57.75V66.8438C63.3528 67.009 62.7808 67.3843 62.3723 67.9105C61.9639 68.4367 61.7422 69.0839 61.7422 69.75C61.7422 70.4161 61.9639 71.0633 62.3723 71.5895C62.7808 72.1157 63.3528 72.491 63.9981 72.6562V74.25C63.9981 74.4489 64.0771 74.6397 64.2177 74.7803C64.3584 74.921 64.5492 75 64.7481 75C64.947 75 65.1377 74.921 65.2784 74.7803C65.4191 74.6397 65.4981 74.4489 65.4981 74.25V72.6562C66.1418 72.489 66.7119 72.113 67.1191 71.5871C67.5262 71.0612 67.7474 70.4151 67.7481 69.75ZM64.7481 71.25C64.4514 71.25 64.1614 71.162 63.9147 70.9972C63.668 70.8324 63.4758 70.5981 63.3623 70.324C63.2487 70.0499 63.219 69.7483 63.2769 69.4574C63.3348 69.1664 63.4776 68.8991 63.6874 68.6893C63.8972 68.4796 64.1645 68.3367 64.4554 68.2788C64.7464 68.2209 65.048 68.2506 65.3221 68.3642C65.5962 68.4777 65.8305 68.67 65.9953 68.9166C66.1601 69.1633 66.2481 69.4533 66.2481 69.75C66.2481 70.1478 66.09 70.5294 65.8087 70.8107C65.5274 71.092 65.1459 71.25 64.7481 71.25Z" fill="#603AC8"/>
</g>
</g>
<rect x="35.25" y="43.25" width="45.5" height="45.5" rx="22.75" stroke="#603AC8" stroke-width="0.5" shape-rendering="crispEdges"/>
</g>
</g>
<rect x="18.5" y="18.5" width="240" height="160" rx="7.5" stroke="#603AC8"/>
</g>
<defs>
<filter id="filter0_d_5_798" x="0" y="0" width="277" height="197" filterUnits="userSpaceOnUse" color-interpolation-filters="sRGB">
<feFlood flood-opacity="0" result="BackgroundImageFix"/>
<feColorMatrix in="SourceAlpha" type="matrix" values="0 0 0 0 0 0 0 0 0 0 0 0 0 0 0 0 0 0 127 0" result="hardAlpha"/>
<feOffset/>
<feGaussianBlur stdDeviation="9"/>
<feComposite in2="hardAlpha" operator="out"/>
<feColorMatrix type="matrix" values="0 0 0 0 0 0 0 0 0 0 0 0 0 0 0 0 0 0 0.08 0"/>
<feBlend mode="normal" in2="BackgroundImageFix" result="effect1_dropShadow_5_798"/>
<feBlend mode="normal" in="SourceGraphic" in2="effect1_dropShadow_5_798" result="shape"/>
</filter>
<filter id="filter1_d_5_798" x="31" y="39" width="54" height="54" filterUnits="userSpaceOnUse" color-interpolation-filters="sRGB">
<feFlood flood-opacity="0" result="BackgroundImageFix"/>
<feColorMatrix in="SourceAlpha" type="matrix" values="0 0 0 0 0 0 0 0 0 0 0 0 0 0 0 0 0 0 127 0" result="hardAlpha"/>
<feOffset/>
<feGaussianBlur stdDeviation="2"/>
<feComposite in2="hardAlpha" operator="out"/>
<feColorMatrix type="matrix" values="0 0 0 0 0.376471 0 0 0 0 0.227451 0 0 0 0 0.784314 0 0 0 0.08 0"/>
<feBlend mode="normal" in2="BackgroundImageFix" result="effect1_dropShadow_5_798"/>
<feBlend mode="normal" in="SourceGraphic" in2="effect1_dropShadow_5_798" result="shape"/>
</filter>
<filter id="filter2_d_5_798" x="26" y="34" width="64" height="64" filterUnits="userSpaceOnUse" color-interpolation-filters="sRGB">
<feFlood flood-opacity="0" result="BackgroundImageFix"/>
<feColorMatrix in="SourceAlpha" type="matrix" values="0 0 0 0 0 0 0 0 0 0 0 0 0 0 0 0 0 0 127 0" result="hardAlpha"/>
<feOffset/>
<feGaussianBlur stdDeviation="6"/>
<feComposite in2="hardAlpha" operator="out"/>
<feColorMatrix type="matrix" values="0 0 0 0 0 0 0 0 0 0 0 0 0 0 0 0 0 0 0.15 0"/>
<feBlend mode="normal" in2="BackgroundImageFix" result="effect1_dropShadow_5_798"/>
<feBlend mode="normal" in="SourceGraphic" in2="effect1_dropShadow_5_798" result="shape"/>
</filter>
<clipPath id="clip0_5_798">
<rect x="18" y="18" width="241" height="161" rx="8" fill="white"/>
</clipPath>
<clipPath id="clip1_5_798">
<rect x="35" y="43" width="46" height="46" rx="23" fill="white"/>
</clipPath>
</defs>
</svg>
