<svg width="24" height="24" viewBox="0 0 24 24" fill="none" xmlns="http://www.w3.org/2000/svg">
<path d="M18.707 12.7074C18.8945 12.5199 18.9998 12.2656 18.9998 12.0004C18.9998 11.7352 18.8945 11.4809 18.707 11.2934L13.707 6.29341C13.5184 6.11125 13.2658 6.01045 13.0036 6.01273C12.7414 6.01501 12.4906 6.12018 12.3052 6.30559C12.1198 6.491 12.0146 6.74181 12.0123 7.00401C12.01 7.2662 12.1108 7.5188 12.293 7.70741L15.586 11.0004H4C3.73478 11.0004 3.48043 11.1058 3.29289 11.2933C3.10536 11.4808 3 11.7352 3 12.0004C3 12.2656 3.10536 12.52 3.29289 12.7075C3.48043 12.8951 3.73478 13.0004 4 13.0004H15.586L12.293 16.2934C12.1108 16.482 12.01 16.7346 12.0123 16.9968C12.0146 17.259 12.1198 17.5098 12.3052 17.6952C12.4906 17.8806 12.7414 17.9858 13.0036 17.9881C13.2658 17.9904 13.5184 17.8896 13.707 17.7074L18.707 12.7074Z" fill="white"/>
</svg>
