<svg width="16" height="9" viewBox="0 0 16 9" fill="none" xmlns="http://www.w3.org/2000/svg">
<path d="M8.00035 6.51318L2.36932 0.881395L2.36931 0.881383C2.20515 0.717223 1.9825 0.625 1.75035 0.625C1.51819 0.625 1.29554 0.717223 1.13138 0.881383C0.967224 1.04554 0.875 1.26819 0.875 1.50035C0.875 1.7325 0.967224 1.95515 1.13138 2.11931L7.38128 8.36921L7.38138 8.36931L7.55816 8.19254C7.61621 8.25065 7.68514 8.29675 7.76101 8.3282C7.83688 8.35965 7.91821 8.37584 8.00035 8.37584C8.08248 8.37584 8.16381 8.35965 8.23969 8.3282C8.31556 8.29675 8.38449 8.25065 8.44254 8.19254M8.00035 6.51318L8.61931 8.36931L8.44254 8.19254M8.00035 6.51318L13.6314 0.881395L13.6314 0.881384C13.7127 0.800099 13.8092 0.735622 13.9154 0.691632C14.0216 0.647641 14.1354 0.625 14.2503 0.625C14.3653 0.625 14.4791 0.647641 14.5853 0.691632C14.6915 0.735622 14.788 0.800099 14.8693 0.881384V0.881384M8.00035 6.51318L14.8693 0.881382L14.6928 1.05794L14.8693 0.881384M8.44254 8.19254L8.61941 8.36921M8.44254 8.19254L14.6925 1.94254C14.7506 1.88447 14.7967 1.81553 14.8281 1.73966C14.8595 1.66379 14.8757 1.58247 14.8757 1.50035C14.8757 1.41823 14.8595 1.33691 14.8281 1.26104C14.7967 1.18517 14.7506 1.11623 14.6925 1.05816C14.6345 1.00009 14.5655 0.954028 14.4897 0.922601C14.4138 0.891175 14.3325 0.875 14.2503 0.875C14.1682 0.875 14.0869 0.891175 14.011 0.922601C13.9352 0.954028 13.8662 1.00009 13.8082 1.05816L8.61941 8.36921M8.61941 8.36921L14.8693 2.11931C14.9506 2.03803 15.0151 1.94153 15.0591 1.83533C15.1031 1.72913 15.1257 1.6153 15.1257 1.50035C15.1257 1.38539 15.1031 1.27157 15.0591 1.16537C15.0151 1.05917 14.9506 0.962668 14.8693 0.881384M8.61941 8.36921L14.8693 0.881384" fill="#31225C" stroke="#31225C" stroke-width="0.5"/>
</svg>
