<svg width="26" height="26" viewBox="0 0 26 26" fill="none" xmlns="http://www.w3.org/2000/svg">
<path d="M23.426 14.5107L13.7354 7.14577C13.0084 6.59331 11.9996 6.60328 11.2838 7.17L1.98075 14.5349C0.969288 15.3357 0.969288 16.8704 1.98075 17.6711L11.2838 25.036C11.9996 25.6027 13.0084 25.6127 13.7354 25.0602L23.426 17.6953C24.4791 16.895 24.4791 15.311 23.426 14.5107Z" fill="#628CEA"/>
<path d="M23.426 11.5107L13.7354 4.14577C13.0084 3.59331 11.9996 3.60328 11.2838 4.17L1.98075 11.5349C0.969288 12.3357 0.969288 13.8704 1.98075 14.6711L11.2838 22.036C11.9996 22.6027 13.0084 22.6127 13.7354 22.0602L23.426 14.6953C24.4791 13.895 24.4791 12.311 23.426 11.5107Z" fill="#4272DD"/>
<path d="M23.426 8.30365L13.7354 0.938741C13.0084 0.386279 11.9996 0.39625 11.2838 0.962973L1.98075 8.32788C0.969288 9.12862 0.969288 10.6633 1.98075 11.4641L11.2838 18.829C11.9996 19.3957 13.0084 19.4057 13.7354 18.8532L23.426 11.4883C24.4791 10.6879 24.4791 9.10401 23.426 8.30365Z" fill="#113B98"/>
</svg>
