<svg width="52" height="43" viewBox="0 0 52 43" fill="none" xmlns="http://www.w3.org/2000/svg">
<path d="M49.2349 42.8656C48.4835 42.8656 47.7479 42.4916 47.3167 41.8093C42.6615 34.4438 34.6925 30.047 25.9998 30.047C17.3072 30.047 9.33815 34.4443 4.68298 41.8099C4.01432 42.8678 2.61465 43.1852 1.55612 42.5148C0.498149 41.8461 0.182516 40.4465 0.851182 39.3879C6.34162 30.7004 15.7432 25.5137 25.9998 25.5137C36.256 25.5137 45.6581 30.7004 51.1485 39.3879C51.8177 40.4459 51.5021 41.8461 50.4436 42.5148C50.0679 42.7522 49.6491 42.8656 49.2349 42.8656Z" fill="#EF0000"/>
<path d="M10.8954 10.9468C13.881 10.9468 16.3014 8.52642 16.3014 5.54077C16.3014 2.55511 13.881 0.134766 10.8954 0.134766C7.90973 0.134766 5.48938 2.55511 5.48938 5.54077C5.48938 8.52642 7.90973 10.9468 10.8954 10.9468Z" fill="#EF0000"/>
<path d="M41.1044 10.9468C44.09 10.9468 46.5104 8.52642 46.5104 5.54077C46.5104 2.55511 44.09 0.134766 41.1044 0.134766C38.1187 0.134766 35.6984 2.55511 35.6984 5.54077C35.6984 8.52642 38.1187 10.9468 41.1044 10.9468Z" fill="#EF0000"/>
</svg>
