<svg width="26" height="25" viewBox="0 0 26 25" fill="none" xmlns="http://www.w3.org/2000/svg">
<path d="M23.426 13.5107L13.7354 6.14577C13.0084 5.59331 11.9996 5.60328 11.2838 6.17L1.98075 13.5349C0.969288 14.3357 0.969288 15.8704 1.98075 16.6711L11.2838 24.036C11.9996 24.6027 13.0084 24.6127 13.7354 24.0602L23.426 16.6953C24.4791 15.895 24.4791 14.311 23.426 13.5107Z" fill="#4272DD"/>
<path d="M23.426 8.30365L13.7354 0.938741C13.0084 0.386279 11.9996 0.39625 11.2838 0.962973L1.98075 8.32788C0.969288 9.12862 0.969288 10.6633 1.98075 11.4641L11.2838 18.829C11.9996 19.3957 13.0084 19.4057 13.7354 18.8532L23.426 11.4883C24.4791 10.6879 24.4791 9.10401 23.426 8.30365Z" fill="#113B98"/>
</svg>
