<svg width="52" height="51" viewBox="0 0 52 51" fill="none" xmlns="http://www.w3.org/2000/svg">
<path opacity="0.2" d="M12.232 30.8572L20.643 39.2682L10.5566 42.9338C10.2785 43.0361 9.97691 43.0566 9.68754 42.993C9.39816 42.9293 9.13305 42.7841 8.92354 42.5746C8.71403 42.3651 8.56887 42.1 8.50522 41.8106C8.44158 41.5213 8.4621 41.2197 8.56436 40.9416L12.232 30.8572ZM39.8875 29.9169L21.5833 11.6126C21.3987 11.4281 21.1706 11.2931 20.9199 11.2201C20.6693 11.1471 20.4043 11.1385 20.1495 11.1951C19.8947 11.2517 19.6583 11.3717 19.4621 11.5439C19.266 11.7161 19.1164 11.9351 19.0273 12.1804L16.059 20.3484L31.1637 35.4531L39.3317 32.4848C39.5784 32.3952 39.7984 32.2445 39.971 32.0468C40.1437 31.8491 40.2634 31.6109 40.3189 31.3543C40.3744 31.0978 40.364 30.8314 40.2885 30.58C40.2131 30.3286 40.0751 30.1004 39.8875 29.9169Z" fill="#2FAF47"/>
<path d="M22.7109 10.4849C22.3366 10.1115 21.8743 9.8385 21.3666 9.69095C20.8589 9.5434 20.3223 9.5261 19.8061 9.64064C19.29 9.75518 18.8111 9.99787 18.4135 10.3463C18.0159 10.6948 17.7125 11.1377 17.5312 11.6344L7.07422 40.3976C6.90243 40.8719 6.84694 41.3805 6.91241 41.8807C6.97787 42.3809 7.16238 42.8581 7.45044 43.2722C7.7385 43.6864 8.12171 44.0254 8.5679 44.2608C9.01409 44.4961 9.51023 44.6211 10.0147 44.625C10.3861 44.6225 10.7542 44.5551 11.1024 44.4258L39.8636 33.9668C40.3604 33.7858 40.8036 33.4825 41.1523 33.085C41.5009 32.6875 41.7438 32.2086 41.8586 31.6925C41.9733 31.1763 41.9562 30.6396 41.8088 30.1318C41.6614 29.624 41.3884 29.1616 41.0151 28.7871L22.7109 10.4849ZM21.0514 37.4212L14.0787 30.4486L16.7005 23.2349L28.2651 34.7995L21.0514 37.4212ZM10.0944 41.4056L12.8834 33.7536L17.7543 38.6245L10.0944 41.4056ZM31.5781 33.5962L17.9037 19.9219L20.4936 12.7759L38.7082 30.9905L31.5781 33.5962ZM32.375 14.3438C32.4049 13.2663 32.6658 12.2079 33.14 11.2399C34.1959 9.1302 36.188 7.96875 38.75 7.96875C40.0848 7.96875 40.9414 7.51254 41.4693 6.53238C41.7473 5.98403 41.9068 5.38332 41.9375 4.7693C41.9391 4.34661 42.1085 3.94186 42.4085 3.6441C42.7085 3.34633 43.1145 3.17994 43.5372 3.18152C43.9599 3.18311 44.3647 3.35254 44.6624 3.65255C44.9602 3.95255 45.1266 4.35856 45.125 4.78125C45.125 7.3432 43.4277 11.1562 38.75 11.1562C37.4152 11.1562 36.5586 11.6125 36.0307 12.5926C35.7527 13.141 35.5932 13.7417 35.5625 14.3557C35.5617 14.565 35.5197 14.7721 35.4389 14.9652C35.3581 15.1582 35.24 15.3335 35.0915 15.4809C34.9429 15.6283 34.7668 15.7451 34.5731 15.8244C34.3795 15.9038 34.1721 15.9443 33.9628 15.9435C33.7535 15.9427 33.5464 15.9007 33.3533 15.8199C33.1603 15.7391 32.985 15.621 32.8376 15.4725C32.6901 15.3239 32.5734 15.1478 32.494 14.9541C32.4147 14.7604 32.3742 14.553 32.375 14.3438ZM27.5937 7.96875V3.1875C27.5937 2.76481 27.7617 2.35943 28.0605 2.06055C28.3594 1.76166 28.7648 1.59375 29.1875 1.59375C29.6102 1.59375 30.0156 1.76166 30.3144 2.06055C30.6133 2.35943 30.7812 2.76481 30.7812 3.1875V7.96875C30.7812 8.39144 30.6133 8.79681 30.3144 9.0957C30.0156 9.39459 29.6102 9.5625 29.1875 9.5625C28.7648 9.5625 28.3594 9.39459 28.0605 9.0957C27.7617 8.79681 27.5937 8.39144 27.5937 7.96875ZM47.8463 24.3724C47.9943 24.5205 48.1116 24.6963 48.1916 24.8897C48.2716 25.0831 48.3128 25.2904 48.3127 25.4997C48.3126 25.709 48.2713 25.9163 48.1911 26.1096C48.1109 26.303 47.9934 26.4786 47.8453 26.6266C47.6973 26.7745 47.5215 26.8919 47.3281 26.9719C47.1346 27.0519 46.9274 27.093 46.718 27.0929C46.5087 27.0928 46.3015 27.0515 46.1081 26.9713C45.9148 26.8911 45.7391 26.7737 45.5912 26.6256L42.4037 23.4381C42.1046 23.139 41.9366 22.7334 41.9366 22.3105C41.9366 21.8876 42.1046 21.482 42.4037 21.1829C42.7027 20.8839 43.1083 20.7159 43.5312 20.7159C43.9542 20.7159 44.3598 20.8839 44.6588 21.1829L47.8463 24.3724ZM48.8165 15.8558L44.0353 17.4496C43.6342 17.5832 43.1965 17.5521 42.8184 17.3631C42.4404 17.174 42.1529 16.8425 42.0192 16.4415C41.8855 16.0405 41.9166 15.6028 42.1057 15.2247C42.2947 14.8466 42.6262 14.5591 43.0272 14.4254L47.8085 12.8317C48.2095 12.698 48.6472 12.7291 49.0253 12.9182C49.4034 13.1072 49.6909 13.4387 49.8246 13.8397C49.9582 14.2408 49.9271 14.6785 49.7381 15.0565C49.549 15.4346 49.2175 15.7221 48.8165 15.8558Z" fill="#2FAF47"/>
</svg>
