<svg width="18" height="18" viewBox="0 0 18 18" fill="none" xmlns="http://www.w3.org/2000/svg">
<rect width="18" height="18" rx="9" fill="#BEBEBE"/>
<path d="M13.2473 12.6282C13.2879 12.6689 13.3202 12.7171 13.3422 12.7702C13.3642 12.8233 13.3755 12.8803 13.3755 12.9377C13.3755 12.9952 13.3642 13.0522 13.3422 13.1053C13.3202 13.1584 13.2879 13.2066 13.2473 13.2473C13.2066 13.2879 13.1584 13.3202 13.1053 13.3422C13.0522 13.3642 12.9952 13.3755 12.9377 13.3755C12.8803 13.3755 12.8233 13.3642 12.7702 13.3422C12.7171 13.3202 12.6689 13.2879 12.6282 13.2473L9.00024 9.61876L5.37227 13.2473C5.29018 13.3294 5.17884 13.3755 5.06274 13.3755C4.94665 13.3755 4.8353 13.3294 4.75321 13.2473C4.67112 13.1652 4.625 13.0538 4.625 12.9377C4.625 12.8216 4.67112 12.7103 4.75321 12.6282L8.38173 9.00024L4.75321 5.37227C4.67112 5.29018 4.625 5.17884 4.625 5.06274C4.625 4.94665 4.67112 4.8353 4.75321 4.75321C4.8353 4.67112 4.94665 4.625 5.06274 4.625C5.17884 4.625 5.29018 4.67112 5.37227 4.75321L9.00024 8.38173L12.6282 4.75321C12.7103 4.67112 12.8216 4.625 12.9377 4.625C13.0538 4.625 13.1652 4.67112 13.2473 4.75321C13.3294 4.8353 13.3755 4.94665 13.3755 5.06274C13.3755 5.17884 13.3294 5.29018 13.2473 5.37227L9.61876 9.00024L13.2473 12.6282Z" fill="white"/>
</svg>
