<svg width="18" height="18" viewBox="0 0 18 18" fill="none" xmlns="http://www.w3.org/2000/svg">
<path d="M16.875 14.3437H16.0312V6.74998C16.0312 6.37702 15.8831 6.01933 15.6194 5.75561C15.3556 5.49189 14.998 5.34373 14.625 5.34373H12.0938V2.24998C12.0937 2.01358 12.034 1.78103 11.9202 1.5738C11.8065 1.36658 11.6423 1.19137 11.4429 1.06438C11.2436 0.937391 11.0154 0.862713 10.7795 0.84725C10.5436 0.831788 10.3076 0.87604 10.0934 0.975916L2.78086 4.38888C2.5385 4.50242 2.33344 4.68258 2.18964 4.9083C2.04583 5.13403 1.96922 5.39601 1.96875 5.66365V14.3437H1.125C0.901224 14.3437 0.686612 14.4326 0.528379 14.5909C0.370145 14.7491 0.28125 14.9637 0.28125 15.1875C0.28125 15.4113 0.370145 15.6259 0.528379 15.7841C0.686612 15.9423 0.901224 16.0312 1.125 16.0312H16.875C17.0988 16.0312 17.3134 15.9423 17.4716 15.7841C17.6299 15.6259 17.7188 15.4113 17.7188 15.1875C17.7188 14.9637 17.6299 14.7491 17.4716 14.5909C17.3134 14.4326 17.0988 14.3437 16.875 14.3437ZM14.3438 7.03123V14.3437H12.0938V7.03123H14.3438ZM3.65625 5.84224L10.4062 2.69295V14.3437H3.65625V5.84224ZM9.28125 7.87498V8.71873C9.28125 8.9425 9.19236 9.15711 9.03412 9.31535C8.87589 9.47358 8.66128 9.56248 8.4375 9.56248C8.21372 9.56248 7.99911 9.47358 7.84088 9.31535C7.68264 9.15711 7.59375 8.9425 7.59375 8.71873V7.87498C7.59375 7.6512 7.68264 7.43659 7.84088 7.27836C7.99911 7.12012 8.21372 7.03123 8.4375 7.03123C8.66128 7.03123 8.87589 7.12012 9.03412 7.27836C9.19236 7.43659 9.28125 7.6512 9.28125 7.87498ZM6.46875 7.87498V8.71873C6.46875 8.9425 6.37986 9.15711 6.22162 9.31535C6.06339 9.47358 5.84878 9.56248 5.625 9.56248C5.40122 9.56248 5.18661 9.47358 5.02838 9.31535C4.87014 9.15711 4.78125 8.9425 4.78125 8.71873V7.87498C4.78125 7.6512 4.87014 7.43659 5.02838 7.27836C5.18661 7.12012 5.40122 7.03123 5.625 7.03123C5.84878 7.03123 6.06339 7.12012 6.22162 7.27836C6.37986 7.43659 6.46875 7.6512 6.46875 7.87498ZM6.46875 11.5312V12.375C6.46875 12.5988 6.37986 12.8134 6.22162 12.9716C6.06339 13.1298 5.84878 13.2187 5.625 13.2187C5.40122 13.2187 5.18661 13.1298 5.02838 12.9716C4.87014 12.8134 4.78125 12.5988 4.78125 12.375V11.5312C4.78125 11.3075 4.87014 11.0928 5.02838 10.9346C5.18661 10.7764 5.40122 10.6875 5.625 10.6875C5.84878 10.6875 6.06339 10.7764 6.22162 10.9346C6.37986 11.0928 6.46875 11.3075 6.46875 11.5312ZM9.28125 11.5312V12.375C9.28125 12.5988 9.19236 12.8134 9.03412 12.9716C8.87589 13.1298 8.66128 13.2187 8.4375 13.2187C8.21372 13.2187 7.99911 13.1298 7.84088 12.9716C7.68264 12.8134 7.59375 12.5988 7.59375 12.375V11.5312C7.59375 11.3075 7.68264 11.0928 7.84088 10.9346C7.99911 10.7764 8.21372 10.6875 8.4375 10.6875C8.66128 10.6875 8.87589 10.7764 9.03412 10.9346C9.19236 11.0928 9.28125 11.3075 9.28125 11.5312Z" fill="#31225C"/>
</svg>
