<svg width="20" height="20" viewBox="0 0 20 20" fill="none" xmlns="http://www.w3.org/2000/svg">
<path d="M19.5159 6.67879L10.4534 1.67879C10.3146 1.60219 10.1587 1.56201 10.0002 1.56201C9.84175 1.56201 9.68585 1.60219 9.54711 1.67879L0.484611 6.67879C0.338079 6.75986 0.215938 6.87871 0.130886 7.02297C0.0458342 7.16723 0.000976562 7.33164 0.000976563 7.4991C0.000976562 7.66657 0.0458342 7.83098 0.130886 7.97524C0.215938 8.1195 0.338079 8.23834 0.484611 8.31942L2.18774 9.25692V12.9882C2.18712 13.3723 2.32878 13.743 2.58539 14.0288C3.6432 15.2108 6.01586 17.1874 10.0002 17.1874C11.0584 17.1931 12.1115 17.0417 13.1252 16.7382V18.7499C13.1252 18.9985 13.224 19.237 13.3998 19.4128C13.5756 19.5886 13.8141 19.6874 14.0627 19.6874C14.3114 19.6874 14.5498 19.5886 14.7256 19.4128C14.9015 19.237 15.0002 18.9985 15.0002 18.7499V15.9468C15.9057 15.4466 16.7217 14.7995 17.4151 14.0319C17.6717 13.7461 17.8134 13.3754 17.8127 12.9913V9.26004L19.5159 8.32254C19.6624 8.24147 19.7845 8.12262 19.8696 7.97836C19.9546 7.8341 19.9995 7.66969 19.9995 7.50223C19.9995 7.33476 19.9546 7.17035 19.8696 7.02609C19.7845 6.88183 19.6624 6.76299 19.5159 6.68192V6.67879ZM10.0002 3.57098L17.1221 7.49988L14.5315 8.92957C14.5266 8.92672 14.5219 8.92359 14.5174 8.9202L10.4549 6.67879C10.238 6.56669 9.98595 6.54363 9.75231 6.61451C9.51868 6.68539 9.32191 6.84462 9.20385 7.05833C9.0858 7.27205 9.05578 7.52339 9.12017 7.7589C9.18457 7.99441 9.3383 8.1955 9.54867 8.31942L12.5955 9.99832L10.0002 11.4296L2.87836 7.49988L10.0002 3.57098ZM10.0002 15.3124C6.84242 15.3124 4.94945 13.8225 4.06274 12.8694V10.2913L9.54711 13.3179C9.68585 13.3945 9.84175 13.4346 10.0002 13.4346C10.1587 13.4346 10.3146 13.3945 10.4534 13.3179L13.1252 11.8468V14.7554C12.127 15.1327 11.0674 15.3215 10.0002 15.3124ZM15.9377 12.8694C15.6503 13.1775 15.3366 13.4601 15.0002 13.7139V10.8116L15.9377 10.2944V12.8694Z" fill="#31225C"/>
</svg>
