<svg width="277" height="197" viewBox="0 0 277 197" fill="none" xmlns="http://www.w3.org/2000/svg">
<g filter="url(#filter0_d_5_784)">
<g clip-path="url(#clip0_5_784)">
<path d="M18 26C18 21.5817 21.5817 18 26 18H251C255.418 18 259 21.5817 259 26V171C259 175.418 255.418 179 251 179H26C21.5817 179 18 175.418 18 171V26Z" fill="white"/>
<path d="M52.312 121.544H56.792C57.432 121.544 58.0187 121.677 58.552 121.944C59.096 122.211 59.5227 122.573 59.832 123.032C60.1413 123.491 60.296 123.992 60.296 124.536C60.296 125.112 60.152 125.613 59.864 126.04C59.5867 126.456 59.2187 126.776 58.76 127V127.128C59.3573 127.341 59.832 127.683 60.184 128.152C60.536 128.611 60.712 129.165 60.712 129.816C60.712 130.445 60.5413 131.005 60.2 131.496C59.8693 131.976 59.416 132.349 58.84 132.616C58.2747 132.872 57.6453 133 56.952 133H52.312V121.544ZM56.632 126.216C57.1013 126.216 57.4747 126.088 57.752 125.832C58.04 125.565 58.184 125.235 58.184 124.84C58.184 124.456 58.0453 124.136 57.768 123.88C57.5013 123.613 57.144 123.48 56.696 123.48H54.472V126.216H56.632ZM56.872 131.032C57.3947 131.032 57.8 130.899 58.088 130.632C58.3867 130.355 58.536 129.997 58.536 129.56C58.536 129.123 58.3867 128.765 58.088 128.488C57.7893 128.211 57.3627 128.072 56.808 128.072H54.472V131.032H56.872ZM66.2874 133.256C65.4447 133.256 64.6927 133.069 64.0314 132.696C63.37 132.312 62.8527 131.795 62.4794 131.144C62.1167 130.483 61.9354 129.741 61.9354 128.92C61.9354 128.109 62.1167 127.373 62.4794 126.712C62.8527 126.051 63.37 125.533 64.0314 125.16C64.6927 124.776 65.4447 124.584 66.2874 124.584C67.1194 124.584 67.866 124.776 68.5274 125.16C69.1887 125.533 69.7007 126.051 70.0634 126.712C70.4367 127.373 70.6234 128.109 70.6234 128.92C70.6234 129.741 70.4367 130.483 70.0634 131.144C69.7007 131.795 69.1887 132.312 68.5274 132.696C67.866 133.069 67.1194 133.256 66.2874 133.256ZM66.2874 131.32C66.6927 131.32 67.066 131.224 67.4074 131.032C67.7487 130.84 68.0207 130.563 68.2234 130.2C68.426 129.837 68.5274 129.411 68.5274 128.92C68.5274 128.44 68.426 128.019 68.2234 127.656C68.0207 127.293 67.7487 127.016 67.4074 126.824C67.066 126.632 66.6927 126.536 66.2874 126.536C65.882 126.536 65.5087 126.632 65.1674 126.824C64.826 127.016 64.5487 127.293 64.3354 127.656C64.1327 128.019 64.0314 128.44 64.0314 128.92C64.0314 129.4 64.1327 129.827 64.3354 130.2C64.5487 130.563 64.826 130.84 65.1674 131.032C65.5087 131.224 65.882 131.32 66.2874 131.32ZM76.1311 133.256C75.2885 133.256 74.5365 133.069 73.8751 132.696C73.2138 132.312 72.6965 131.795 72.3231 131.144C71.9605 130.483 71.7791 129.741 71.7791 128.92C71.7791 128.109 71.9605 127.373 72.3231 126.712C72.6965 126.051 73.2138 125.533 73.8751 125.16C74.5365 124.776 75.2885 124.584 76.1311 124.584C76.9631 124.584 77.7098 124.776 78.3711 125.16C79.0325 125.533 79.5445 126.051 79.9071 126.712C80.2805 127.373 80.4671 128.109 80.4671 128.92C80.4671 129.741 80.2805 130.483 79.9071 131.144C79.5445 131.795 79.0325 132.312 78.3711 132.696C77.7098 133.069 76.9631 133.256 76.1311 133.256ZM76.1311 131.32C76.5365 131.32 76.9098 131.224 77.2511 131.032C77.5925 130.84 77.8645 130.563 78.0671 130.2C78.2698 129.837 78.3711 129.411 78.3711 128.92C78.3711 128.44 78.2698 128.019 78.0671 127.656C77.8645 127.293 77.5925 127.016 77.2511 126.824C76.9098 126.632 76.5365 126.536 76.1311 126.536C75.7258 126.536 75.3525 126.632 75.0111 126.824C74.6698 127.016 74.3925 127.293 74.1791 127.656C73.9765 128.019 73.8751 128.44 73.8751 128.92C73.8751 129.4 73.9765 129.827 74.1791 130.2C74.3925 130.563 74.6698 130.84 75.0111 131.032C75.3525 131.224 75.7258 131.32 76.1311 131.32ZM85.0968 133.256C84.1048 133.256 83.2994 133.053 82.6808 132.648C82.0728 132.243 81.6461 131.715 81.4008 131.064L83.2728 130.248C83.4434 130.632 83.6834 130.925 83.9928 131.128C84.3128 131.32 84.6808 131.416 85.0968 131.416C85.4808 131.416 85.8008 131.357 86.0568 131.24C86.3128 131.112 86.4408 130.909 86.4408 130.632C86.4408 130.365 86.3234 130.168 86.0888 130.04C85.8541 129.901 85.5021 129.779 85.0328 129.672L84.0728 129.464C83.4114 129.304 82.8621 129.016 82.4248 128.6C81.9874 128.173 81.7688 127.645 81.7688 127.016C81.7688 126.547 81.9074 126.125 82.1848 125.752C82.4728 125.379 82.8568 125.091 83.3368 124.888C83.8274 124.685 84.3661 124.584 84.9528 124.584C86.6381 124.584 87.7634 125.176 88.3288 126.36L86.5368 127.144C86.2168 126.568 85.7048 126.28 85.0008 126.28C84.6381 126.28 84.3501 126.349 84.1368 126.488C83.9234 126.616 83.8168 126.781 83.8168 126.984C83.8168 127.368 84.1794 127.656 84.9048 127.848L86.1048 128.136C86.9154 128.339 87.5234 128.648 87.9288 129.064C88.3448 129.48 88.5528 129.992 88.5528 130.6C88.5528 131.123 88.3981 131.587 88.0888 131.992C87.7901 132.387 87.3741 132.696 86.8408 132.92C86.3181 133.144 85.7368 133.256 85.0968 133.256ZM93.5448 133.128C93.1394 133.128 92.7661 133.069 92.4248 132.952C92.0834 132.824 91.8061 132.653 91.5928 132.44C91.0914 131.96 90.8408 131.277 90.8408 130.392V126.632H89.4168V124.84H90.8408V122.536H92.9368V124.84H94.9368V126.632H92.9368V130.008C92.9368 130.424 93.0274 130.723 93.2088 130.904C93.3581 131.075 93.6141 131.16 93.9768 131.16C94.1794 131.16 94.3448 131.133 94.4728 131.08C94.6114 131.027 94.7874 130.936 95.0008 130.808V132.856C94.5421 133.037 94.0568 133.128 93.5448 133.128ZM104.27 133.256C103.449 133.256 102.713 133.075 102.062 132.712C101.412 132.339 100.9 131.821 100.526 131.16C100.164 130.499 99.9823 129.752 99.9823 128.92C99.9823 128.088 100.164 127.347 100.526 126.696C100.9 126.035 101.412 125.517 102.062 125.144C102.713 124.771 103.449 124.584 104.27 124.584C105.177 124.584 105.956 124.781 106.606 125.176C107.257 125.56 107.726 126.109 108.014 126.824L106.094 127.624C105.753 126.899 105.145 126.536 104.27 126.536C103.63 126.536 103.102 126.755 102.686 127.192C102.281 127.629 102.078 128.205 102.078 128.92C102.078 129.645 102.281 130.227 102.686 130.664C103.102 131.101 103.63 131.32 104.27 131.32C105.156 131.32 105.796 130.936 106.19 130.168L108.094 131C107.742 131.715 107.241 132.269 106.59 132.664C105.94 133.059 105.166 133.256 104.27 133.256ZM113.428 133.256C112.585 133.256 111.833 133.069 111.172 132.696C110.511 132.312 109.993 131.795 109.62 131.144C109.257 130.483 109.076 129.741 109.076 128.92C109.076 128.109 109.257 127.373 109.62 126.712C109.993 126.051 110.511 125.533 111.172 125.16C111.833 124.776 112.585 124.584 113.428 124.584C114.26 124.584 115.007 124.776 115.668 125.16C116.329 125.533 116.841 126.051 117.204 126.712C117.577 127.373 117.764 128.109 117.764 128.92C117.764 129.741 117.577 130.483 117.204 131.144C116.841 131.795 116.329 132.312 115.668 132.696C115.007 133.069 114.26 133.256 113.428 133.256ZM113.428 131.32C113.833 131.32 114.207 131.224 114.548 131.032C114.889 130.84 115.161 130.563 115.364 130.2C115.567 129.837 115.668 129.411 115.668 128.92C115.668 128.44 115.567 128.019 115.364 127.656C115.161 127.293 114.889 127.016 114.548 126.824C114.207 126.632 113.833 126.536 113.428 126.536C113.023 126.536 112.649 126.632 112.308 126.824C111.967 127.016 111.689 127.293 111.476 127.656C111.273 128.019 111.172 128.44 111.172 128.92C111.172 129.4 111.273 129.827 111.476 130.2C111.689 130.563 111.967 130.84 112.308 131.032C112.649 131.224 113.023 131.32 113.428 131.32ZM119.29 121.544H121.386V133H119.29V121.544ZM123.446 121.544H125.542V133H123.446V121.544ZM131.348 133.256C130.537 133.256 129.807 133.069 129.156 132.696C128.505 132.323 127.993 131.811 127.62 131.16C127.257 130.499 127.076 129.757 127.076 128.936C127.076 128.157 127.257 127.437 127.62 126.776C127.983 126.104 128.484 125.571 129.124 125.176C129.764 124.781 130.479 124.584 131.268 124.584C132.111 124.584 132.836 124.765 133.444 125.128C134.052 125.491 134.511 125.987 134.82 126.616C135.14 127.245 135.3 127.944 135.3 128.712C135.3 128.957 135.284 129.192 135.252 129.416H129.124C129.231 130.067 129.487 130.563 129.892 130.904C130.308 131.235 130.804 131.4 131.38 131.4C131.86 131.4 132.271 131.299 132.612 131.096C132.964 130.883 133.241 130.6 133.444 130.248L135.14 131.08C134.308 132.531 133.044 133.256 131.348 133.256ZM133.284 127.928C133.263 127.672 133.167 127.421 132.996 127.176C132.836 126.92 132.607 126.712 132.308 126.552C132.02 126.381 131.679 126.296 131.284 126.296C130.783 126.296 130.351 126.445 129.988 126.744C129.636 127.032 129.38 127.427 129.22 127.928H133.284ZM140.753 136.712C139.718 136.712 138.859 136.477 138.177 136.008C137.494 135.549 137.035 134.995 136.801 134.344L138.769 133.544C138.939 133.949 139.201 134.269 139.553 134.504C139.905 134.739 140.305 134.856 140.753 134.856C141.414 134.856 141.937 134.653 142.321 134.248C142.715 133.843 142.913 133.267 142.913 132.52V131.88H142.785C142.529 132.243 142.193 132.52 141.777 132.712C141.361 132.904 140.886 133 140.353 133C139.681 133 139.051 132.829 138.465 132.488C137.889 132.136 137.425 131.645 137.073 131.016C136.721 130.376 136.545 129.635 136.545 128.792C136.545 127.949 136.721 127.213 137.073 126.584C137.425 125.944 137.889 125.453 138.465 125.112C139.051 124.76 139.681 124.584 140.353 124.584C140.886 124.584 141.361 124.68 141.777 124.872C142.193 125.064 142.529 125.341 142.785 125.704H142.913V124.84H144.929V132.44C144.929 133.315 144.758 134.072 144.417 134.712C144.075 135.352 143.59 135.843 142.961 136.184C142.331 136.536 141.595 136.712 140.753 136.712ZM140.785 131.096C141.371 131.096 141.873 130.893 142.289 130.488C142.705 130.072 142.913 129.507 142.913 128.792C142.913 128.056 142.705 127.491 142.289 127.096C141.883 126.691 141.382 126.488 140.785 126.488C140.187 126.488 139.681 126.691 139.265 127.096C138.849 127.501 138.641 128.067 138.641 128.792C138.641 129.517 138.849 130.083 139.265 130.488C139.681 130.893 140.187 131.096 140.785 131.096ZM150.723 133.256C149.912 133.256 149.182 133.069 148.531 132.696C147.88 132.323 147.368 131.811 146.995 131.16C146.632 130.499 146.451 129.757 146.451 128.936C146.451 128.157 146.632 127.437 146.995 126.776C147.358 126.104 147.859 125.571 148.499 125.176C149.139 124.781 149.854 124.584 150.643 124.584C151.486 124.584 152.211 124.765 152.819 125.128C153.427 125.491 153.886 125.987 154.195 126.616C154.515 127.245 154.675 127.944 154.675 128.712C154.675 128.957 154.659 129.192 154.627 129.416H148.499C148.606 130.067 148.862 130.563 149.267 130.904C149.683 131.235 150.179 131.4 150.755 131.4C151.235 131.4 151.646 131.299 151.987 131.096C152.339 130.883 152.616 130.6 152.819 130.248L154.515 131.08C153.683 132.531 152.419 133.256 150.723 133.256ZM152.659 127.928C152.638 127.672 152.542 127.421 152.371 127.176C152.211 126.92 151.982 126.712 151.683 126.552C151.395 126.381 151.054 126.296 150.659 126.296C150.158 126.296 149.726 126.445 149.363 126.744C149.011 127.032 148.755 127.427 148.595 127.928H152.659ZM162.536 133.256C161.672 133.256 160.962 133.005 160.408 132.504C159.853 131.992 159.576 131.325 159.576 130.504C159.576 129.96 159.72 129.48 160.008 129.064C160.296 128.648 160.69 128.328 161.192 128.104C161.693 127.88 162.248 127.768 162.856 127.768C163.698 127.768 164.418 127.891 165.016 128.136V127.784C165.016 127.336 164.845 126.973 164.504 126.696C164.173 126.419 163.725 126.28 163.16 126.28C162.776 126.28 162.402 126.371 162.04 126.552C161.688 126.723 161.394 126.952 161.16 127.24L159.816 126.184C160.21 125.672 160.706 125.277 161.304 125C161.901 124.723 162.552 124.584 163.256 124.584C164.504 124.584 165.453 124.872 166.104 125.448C166.754 126.024 167.08 126.867 167.08 127.976V133H165.016V132.168H164.888C164.642 132.488 164.317 132.749 163.912 132.952C163.517 133.155 163.058 133.256 162.536 133.256ZM163.032 131.624C163.64 131.624 164.12 131.432 164.472 131.048C164.834 130.653 165.016 130.195 165.016 129.672C164.472 129.416 163.901 129.288 163.304 129.288C162.216 129.288 161.672 129.693 161.672 130.504C161.672 130.835 161.789 131.107 162.024 131.32C162.258 131.523 162.594 131.624 163.032 131.624ZM172.434 133.256C171.698 133.256 171.026 133.075 170.418 132.712C169.821 132.339 169.346 131.827 168.994 131.176C168.653 130.515 168.482 129.763 168.482 128.92C168.482 128.088 168.653 127.341 168.994 126.68C169.346 126.019 169.821 125.507 170.418 125.144C171.026 124.771 171.698 124.584 172.434 124.584C172.989 124.584 173.48 124.707 173.906 124.952C174.333 125.187 174.658 125.48 174.882 125.832H175.01L174.882 124.68V121.544H176.962V133H175.01V132.024H174.882C174.669 132.376 174.344 132.669 173.906 132.904C173.48 133.139 172.989 133.256 172.434 133.256ZM172.786 131.32C173.181 131.32 173.549 131.219 173.89 131.016C174.232 130.813 174.504 130.531 174.706 130.168C174.909 129.805 175.01 129.389 175.01 128.92C175.01 128.451 174.909 128.035 174.706 127.672C174.504 127.309 174.232 127.032 173.89 126.84C173.549 126.637 173.181 126.536 172.786 126.536C172.402 126.536 172.04 126.637 171.698 126.84C171.357 127.032 171.085 127.309 170.882 127.672C170.68 128.035 170.578 128.451 170.578 128.92C170.578 129.389 170.68 129.805 170.882 130.168C171.085 130.531 171.357 130.813 171.698 131.016C172.04 131.219 172.402 131.32 172.786 131.32ZM179.024 124.84H180.992V125.864H181.12C181.376 125.469 181.717 125.16 182.144 124.936C182.581 124.701 183.067 124.584 183.6 124.584C184.176 124.584 184.677 124.723 185.104 125C185.531 125.267 185.835 125.608 186.016 126.024C186.283 125.597 186.645 125.251 187.104 124.984C187.573 124.717 188.123 124.584 188.752 124.584C189.68 124.584 190.384 124.872 190.864 125.448C191.355 126.013 191.6 126.781 191.6 127.752V133H189.52V128.136C189.52 127.624 189.397 127.229 189.152 126.952C188.917 126.675 188.587 126.536 188.16 126.536C187.616 126.536 187.179 126.755 186.848 127.192C186.528 127.619 186.368 128.184 186.368 128.888V133H184.272V128.136C184.272 127.624 184.144 127.229 183.888 126.952C183.643 126.675 183.291 126.536 182.832 126.536C182.32 126.536 181.904 126.755 181.584 127.192C181.275 127.619 181.12 128.184 181.12 128.888V133H179.024V124.84ZM194.786 123.944C194.413 123.944 194.093 123.811 193.826 123.544C193.559 123.277 193.426 122.957 193.426 122.584C193.426 122.211 193.559 121.896 193.826 121.64C194.093 121.373 194.413 121.24 194.786 121.24C195.159 121.24 195.474 121.373 195.73 121.64C195.997 121.896 196.13 122.211 196.13 122.584C196.13 122.957 195.997 123.277 195.73 123.544C195.474 123.811 195.159 123.944 194.786 123.944ZM193.73 124.84H195.826V133H193.73V124.84ZM201.112 133.256C200.12 133.256 199.315 133.053 198.696 132.648C198.088 132.243 197.662 131.715 197.416 131.064L199.288 130.248C199.459 130.632 199.699 130.925 200.008 131.128C200.328 131.32 200.696 131.416 201.112 131.416C201.496 131.416 201.816 131.357 202.072 131.24C202.328 131.112 202.456 130.909 202.456 130.632C202.456 130.365 202.339 130.168 202.104 130.04C201.87 129.901 201.518 129.779 201.048 129.672L200.088 129.464C199.427 129.304 198.878 129.016 198.44 128.6C198.003 128.173 197.784 127.645 197.784 127.016C197.784 126.547 197.923 126.125 198.2 125.752C198.488 125.379 198.872 125.091 199.352 124.888C199.843 124.685 200.382 124.584 200.968 124.584C202.654 124.584 203.779 125.176 204.344 126.36L202.552 127.144C202.232 126.568 201.72 126.28 201.016 126.28C200.654 126.28 200.366 126.349 200.152 126.488C199.939 126.616 199.832 126.781 199.832 126.984C199.832 127.368 200.195 127.656 200.92 127.848L202.12 128.136C202.931 128.339 203.539 128.648 203.944 129.064C204.36 129.48 204.568 129.992 204.568 130.6C204.568 131.123 204.414 131.587 204.104 131.992C203.806 132.387 203.39 132.696 202.856 132.92C202.334 133.144 201.752 133.256 201.112 133.256ZM209.191 133.256C208.199 133.256 207.393 133.053 206.775 132.648C206.167 132.243 205.74 131.715 205.495 131.064L207.367 130.248C207.537 130.632 207.777 130.925 208.087 131.128C208.407 131.32 208.775 131.416 209.191 131.416C209.575 131.416 209.895 131.357 210.151 131.24C210.407 131.112 210.535 130.909 210.535 130.632C210.535 130.365 210.417 130.168 210.183 130.04C209.948 129.901 209.596 129.779 209.127 129.672L208.167 129.464C207.505 129.304 206.956 129.016 206.519 128.6C206.081 128.173 205.863 127.645 205.863 127.016C205.863 126.547 206.001 126.125 206.279 125.752C206.567 125.379 206.951 125.091 207.431 124.888C207.921 124.685 208.46 124.584 209.047 124.584C210.732 124.584 211.857 125.176 212.423 126.36L210.631 127.144C210.311 126.568 209.799 126.28 209.095 126.28C208.732 126.28 208.444 126.349 208.231 126.488C208.017 126.616 207.911 126.781 207.911 126.984C207.911 127.368 208.273 127.656 208.999 127.848L210.199 128.136C211.009 128.339 211.617 128.648 212.023 129.064C212.439 129.48 212.647 129.992 212.647 130.6C212.647 131.123 212.492 131.587 212.183 131.992C211.884 132.387 211.468 132.696 210.935 132.92C210.412 133.144 209.831 133.256 209.191 133.256ZM215.271 123.944C214.897 123.944 214.577 123.811 214.311 123.544C214.044 123.277 213.911 122.957 213.911 122.584C213.911 122.211 214.044 121.896 214.311 121.64C214.577 121.373 214.897 121.24 215.271 121.24C215.644 121.24 215.959 121.373 216.215 121.64C216.481 121.896 216.615 122.211 216.615 122.584C216.615 122.957 216.481 123.277 216.215 123.544C215.959 123.811 215.644 123.944 215.271 123.944ZM214.215 124.84H216.311V133H214.215V124.84ZM222.319 133.256C221.476 133.256 220.724 133.069 220.063 132.696C219.401 132.312 218.884 131.795 218.511 131.144C218.148 130.483 217.967 129.741 217.967 128.92C217.967 128.109 218.148 127.373 218.511 126.712C218.884 126.051 219.401 125.533 220.063 125.16C220.724 124.776 221.476 124.584 222.319 124.584C223.151 124.584 223.897 124.776 224.559 125.16C225.22 125.533 225.732 126.051 226.095 126.712C226.468 127.373 226.655 128.109 226.655 128.92C226.655 129.741 226.468 130.483 226.095 131.144C225.732 131.795 225.22 132.312 224.559 132.696C223.897 133.069 223.151 133.256 222.319 133.256ZM222.319 131.32C222.724 131.32 223.097 131.224 223.439 131.032C223.78 130.84 224.052 130.563 224.255 130.2C224.457 129.837 224.559 129.411 224.559 128.92C224.559 128.44 224.457 128.019 224.255 127.656C224.052 127.293 223.78 127.016 223.439 126.824C223.097 126.632 222.724 126.536 222.319 126.536C221.913 126.536 221.54 126.632 221.199 126.824C220.857 127.016 220.58 127.293 220.367 127.656C220.164 128.019 220.063 128.44 220.063 128.92C220.063 129.4 220.164 129.827 220.367 130.2C220.58 130.563 220.857 130.84 221.199 131.032C221.54 131.224 221.913 131.32 222.319 131.32ZM228.102 124.84H230.07V125.864H230.198C230.443 125.469 230.79 125.16 231.238 124.936C231.686 124.701 232.171 124.584 232.694 124.584C233.675 124.584 234.422 124.883 234.934 125.48C235.446 126.077 235.702 126.893 235.702 127.928V133H233.606V128.184C233.606 127.661 233.473 127.256 233.206 126.968C232.939 126.68 232.566 126.536 232.086 126.536C231.521 126.536 231.062 126.755 230.71 127.192C230.369 127.629 230.198 128.179 230.198 128.84V133H228.102V124.84ZM245.27 133.256C244.449 133.256 243.713 133.075 243.062 132.712C242.412 132.339 241.9 131.821 241.526 131.16C241.164 130.499 240.982 129.752 240.982 128.92C240.982 128.088 241.164 127.347 241.526 126.696C241.9 126.035 242.412 125.517 243.062 125.144C243.713 124.771 244.449 124.584 245.27 124.584C246.177 124.584 246.956 124.781 247.606 125.176C248.257 125.56 248.726 126.109 249.014 126.824L247.094 127.624C246.753 126.899 246.145 126.536 245.27 126.536C244.63 126.536 244.102 126.755 243.686 127.192C243.281 127.629 243.078 128.205 243.078 128.92C243.078 129.645 243.281 130.227 243.686 130.664C244.102 131.101 244.63 131.32 245.27 131.32C246.156 131.32 246.796 130.936 247.19 130.168L249.094 131C248.742 131.715 248.241 132.269 247.59 132.664C246.94 133.059 246.166 133.256 245.27 133.256ZM250.602 121.544H252.698V124.44L252.57 125.864H252.698C252.933 125.48 253.274 125.171 253.722 124.936C254.17 124.701 254.655 124.584 255.178 124.584C256.17 124.584 256.927 124.883 257.45 125.48C257.983 126.067 258.25 126.883 258.25 127.928V133H256.154V128.184C256.154 127.661 256.01 127.256 255.722 126.968C255.445 126.68 255.071 126.536 254.602 126.536C254.047 126.536 253.589 126.76 253.226 127.208C252.874 127.656 252.698 128.205 252.698 128.856V133H250.602V121.544ZM262.645 133.256C261.781 133.256 261.072 133.005 260.517 132.504C259.962 131.992 259.685 131.325 259.685 130.504C259.685 129.96 259.829 129.48 260.117 129.064C260.405 128.648 260.8 128.328 261.301 128.104C261.802 127.88 262.357 127.768 262.965 127.768C263.808 127.768 264.528 127.891 265.125 128.136V127.784C265.125 127.336 264.954 126.973 264.613 126.696C264.282 126.419 263.834 126.28 263.269 126.28C262.885 126.28 262.512 126.371 262.149 126.552C261.797 126.723 261.504 126.952 261.269 127.24L259.925 126.184C260.32 125.672 260.816 125.277 261.413 125C262.01 124.723 262.661 124.584 263.365 124.584C264.613 124.584 265.562 124.872 266.213 125.448C266.864 126.024 267.189 126.867 267.189 127.976V133H265.125V132.168H264.997C264.752 132.488 264.426 132.749 264.021 132.952C263.626 133.155 263.168 133.256 262.645 133.256ZM263.141 131.624C263.749 131.624 264.229 131.432 264.581 131.048C264.944 130.653 265.125 130.195 265.125 129.672C264.581 129.416 264.01 129.288 263.413 129.288C262.325 129.288 261.781 129.693 261.781 130.504C261.781 130.835 261.898 131.107 262.133 131.32C262.368 131.523 262.704 131.624 263.141 131.624ZM269.118 124.84H271.086V125.864H271.214C271.459 125.469 271.806 125.16 272.254 124.936C272.702 124.701 273.187 124.584 273.71 124.584C274.691 124.584 275.438 124.883 275.95 125.48C276.462 126.077 276.718 126.893 276.718 127.928V133H274.622V128.184C274.622 127.661 274.488 127.256 274.222 126.968C273.955 126.68 273.582 126.536 273.102 126.536C272.536 126.536 272.078 126.755 271.726 127.192C271.384 127.629 271.214 128.179 271.214 128.84V133H269.118V124.84ZM282.536 133.256C281.715 133.256 280.979 133.075 280.328 132.712C279.677 132.339 279.165 131.821 278.792 131.16C278.429 130.499 278.248 129.752 278.248 128.92C278.248 128.088 278.429 127.347 278.792 126.696C279.165 126.035 279.677 125.517 280.328 125.144C280.979 124.771 281.715 124.584 282.536 124.584C283.443 124.584 284.221 124.781 284.872 125.176C285.523 125.56 285.992 126.109 286.28 126.824L284.36 127.624C284.019 126.899 283.411 126.536 282.536 126.536C281.896 126.536 281.368 126.755 280.952 127.192C280.547 127.629 280.344 128.205 280.344 128.92C280.344 129.645 280.547 130.227 280.952 130.664C281.368 131.101 281.896 131.32 282.536 131.32C283.421 131.32 284.061 130.936 284.456 130.168L286.36 131C286.008 131.715 285.507 132.269 284.856 132.664C284.205 133.059 283.432 133.256 282.536 133.256ZM291.614 133.256C290.803 133.256 290.072 133.069 289.422 132.696C288.771 132.323 288.259 131.811 287.886 131.16C287.523 130.499 287.342 129.757 287.342 128.936C287.342 128.157 287.523 127.437 287.886 126.776C288.248 126.104 288.75 125.571 289.39 125.176C290.03 124.781 290.744 124.584 291.534 124.584C292.376 124.584 293.102 124.765 293.71 125.128C294.318 125.491 294.776 125.987 295.086 126.616C295.406 127.245 295.566 127.944 295.566 128.712C295.566 128.957 295.55 129.192 295.518 129.416H289.39C289.496 130.067 289.752 130.563 290.158 130.904C290.574 131.235 291.07 131.4 291.646 131.4C292.126 131.4 292.536 131.299 292.878 131.096C293.23 130.883 293.507 130.6 293.71 130.248L295.406 131.08C294.574 132.531 293.31 133.256 291.614 133.256ZM293.55 127.928C293.528 127.672 293.432 127.421 293.262 127.176C293.102 126.92 292.872 126.712 292.574 126.552C292.286 126.381 291.944 126.296 291.55 126.296C291.048 126.296 290.616 126.445 290.254 126.744C289.902 127.032 289.646 127.427 289.486 127.928H293.55ZM300.362 133.256C299.37 133.256 298.565 133.053 297.946 132.648C297.338 132.243 296.912 131.715 296.666 131.064L298.538 130.248C298.709 130.632 298.949 130.925 299.258 131.128C299.578 131.32 299.946 131.416 300.362 131.416C300.746 131.416 301.066 131.357 301.322 131.24C301.578 131.112 301.706 130.909 301.706 130.632C301.706 130.365 301.589 130.168 301.354 130.04C301.12 129.901 300.768 129.779 300.298 129.672L299.338 129.464C298.677 129.304 298.128 129.016 297.69 128.6C297.253 128.173 297.034 127.645 297.034 127.016C297.034 126.547 297.173 126.125 297.45 125.752C297.738 125.379 298.122 125.091 298.602 124.888C299.093 124.685 299.632 124.584 300.218 124.584C301.904 124.584 303.029 125.176 303.594 126.36L301.802 127.144C301.482 126.568 300.97 126.28 300.266 126.28C299.904 126.28 299.616 126.349 299.402 126.488C299.189 126.616 299.082 126.781 299.082 126.984C299.082 127.368 299.445 127.656 300.17 127.848L301.37 128.136C302.181 128.339 302.789 128.648 303.194 129.064C303.61 129.48 303.818 129.992 303.818 130.6C303.818 131.123 303.664 131.587 303.354 131.992C303.056 132.387 302.64 132.696 302.106 132.92C301.584 133.144 301.002 133.256 300.362 133.256Z" fill="white"/>
<path d="M40.458 105.112H42.438V118H40.458V105.112ZM45.0207 108.82H46.8567V110.08H46.9647C47.2287 109.624 47.6247 109.252 48.1527 108.964C48.6807 108.676 49.2507 108.532 49.8627 108.532C50.9667 108.532 51.8067 108.862 52.3827 109.522C52.9587 110.17 53.2467 111.064 53.2467 112.204V118H51.3207V112.456C51.3207 111.736 51.1407 111.202 50.7807 110.854C50.4207 110.494 49.9287 110.314 49.3047 110.314C48.8487 110.314 48.4407 110.44 48.0807 110.692C47.7327 110.944 47.4567 111.28 47.2527 111.7C47.0607 112.12 46.9647 112.576 46.9647 113.068V118H45.0207V108.82ZM56.5781 107.47C56.2181 107.47 55.9061 107.344 55.6421 107.092C55.3901 106.828 55.2641 106.516 55.2641 106.156C55.2641 105.796 55.3901 105.49 55.6421 105.238C55.9061 104.986 56.2181 104.86 56.5781 104.86C56.9381 104.86 57.2441 104.986 57.4961 105.238C57.7601 105.49 57.8921 105.796 57.8921 106.156C57.8921 106.516 57.7601 106.828 57.4961 107.092C57.2441 107.344 56.9381 107.47 56.5781 107.47ZM55.6061 108.82H57.5501V118H55.6061V108.82ZM63.6362 118.144C63.2282 118.144 62.8442 118.084 62.4842 117.964C62.1362 117.832 61.8482 117.652 61.6202 117.424C61.1042 116.932 60.8462 116.236 60.8462 115.336V110.512H59.2442V108.82H60.8462V106.228H62.7902V108.82H65.0402V110.512H62.7902V114.922C62.7902 115.426 62.8862 115.78 63.0782 115.984C63.2822 116.212 63.5942 116.326 64.0142 116.326C64.2302 116.326 64.4162 116.302 64.5722 116.254C64.7282 116.194 64.9022 116.104 65.0942 115.984V117.874C64.6862 118.054 64.2002 118.144 63.6362 118.144ZM68.127 107.47C67.767 107.47 67.455 107.344 67.191 107.092C66.939 106.828 66.813 106.516 66.813 106.156C66.813 105.796 66.939 105.49 67.191 105.238C67.455 104.986 67.767 104.86 68.127 104.86C68.487 104.86 68.793 104.986 69.045 105.238C69.309 105.49 69.441 105.796 69.441 106.156C69.441 106.516 69.309 106.828 69.045 107.092C68.793 107.344 68.487 107.47 68.127 107.47ZM67.155 108.82H69.099V118H67.155V108.82ZM74.3031 118.288C73.6431 118.288 73.0551 118.162 72.5391 117.91C72.0231 117.646 71.6211 117.28 71.3331 116.812C71.0451 116.344 70.9011 115.81 70.9011 115.21C70.9011 114.574 71.0691 114.028 71.4051 113.572C71.7411 113.104 72.1971 112.75 72.7731 112.51C73.3491 112.258 73.9911 112.132 74.6991 112.132C75.2391 112.132 75.7251 112.186 76.1571 112.294C76.6011 112.39 76.9551 112.504 77.2191 112.636V112.15C77.2191 111.562 77.0031 111.088 76.5711 110.728C76.1391 110.356 75.5811 110.17 74.8971 110.17C74.4291 110.17 73.9851 110.278 73.5651 110.494C73.1451 110.698 72.8091 110.98 72.5571 111.34L71.2251 110.314C71.6211 109.75 72.1431 109.312 72.7911 109C73.4511 108.688 74.1711 108.532 74.9511 108.532C76.2711 108.532 77.2911 108.862 78.0111 109.522C78.7431 110.17 79.1091 111.082 79.1091 112.258V118H77.2191V116.866H77.1111C76.8471 117.274 76.4691 117.616 75.9771 117.892C75.4851 118.156 74.9271 118.288 74.3031 118.288ZM74.6451 116.704C75.1251 116.704 75.5631 116.59 75.9591 116.362C76.3551 116.122 76.6611 115.804 76.8771 115.408C77.1051 115.012 77.2191 114.586 77.2191 114.13C76.9311 113.962 76.6011 113.83 76.2291 113.734C75.8571 113.638 75.4671 113.59 75.0591 113.59C74.3031 113.59 73.7451 113.74 73.3851 114.04C73.0371 114.34 72.8631 114.736 72.8631 115.228C72.8631 115.66 73.0251 116.014 73.3491 116.29C73.6731 116.566 74.1051 116.704 74.6451 116.704ZM84.8355 118.144C84.4275 118.144 84.0435 118.084 83.6835 117.964C83.3355 117.832 83.0475 117.652 82.8195 117.424C82.3035 116.932 82.0455 116.236 82.0455 115.336V110.512H80.4435V108.82H82.0455V106.228H83.9895V108.82H86.2395V110.512H83.9895V114.922C83.9895 115.426 84.0855 115.78 84.2775 115.984C84.4815 116.212 84.7935 116.326 85.2135 116.326C85.4295 116.326 85.6155 116.302 85.7715 116.254C85.9275 116.194 86.1015 116.104 86.2935 115.984V117.874C85.8855 118.054 85.3995 118.144 84.8355 118.144ZM91.9647 118.288C91.0767 118.288 90.2727 118.078 89.5527 117.658C88.8447 117.238 88.2867 116.662 87.8787 115.93C87.4827 115.186 87.2847 114.352 87.2847 113.428C87.2847 112.552 87.4767 111.742 87.8607 110.998C88.2567 110.242 88.8027 109.642 89.4987 109.198C90.1947 108.754 90.9807 108.532 91.8567 108.532C92.7807 108.532 93.5787 108.736 94.2507 109.144C94.9227 109.54 95.4327 110.092 95.7807 110.8C96.1407 111.508 96.3207 112.312 96.3207 113.212C96.3207 113.452 96.3087 113.656 96.2847 113.824H89.1927C89.2767 114.7 89.5887 115.378 90.1287 115.858C90.6687 116.326 91.2987 116.56 92.0187 116.56C92.6067 116.56 93.1107 116.428 93.5307 116.164C93.9507 115.888 94.2867 115.528 94.5387 115.084L96.1407 115.858C95.7207 116.614 95.1627 117.208 94.4667 117.64C93.7707 118.072 92.9367 118.288 91.9647 118.288ZM94.3947 112.366C94.3707 112.03 94.2627 111.694 94.0707 111.358C93.8787 111.022 93.5967 110.746 93.2247 110.53C92.8647 110.302 92.4147 110.188 91.8747 110.188C91.2267 110.188 90.6747 110.386 90.2187 110.782C89.7747 111.178 89.4687 111.706 89.3007 112.366H94.3947ZM106.573 118.288C105.661 118.288 104.845 118.078 104.125 117.658C103.405 117.238 102.841 116.662 102.433 115.93C102.037 115.186 101.839 114.346 101.839 113.41C101.839 112.474 102.037 111.64 102.433 110.908C102.841 110.164 103.405 109.582 104.125 109.162C104.845 108.742 105.661 108.532 106.573 108.532C107.581 108.532 108.433 108.76 109.129 109.216C109.837 109.66 110.347 110.278 110.659 111.07L108.895 111.79C108.463 110.806 107.677 110.314 106.537 110.314C106.033 110.314 105.565 110.446 105.133 110.71C104.713 110.962 104.377 111.322 104.125 111.79C103.885 112.258 103.765 112.798 103.765 113.41C103.765 114.022 103.885 114.562 104.125 115.03C104.377 115.498 104.713 115.864 105.133 116.128C105.565 116.38 106.033 116.506 106.537 116.506C107.113 116.506 107.605 116.38 108.013 116.128C108.433 115.864 108.757 115.486 108.985 114.994L110.731 115.75C110.371 116.53 109.837 117.148 109.129 117.604C108.421 118.06 107.569 118.288 106.573 118.288ZM115.172 118.288C114.512 118.288 113.924 118.162 113.408 117.91C112.892 117.646 112.49 117.28 112.202 116.812C111.914 116.344 111.77 115.81 111.77 115.21C111.77 114.574 111.938 114.028 112.274 113.572C112.61 113.104 113.066 112.75 113.642 112.51C114.218 112.258 114.86 112.132 115.568 112.132C116.108 112.132 116.594 112.186 117.026 112.294C117.47 112.39 117.824 112.504 118.088 112.636V112.15C118.088 111.562 117.872 111.088 117.44 110.728C117.008 110.356 116.45 110.17 115.766 110.17C115.298 110.17 114.854 110.278 114.434 110.494C114.014 110.698 113.678 110.98 113.426 111.34L112.094 110.314C112.49 109.75 113.012 109.312 113.66 109C114.32 108.688 115.04 108.532 115.82 108.532C117.14 108.532 118.16 108.862 118.88 109.522C119.612 110.17 119.978 111.082 119.978 112.258V118H118.088V116.866H117.98C117.716 117.274 117.338 117.616 116.846 117.892C116.354 118.156 115.796 118.288 115.172 118.288ZM115.514 116.704C115.994 116.704 116.432 116.59 116.828 116.362C117.224 116.122 117.53 115.804 117.746 115.408C117.974 115.012 118.088 114.586 118.088 114.13C117.8 113.962 117.47 113.83 117.098 113.734C116.726 113.638 116.336 113.59 115.928 113.59C115.172 113.59 114.614 113.74 114.254 114.04C113.906 114.34 113.732 114.736 113.732 115.228C113.732 115.66 113.894 116.014 114.218 116.29C114.542 116.566 114.974 116.704 115.514 116.704ZM122.118 108.82H123.954V110.17H124.062C124.266 109.702 124.614 109.318 125.106 109.018C125.61 108.706 126.15 108.55 126.726 108.55C127.146 108.55 127.518 108.61 127.842 108.73V110.746C127.35 110.53 126.876 110.422 126.42 110.422C125.736 110.422 125.172 110.686 124.728 111.214C124.284 111.742 124.062 112.384 124.062 113.14V118H122.118V108.82ZM132.992 118.288C132.104 118.288 131.3 118.078 130.58 117.658C129.872 117.238 129.314 116.662 128.906 115.93C128.51 115.186 128.312 114.352 128.312 113.428C128.312 112.552 128.504 111.742 128.888 110.998C129.284 110.242 129.83 109.642 130.526 109.198C131.222 108.754 132.008 108.532 132.884 108.532C133.808 108.532 134.606 108.736 135.278 109.144C135.95 109.54 136.46 110.092 136.808 110.8C137.168 111.508 137.348 112.312 137.348 113.212C137.348 113.452 137.336 113.656 137.312 113.824H130.22C130.304 114.7 130.616 115.378 131.156 115.858C131.696 116.326 132.326 116.56 133.046 116.56C133.634 116.56 134.138 116.428 134.558 116.164C134.978 115.888 135.314 115.528 135.566 115.084L137.168 115.858C136.748 116.614 136.19 117.208 135.494 117.64C134.798 118.072 133.964 118.288 132.992 118.288ZM135.422 112.366C135.398 112.03 135.29 111.694 135.098 111.358C134.906 111.022 134.624 110.746 134.252 110.53C133.892 110.302 133.442 110.188 132.902 110.188C132.254 110.188 131.702 110.386 131.246 110.782C130.802 111.178 130.496 111.706 130.328 112.366H135.422ZM143.433 118.288C142.545 118.288 141.741 118.078 141.021 117.658C140.313 117.238 139.755 116.662 139.347 115.93C138.951 115.186 138.753 114.352 138.753 113.428C138.753 112.552 138.945 111.742 139.329 110.998C139.725 110.242 140.271 109.642 140.967 109.198C141.663 108.754 142.449 108.532 143.325 108.532C144.249 108.532 145.047 108.736 145.719 109.144C146.391 109.54 146.901 110.092 147.249 110.8C147.609 111.508 147.789 112.312 147.789 113.212C147.789 113.452 147.777 113.656 147.753 113.824H140.661C140.745 114.7 141.057 115.378 141.597 115.858C142.137 116.326 142.767 116.56 143.487 116.56C144.075 116.56 144.579 116.428 144.999 116.164C145.419 115.888 145.755 115.528 146.007 115.084L147.609 115.858C147.189 116.614 146.631 117.208 145.935 117.64C145.239 118.072 144.405 118.288 143.433 118.288ZM145.863 112.366C145.839 112.03 145.731 111.694 145.539 111.358C145.347 111.022 145.065 110.746 144.693 110.53C144.333 110.302 143.883 110.188 143.343 110.188C142.695 110.188 142.143 110.386 141.687 110.782C141.243 111.178 140.937 111.706 140.769 112.366H145.863ZM149.593 108.82H151.429V110.17H151.537C151.741 109.702 152.089 109.318 152.581 109.018C153.085 108.706 153.625 108.55 154.201 108.55C154.621 108.55 154.993 108.61 155.317 108.73V110.746C154.825 110.53 154.351 110.422 153.895 110.422C153.211 110.422 152.647 110.686 152.203 111.214C151.759 111.742 151.537 112.384 151.537 113.14V118H149.593V108.82ZM161.019 105.112H162.963V118H161.019V105.112ZM169.361 118.288C168.473 118.288 167.669 118.078 166.949 117.658C166.241 117.238 165.683 116.662 165.275 115.93C164.879 115.186 164.681 114.352 164.681 113.428C164.681 112.552 164.873 111.742 165.257 110.998C165.653 110.242 166.199 109.642 166.895 109.198C167.591 108.754 168.377 108.532 169.253 108.532C170.177 108.532 170.975 108.736 171.647 109.144C172.319 109.54 172.829 110.092 173.177 110.8C173.537 111.508 173.717 112.312 173.717 113.212C173.717 113.452 173.705 113.656 173.681 113.824H166.589C166.673 114.7 166.985 115.378 167.525 115.858C168.065 116.326 168.695 116.56 169.415 116.56C170.003 116.56 170.507 116.428 170.927 116.164C171.347 115.888 171.683 115.528 171.935 115.084L173.537 115.858C173.117 116.614 172.559 117.208 171.863 117.64C171.167 118.072 170.333 118.288 169.361 118.288ZM171.791 112.366C171.767 112.03 171.659 111.694 171.467 111.358C171.275 111.022 170.993 110.746 170.621 110.53C170.261 110.302 169.811 110.188 169.271 110.188C168.623 110.188 168.071 110.386 167.615 110.782C167.171 111.178 166.865 111.706 166.697 112.366H171.791ZM178.489 118.288C177.829 118.288 177.241 118.162 176.725 117.91C176.209 117.646 175.807 117.28 175.519 116.812C175.231 116.344 175.087 115.81 175.087 115.21C175.087 114.574 175.255 114.028 175.591 113.572C175.927 113.104 176.383 112.75 176.959 112.51C177.535 112.258 178.177 112.132 178.885 112.132C179.425 112.132 179.911 112.186 180.343 112.294C180.787 112.39 181.141 112.504 181.405 112.636V112.15C181.405 111.562 181.189 111.088 180.757 110.728C180.325 110.356 179.767 110.17 179.083 110.17C178.615 110.17 178.171 110.278 177.751 110.494C177.331 110.698 176.995 110.98 176.743 111.34L175.411 110.314C175.807 109.75 176.329 109.312 176.977 109C177.637 108.688 178.357 108.532 179.137 108.532C180.457 108.532 181.477 108.862 182.197 109.522C182.929 110.17 183.295 111.082 183.295 112.258V118H181.405V116.866H181.297C181.033 117.274 180.655 117.616 180.163 117.892C179.671 118.156 179.113 118.288 178.489 118.288ZM178.831 116.704C179.311 116.704 179.749 116.59 180.145 116.362C180.541 116.122 180.847 115.804 181.063 115.408C181.291 115.012 181.405 114.586 181.405 114.13C181.117 113.962 180.787 113.83 180.415 113.734C180.043 113.638 179.653 113.59 179.245 113.59C178.489 113.59 177.931 113.74 177.571 114.04C177.223 114.34 177.049 114.736 177.049 115.228C177.049 115.66 177.211 116.014 177.535 116.29C177.859 116.566 178.291 116.704 178.831 116.704ZM185.435 108.82H187.271V110.17H187.379C187.583 109.702 187.931 109.318 188.423 109.018C188.927 108.706 189.467 108.55 190.043 108.55C190.463 108.55 190.835 108.61 191.159 108.73V110.746C190.667 110.53 190.193 110.422 189.737 110.422C189.053 110.422 188.489 110.686 188.045 111.214C187.601 111.742 187.379 112.384 187.379 113.14V118H185.435V108.82ZM192.659 108.82H194.495V110.08H194.603C194.867 109.624 195.263 109.252 195.791 108.964C196.319 108.676 196.889 108.532 197.501 108.532C198.605 108.532 199.445 108.862 200.021 109.522C200.597 110.17 200.885 111.064 200.885 112.204V118H198.959V112.456C198.959 111.736 198.779 111.202 198.419 110.854C198.059 110.494 197.567 110.314 196.943 110.314C196.487 110.314 196.079 110.44 195.719 110.692C195.371 110.944 195.095 111.28 194.891 111.7C194.699 112.12 194.603 112.576 194.603 113.068V118H192.659V108.82ZM204.217 107.47C203.857 107.47 203.545 107.344 203.281 107.092C203.029 106.828 202.903 106.516 202.903 106.156C202.903 105.796 203.029 105.49 203.281 105.238C203.545 104.986 203.857 104.86 204.217 104.86C204.577 104.86 204.883 104.986 205.135 105.238C205.399 105.49 205.531 105.796 205.531 106.156C205.531 106.516 205.399 106.828 205.135 107.092C204.883 107.344 204.577 107.47 204.217 107.47ZM203.245 108.82H205.189V118H203.245V108.82ZM207.601 108.82H209.437V110.08H209.545C209.809 109.624 210.205 109.252 210.733 108.964C211.261 108.676 211.831 108.532 212.443 108.532C213.547 108.532 214.387 108.862 214.963 109.522C215.539 110.17 215.827 111.064 215.827 112.204V118H213.901V112.456C213.901 111.736 213.721 111.202 213.361 110.854C213.001 110.494 212.509 110.314 211.885 110.314C211.429 110.314 211.021 110.44 210.661 110.692C210.313 110.944 210.037 111.28 209.833 111.7C209.641 112.12 209.545 112.576 209.545 113.068V118H207.601V108.82ZM222.094 122.176C220.978 122.176 220.048 121.918 219.304 121.402C218.572 120.898 218.08 120.286 217.828 119.566L219.628 118.81C219.82 119.302 220.132 119.698 220.564 119.998C221.008 120.298 221.518 120.448 222.094 120.448C222.946 120.448 223.612 120.196 224.092 119.692C224.572 119.188 224.812 118.474 224.812 117.55V116.668H224.704C224.404 117.112 224.002 117.46 223.498 117.712C222.994 117.964 222.418 118.09 221.77 118.09C220.99 118.09 220.27 117.892 219.61 117.496C218.962 117.1 218.44 116.542 218.044 115.822C217.66 115.09 217.468 114.256 217.468 113.32C217.468 112.384 217.66 111.556 218.044 110.836C218.44 110.104 218.962 109.54 219.61 109.144C220.27 108.736 220.99 108.532 221.77 108.532C222.406 108.532 222.976 108.664 223.48 108.928C223.996 109.18 224.404 109.528 224.704 109.972H224.812V108.82H226.666V117.514C226.666 118.498 226.474 119.338 226.09 120.034C225.706 120.742 225.166 121.276 224.47 121.636C223.786 121.996 222.994 122.176 222.094 122.176ZM222.112 116.326C222.604 116.326 223.054 116.206 223.462 115.966C223.87 115.726 224.194 115.384 224.434 114.94C224.686 114.484 224.812 113.944 224.812 113.32C224.812 112.684 224.686 112.138 224.434 111.682C224.194 111.226 223.87 110.884 223.462 110.656C223.054 110.416 222.604 110.296 222.112 110.296C221.62 110.296 221.164 110.416 220.744 110.656C220.336 110.884 220.006 111.226 219.754 111.682C219.514 112.138 219.394 112.684 219.394 113.32C219.394 113.944 219.514 114.484 219.754 114.94C220.006 115.396 220.336 115.744 220.744 115.984C221.164 116.212 221.62 116.326 222.112 116.326ZM236.904 118.144C236.496 118.144 236.112 118.084 235.752 117.964C235.404 117.832 235.116 117.652 234.888 117.424C234.372 116.932 234.114 116.236 234.114 115.336V110.512H232.512V108.82H234.114V106.228H236.058V108.82H238.308V110.512H236.058V114.922C236.058 115.426 236.154 115.78 236.346 115.984C236.55 116.212 236.862 116.326 237.282 116.326C237.498 116.326 237.684 116.302 237.84 116.254C237.996 116.194 238.17 116.104 238.362 115.984V117.874C237.954 118.054 237.468 118.144 236.904 118.144ZM244.159 118.288C243.235 118.288 242.407 118.078 241.675 117.658C240.943 117.226 240.373 116.638 239.965 115.894C239.557 115.15 239.353 114.322 239.353 113.41C239.353 112.498 239.557 111.67 239.965 110.926C240.373 110.182 240.943 109.6 241.675 109.18C242.407 108.748 243.235 108.532 244.159 108.532C245.071 108.532 245.893 108.748 246.625 109.18C247.357 109.612 247.927 110.2 248.335 110.944C248.743 111.688 248.947 112.51 248.947 113.41C248.947 114.322 248.743 115.15 248.335 115.894C247.927 116.638 247.357 117.226 246.625 117.658C245.905 118.078 245.083 118.288 244.159 118.288ZM244.159 116.506C244.675 116.506 245.149 116.38 245.581 116.128C246.013 115.876 246.361 115.516 246.625 115.048C246.889 114.58 247.021 114.034 247.021 113.41C247.021 112.786 246.889 112.24 246.625 111.772C246.361 111.304 246.013 110.944 245.581 110.692C245.149 110.44 244.675 110.314 244.159 110.314C243.643 110.314 243.163 110.44 242.719 110.692C242.287 110.944 241.939 111.304 241.675 111.772C241.411 112.24 241.279 112.786 241.279 113.41C241.279 114.034 241.411 114.58 241.675 115.048C241.939 115.516 242.287 115.876 242.719 116.128C243.163 116.38 243.643 116.506 244.159 116.506ZM44.382 141.288C43.47 141.288 42.654 141.078 41.934 140.658C41.214 140.238 40.65 139.662 40.242 138.93C39.846 138.186 39.648 137.346 39.648 136.41C39.648 135.474 39.846 134.64 40.242 133.908C40.65 133.164 41.214 132.582 41.934 132.162C42.654 131.742 43.47 131.532 44.382 131.532C45.39 131.532 46.242 131.76 46.938 132.216C47.646 132.66 48.156 133.278 48.468 134.07L46.704 134.79C46.272 133.806 45.486 133.314 44.346 133.314C43.842 133.314 43.374 133.446 42.942 133.71C42.522 133.962 42.186 134.322 41.934 134.79C41.694 135.258 41.574 135.798 41.574 136.41C41.574 137.022 41.694 137.562 41.934 138.03C42.186 138.498 42.522 138.864 42.942 139.128C43.374 139.38 43.842 139.506 44.346 139.506C44.922 139.506 45.414 139.38 45.822 139.128C46.242 138.864 46.566 138.486 46.794 137.994L48.54 138.75C48.18 139.53 47.646 140.148 46.938 140.604C46.23 141.06 45.378 141.288 44.382 141.288ZM54.4208 141.288C53.4968 141.288 52.6688 141.078 51.9368 140.658C51.2048 140.226 50.6348 139.638 50.2268 138.894C49.8188 138.15 49.6148 137.322 49.6148 136.41C49.6148 135.498 49.8188 134.67 50.2268 133.926C50.6348 133.182 51.2048 132.6 51.9368 132.18C52.6688 131.748 53.4968 131.532 54.4208 131.532C55.3328 131.532 56.1548 131.748 56.8868 132.18C57.6188 132.612 58.1888 133.2 58.5968 133.944C59.0048 134.688 59.2088 135.51 59.2088 136.41C59.2088 137.322 59.0048 138.15 58.5968 138.894C58.1888 139.638 57.6188 140.226 56.8868 140.658C56.1668 141.078 55.3448 141.288 54.4208 141.288ZM54.4208 139.506C54.9368 139.506 55.4108 139.38 55.8428 139.128C56.2748 138.876 56.6228 138.516 56.8868 138.048C57.1508 137.58 57.2828 137.034 57.2828 136.41C57.2828 135.786 57.1508 135.24 56.8868 134.772C56.6228 134.304 56.2748 133.944 55.8428 133.692C55.4108 133.44 54.9368 133.314 54.4208 133.314C53.9048 133.314 53.4248 133.44 52.9808 133.692C52.5488 133.944 52.2008 134.304 51.9368 134.772C51.6728 135.24 51.5408 135.786 51.5408 136.41C51.5408 137.034 51.6728 137.58 51.9368 138.048C52.2008 138.516 52.5488 138.876 52.9808 139.128C53.4248 139.38 53.9048 139.506 54.4208 139.506ZM60.8235 131.82H62.6595V133.08H62.7675C63.0315 132.624 63.4275 132.252 63.9555 131.964C64.4835 131.676 65.0535 131.532 65.6655 131.532C66.7695 131.532 67.6095 131.862 68.1855 132.522C68.7615 133.17 69.0495 134.064 69.0495 135.204V141H67.1235V135.456C67.1235 134.736 66.9435 134.202 66.5835 133.854C66.2235 133.494 65.7315 133.314 65.1075 133.314C64.6515 133.314 64.2435 133.44 63.8835 133.692C63.5355 133.944 63.2595 134.28 63.0555 134.7C62.8635 135.12 62.7675 135.576 62.7675 136.068V141H60.8235V131.82ZM78.1409 141.054L78.2489 139.776H78.1409C77.8769 140.196 77.4869 140.556 76.9709 140.856C76.4549 141.144 75.8609 141.288 75.1889 141.288C74.3609 141.288 73.6109 141.084 72.9389 140.676C72.2669 140.256 71.7389 139.674 71.3549 138.93C70.9709 138.186 70.7789 137.346 70.7789 136.41C70.7789 135.474 70.9709 134.64 71.3549 133.908C71.7389 133.164 72.2669 132.582 72.9389 132.162C73.6109 131.742 74.3609 131.532 75.1889 131.532C75.8609 131.532 76.4549 131.682 76.9709 131.982C77.4869 132.27 77.8769 132.63 78.1409 133.062H78.2489V131.82H80.0669V144.888H78.1409V141.054ZM75.4769 139.506C75.9569 139.506 76.4069 139.38 76.8269 139.128C77.2589 138.864 77.6009 138.498 77.8529 138.03C78.1169 137.562 78.2489 137.022 78.2489 136.41C78.2489 135.798 78.1169 135.258 77.8529 134.79C77.6009 134.322 77.2589 133.962 76.8269 133.71C76.4069 133.446 75.9569 133.314 75.4769 133.314C74.9969 133.314 74.5409 133.446 74.1089 133.71C73.6889 133.962 73.3469 134.322 73.0829 134.79C72.8309 135.258 72.7049 135.798 72.7049 136.41C72.7049 137.022 72.8309 137.562 73.0829 138.03C73.3469 138.498 73.6889 138.864 74.1089 139.128C74.5409 139.38 74.9969 139.506 75.4769 139.506ZM85.6163 141.288C84.5123 141.288 83.6663 140.958 83.0783 140.298C82.5023 139.626 82.2143 138.696 82.2143 137.508V131.82H84.1583V137.238C84.1583 137.982 84.3323 138.546 84.6803 138.93C85.0283 139.314 85.4963 139.506 86.0843 139.506C86.5643 139.506 86.9903 139.38 87.3623 139.128C87.7343 138.876 88.0163 138.54 88.2083 138.12C88.4123 137.7 88.5143 137.244 88.5143 136.752V131.82H90.4403V141H88.6223V139.758H88.5143C88.2503 140.202 87.8543 140.568 87.3263 140.856C86.7983 141.144 86.2283 141.288 85.6163 141.288ZM96.8339 141.288C95.9459 141.288 95.1419 141.078 94.4219 140.658C93.7139 140.238 93.1559 139.662 92.7479 138.93C92.3519 138.186 92.1539 137.352 92.1539 136.428C92.1539 135.552 92.3459 134.742 92.7299 133.998C93.1259 133.242 93.6719 132.642 94.3679 132.198C95.0639 131.754 95.8499 131.532 96.7259 131.532C97.6499 131.532 98.4479 131.736 99.1199 132.144C99.7919 132.54 100.302 133.092 100.65 133.8C101.01 134.508 101.19 135.312 101.19 136.212C101.19 136.452 101.178 136.656 101.154 136.824H94.0619C94.1459 137.7 94.4579 138.378 94.9979 138.858C95.5379 139.326 96.1679 139.56 96.8879 139.56C97.4759 139.56 97.9799 139.428 98.3999 139.164C98.8199 138.888 99.1559 138.528 99.4079 138.084L101.01 138.858C100.59 139.614 100.032 140.208 99.3359 140.64C98.6399 141.072 97.8059 141.288 96.8339 141.288ZM99.2639 135.366C99.2399 135.03 99.1319 134.694 98.9399 134.358C98.7479 134.022 98.4659 133.746 98.0939 133.53C97.7339 133.302 97.2839 133.188 96.7439 133.188C96.0959 133.188 95.5439 133.386 95.0879 133.782C94.6439 134.178 94.3379 134.706 94.1699 135.366H99.2639ZM102.993 131.82H104.829V133.17H104.937C105.141 132.702 105.489 132.318 105.981 132.018C106.485 131.706 107.025 131.55 107.601 131.55C108.021 131.55 108.393 131.61 108.717 131.73V133.746C108.225 133.53 107.751 133.422 107.295 133.422C106.611 133.422 106.047 133.686 105.603 134.214C105.159 134.742 104.937 135.384 104.937 136.14V141H102.993V131.82ZM118.181 141.144C117.773 141.144 117.389 141.084 117.029 140.964C116.681 140.832 116.393 140.652 116.165 140.424C115.649 139.932 115.391 139.236 115.391 138.336V133.512H113.789V131.82H115.391V129.228H117.335V131.82H119.585V133.512H117.335V137.922C117.335 138.426 117.431 138.78 117.623 138.984C117.827 139.212 118.139 139.326 118.559 139.326C118.775 139.326 118.961 139.302 119.117 139.254C119.273 139.194 119.447 139.104 119.639 138.984V140.874C119.231 141.054 118.745 141.144 118.181 141.144ZM121.556 128.112H123.5V131.64L123.392 133.08H123.5C123.764 132.624 124.154 132.252 124.67 131.964C125.198 131.676 125.774 131.532 126.398 131.532C127.514 131.532 128.366 131.868 128.954 132.54C129.542 133.2 129.836 134.088 129.836 135.204V141H127.91V135.456C127.91 134.748 127.718 134.214 127.334 133.854C126.962 133.494 126.482 133.314 125.894 133.314C125.45 133.314 125.042 133.446 124.67 133.71C124.31 133.962 124.022 134.304 123.806 134.736C123.602 135.168 123.5 135.624 123.5 136.104V141H121.556V128.112ZM136.244 141.288C135.356 141.288 134.552 141.078 133.832 140.658C133.124 140.238 132.566 139.662 132.158 138.93C131.762 138.186 131.564 137.352 131.564 136.428C131.564 135.552 131.756 134.742 132.14 133.998C132.536 133.242 133.082 132.642 133.778 132.198C134.474 131.754 135.26 131.532 136.136 131.532C137.06 131.532 137.858 131.736 138.53 132.144C139.202 132.54 139.712 133.092 140.06 133.8C140.42 134.508 140.6 135.312 140.6 136.212C140.6 136.452 140.588 136.656 140.564 136.824H133.472C133.556 137.7 133.868 138.378 134.408 138.858C134.948 139.326 135.578 139.56 136.298 139.56C136.886 139.56 137.39 139.428 137.81 139.164C138.23 138.888 138.566 138.528 138.818 138.084L140.42 138.858C140 139.614 139.442 140.208 138.746 140.64C138.05 141.072 137.216 141.288 136.244 141.288ZM138.674 135.366C138.65 135.03 138.542 134.694 138.35 134.358C138.158 134.022 137.876 133.746 137.504 133.53C137.144 133.302 136.694 133.188 136.154 133.188C135.506 133.188 134.954 133.386 134.498 133.782C134.054 134.178 133.748 134.706 133.58 135.366H138.674ZM145.597 131.82H147.703L149.593 138.426H149.665L151.735 131.82H153.733L155.803 138.426H155.875L157.765 131.82H159.835L156.883 141H154.849L152.725 134.358H152.653L150.547 141H148.531L145.597 131.82ZM165.233 141.288C164.309 141.288 163.481 141.078 162.749 140.658C162.017 140.226 161.447 139.638 161.039 138.894C160.631 138.15 160.427 137.322 160.427 136.41C160.427 135.498 160.631 134.67 161.039 133.926C161.447 133.182 162.017 132.6 162.749 132.18C163.481 131.748 164.309 131.532 165.233 131.532C166.145 131.532 166.967 131.748 167.699 132.18C168.431 132.612 169.001 133.2 169.409 133.944C169.817 134.688 170.021 135.51 170.021 136.41C170.021 137.322 169.817 138.15 169.409 138.894C169.001 139.638 168.431 140.226 167.699 140.658C166.979 141.078 166.157 141.288 165.233 141.288ZM165.233 139.506C165.749 139.506 166.223 139.38 166.655 139.128C167.087 138.876 167.435 138.516 167.699 138.048C167.963 137.58 168.095 137.034 168.095 136.41C168.095 135.786 167.963 135.24 167.699 134.772C167.435 134.304 167.087 133.944 166.655 133.692C166.223 133.44 165.749 133.314 165.233 133.314C164.717 133.314 164.237 133.44 163.793 133.692C163.361 133.944 163.013 134.304 162.749 134.772C162.485 135.24 162.353 135.786 162.353 136.41C162.353 137.034 162.485 137.58 162.749 138.048C163.013 138.516 163.361 138.876 163.793 139.128C164.237 139.38 164.717 139.506 165.233 139.506ZM171.636 131.82H173.472V133.17H173.58C173.784 132.702 174.132 132.318 174.624 132.018C175.128 131.706 175.668 131.55 176.244 131.55C176.664 131.55 177.036 131.61 177.36 131.73V133.746C176.868 133.53 176.394 133.422 175.938 133.422C175.254 133.422 174.69 133.686 174.246 134.214C173.802 134.742 173.58 135.384 173.58 136.14V141H171.636V131.82ZM178.948 128.112H180.892V141H178.948V128.112ZM187.021 141.288C186.193 141.288 185.443 141.084 184.771 140.676C184.099 140.256 183.571 139.674 183.187 138.93C182.803 138.186 182.611 137.346 182.611 136.41C182.611 135.474 182.803 134.64 183.187 133.908C183.571 133.164 184.099 132.582 184.771 132.162C185.443 131.742 186.193 131.532 187.021 131.532C187.693 131.532 188.287 131.682 188.803 131.982C189.319 132.27 189.709 132.63 189.973 133.062H190.081L189.973 131.784V128.112H191.899V141H190.081V139.776H189.973C189.709 140.196 189.319 140.556 188.803 140.856C188.287 141.144 187.693 141.288 187.021 141.288ZM187.309 139.506C187.789 139.506 188.239 139.38 188.659 139.128C189.091 138.864 189.433 138.498 189.685 138.03C189.949 137.562 190.081 137.022 190.081 136.41C190.081 135.798 189.949 135.258 189.685 134.79C189.433 134.322 189.091 133.962 188.659 133.71C188.239 133.446 187.789 133.314 187.309 133.314C186.829 133.314 186.373 133.446 185.941 133.71C185.521 133.962 185.179 134.322 184.915 134.79C184.663 135.258 184.537 135.798 184.537 136.41C184.537 137.022 184.663 137.562 184.915 138.03C185.179 138.498 185.521 138.864 185.941 139.128C186.373 139.38 186.829 139.506 187.309 139.506Z" fill="black"/>
<g filter="url(#filter1_d_5_784)">
<g clip-path="url(#clip1_5_784)">
<rect x="35" y="43" width="46" height="46" rx="23" fill="white" fill-opacity="0.2" shape-rendering="crispEdges"/>
<g filter="url(#filter2_d_5_784)">
<path d="M38 66C38 54.9543 46.9543 46 58 46C69.0457 46 78 54.9543 78 66C78 77.0457 69.0457 86 58 86C46.9543 86 38 77.0457 38 66Z" fill="#F3EFFF"/>
<g clip-path="url(#clip2_5_784)">
<path d="M62.875 59.25C61.2119 59.25 59.7616 59.8575 58.75 60.8588V57.75H60.25C60.4489 57.75 60.6397 57.671 60.7803 57.5303C60.921 57.3897 61 57.1989 61 57C61 56.8011 60.921 56.6103 60.7803 56.4697C60.6397 56.329 60.4489 56.25 60.25 56.25H58.75V54.75C58.75 54.5511 58.671 54.3603 58.5303 54.2197C58.3897 54.079 58.1989 54 58 54C57.8011 54 57.6103 54.079 57.4697 54.2197C57.329 54.3603 57.25 54.5511 57.25 54.75V56.25H55.75C55.5511 56.25 55.3603 56.329 55.2197 56.4697C55.079 56.6103 55 56.8011 55 57C55 57.1989 55.079 57.3897 55.2197 57.5303C55.3603 57.671 55.5511 57.75 55.75 57.75H57.25V60.8588C56.2384 59.8575 54.7881 59.25 53.125 59.25C51.6337 59.2517 50.204 59.8449 49.1494 60.8994C48.0949 61.954 47.5017 63.3837 47.5 64.875C47.5 67.6744 48.8631 69.4547 50.0059 70.455C50.6065 70.9784 51.2778 71.4145 52 71.7506V73.5C52 73.8978 52.158 74.2794 52.4393 74.5607C52.7206 74.842 53.1022 75 53.5 75H62.5C62.8978 75 63.2794 74.842 63.5607 74.5607C63.842 74.2794 64 73.8978 64 73.5V71.7506C64.7222 71.4145 65.3935 70.9784 65.9941 70.455C67.1369 69.4547 68.5 67.6744 68.5 64.875C68.4983 63.3837 67.9051 61.954 66.8506 60.8994C65.796 59.8449 64.3663 59.2517 62.875 59.25ZM63.0128 70.5384C62.8635 70.5882 62.7336 70.6837 62.6415 70.8114C62.5495 70.9391 62.5 71.0926 62.5 71.25V73.5H53.5V71.25C53.5 71.0926 53.4505 70.9391 53.3585 70.8114C53.2664 70.6837 53.1365 70.5882 52.9872 70.5384C52.9469 70.5253 49 69.1594 49 64.875C49.0012 63.7814 49.4362 62.7329 50.2096 61.9596C50.9829 61.1862 52.0314 60.7512 53.125 60.75C55.5156 60.75 57.25 62.3269 57.25 64.5V70.5C57.25 70.6989 57.329 70.8897 57.4697 71.0303C57.6103 71.171 57.8011 71.25 58 71.25C58.1989 71.25 58.3897 71.171 58.5303 71.0303C58.671 70.8897 58.75 70.6989 58.75 70.5V64.5C58.75 62.3269 60.4844 60.75 62.875 60.75C63.9686 60.7512 65.0171 61.1862 65.7904 61.9596C66.5638 62.7329 66.9988 63.7814 67 64.875C67 69.1313 63.1731 70.4841 63.0128 70.5384Z" fill="#603AC8"/>
</g>
</g>
</g>
<rect x="35.25" y="43.25" width="45.5" height="45.5" rx="22.75" stroke="#603AC8" stroke-width="0.5" shape-rendering="crispEdges"/>
</g>
</g>
<path d="M18.5 26C18.5 21.8579 21.8579 18.5 26 18.5H251C255.142 18.5 258.5 21.8579 258.5 26V171C258.5 175.142 255.142 178.5 251 178.5H26C21.8579 178.5 18.5 175.142 18.5 171V26Z" stroke="#603AC8"/>
</g>
<defs>
<filter id="filter0_d_5_784" x="0" y="0" width="277" height="197" filterUnits="userSpaceOnUse" color-interpolation-filters="sRGB">
<feFlood flood-opacity="0" result="BackgroundImageFix"/>
<feColorMatrix in="SourceAlpha" type="matrix" values="0 0 0 0 0 0 0 0 0 0 0 0 0 0 0 0 0 0 127 0" result="hardAlpha"/>
<feOffset/>
<feGaussianBlur stdDeviation="9"/>
<feComposite in2="hardAlpha" operator="out"/>
<feColorMatrix type="matrix" values="0 0 0 0 0 0 0 0 0 0 0 0 0 0 0 0 0 0 0.08 0"/>
<feBlend mode="normal" in2="BackgroundImageFix" result="effect1_dropShadow_5_784"/>
<feBlend mode="normal" in="SourceGraphic" in2="effect1_dropShadow_5_784" result="shape"/>
</filter>
<filter id="filter1_d_5_784" x="31" y="39" width="54" height="54" filterUnits="userSpaceOnUse" color-interpolation-filters="sRGB">
<feFlood flood-opacity="0" result="BackgroundImageFix"/>
<feColorMatrix in="SourceAlpha" type="matrix" values="0 0 0 0 0 0 0 0 0 0 0 0 0 0 0 0 0 0 127 0" result="hardAlpha"/>
<feOffset/>
<feGaussianBlur stdDeviation="2"/>
<feComposite in2="hardAlpha" operator="out"/>
<feColorMatrix type="matrix" values="0 0 0 0 0 0 0 0 0 0 0 0 0 0 0 0 0 0 0.08 0"/>
<feBlend mode="normal" in2="BackgroundImageFix" result="effect1_dropShadow_5_784"/>
<feBlend mode="normal" in="SourceGraphic" in2="effect1_dropShadow_5_784" result="shape"/>
</filter>
<filter id="filter2_d_5_784" x="26" y="34" width="64" height="64" filterUnits="userSpaceOnUse" color-interpolation-filters="sRGB">
<feFlood flood-opacity="0" result="BackgroundImageFix"/>
<feColorMatrix in="SourceAlpha" type="matrix" values="0 0 0 0 0 0 0 0 0 0 0 0 0 0 0 0 0 0 127 0" result="hardAlpha"/>
<feOffset/>
<feGaussianBlur stdDeviation="6"/>
<feComposite in2="hardAlpha" operator="out"/>
<feColorMatrix type="matrix" values="0 0 0 0 0 0 0 0 0 0 0 0 0 0 0 0 0 0 0.15 0"/>
<feBlend mode="normal" in2="BackgroundImageFix" result="effect1_dropShadow_5_784"/>
<feBlend mode="normal" in="SourceGraphic" in2="effect1_dropShadow_5_784" result="shape"/>
</filter>
<clipPath id="clip0_5_784">
<path d="M18 26C18 21.5817 21.5817 18 26 18H251C255.418 18 259 21.5817 259 26V171C259 175.418 255.418 179 251 179H26C21.5817 179 18 175.418 18 171V26Z" fill="white"/>
</clipPath>
<clipPath id="clip1_5_784">
<rect x="35" y="43" width="46" height="46" rx="23" fill="white"/>
</clipPath>
<clipPath id="clip2_5_784">
<rect width="24" height="24" fill="white" transform="translate(46 54)"/>
</clipPath>
</defs>
</svg>
