<svg width="18" height="18" viewBox="0 0 18 18" fill="none" xmlns="http://www.w3.org/2000/svg">
<path d="M8.4375 11.8125H8.15625V11.5312C8.15625 10.9345 7.9192 10.3622 7.49724 9.94026C7.07528 9.5183 6.50299 9.28125 5.90625 9.28125C5.30951 9.28125 4.73722 9.5183 4.31526 9.94026C3.8933 10.3622 3.65625 10.9345 3.65625 11.5312V11.8125H3.375C3.15122 11.8125 2.93661 11.9014 2.77838 12.0596C2.62014 12.2179 2.53125 12.4325 2.53125 12.6562V15.75C2.53125 15.9738 2.62014 16.1884 2.77838 16.3466C2.93661 16.5049 3.15122 16.5938 3.375 16.5938H8.4375C8.66128 16.5938 8.87589 16.5049 9.03412 16.3466C9.19235 16.1884 9.28125 15.9738 9.28125 15.75V12.6562C9.28125 12.4325 9.19235 12.2179 9.03412 12.0596C8.87589 11.9014 8.66128 11.8125 8.4375 11.8125ZM5.34375 11.5312C5.34375 11.3821 5.40301 11.239 5.5085 11.1335C5.61399 11.028 5.75707 10.9688 5.90625 10.9688C6.05543 10.9688 6.19851 11.028 6.304 11.1335C6.40949 11.239 6.46875 11.3821 6.46875 11.5312V11.8125H5.34375V11.5312ZM7.59375 14.9062H4.21875V13.5H7.59375V14.9062ZM15.222 5.59125L11.2845 1.65375C11.2061 1.57529 11.113 1.51305 11.0106 1.47058C10.9082 1.42812 10.7984 1.40626 10.6875 1.40625H3.9375C3.56454 1.40625 3.20685 1.55441 2.94313 1.81813C2.67941 2.08185 2.53125 2.43954 2.53125 2.8125V7.59375C2.53125 7.81753 2.62014 8.03214 2.77838 8.19037C2.93661 8.34861 3.15122 8.4375 3.375 8.4375C3.59878 8.4375 3.81339 8.34861 3.97162 8.19037C4.12986 8.03214 4.21875 7.81753 4.21875 7.59375V3.09375H9.5625V6.46875C9.5625 6.69253 9.6514 6.90714 9.80963 7.06537C9.96786 7.22361 10.1825 7.3125 10.4062 7.3125H13.7812V14.9062H11.5312C11.3075 14.9062 11.0929 14.9951 10.9346 15.1534C10.7764 15.3116 10.6875 15.5262 10.6875 15.75C10.6875 15.9738 10.7764 16.1884 10.9346 16.3466C11.0929 16.5049 11.3075 16.5938 11.5312 16.5938H14.0625C14.4355 16.5938 14.7931 16.4456 15.0569 16.1819C15.3206 15.9181 15.4688 15.5605 15.4688 15.1875V6.1875C15.4687 5.9639 15.38 5.74945 15.222 5.59125ZM11.25 4.00781L12.8672 5.625H11.25V4.00781Z" fill="#31225C"/>
</svg>
