<svg width="18" height="18" viewBox="0 0 18 18" fill="none" xmlns="http://www.w3.org/2000/svg">
<path d="M17.3067 8.0057L16.1817 6.8807C15.9732 6.67236 15.7044 6.53481 15.4135 6.4875C15.1226 6.44018 14.8241 6.48549 14.5603 6.61702L11.3822 3.4389C11.5138 3.17517 11.5592 2.87675 11.512 2.58581C11.4648 2.29487 11.3274 2.0261 11.1192 1.81749L9.9942 0.692493C9.73049 0.428861 9.37287 0.280762 8.99998 0.280762C8.6271 0.280762 8.26948 0.428861 8.00576 0.692493L3.50576 5.19249C3.24213 5.4562 3.09403 5.81382 3.09403 6.18671C3.09403 6.5596 3.24213 6.91722 3.50576 7.18093L4.63076 8.30593C4.83864 8.51382 5.10644 8.65133 5.39652 8.69913C5.6866 8.74693 5.98437 8.70261 6.24795 8.57241L2.06436 12.7532C1.64235 13.1752 1.40527 13.7476 1.40527 14.3444C1.40527 14.9412 1.64235 15.5135 2.06436 15.9355C2.48636 16.3575 3.05873 16.5946 3.65553 16.5946C4.25234 16.5946 4.8247 16.3575 5.2467 15.9355L9.42186 11.7569C9.29281 12.0201 9.24926 12.3171 9.29729 12.6063C9.34532 12.8955 9.48254 13.1624 9.68975 13.3698L10.8147 14.4948C10.9453 14.6255 11.1004 14.7291 11.271 14.7998C11.4417 14.8705 11.6246 14.9069 11.8093 14.9069C11.994 14.9069 12.1769 14.8705 12.3476 14.7998C12.5183 14.7291 12.6733 14.6255 12.8039 14.4948L17.3039 9.99484C17.4345 9.86425 17.5382 9.7092 17.6089 9.53855C17.6796 9.36789 17.716 9.18499 17.716 9.00027C17.716 8.81555 17.6796 8.63264 17.6089 8.46199C17.5382 8.29133 17.4345 8.13629 17.3039 8.0057H17.3067ZM5.62498 6.91445L4.89655 6.18741L8.99998 2.08468L9.72701 2.81241L5.62498 6.91445ZM4.0528 14.7423C3.94725 14.8478 3.80413 14.907 3.65493 14.9069C3.50573 14.9069 3.36266 14.8475 3.25721 14.742C3.15176 14.6364 3.09255 14.4933 3.09261 14.3441C3.09268 14.1949 3.15201 14.0519 3.25756 13.9464L7.44256 9.7614L8.2378 10.5573L4.0528 14.7423ZM10.5708 10.5032L7.4967 7.42913L10.2389 4.68695L13.313 7.76101L10.5708 10.5032ZM11.8118 13.1048L11.0847 12.3749L15.1875 8.27288L15.9145 8.99991L11.8118 13.1048Z" fill="#31225C"/>
</svg>
