<svg width="20" height="20" viewBox="0 0 20 20" fill="none" xmlns="http://www.w3.org/2000/svg">
<path d="M2.5 5C2.5 4.83424 2.56585 4.67527 2.68306 4.55806C2.80027 4.44085 2.95924 4.375 3.125 4.375H16.875C17.0408 4.375 17.1997 4.44085 17.3169 4.55806C17.4342 4.67527 17.5 4.83424 17.5 5C17.5 5.16576 17.4342 5.32473 17.3169 5.44194C17.1997 5.55915 17.0408 5.625 16.875 5.625H3.125C2.95924 5.625 2.80027 5.55915 2.68306 5.44194C2.56585 5.32473 2.5 5.16576 2.5 5ZM3.125 10.625H8.125C8.29076 10.625 8.44973 10.5592 8.56694 10.4419C8.68415 10.3247 8.75 10.1658 8.75 10C8.75 9.83424 8.68415 9.67527 8.56694 9.55806C8.44973 9.44085 8.29076 9.375 8.125 9.375H3.125C2.95924 9.375 2.80027 9.44085 2.68306 9.55806C2.56585 9.67527 2.5 9.83424 2.5 10C2.5 10.1658 2.56585 10.3247 2.68306 10.4419C2.80027 10.5592 2.95924 10.625 3.125 10.625ZM9.375 14.375H3.125C2.95924 14.375 2.80027 14.4408 2.68306 14.5581C2.56585 14.6753 2.5 14.8342 2.5 15C2.5 15.1658 2.56585 15.3247 2.68306 15.4419C2.80027 15.5592 2.95924 15.625 3.125 15.625H9.375C9.54076 15.625 9.69973 15.5592 9.81694 15.4419C9.93415 15.3247 10 15.1658 10 15C10 14.8342 9.93415 14.6753 9.81694 14.5581C9.69973 14.4408 9.54076 14.375 9.375 14.375ZM19.375 11.25C19.375 14.1031 15.4469 16.1 15.2797 16.1844C15.1929 16.2278 15.0971 16.2504 15 16.2504C14.9029 16.2504 14.8071 16.2278 14.7203 16.1844C14.5531 16.1 10.625 14.1031 10.625 11.25C10.6254 10.7424 10.7803 10.2469 11.0692 9.82946C11.3581 9.41203 11.7671 9.09242 12.2421 8.91314C12.717 8.73385 13.2352 8.7034 13.7279 8.82581C14.2205 8.94823 14.6642 9.21771 15 9.59844C15.3358 9.21771 15.7795 8.94823 16.2721 8.82581C16.7648 8.7034 17.283 8.73385 17.7579 8.91314C18.2329 9.09242 18.6419 9.41203 18.9308 9.82946C19.2197 10.2469 19.3746 10.7424 19.375 11.25ZM18.125 11.25C18.125 10.9185 17.9933 10.6005 17.7589 10.3661C17.5245 10.1317 17.2065 10 16.875 10C16.5435 10 16.2255 10.1317 15.9911 10.3661C15.7567 10.6005 15.625 10.9185 15.625 11.25C15.625 11.4158 15.5592 11.5747 15.4419 11.6919C15.3247 11.8092 15.1658 11.875 15 11.875C14.8342 11.875 14.6753 11.8092 14.5581 11.6919C14.4408 11.5747 14.375 11.4158 14.375 11.25C14.375 10.9185 14.2433 10.6005 14.0089 10.3661C13.7745 10.1317 13.4565 10 13.125 10C12.7935 10 12.4755 10.1317 12.2411 10.3661C12.0067 10.6005 11.875 10.9185 11.875 11.25C11.875 12.8266 13.9227 14.3078 15 14.9164C16.0773 14.3086 18.125 12.8273 18.125 11.25Z" fill="#31225C" stroke="#31225C" stroke-width="0.4"/>
</svg>
