<svg width="459" height="324" viewBox="0 0 459 324" fill="none" xmlns="http://www.w3.org/2000/svg">
<path opacity="0.71" d="M248.62 292.309C286.396 292.309 317.02 287.115 317.02 280.709C317.02 274.302 286.396 269.109 248.62 269.109C210.844 269.109 180.22 274.302 180.22 280.709C180.22 287.115 210.844 292.309 248.62 292.309Z" fill="#121A45" fill-opacity="0.2"/>
<path fill-rule="evenodd" clip-rule="evenodd" d="M254.221 269.109C254.221 269.109 243.421 272.309 244.521 276.009C245.421 278.809 260.221 278.409 262.421 275.909C263.021 275.309 262.521 270.609 262.521 270.609L254.221 269.109Z" fill="#193263"/>
<path fill-rule="evenodd" clip-rule="evenodd" d="M272.721 271.009C272.721 271.009 263.521 275.409 263.821 279.309C264.021 281.309 272.821 281.409 277.021 279.909C281.121 278.409 281.221 277.509 281.221 276.609C281.221 275.809 281.021 272.609 281.021 272.609L272.721 271.009Z" fill="#193263"/>
<path d="M156.02 114.209H155.92C155.72 114.109 155.62 113.909 155.72 113.709L156.72 110.809C156.82 110.609 157.02 110.509 157.22 110.609C157.42 110.709 157.52 110.909 157.42 111.109L156.42 114.009C156.32 114.109 156.22 114.209 156.02 114.209Z" fill="#F5FFFF"/>
<path d="M182.22 118.209C181.92 118.209 181.82 118.009 181.82 117.809L182.32 114.309C182.32 114.109 182.52 113.909 182.72 114.009C182.92 114.009 183.12 114.209 183.02 114.409L182.52 117.909C182.52 118.009 182.42 118.209 182.22 118.209Z" fill="#F5FFFF"/>
<path d="M213.421 118.709C213.221 118.709 213.021 118.509 213.021 118.309V114.309C213.021 114.109 213.221 113.909 213.421 113.909C213.621 113.909 213.821 114.109 213.821 114.309V118.309C213.821 118.509 213.621 118.709 213.421 118.709Z" fill="#F5FFFF"/>
<path d="M244.721 118.709C244.521 118.709 244.321 118.509 244.321 118.309L244.121 114.709C244.121 114.509 244.221 114.309 244.521 114.309C244.721 114.309 244.921 114.409 244.921 114.709L245.121 118.309C245.121 118.509 245.021 118.709 244.721 118.709Z" fill="#F5FFFF"/>
<path d="M302.02 115.609C301.82 115.609 301.72 115.509 301.62 115.309L300.92 112.409C300.82 112.209 301.02 112.009 301.22 111.909C301.42 111.809 301.62 112.009 301.72 112.209L302.42 115.109C302.42 115.309 302.32 115.509 302.02 115.609Z" fill="#F5FFFF"/>
<path fill-rule="evenodd" clip-rule="evenodd" d="M238.821 186.909C239.921 184.009 242.921 182.309 246.021 182.909C249.121 183.509 251.221 186.209 251.121 189.309C250.821 197.709 250.421 209.909 250.421 209.909C250.421 209.909 248.921 218.609 236.921 216.909C224.921 215.209 224.121 198.709 224.121 198.709C224.121 198.709 226.821 196.309 231.221 194.709C232.321 194.309 233.121 198.709 234.121 197.509C234.921 196.609 238.021 189.009 238.821 186.909Z" fill="#603AC8"/>
<path fill-rule="evenodd" clip-rule="evenodd" d="M224.52 196.509C224.52 196.509 223.82 201.009 227.02 202.509C230.22 204.009 234.12 202.909 233.82 201.209C233.52 199.609 232.32 196.509 231.82 196.109C231.32 195.709 224.52 196.509 224.52 196.509Z" fill="#4E2CA9"/>
<path fill-rule="evenodd" clip-rule="evenodd" d="M229.32 58.9092C229.92 58.9092 230.32 59.5092 230.32 60.1092L229.32 196.709C229.52 203.109 224.62 204.409 221.32 201.909C219.22 200.409 218.92 198.109 219.42 197.209C219.82 196.209 220.72 196.609 220.82 197.009C220.82 197.409 221.12 198.709 222.42 199.709C224.42 201.409 227.62 200.609 227.62 196.809L228.32 60.0092C228.32 59.4092 228.72 58.9092 229.32 58.9092Z" fill="#F5FFFF"/>
<path d="M289.22 245.009C289.22 245.009 282.12 270.509 281.12 272.409C279.72 275.009 270.52 275.009 269.92 271.909L264.42 248.309L289.22 245.009Z" fill="#093E87"/>
<mask id="mask0_6_5131" style="mask-type:luminance" maskUnits="userSpaceOnUse" x="264" y="245" width="26" height="30">
<path d="M289.22 245.009C289.22 245.009 282.12 270.509 281.12 272.409C279.72 275.009 270.52 275.009 269.92 271.909L264.42 248.309L289.22 245.009Z" fill="white"/>
</mask>
<g mask="url(#mask0_6_5131)">
<path fill-rule="evenodd" clip-rule="evenodd" d="M285.02 247.309C283.22 260.209 278.92 271.309 268.42 273.509L284.52 278.109L288.12 253.409L285.02 247.309Z" fill="#0E3773"/>
</g>
<path d="M245.42 251.009C245.72 252.609 252.52 270.909 252.52 270.909C254.32 273.409 261.52 272.809 262.62 270.909L267.22 247.909C267.12 247.809 245.02 249.409 245.42 251.009Z" fill="#093E87"/>
<mask id="mask1_6_5131" style="mask-type:luminance" maskUnits="userSpaceOnUse" x="245" y="247" width="23" height="26">
<path d="M245.42 251.009C245.72 252.609 252.52 270.909 252.52 270.909C254.32 273.409 261.52 272.809 262.62 270.909L267.22 247.909C267.12 247.809 245.02 249.409 245.42 251.009Z" fill="white"/>
</mask>
<g mask="url(#mask1_6_5131)">
<path fill-rule="evenodd" clip-rule="evenodd" d="M265.02 244.609C263.22 257.509 258.92 268.609 248.42 270.809L264.52 275.409L265.02 244.609Z" fill="#0E3773"/>
</g>
<path d="M304.22 246.809C302.82 246.409 301.42 245.909 300.02 245.509C304.12 245.409 308.12 243.809 310.62 241.109C310.12 241.009 309.52 240.909 309.02 240.809C312.52 239.309 315.32 236.809 316.82 233.809C316.22 233.809 315.52 233.809 314.92 233.809C319.72 228.309 322.32 221.409 322.32 214.609C321.72 215.209 321.12 215.809 320.62 216.409C323.02 211.909 323.32 206.609 321.32 201.909C320.52 205.709 317.52 209.009 314.02 211.509C310.52 214.109 306.62 216.109 303.02 218.509C297.22 222.409 292.52 227.409 289.32 233.009C288.22 235.009 287.22 237.009 285.52 238.709C284.22 240.009 279.92 240.809 280.62 242.409C281.32 244.009 286.12 245.509 287.82 246.009C290.42 246.809 293.22 247.309 296.02 247.509C297.52 247.609 298.92 247.509 300.42 247.409C301.12 247.409 303.52 246.509 304.22 246.809Z" fill="#DCCFFF"/>
<path d="M236.92 181.509C236.92 181.509 233.42 250.909 233.92 253.409C236.72 266.609 309.22 256.909 308.12 242.909L291.92 162.909L236.92 181.509Z" fill="#603AC8"/>
<mask id="mask2_6_5131" style="mask-type:luminance" maskUnits="userSpaceOnUse" x="233" y="162" width="76" height="98">
<path d="M236.92 181.509C236.92 181.509 233.42 250.909 233.92 253.409C236.72 266.609 309.22 256.909 308.12 242.909L291.92 162.909L236.92 181.509Z" fill="white"/>
</mask>
<g mask="url(#mask2_6_5131)">
<path fill-rule="evenodd" clip-rule="evenodd" d="M255.421 187.909C255.821 187.809 256.321 187.709 256.821 187.609C269.421 184.509 285.721 177.009 295.321 160.609C296.121 159.309 310.121 165.909 304.621 178.509C302.821 182.609 295.921 174.509 292.621 177.209C287.921 181.209 285.721 187.309 281.621 191.909C280.821 192.809 279.821 193.709 278.821 194.509C277.521 195.509 275.921 196.409 274.121 197.009C271.621 197.809 268.621 198.509 265.521 198.909C265.621 202.409 266.021 207.409 266.821 213.609C267.821 221.109 268.821 226.009 269.421 229.009C269.521 229.109 269.521 229.209 269.521 229.309L270.021 231.809C270.121 232.309 270.221 232.509 270.221 232.509L271.221 237.209C271.321 237.709 271.021 238.309 270.421 238.409C269.921 238.509 269.321 238.209 269.221 237.709L268.221 232.909C267.921 233.009 267.621 233.009 267.221 233.109L268.121 238.309C268.221 238.909 267.821 239.409 267.321 239.509C266.721 239.609 266.221 239.309 266.121 238.709L265.221 233.509C265.021 233.509 264.921 233.609 264.721 233.609L265.521 238.509C265.621 239.109 265.221 239.609 264.721 239.709C264.121 239.809 263.621 239.409 263.521 238.909L262.721 234.009C262.621 234.009 262.421 234.009 262.321 234.109L263.021 239.009C263.121 239.609 262.721 240.109 262.121 240.209C261.521 240.309 261.021 239.909 260.921 239.409L260.221 234.409C260.021 234.409 259.821 234.409 259.721 234.409L260.521 239.109C260.621 239.709 260.221 240.209 259.721 240.309C259.121 240.409 258.621 240.009 258.521 239.509L257.621 234.109C257.521 234.009 257.521 234.009 257.521 233.909C256.821 231.509 253.921 215.209 253.121 205.109C252.921 207.009 252.821 209.109 252.721 211.209C252.221 225.309 253.221 236.309 253.221 236.309C253.221 236.909 252.821 237.409 252.321 237.409C251.721 237.509 251.321 237.009 251.221 236.509L250.821 230.709C250.521 230.709 250.221 230.709 249.821 230.709L249.921 236.909C249.921 237.509 249.521 237.909 248.921 238.009C248.321 238.009 247.921 237.609 247.921 237.009L247.821 230.709C247.621 230.709 247.521 230.709 247.321 230.709V236.709C247.321 237.309 246.921 237.709 246.321 237.809C245.721 237.809 245.321 237.409 245.321 236.809V230.809C245.221 230.809 245.021 230.809 244.921 230.809V236.809C244.921 237.409 244.421 237.809 243.921 237.909C243.321 237.909 242.921 237.509 242.921 236.909V230.709C242.721 230.709 242.521 230.709 242.421 230.609L242.521 236.509C242.521 237.109 242.121 237.509 241.521 237.609C240.921 237.609 240.521 237.209 240.521 236.609L240.421 229.309C240.121 225.509 240.121 209.509 241.021 199.909C241.121 198.809 241.221 197.809 241.321 196.909C240.421 196.409 239.821 195.909 239.321 195.309C235.721 190.309 240.221 186.309 240.221 186.309C240.221 186.309 240.921 187.009 242.421 187.609C243.321 186.409 252.921 186.709 255.421 187.909Z" fill="#4E2CA9"/>
</g>
<mask id="mask3_6_5131" style="mask-type:luminance" maskUnits="userSpaceOnUse" x="233" y="162" width="76" height="98">
<path d="M236.92 181.509C236.92 181.509 233.42 250.909 233.92 253.409C236.72 266.609 309.22 256.909 308.12 242.909L291.92 162.909L236.92 181.509Z" fill="white"/>
</mask>
<g mask="url(#mask3_6_5131)">
<path fill-rule="evenodd" clip-rule="evenodd" d="M284.82 229.809C282.12 229.409 281.72 228.709 281.72 228.709C281.72 228.709 279.62 192.009 283.82 183.509C285.62 179.909 288.62 177.909 291.52 176.809C293.32 176.109 295.22 176.309 296.82 177.209C298.42 178.109 299.62 179.709 299.92 181.509C302.52 194.909 308.52 225.709 308.52 225.709C308.52 225.709 307.22 229.109 297.12 229.909C297.62 231.609 298.12 233.909 297.62 234.609C296.92 235.809 295.52 234.709 295.52 234.709C294.72 236.009 293.62 236.309 292.22 235.709C292.22 235.709 291.62 237.409 288.32 235.509C286.52 234.609 285.42 232.009 284.82 229.809Z" fill="#4E2CA9"/>
</g>
<path d="M254.52 232.209C254.42 232.109 254.42 232.109 254.42 232.009C253.72 229.609 250.72 212.609 249.92 202.609C249.12 192.609 249.72 191.509 249.72 191.509C250.52 189.809 260.42 189.409 262.42 190.309C262.42 190.309 261.82 197.709 263.72 211.509C264.72 219.009 265.72 223.909 266.32 226.909C266.42 227.009 266.42 227.109 266.42 227.209L266.92 229.709C267.02 230.209 267.12 230.409 267.12 230.409L268.12 235.109C268.22 235.609 267.92 236.209 267.32 236.309C266.82 236.409 266.22 236.109 266.12 235.609L265.12 230.809C264.82 230.909 264.52 230.909 264.12 231.009L265.02 236.209C265.12 236.809 264.72 237.309 264.22 237.409C263.62 237.509 263.12 237.209 263.02 236.609L262.12 231.409C261.92 231.409 261.82 231.509 261.62 231.509L262.42 236.409C262.52 237.009 262.12 237.509 261.62 237.609C261.12 237.709 260.52 237.309 260.42 236.809L259.62 231.909C259.52 231.909 259.32 231.909 259.22 232.009L259.92 236.909C260.02 237.509 259.62 238.009 259.02 238.109C258.42 238.209 257.92 237.809 257.82 237.309L257.12 232.309C256.92 232.309 256.72 232.309 256.62 232.309L257.42 237.009C257.52 237.609 257.12 238.109 256.62 238.209C256.02 238.309 255.52 237.909 255.42 237.409L254.52 232.209Z" fill="#B2CFFB"/>
<mask id="mask4_6_5131" style="mask-type:luminance" maskUnits="userSpaceOnUse" x="249" y="189" width="20" height="50">
<path d="M254.52 232.209C254.42 232.109 254.42 232.109 254.42 232.009C253.72 229.609 250.72 212.609 249.92 202.609C249.12 192.609 249.72 191.509 249.72 191.509C250.52 189.809 260.42 189.409 262.42 190.309C262.42 190.309 261.82 197.709 263.72 211.509C264.72 219.009 265.72 223.909 266.32 226.909C266.42 227.009 266.42 227.109 266.42 227.209L266.92 229.709C267.02 230.209 267.12 230.409 267.12 230.409L268.12 235.109C268.22 235.609 267.92 236.209 267.32 236.309C266.82 236.409 266.22 236.109 266.12 235.609L265.12 230.809C264.82 230.909 264.52 230.909 264.12 231.009L265.02 236.209C265.12 236.809 264.72 237.309 264.22 237.409C263.62 237.509 263.12 237.209 263.02 236.609L262.12 231.409C261.92 231.409 261.82 231.509 261.62 231.509L262.42 236.409C262.52 237.009 262.12 237.509 261.62 237.609C261.12 237.709 260.52 237.309 260.42 236.809L259.62 231.909C259.52 231.909 259.32 231.909 259.22 232.009L259.92 236.909C260.02 237.509 259.62 238.009 259.02 238.109C258.42 238.209 257.92 237.809 257.82 237.309L257.12 232.309C256.92 232.309 256.72 232.309 256.62 232.309L257.42 237.009C257.52 237.609 257.12 238.109 256.62 238.209C256.02 238.309 255.52 237.909 255.42 237.409L254.52 232.209Z" fill="white"/>
</mask>
<g mask="url(#mask4_6_5131)">
<path fill-rule="evenodd" clip-rule="evenodd" d="M268.621 225.309C263.021 225.909 257.521 226.909 252.121 228.109L252.521 230.409C257.921 229.109 263.421 228.209 269.021 227.609L268.621 225.309Z" fill="#4E2CA9"/>
</g>
<mask id="mask5_6_5131" style="mask-type:luminance" maskUnits="userSpaceOnUse" x="249" y="189" width="20" height="50">
<path d="M254.52 232.209C254.42 232.109 254.42 232.109 254.42 232.009C253.72 229.609 250.72 212.609 249.92 202.609C249.12 192.609 249.72 191.509 249.72 191.509C250.52 189.809 260.42 189.409 262.42 190.309C262.42 190.309 261.82 197.709 263.72 211.509C264.72 219.009 265.72 223.909 266.32 226.909C266.42 227.009 266.42 227.109 266.42 227.209L266.92 229.709C267.02 230.209 267.12 230.409 267.12 230.409L268.12 235.109C268.22 235.609 267.92 236.209 267.32 236.309C266.82 236.409 266.22 236.109 266.12 235.609L265.12 230.809C264.82 230.909 264.52 230.909 264.12 231.009L265.02 236.209C265.12 236.809 264.72 237.309 264.22 237.409C263.62 237.509 263.12 237.209 263.02 236.609L262.12 231.409C261.92 231.409 261.82 231.509 261.62 231.509L262.42 236.409C262.52 237.009 262.12 237.509 261.62 237.609C261.12 237.709 260.52 237.309 260.42 236.809L259.62 231.909C259.52 231.909 259.32 231.909 259.22 232.009L259.92 236.909C260.02 237.509 259.62 238.009 259.02 238.109C258.42 238.209 257.92 237.809 257.82 237.309L257.12 232.309C256.92 232.309 256.72 232.309 256.62 232.309L257.42 237.009C257.52 237.609 257.12 238.109 256.62 238.209C256.02 238.309 255.52 237.909 255.42 237.409L254.52 232.209Z" fill="white"/>
</mask>
<g mask="url(#mask5_6_5131)">
<path fill-rule="evenodd" clip-rule="evenodd" d="M266.42 218.109C260.82 218.709 255.32 219.709 249.92 220.909L250.32 223.209C255.72 221.909 261.22 221.009 266.82 220.409L266.42 218.109Z" fill="#4E2CA9"/>
</g>
<mask id="mask6_6_5131" style="mask-type:luminance" maskUnits="userSpaceOnUse" x="249" y="189" width="20" height="50">
<path d="M254.52 232.209C254.42 232.109 254.42 232.109 254.42 232.009C253.72 229.609 250.72 212.609 249.92 202.609C249.12 192.609 249.72 191.509 249.72 191.509C250.52 189.809 260.42 189.409 262.42 190.309C262.42 190.309 261.82 197.709 263.72 211.509C264.72 219.009 265.72 223.909 266.32 226.909C266.42 227.009 266.42 227.109 266.42 227.209L266.92 229.709C267.02 230.209 267.12 230.409 267.12 230.409L268.12 235.109C268.22 235.609 267.92 236.209 267.32 236.309C266.82 236.409 266.22 236.109 266.12 235.609L265.12 230.809C264.82 230.909 264.52 230.909 264.12 231.009L265.02 236.209C265.12 236.809 264.72 237.309 264.22 237.409C263.62 237.509 263.12 237.209 263.02 236.609L262.12 231.409C261.92 231.409 261.82 231.509 261.62 231.509L262.42 236.409C262.52 237.009 262.12 237.509 261.62 237.609C261.12 237.709 260.52 237.309 260.42 236.809L259.62 231.909C259.52 231.909 259.32 231.909 259.22 232.009L259.92 236.909C260.02 237.509 259.62 238.009 259.02 238.109C258.42 238.209 257.92 237.809 257.82 237.309L257.12 232.309C256.92 232.309 256.72 232.309 256.62 232.309L257.42 237.009C257.52 237.609 257.12 238.109 256.62 238.209C256.02 238.309 255.52 237.909 255.42 237.409L254.52 232.209Z" fill="white"/>
</mask>
<g mask="url(#mask6_6_5131)">
<path fill-rule="evenodd" clip-rule="evenodd" d="M265.32 209.809C259.72 210.409 254.22 211.409 248.82 212.609L249.22 214.909C254.62 213.609 260.12 212.709 265.72 212.109L265.32 209.809Z" fill="#4E2CA9"/>
</g>
<mask id="mask7_6_5131" style="mask-type:luminance" maskUnits="userSpaceOnUse" x="249" y="189" width="20" height="50">
<path d="M254.52 232.209C254.42 232.109 254.42 232.109 254.42 232.009C253.72 229.609 250.72 212.609 249.92 202.609C249.12 192.609 249.72 191.509 249.72 191.509C250.52 189.809 260.42 189.409 262.42 190.309C262.42 190.309 261.82 197.709 263.72 211.509C264.72 219.009 265.72 223.909 266.32 226.909C266.42 227.009 266.42 227.109 266.42 227.209L266.92 229.709C267.02 230.209 267.12 230.409 267.12 230.409L268.12 235.109C268.22 235.609 267.92 236.209 267.32 236.309C266.82 236.409 266.22 236.109 266.12 235.609L265.12 230.809C264.82 230.909 264.52 230.909 264.12 231.009L265.02 236.209C265.12 236.809 264.72 237.309 264.22 237.409C263.62 237.509 263.12 237.209 263.02 236.609L262.12 231.409C261.92 231.409 261.82 231.509 261.62 231.509L262.42 236.409C262.52 237.009 262.12 237.509 261.62 237.609C261.12 237.709 260.52 237.309 260.42 236.809L259.62 231.909C259.52 231.909 259.32 231.909 259.22 232.009L259.92 236.909C260.02 237.509 259.62 238.009 259.02 238.109C258.42 238.209 257.92 237.809 257.82 237.309L257.12 232.309C256.92 232.309 256.72 232.309 256.62 232.309L257.42 237.009C257.52 237.609 257.12 238.109 256.62 238.209C256.02 238.309 255.52 237.909 255.42 237.409L254.52 232.209Z" fill="white"/>
</mask>
<g mask="url(#mask7_6_5131)">
<path fill-rule="evenodd" clip-rule="evenodd" d="M264.121 200.709C258.521 201.309 253.021 202.309 247.621 203.509L248.021 205.809C253.421 204.509 258.921 203.609 264.521 203.009L264.121 200.709Z" fill="#4E2CA9"/>
</g>
<mask id="mask8_6_5131" style="mask-type:luminance" maskUnits="userSpaceOnUse" x="249" y="189" width="20" height="50">
<path d="M254.52 232.209C254.42 232.109 254.42 232.109 254.42 232.009C253.72 229.609 250.72 212.609 249.92 202.609C249.12 192.609 249.72 191.509 249.72 191.509C250.52 189.809 260.42 189.409 262.42 190.309C262.42 190.309 261.82 197.709 263.72 211.509C264.72 219.009 265.72 223.909 266.32 226.909C266.42 227.009 266.42 227.109 266.42 227.209L266.92 229.709C267.02 230.209 267.12 230.409 267.12 230.409L268.12 235.109C268.22 235.609 267.92 236.209 267.32 236.309C266.82 236.409 266.22 236.109 266.12 235.609L265.12 230.809C264.82 230.909 264.52 230.909 264.12 231.009L265.02 236.209C265.12 236.809 264.72 237.309 264.22 237.409C263.62 237.509 263.12 237.209 263.02 236.609L262.12 231.409C261.92 231.409 261.82 231.509 261.62 231.509L262.42 236.409C262.52 237.009 262.12 237.509 261.62 237.609C261.12 237.709 260.52 237.309 260.42 236.809L259.62 231.909C259.52 231.909 259.32 231.909 259.22 232.009L259.92 236.909C260.02 237.509 259.62 238.009 259.02 238.109C258.42 238.209 257.92 237.809 257.82 237.309L257.12 232.309C256.92 232.309 256.72 232.309 256.62 232.309L257.42 237.009C257.52 237.609 257.12 238.109 256.62 238.209C256.02 238.309 255.52 237.909 255.42 237.409L254.52 232.209Z" fill="white"/>
</mask>
<g mask="url(#mask8_6_5131)">
<path fill-rule="evenodd" clip-rule="evenodd" d="M262.32 190.809C256.72 191.409 251.22 192.409 245.82 193.609L246.22 195.909C251.62 194.609 257.12 193.709 262.72 193.109L262.32 190.809Z" fill="#4E2CA9"/>
</g>
<path fill-rule="evenodd" clip-rule="evenodd" d="M285.32 223.009C285.32 223.009 286.12 230.609 289.52 232.509C292.92 234.409 293.42 232.709 293.42 232.709C294.82 233.409 295.92 233.109 296.72 231.709C296.72 231.709 298.12 232.709 298.82 231.609C299.52 230.409 297.72 224.909 297.72 224.909L285.32 223.009Z" fill="#BFD4F3"/>
<path d="M293.92 164.509C290.92 149.509 283.62 138.309 275.22 128.009C275.22 128.009 276.52 117.209 275.52 113.109C274.52 109.009 269.42 108.209 265.62 113.609C261.62 119.309 260.82 121.209 260.82 121.209C260.82 121.209 249.92 120.509 239.22 124.809C228.52 129.109 230.52 128.009 230.52 128.009C230.52 128.009 221.12 122.309 218.02 124.209C216.62 125.109 222.02 136.609 222.02 136.609C222.02 136.609 214.42 169.509 226.82 178.809C231.42 182.209 243.12 189.209 248.02 189.009C256.92 188.609 279.12 181.109 286.42 171.809C293.82 162.309 293.92 164.509 293.92 164.509Z" fill="#DCCFFF"/>
<mask id="mask9_6_5131" style="mask-type:luminance" maskUnits="userSpaceOnUse" x="217" y="109" width="77" height="81">
<path d="M293.92 164.509C290.92 149.509 283.62 138.309 275.22 128.009C275.22 128.009 276.52 117.209 275.52 113.109C274.52 109.009 269.42 108.209 265.62 113.609C261.62 119.309 260.82 121.209 260.82 121.209C260.82 121.209 249.92 120.509 239.22 124.809C228.52 129.109 230.52 128.009 230.52 128.009C230.52 128.009 221.12 122.309 218.02 124.209C216.62 125.109 222.02 136.609 222.02 136.609C222.02 136.609 214.42 169.509 226.82 178.809C231.42 182.209 243.12 189.209 248.02 189.009C256.92 188.609 279.12 181.109 286.42 171.809C293.82 162.309 293.92 164.509 293.92 164.509Z" fill="white"/>
</mask>
<g mask="url(#mask9_6_5131)">
<path fill-rule="evenodd" clip-rule="evenodd" d="M288.12 143.609C285.72 174.109 247.02 191.509 221.12 178.909C222.82 186.509 229.32 190.909 241.92 190.609C241.92 190.609 280.02 178.109 281.72 177.709C283.52 177.309 301.52 157.609 301.52 157.609C299.72 150.109 295.92 144.709 288.12 143.609Z" fill="#DCCFFF"/>
</g>
<path d="M275.72 119.109C275.52 119.109 275.32 119.009 275.32 118.809L274.82 114.609C274.82 114.409 274.92 114.209 275.12 114.209C275.32 114.209 275.52 114.309 275.52 114.509L276.02 118.709C276.12 118.909 275.92 119.109 275.72 119.109Z" fill="#F5FFFF"/>
<path fill-rule="evenodd" clip-rule="evenodd" d="M229.02 152.809C229.12 153.209 229.12 153.609 229.12 154.109C229.02 156.809 227.32 159.009 225.32 158.909C223.32 158.909 221.82 156.709 221.92 154.009V153.909C222.82 154.109 223.72 154.209 224.82 154.109C226.42 154.009 227.92 153.509 229.02 152.809Z" fill="#233653"/>
<path fill-rule="evenodd" clip-rule="evenodd" d="M240.82 151.309C240.72 151.709 240.62 152.109 240.62 152.609C240.52 155.309 242.02 157.509 244.02 157.509C246.02 157.509 247.72 155.309 247.82 152.709V152.609C246.92 152.809 245.92 152.809 244.92 152.709C243.42 152.609 241.92 152.109 240.82 151.309Z" fill="#233653"/>
<path d="M236.82 184.509C236.82 184.509 232.32 188.509 235.92 193.509C239.52 198.509 259.52 198.809 271.02 195.009C281.12 191.709 282.52 181.109 289.52 175.209C292.82 172.409 299.72 180.509 301.52 176.509C307.02 163.809 293.02 157.309 292.22 158.609C282.62 175.009 266.32 182.509 253.72 185.609C241.12 188.809 236.82 184.509 236.82 184.509Z" fill="#95BAF1"/>
<mask id="mask10_6_5131" style="mask-type:luminance" maskUnits="userSpaceOnUse" x="234" y="158" width="69" height="40">
<path d="M236.82 184.509C236.82 184.509 232.32 188.509 235.92 193.509C239.52 198.509 259.52 198.809 271.02 195.009C281.12 191.709 282.52 181.109 289.52 175.209C292.82 172.409 299.72 180.509 301.52 176.509C307.02 163.809 293.02 157.309 292.22 158.609C282.62 175.009 266.32 182.509 253.72 185.609C241.12 188.809 236.82 184.509 236.82 184.509Z" fill="white"/>
</mask>
<g mask="url(#mask10_6_5131)">
<path fill-rule="evenodd" clip-rule="evenodd" d="M255.52 184.009C257.12 189.509 258.42 195.009 259.42 200.609L257.12 201.109C256.22 195.509 254.92 189.909 253.22 184.509L255.52 184.009Z" fill="#4E2CA9"/>
</g>
<mask id="mask11_6_5131" style="mask-type:luminance" maskUnits="userSpaceOnUse" x="234" y="158" width="69" height="40">
<path d="M236.82 184.509C236.82 184.509 232.32 188.509 235.92 193.509C239.52 198.509 259.52 198.809 271.02 195.009C281.12 191.709 282.52 181.109 289.52 175.209C292.82 172.409 299.72 180.509 301.52 176.509C307.02 163.809 293.02 157.309 292.22 158.609C282.62 175.009 266.32 182.509 253.72 185.609C241.12 188.809 236.82 184.509 236.82 184.509Z" fill="white"/>
</mask>
<g mask="url(#mask11_6_5131)">
<path fill-rule="evenodd" clip-rule="evenodd" d="M237.62 181.509C236.52 187.109 235.12 192.609 233.52 198.109L231.22 197.509C233.02 192.109 234.32 186.609 235.32 180.909L237.62 181.509Z" fill="#4E2CA9"/>
</g>
<mask id="mask12_6_5131" style="mask-type:luminance" maskUnits="userSpaceOnUse" x="234" y="158" width="69" height="40">
<path d="M236.82 184.509C236.82 184.509 232.32 188.509 235.92 193.509C239.52 198.509 259.52 198.809 271.02 195.009C281.12 191.709 282.52 181.109 289.52 175.209C292.82 172.409 299.72 180.509 301.52 176.509C307.02 163.809 293.02 157.309 292.22 158.609C282.62 175.009 266.32 182.509 253.72 185.609C241.12 188.809 236.82 184.509 236.82 184.509Z" fill="white"/>
</mask>
<g mask="url(#mask12_6_5131)">
<path fill-rule="evenodd" clip-rule="evenodd" d="M261.32 182.209C263.92 187.309 266.12 192.509 268.12 197.809L265.92 198.709C264.02 193.309 261.72 188.109 259.12 183.109L261.32 182.209Z" fill="#4E2CA9"/>
</g>
<mask id="mask13_6_5131" style="mask-type:luminance" maskUnits="userSpaceOnUse" x="234" y="158" width="69" height="40">
<path d="M236.82 184.509C236.82 184.509 232.32 188.509 235.92 193.509C239.52 198.509 259.52 198.809 271.02 195.009C281.12 191.709 282.52 181.109 289.52 175.209C292.82 172.409 299.72 180.509 301.52 176.509C307.02 163.809 293.02 157.309 292.22 158.609C282.62 175.009 266.32 182.509 253.72 185.609C241.12 188.809 236.82 184.509 236.82 184.509Z" fill="white"/>
</mask>
<g mask="url(#mask13_6_5131)">
<path fill-rule="evenodd" clip-rule="evenodd" d="M269.12 178.609C271.72 183.709 273.92 188.909 275.92 194.209L273.72 195.109C271.82 189.709 269.52 184.509 266.92 179.509L269.12 178.609Z" fill="#4E2CA9"/>
</g>
<mask id="mask14_6_5131" style="mask-type:luminance" maskUnits="userSpaceOnUse" x="234" y="158" width="69" height="40">
<path d="M236.82 184.509C236.82 184.509 232.32 188.509 235.92 193.509C239.52 198.509 259.52 198.809 271.02 195.009C281.12 191.709 282.52 181.109 289.52 175.209C292.82 172.409 299.72 180.509 301.52 176.509C307.02 163.809 293.02 157.309 292.22 158.609C282.62 175.009 266.32 182.509 253.72 185.609C241.12 188.809 236.82 184.509 236.82 184.509Z" fill="white"/>
</mask>
<g mask="url(#mask14_6_5131)">
<path fill-rule="evenodd" clip-rule="evenodd" d="M277.62 174.509C280.22 179.609 282.42 184.809 284.42 190.109L282.22 191.009C280.32 185.609 278.02 180.409 275.42 175.409L277.62 174.509Z" fill="#4E2CA9"/>
</g>
<mask id="mask15_6_5131" style="mask-type:luminance" maskUnits="userSpaceOnUse" x="234" y="158" width="69" height="40">
<path d="M236.82 184.509C236.82 184.509 232.32 188.509 235.92 193.509C239.52 198.509 259.52 198.809 271.02 195.009C281.12 191.709 282.52 181.109 289.52 175.209C292.82 172.409 299.72 180.509 301.52 176.509C307.02 163.809 293.02 157.309 292.22 158.609C282.62 175.009 266.32 182.509 253.72 185.609C241.12 188.809 236.82 184.509 236.82 184.509Z" fill="white"/>
</mask>
<g mask="url(#mask15_6_5131)">
<path fill-rule="evenodd" clip-rule="evenodd" d="M284.82 165.509C287.42 170.609 289.62 175.809 291.62 181.109L289.42 182.009C287.52 176.609 285.22 171.409 282.62 166.409L284.82 165.509Z" fill="#4E2CA9"/>
</g>
<mask id="mask16_6_5131" style="mask-type:luminance" maskUnits="userSpaceOnUse" x="234" y="158" width="69" height="40">
<path d="M236.82 184.509C236.82 184.509 232.32 188.509 235.92 193.509C239.52 198.509 259.52 198.809 271.02 195.009C281.12 191.709 282.52 181.109 289.52 175.209C292.82 172.409 299.72 180.509 301.52 176.509C307.02 163.809 293.02 157.309 292.22 158.609C282.62 175.009 266.32 182.509 253.72 185.609C241.12 188.809 236.82 184.509 236.82 184.509Z" fill="white"/>
</mask>
<g mask="url(#mask16_6_5131)">
<path fill-rule="evenodd" clip-rule="evenodd" d="M290.22 159.109C294.72 164.909 299.02 170.809 303.02 176.909L301.12 178.309C297.22 172.209 292.92 166.209 288.32 160.509L290.22 159.109Z" fill="#4E2CA9"/>
</g>
<path fill-rule="evenodd" clip-rule="evenodd" d="M238.72 161.109C234.82 159.309 219.52 160.509 217.72 165.809C215.82 171.409 225.52 185.609 236.52 183.309C253.02 179.909 243.42 163.309 238.72 161.109Z" fill="#E9F3FF"/>
<path fill-rule="evenodd" clip-rule="evenodd" d="M290.621 174.909C292.421 174.109 294.521 174.109 296.321 175.109C298.121 176.109 299.321 177.809 299.621 179.809C301.421 192.809 305.621 222.809 305.621 222.809C305.621 222.809 308.221 226.209 296.021 226.709C283.821 227.209 283.021 225.609 283.021 225.609C283.021 225.609 280.921 188.909 285.121 180.409C286.421 177.609 288.521 175.909 290.621 174.909Z" fill="#603AC8"/>
<path d="M237.02 227.609C236.72 223.809 236.72 207.809 237.62 198.209C238.52 188.109 239.02 185.909 239.02 185.909C240.12 184.409 250.82 184.709 252.62 186.009C252.62 186.009 250.12 195.409 249.62 209.509C249.12 223.609 250.12 234.609 250.12 234.609C250.12 235.209 249.72 235.709 249.22 235.709C248.62 235.809 248.22 235.309 248.12 234.809L247.72 229.009C247.42 229.009 247.12 229.009 246.72 229.009L246.82 235.209C246.82 235.809 246.42 236.209 245.82 236.309C245.22 236.309 244.82 235.909 244.82 235.309L244.72 229.009C244.52 229.009 244.42 229.009 244.22 229.009V235.009C244.22 235.609 243.82 236.009 243.22 236.109C242.62 236.109 242.22 235.709 242.22 235.109V229.109C242.12 229.109 241.92 229.109 241.82 229.109V235.109C241.82 235.709 241.32 236.109 240.82 236.209C240.22 236.209 239.82 235.809 239.82 235.209V229.009C239.62 229.009 239.42 229.009 239.32 228.909L239.42 234.809C239.42 235.409 239.02 235.809 238.42 235.909C237.82 235.909 237.42 235.509 237.42 234.909L237.02 227.609Z" fill="#B2CFFB"/>
<mask id="mask17_6_5131" style="mask-type:luminance" maskUnits="userSpaceOnUse" x="236" y="184" width="17" height="53">
<path d="M237.02 227.609C236.72 223.809 236.72 207.809 237.62 198.209C238.52 188.109 239.02 185.909 239.02 185.909C240.12 184.409 250.82 184.709 252.62 186.009C252.62 186.009 250.12 195.409 249.62 209.509C249.12 223.609 250.12 234.609 250.12 234.609C250.12 235.209 249.72 235.709 249.22 235.709C248.62 235.809 248.22 235.309 248.12 234.809L247.72 229.009C247.42 229.009 247.12 229.009 246.72 229.009L246.82 235.209C246.82 235.809 246.42 236.209 245.82 236.309C245.22 236.309 244.82 235.909 244.82 235.309L244.72 229.009C244.52 229.009 244.42 229.009 244.22 229.009V235.009C244.22 235.609 243.82 236.009 243.22 236.109C242.62 236.109 242.22 235.709 242.22 235.109V229.109C242.12 229.109 241.92 229.109 241.82 229.109V235.109C241.82 235.709 241.32 236.109 240.82 236.209C240.22 236.209 239.82 235.809 239.82 235.209V229.009C239.62 229.009 239.42 229.009 239.32 228.909L239.42 234.809C239.42 235.409 239.02 235.809 238.42 235.909C237.82 235.909 237.42 235.509 237.42 234.909L237.02 227.609Z" fill="white"/>
</mask>
<g mask="url(#mask17_6_5131)">
<path fill-rule="evenodd" clip-rule="evenodd" d="M251.72 224.709C246.12 224.109 240.52 223.809 235.02 223.709L234.92 226.009C240.52 225.909 246.12 226.309 251.62 227.009L251.72 224.709Z" fill="#4E2CA9"/>
</g>
<mask id="mask18_6_5131" style="mask-type:luminance" maskUnits="userSpaceOnUse" x="236" y="184" width="17" height="53">
<path d="M237.02 227.609C236.72 223.809 236.72 207.809 237.62 198.209C238.52 188.109 239.02 185.909 239.02 185.909C240.12 184.409 250.82 184.709 252.62 186.009C252.62 186.009 250.12 195.409 249.62 209.509C249.12 223.609 250.12 234.609 250.12 234.609C250.12 235.209 249.72 235.709 249.22 235.709C248.62 235.809 248.22 235.309 248.12 234.809L247.72 229.009C247.42 229.009 247.12 229.009 246.72 229.009L246.82 235.209C246.82 235.809 246.42 236.209 245.82 236.309C245.22 236.309 244.82 235.909 244.82 235.309L244.72 229.009C244.52 229.009 244.42 229.009 244.22 229.009V235.009C244.22 235.609 243.82 236.009 243.22 236.109C242.62 236.109 242.22 235.709 242.22 235.109V229.109C242.12 229.109 241.92 229.109 241.82 229.109V235.109C241.82 235.709 241.32 236.109 240.82 236.209C240.22 236.209 239.82 235.809 239.82 235.209V229.009C239.62 229.009 239.42 229.009 239.32 228.909L239.42 234.809C239.42 235.409 239.02 235.809 238.42 235.909C237.82 235.909 237.42 235.509 237.42 234.909L237.02 227.609Z" fill="white"/>
</mask>
<g mask="url(#mask18_6_5131)">
<path fill-rule="evenodd" clip-rule="evenodd" d="M251.12 217.309C245.52 216.709 239.92 216.409 234.42 216.309L234.32 218.609C239.92 218.509 245.52 218.909 251.02 219.609L251.12 217.309Z" fill="#4E2CA9"/>
</g>
<mask id="mask19_6_5131" style="mask-type:luminance" maskUnits="userSpaceOnUse" x="236" y="184" width="17" height="53">
<path d="M237.02 227.609C236.72 223.809 236.72 207.809 237.62 198.209C238.52 188.109 239.02 185.909 239.02 185.909C240.12 184.409 250.82 184.709 252.62 186.009C252.62 186.009 250.12 195.409 249.62 209.509C249.12 223.609 250.12 234.609 250.12 234.609C250.12 235.209 249.72 235.709 249.22 235.709C248.62 235.809 248.22 235.309 248.12 234.809L247.72 229.009C247.42 229.009 247.12 229.009 246.72 229.009L246.82 235.209C246.82 235.809 246.42 236.209 245.82 236.309C245.22 236.309 244.82 235.909 244.82 235.309L244.72 229.009C244.52 229.009 244.42 229.009 244.22 229.009V235.009C244.22 235.609 243.82 236.009 243.22 236.109C242.62 236.109 242.22 235.709 242.22 235.109V229.109C242.12 229.109 241.92 229.109 241.82 229.109V235.109C241.82 235.709 241.32 236.109 240.82 236.209C240.22 236.209 239.82 235.809 239.82 235.209V229.009C239.62 229.009 239.42 229.009 239.32 228.909L239.42 234.809C239.42 235.409 239.02 235.809 238.42 235.909C237.82 235.909 237.42 235.509 237.42 234.909L237.02 227.609Z" fill="white"/>
</mask>
<g mask="url(#mask19_6_5131)">
<path fill-rule="evenodd" clip-rule="evenodd" d="M251.82 209.009C246.22 208.409 240.62 208.109 235.12 208.009L235.02 210.309C240.62 210.209 246.22 210.609 251.72 211.309L251.82 209.009Z" fill="#4E2CA9"/>
</g>
<mask id="mask20_6_5131" style="mask-type:luminance" maskUnits="userSpaceOnUse" x="236" y="184" width="17" height="53">
<path d="M237.02 227.609C236.72 223.809 236.72 207.809 237.62 198.209C238.52 188.109 239.02 185.909 239.02 185.909C240.12 184.409 250.82 184.709 252.62 186.009C252.62 186.009 250.12 195.409 249.62 209.509C249.12 223.609 250.12 234.609 250.12 234.609C250.12 235.209 249.72 235.709 249.22 235.709C248.62 235.809 248.22 235.309 248.12 234.809L247.72 229.009C247.42 229.009 247.12 229.009 246.72 229.009L246.82 235.209C246.82 235.809 246.42 236.209 245.82 236.309C245.22 236.309 244.82 235.909 244.82 235.309L244.72 229.009C244.52 229.009 244.42 229.009 244.22 229.009V235.009C244.22 235.609 243.82 236.009 243.22 236.109C242.62 236.109 242.22 235.709 242.22 235.109V229.109C242.12 229.109 241.92 229.109 241.82 229.109V235.109C241.82 235.709 241.32 236.109 240.82 236.209C240.22 236.209 239.82 235.809 239.82 235.209V229.009C239.62 229.009 239.42 229.009 239.32 228.909L239.42 234.809C239.42 235.409 239.02 235.809 238.42 235.909C237.82 235.909 237.42 235.509 237.42 234.909L237.02 227.609Z" fill="white"/>
</mask>
<g mask="url(#mask20_6_5131)">
<path fill-rule="evenodd" clip-rule="evenodd" d="M252.72 199.809C247.12 199.209 241.52 198.909 236.02 198.809L235.92 201.109C241.52 201.009 247.12 201.409 252.62 202.109L252.72 199.809Z" fill="#4E2CA9"/>
</g>
<mask id="mask21_6_5131" style="mask-type:luminance" maskUnits="userSpaceOnUse" x="236" y="184" width="17" height="53">
<path d="M237.02 227.609C236.72 223.809 236.72 207.809 237.62 198.209C238.52 188.109 239.02 185.909 239.02 185.909C240.12 184.409 250.82 184.709 252.62 186.009C252.62 186.009 250.12 195.409 249.62 209.509C249.12 223.609 250.12 234.609 250.12 234.609C250.12 235.209 249.72 235.709 249.22 235.709C248.62 235.809 248.22 235.309 248.12 234.809L247.72 229.009C247.42 229.009 247.12 229.009 246.72 229.009L246.82 235.209C246.82 235.809 246.42 236.209 245.82 236.309C245.22 236.309 244.82 235.909 244.82 235.309L244.72 229.009C244.52 229.009 244.42 229.009 244.22 229.009V235.009C244.22 235.609 243.82 236.009 243.22 236.109C242.62 236.109 242.22 235.709 242.22 235.109V229.109C242.12 229.109 241.92 229.109 241.82 229.109V235.109C241.82 235.709 241.32 236.109 240.82 236.209C240.22 236.209 239.82 235.809 239.82 235.209V229.009C239.62 229.009 239.42 229.009 239.32 228.909L239.42 234.809C239.42 235.409 239.02 235.809 238.42 235.909C237.82 235.909 237.42 235.509 237.42 234.909L237.02 227.609Z" fill="white"/>
</mask>
<g mask="url(#mask21_6_5131)">
<path fill-rule="evenodd" clip-rule="evenodd" d="M253.22 189.709C247.62 189.109 242.02 188.809 236.52 188.709L236.42 191.009C242.02 190.909 247.62 191.309 253.12 192.009L253.22 189.709Z" fill="#4E2CA9"/>
</g>
<path fill-rule="evenodd" clip-rule="evenodd" d="M264.42 121.609C264.42 121.609 270.02 111.409 272.52 113.109C275.02 114.809 272.72 126.309 272.72 126.309C270.42 123.609 267.72 122.009 264.42 121.609Z" fill="#4E2CA9"/>
<path fill-rule="evenodd" clip-rule="evenodd" d="M182.421 116.409C187.221 82.9091 201.921 71.7091 229.421 64.1091C192.821 63.8091 162.321 84.9091 156.021 112.809C159.321 111.009 163.021 109.909 166.921 110.009C172.821 110.009 178.221 112.409 182.421 116.409Z" fill="#603AC8"/>
<path fill-rule="evenodd" clip-rule="evenodd" d="M229.42 64.1089C201.92 71.7089 187.22 82.9089 182.42 116.409C186.62 112.509 192.12 110.109 198.02 110.209C203.92 110.209 209.32 112.709 213.52 116.609C213.82 97.9089 218.22 80.2089 229.42 64.1089Z" fill="#4E2CA9"/>
<path fill-rule="evenodd" clip-rule="evenodd" d="M229.421 64.1089C218.221 80.2089 213.821 97.9089 213.521 116.609C217.821 112.709 223.221 110.309 229.121 110.409C235.021 110.409 240.421 112.909 244.621 116.809C244.521 98.1089 240.321 80.4089 229.421 64.1089Z" fill="#603AC8"/>
<path fill-rule="evenodd" clip-rule="evenodd" d="M229.42 64.1089C240.42 80.4089 244.52 98.2089 244.52 116.909C248.82 113.009 254.22 110.609 260.12 110.709C266.02 110.709 271.42 113.209 275.62 117.109C271.32 83.5089 256.82 72.1089 229.42 64.1089Z" fill="#4E2CA9"/>
<path fill-rule="evenodd" clip-rule="evenodd" d="M229.42 64.1089C256.82 72.1089 271.32 83.5089 275.62 117.109C279.92 113.209 285.32 110.809 291.22 110.909C295.12 110.909 298.82 112.009 302.12 113.909C296.22 85.8089 265.92 64.4089 229.42 64.1089Z" fill="#603AC8"/>
<path fill-rule="evenodd" clip-rule="evenodd" d="M223.821 198.409C223.121 197.509 221.021 190.309 224.521 188.509C230.221 185.509 233.221 187.309 232.121 190.409C233.721 190.209 234.821 195.409 232.521 195.609C232.521 195.609 233.721 195.509 233.921 197.409C234.121 199.109 230.221 200.209 228.121 200.209C226.021 200.309 224.421 199.309 223.821 198.409Z" fill="#DCCFFF"/>
<path fill-rule="evenodd" clip-rule="evenodd" d="M221.72 167.709C222.42 171.009 223.82 174.009 226.22 176.709H226.32V176.609C223.92 173.909 222.52 170.909 221.82 167.709C221.82 167.609 221.72 167.609 221.72 167.609C221.82 167.609 221.72 167.709 221.72 167.709Z" fill="#000014"/>
<path fill-rule="evenodd" clip-rule="evenodd" d="M230.421 177.309C229.221 176.409 227.421 176.109 226.121 176.609C225.221 176.909 224.621 177.609 224.621 178.609C224.621 178.709 224.621 178.709 224.721 178.709C224.821 178.709 224.821 178.709 224.821 178.609C224.821 177.709 225.421 177.109 226.221 176.809C227.421 176.409 229.121 176.609 230.321 177.509H230.421C230.521 177.409 230.421 177.409 230.421 177.309Z" fill="#000014"/>
<path fill-rule="evenodd" clip-rule="evenodd" d="M227.121 167.009C227.521 166.209 227.421 165.309 227.021 164.609C226.621 163.909 225.82 163.409 224.92 163.309C222.42 163.109 218.121 163.109 217.521 164.309C216.521 166.109 218.62 170.809 220.72 171.109C222.72 171.309 226.121 169.009 227.121 167.009Z" fill="#233653"/>
<path fill-rule="evenodd" clip-rule="evenodd" d="M249.421 151.909C248.121 152.809 245.321 152.909 243.221 152.309C241.821 151.909 240.621 151.209 240.221 150.109C240.221 150.009 240.121 150.009 240.121 150.009C240.021 150.009 240.021 150.109 240.021 150.109C240.421 151.209 241.621 152.009 243.121 152.409C245.321 153.009 248.121 152.909 249.521 152.009C249.521 152.009 249.621 151.909 249.521 151.909H249.421Z" fill="#000014"/>
<path fill-rule="evenodd" clip-rule="evenodd" d="M221.02 153.909C225.62 154.809 228.62 153.309 230.72 151.909C230.72 151.909 230.82 151.809 230.72 151.809C230.72 151.809 230.62 151.709 230.62 151.809C228.52 153.309 225.62 154.709 221.02 153.809C220.92 153.809 220.92 153.809 220.92 153.909C220.92 153.909 220.92 153.909 221.02 153.909Z" fill="#000014"/>
<path d="M241.82 6.10902C237.42 17.809 233.02 29.509 228.52 41.209C228.42 41.409 228.72 41.409 228.72 41.309C233.12 29.609 237.52 17.909 241.92 6.20902C242.12 6.00902 241.92 5.90902 241.82 6.10902Z" fill="#BFD4F3"/>
<path d="M317.021 1.70924C312.621 13.4092 308.221 25.1092 303.721 36.8092C303.621 37.0092 303.921 37.0092 303.921 36.9092C308.321 25.2092 312.721 13.5092 317.121 1.80924C317.321 1.60924 317.121 1.60924 317.021 1.70924Z" fill="#BFD4F3"/>
<path d="M208.52 30.9089C206.12 36.9089 203.72 43.0089 201.32 49.0089C201.22 49.2089 201.52 49.3089 201.62 49.1089C204.02 43.0089 206.32 37.0089 208.72 30.9089C208.82 30.8089 208.52 30.7089 208.52 30.9089Z" fill="#BFD4F3"/>
<path d="M169.42 55.5092C166.12 64.2092 162.821 72.9092 159.621 81.7092C159.521 81.9092 159.821 81.9092 159.821 81.8092C163.121 73.1092 166.421 64.4092 169.621 55.6092C169.721 55.5092 169.52 55.4092 169.42 55.5092Z" fill="#BFD4F3"/>
<path d="M121.62 128.709C117.52 139.509 113.42 150.209 109.52 161.109C109.42 161.409 109.82 161.509 109.92 161.209C114.02 150.409 117.92 139.609 121.92 128.809C121.92 128.609 121.72 128.609 121.62 128.709Z" fill="#BFD4F3"/>
<path d="M131.321 61.3089C128.421 68.7089 125.621 76.2089 122.721 83.6089C122.621 83.8089 122.921 83.8088 122.921 83.7088C125.821 76.3088 128.621 68.8088 131.521 61.4088C131.621 61.2088 131.421 61.2089 131.321 61.3089Z" fill="#BFD4F3"/>
<path d="M88.2203 119.409C85.8203 125.609 83.4203 131.809 81.2203 138.009C81.1203 138.209 81.4203 138.309 81.5203 138.109C83.9203 131.909 86.1203 125.709 88.4203 119.509C88.4203 119.309 88.2203 119.309 88.2203 119.409Z" fill="#BFD4F3"/>
<path d="M69.2202 84.009C66.9202 90.209 64.5202 96.409 62.2202 102.609C62.2202 102.709 62.4202 102.809 62.4202 102.709C64.8202 96.509 67.1202 90.309 69.4202 84.109C69.5202 83.909 69.3202 83.909 69.2202 84.009Z" fill="#BFD4F3"/>
<path d="M94.5202 60.5089C92.8202 65.1089 91.1202 69.7089 89.3202 74.3089C89.2202 74.5089 89.5202 74.5089 89.5202 74.4089C91.2202 69.8089 92.9202 65.2089 94.7202 60.6089C94.8202 60.4089 94.6202 60.3089 94.5202 60.5089Z" fill="#BFD4F3"/>
<path d="M270.721 34.609C268.621 40.509 266.521 46.409 264.521 52.309C264.521 52.409 264.721 52.509 264.721 52.409C266.821 46.509 268.921 40.609 270.921 34.709C271.021 34.509 270.821 34.409 270.721 34.609Z" fill="#BFD4F3"/>
<path d="M286.02 32.4089C283.92 38.3089 281.82 44.2089 279.82 50.1089C279.82 50.2089 280.02 50.3089 280.02 50.2089C282.12 44.3089 284.22 38.4089 286.22 32.5089C286.32 32.3089 286.12 32.3089 286.02 32.4089Z" fill="#BFD4F3"/>
<path d="M300.221 50.3092C297.821 56.5092 295.421 62.7092 293.221 68.9092C293.121 69.1092 293.521 69.2092 293.521 69.0092C295.921 62.8092 298.121 56.6092 300.421 50.4092C300.521 50.2092 300.221 50.1092 300.221 50.3092Z" fill="#BFD4F3"/>
<path d="M336.121 52.8091C332.121 64.5091 327.821 76.1091 323.421 87.7091C323.321 87.9091 323.621 88.0091 323.721 87.8091C328.321 76.3091 332.521 64.6091 336.421 52.9091C336.521 52.6091 336.221 52.5091 336.121 52.8091Z" fill="#BFD4F3"/>
<path d="M329.621 14.609C325.621 26.309 321.321 37.909 316.921 49.509C316.821 49.709 317.121 49.809 317.221 49.609C321.821 38.109 326.021 26.409 329.921 14.709C330.021 14.509 329.721 14.409 329.621 14.609Z" fill="#BFD4F3"/>
<path d="M360.32 163.909C357.42 171.309 354.52 178.809 351.62 186.209C351.52 186.409 351.82 186.509 351.92 186.309C354.82 178.909 357.72 171.409 360.62 164.009C360.72 163.809 360.42 163.809 360.32 163.909Z" fill="#BFD4F3"/>
<path d="M338.62 148.709C335.62 156.609 332.52 164.509 329.52 172.409C329.42 172.609 329.72 172.609 329.72 172.509C332.72 164.609 335.72 156.709 338.82 148.809C338.82 148.709 338.62 148.609 338.62 148.709Z" fill="#BFD4F3"/>
<path d="M295.52 96.5091C292.82 103.609 290.12 110.709 287.52 117.809C287.42 118.009 287.72 118.009 287.72 117.909C290.42 110.809 293.02 103.709 295.62 96.5091C295.72 96.4091 295.52 96.4091 295.52 96.5091Z" fill="#BFD4F3"/>
<path d="M321.82 134.209C318.92 142.009 315.92 149.809 313.02 157.609C312.92 157.809 313.22 157.809 313.22 157.709C316.12 149.909 319.12 142.109 322.02 134.309C322.12 134.109 321.92 134.009 321.82 134.209Z" fill="#BFD4F3"/>
<path d="M258.221 225.409C255.221 233.409 252.221 241.509 249.121 249.509C249.021 249.709 249.32 249.709 249.32 249.609C252.32 241.609 255.32 233.509 258.32 225.509C258.42 225.409 258.221 225.309 258.221 225.409Z" fill="#BFD4F3"/>
<path d="M301.021 173.209C297.921 181.509 294.921 189.809 291.921 198.109C291.821 198.309 292.121 198.409 292.221 198.209C295.321 189.909 298.321 181.609 301.321 173.309C301.421 173.109 301.121 173.009 301.021 173.209Z" fill="#BFD4F3"/>
<path d="M219.921 190.309C218.621 193.709 217.321 197.209 216.021 200.609C216.021 200.709 216.121 200.709 216.121 200.609C217.421 197.209 218.721 193.709 220.021 190.309C220.121 190.209 220.021 190.209 219.921 190.309Z" fill="#BFD4F3"/>
<path d="M204.92 155.209C202.72 160.809 200.52 166.409 198.32 172.009C198.22 172.209 198.52 172.309 198.62 172.109C200.82 166.509 203.02 160.909 205.22 155.309C205.32 155.109 205.02 155.009 204.92 155.209Z" fill="#BFD4F3"/>
<path d="M211.52 252.309C209.12 258.709 206.72 265.209 204.32 271.609C204.22 271.809 204.52 271.909 204.62 271.709C207.02 265.309 209.42 258.809 211.82 252.409C211.92 252.209 211.62 252.209 211.52 252.309Z" fill="#BFD4F3"/>
<path d="M187.621 266.209C185.821 271.009 183.921 275.809 182.121 280.609C182.121 280.709 182.221 280.709 182.221 280.609C184.021 275.809 185.921 271.009 187.721 266.209C187.821 266.109 187.721 266.109 187.621 266.209Z" fill="#BFD4F3"/>
<path d="M143.82 289.009C139.82 299.709 135.72 310.309 131.92 321.009C131.82 321.209 132.12 321.209 132.12 321.109C136.32 310.509 140.22 299.809 144.12 289.109C144.32 288.909 143.92 288.809 143.82 289.009Z" fill="#BFD4F3"/>
<path d="M114.321 285.809C113.221 288.909 112.121 292.109 111.121 295.209C111.021 295.409 111.321 295.409 111.321 295.309C112.421 292.209 113.521 289.009 114.521 285.909C114.621 285.709 114.321 285.709 114.321 285.809Z" fill="#BFD4F3"/>
<path d="M84.4205 197.209C81.9205 204.009 79.5205 210.809 77.0205 217.609C77.0205 217.709 77.2205 217.809 77.2205 217.709C79.7205 210.909 82.1205 204.109 84.6205 197.309C84.6205 197.209 84.4205 197.109 84.4205 197.209Z" fill="#BFD4F3"/>
<path d="M72.2205 160.909C69.6205 167.809 67.0205 174.709 64.4205 181.609C64.3205 181.809 64.6205 181.909 64.7205 181.709C67.3205 174.809 69.8205 167.909 72.4205 161.009C72.5205 160.809 72.3205 160.809 72.2205 160.909Z" fill="#BFD4F3"/>
<path d="M53.4205 126.009C50.4205 133.809 47.4205 141.609 44.6205 149.409C44.5205 149.609 44.9205 149.709 44.9205 149.509C47.9205 141.709 50.8205 133.909 53.7205 126.109C53.8205 125.909 53.5205 125.809 53.4205 126.009Z" fill="#BFD4F3"/>
<path d="M40.3206 93.609C37.7206 99.809 35.3206 106.109 32.8206 112.409C32.7206 112.609 33.1206 112.809 33.2206 112.509C35.7206 106.209 38.2206 100.009 40.6206 93.709C40.8206 93.509 40.4206 93.409 40.3206 93.609Z" fill="#BFD4F3"/>
<path d="M264.62 3.60902C263.42 6.80902 262.22 10.009 261.02 13.209C260.92 13.409 261.22 13.409 261.22 13.309C262.42 10.109 263.62 6.90902 264.82 3.70902C264.92 3.50902 264.72 3.40902 264.62 3.60902Z" fill="#BFD4F3"/>
<path d="M212.221 0.109016C211.221 2.90902 210.121 5.60902 209.121 8.40902C209.121 8.50902 209.321 8.60902 209.321 8.50902C210.321 5.70902 211.421 3.00902 212.421 0.209019C212.421 0.00901854 212.221 -0.0909838 212.221 0.109016Z" fill="#BFD4F3"/>
<path d="M241.52 50.7091C239.82 55.1091 238.22 59.4091 236.62 63.8091C236.52 64.0091 236.82 64.1091 236.92 63.9091C238.62 59.6091 240.22 55.2091 241.82 50.8091C241.82 50.6091 241.52 50.5091 241.52 50.7091Z" fill="#BFD4F3"/>
<path d="M137.521 93.509C136.121 97.509 134.621 101.609 133.221 105.609C133.121 105.809 133.421 105.809 133.421 105.709C134.821 101.609 136.221 97.609 137.721 93.509C137.821 93.409 137.621 93.309 137.521 93.509Z" fill="#BFD4F3"/>
<path d="M154.221 100.109C152.021 107.109 149.421 114.009 146.521 120.709C146.421 120.909 146.721 121.009 146.821 120.909C149.721 114.109 152.321 107.209 154.521 100.209C154.521 100.009 154.321 100.009 154.221 100.109Z" fill="#BFD4F3"/>
<path d="M159.62 27.9088C157.42 33.0088 155.42 38.1088 153.42 43.3088C153.32 43.5088 153.72 43.6088 153.72 43.4088C155.82 38.3088 158.02 33.2088 159.82 28.0088C159.92 27.8088 159.72 27.7088 159.62 27.9088Z" fill="#BFD4F3"/>
<path d="M353.221 202.109C351.021 208.109 348.721 214.009 346.521 220.009C346.421 220.209 346.721 220.309 346.821 220.109C349.121 214.109 351.321 208.209 353.521 202.209C353.621 202.009 353.321 201.909 353.221 202.109Z" fill="#BFD4F3"/>
<path d="M142.72 146.409C140.12 152.009 138.22 157.809 136.12 163.609C135.92 164.109 136.72 164.309 136.82 163.809C139.12 158.109 141.42 152.409 143.12 146.509C143.22 146.309 142.82 146.109 142.72 146.409Z" fill="#BFD4F3"/>
<path d="M187.32 43.4089C186.02 46.8089 184.72 50.3089 183.42 53.7089C183.42 53.8089 183.62 53.9089 183.62 53.8089C184.92 50.4089 186.22 46.9089 187.52 43.5089C187.62 43.3089 187.42 43.3089 187.32 43.4089Z" fill="#BFD4F3"/>
<path d="M180.52 13.7092C177.72 21.3092 174.92 28.9092 172.12 36.5092C172.02 36.7092 172.32 36.8092 172.42 36.6092C175.22 29.0092 178.02 21.4092 180.82 13.8092C180.82 13.6092 180.62 13.6092 180.52 13.7092Z" fill="#BFD4F3"/>
<path d="M132.62 203.709C128.22 215.409 123.82 227.109 119.32 238.809C119.22 239.009 119.52 239.009 119.52 238.909C123.92 227.209 128.32 215.509 132.72 203.809C132.82 203.609 132.62 203.609 132.62 203.709Z" fill="#BFD4F3"/>
<path d="M99.3202 228.509C96.9202 234.509 94.5202 240.609 92.1202 246.609C92.0202 246.809 92.3202 246.909 92.4202 246.709C94.8202 240.609 97.1202 234.609 99.5202 228.509C99.6202 228.409 99.3202 228.409 99.3202 228.509Z" fill="#BFD4F3"/>
<path d="M60.2203 253.209C56.9203 261.909 53.6203 270.609 50.4203 279.409C50.3203 279.609 50.6203 279.609 50.6203 279.509C53.9203 270.809 57.2203 262.109 60.4203 253.309C60.4203 253.109 60.2203 253.009 60.2203 253.209Z" fill="#BFD4F3"/>
<path d="M22.1204 258.909C19.2204 266.309 16.4204 273.809 13.5204 281.209C13.4204 281.409 13.7204 281.409 13.7204 281.309C16.6204 273.909 19.4204 266.409 22.3204 259.009C22.4204 258.909 22.2204 258.809 22.1204 258.909Z" fill="#BFD4F3"/>
<path d="M161.52 232.209C159.42 238.109 157.32 244.009 155.32 249.909C155.32 250.009 155.52 250.109 155.52 250.009C157.62 244.109 159.72 238.209 161.72 232.309C161.82 232.109 161.62 232.109 161.52 232.209Z" fill="#BFD4F3"/>
<path d="M190.92 247.909C188.52 254.109 186.12 260.309 183.92 266.509C183.82 266.709 184.22 266.809 184.22 266.609C186.62 260.409 188.82 254.209 191.12 248.009C191.22 247.909 191.02 247.809 190.92 247.909Z" fill="#BFD4F3"/>
<path d="M226.92 250.409C222.92 262.109 218.62 273.709 214.22 285.309C214.12 285.509 214.42 285.609 214.52 285.409C219.12 273.909 223.32 262.209 227.22 250.509C227.32 250.309 227.02 250.209 226.92 250.409Z" fill="#BFD4F3"/>
<path d="M155.42 201.309C154.22 204.509 153.02 207.709 151.82 210.909C151.72 211.109 152.02 211.109 152.02 211.009C153.22 207.809 154.42 204.609 155.62 201.409C155.72 201.209 155.52 201.109 155.42 201.309Z" fill="#BFD4F3"/>
<path d="M103.02 197.709C102.02 200.509 100.92 203.209 99.9204 206.009C99.9204 206.109 100.12 206.209 100.12 206.109C101.12 203.309 102.22 200.609 103.22 197.809C103.22 197.609 103.02 197.609 103.02 197.709Z" fill="#BFD4F3"/>
<path d="M132.22 248.309C130.52 252.709 128.92 257.009 127.32 261.409C127.22 261.609 127.52 261.709 127.62 261.509C129.32 257.209 130.92 252.809 132.52 248.409C132.62 248.209 132.32 248.209 132.22 248.309Z" fill="#BFD4F3"/>
<path d="M50.4206 225.509C48.2206 230.609 46.2206 235.709 44.2206 240.909C44.1206 241.109 44.5206 241.209 44.5206 241.009C46.6206 235.909 48.8206 230.809 50.6206 225.609C50.7206 225.509 50.5206 225.309 50.4206 225.509Z" fill="#BFD4F3"/>
<path d="M78.1202 241.009C76.8202 244.409 75.5202 247.909 74.2202 251.309C74.2202 251.409 74.4202 251.509 74.4202 251.409C75.7202 248.009 77.0202 244.509 78.3202 241.109C78.3202 241.009 78.1202 240.909 78.1202 241.009Z" fill="#BFD4F3"/>
<path d="M71.3205 211.409C68.5205 219.009 65.7205 226.609 62.9205 234.209C62.8205 234.409 63.1205 234.509 63.2205 234.309C66.0205 226.709 68.8205 219.109 71.6205 211.509C71.6205 211.309 71.4205 211.209 71.3205 211.409Z" fill="#BFD4F3"/>
<path d="M363.521 233.909C359.121 245.609 354.721 257.309 350.221 269.009C350.121 269.209 350.421 269.209 350.421 269.109C354.821 257.409 359.221 245.709 363.621 234.009C363.821 233.809 363.621 233.709 363.521 233.909Z" fill="#BFD4F3"/>
<path d="M330.221 258.709C327.821 264.709 325.421 270.809 323.021 276.809C322.921 277.009 323.221 277.109 323.321 276.909C325.721 270.809 328.021 264.809 330.421 258.709C330.521 258.609 330.221 258.509 330.221 258.709Z" fill="#BFD4F3"/>
<path d="M291.12 283.309C287.82 292.009 284.52 300.709 281.32 309.509C281.22 309.709 281.52 309.709 281.52 309.609C284.82 300.909 288.12 292.209 291.32 283.409C291.42 283.309 291.22 283.209 291.12 283.309Z" fill="#BFD4F3"/>
<path d="M253.02 289.109C250.12 296.509 247.32 304.009 244.42 311.409C244.32 311.609 244.62 311.609 244.62 311.509C247.52 304.109 250.32 296.609 253.22 289.209C253.32 289.009 253.12 289.009 253.02 289.109Z" fill="#BFD4F3"/>
<path d="M392.52 262.409C390.42 268.309 388.32 274.209 386.32 280.109C386.32 280.209 386.52 280.309 386.52 280.209C388.62 274.309 390.72 268.409 392.72 262.509C392.72 262.309 392.52 262.209 392.52 262.409Z" fill="#BFD4F3"/>
<path d="M421.92 278.109C419.52 284.309 417.12 290.509 414.92 296.709C414.82 296.909 415.22 297.009 415.22 296.809C417.62 290.609 419.82 284.409 422.12 278.209C422.22 278.009 421.92 278.009 421.92 278.109Z" fill="#BFD4F3"/>
<path d="M457.82 280.609C453.82 292.309 449.52 303.909 445.12 315.509C445.02 315.709 445.32 315.809 445.42 315.609C450.02 304.109 454.22 292.409 458.12 280.709C458.32 280.509 457.92 280.409 457.82 280.609Z" fill="#BFD4F3"/>
<path d="M386.321 231.409C385.121 234.609 383.921 237.809 382.721 241.009C382.621 241.209 382.921 241.209 382.921 241.109C384.121 237.909 385.321 234.709 386.521 231.509C386.721 231.309 386.421 231.309 386.321 231.409Z" fill="#BFD4F3"/>
<path d="M333.92 227.909C332.92 230.709 331.82 233.409 330.82 236.209C330.82 236.309 331.02 236.409 331.02 236.309C332.02 233.509 333.12 230.809 334.12 228.009C334.12 227.809 333.92 227.809 333.92 227.909Z" fill="#BFD4F3"/>
<path d="M363.22 278.509C361.52 282.909 359.92 287.209 358.32 291.609C358.22 291.809 358.52 291.909 358.62 291.709C360.32 287.409 361.92 283.009 363.52 278.609C363.52 278.409 363.32 278.309 363.22 278.509Z" fill="#BFD4F3"/>
<path d="M281.321 255.709C279.121 260.809 277.121 265.909 275.121 271.109C275.021 271.309 275.421 271.409 275.421 271.209C277.521 266.109 279.721 261.009 281.521 255.809C281.721 255.609 281.421 255.509 281.321 255.709Z" fill="#BFD4F3"/>
<path d="M309.021 271.209C307.721 274.609 306.421 278.109 305.121 281.509C305.121 281.609 305.321 281.709 305.321 281.609C306.621 278.209 307.921 274.709 309.221 271.309C309.321 271.109 309.121 271.109 309.021 271.209Z" fill="#BFD4F3"/>
<path d="M302.22 241.509C299.42 249.109 296.62 256.709 293.82 264.309C293.72 264.509 294.02 264.609 294.12 264.409C296.92 256.809 299.72 249.209 302.52 241.609C302.52 241.509 302.32 241.409 302.22 241.509Z" fill="#BFD4F3"/>
<path d="M289.72 71.6091C285.32 83.3091 280.92 95.0091 276.42 106.709C276.32 106.909 276.62 106.909 276.62 106.809C281.02 95.1091 285.42 83.4091 289.82 71.7091C289.92 71.5091 289.72 71.5091 289.72 71.6091Z" fill="#BFD4F3"/>
<path d="M256.32 96.409C253.92 102.409 251.52 108.509 249.12 114.509C249.02 114.709 249.32 114.809 249.42 114.609C251.82 108.509 254.12 102.509 256.52 96.409C256.62 96.309 256.42 96.309 256.32 96.409Z" fill="#BFD4F3"/>
<path d="M217.32 121.109C214.02 129.809 210.72 138.509 207.52 147.309C207.42 147.509 207.72 147.509 207.72 147.409C211.02 138.709 214.32 130.009 217.52 121.209C217.52 121.009 217.32 120.909 217.32 121.109Z" fill="#BFD4F3"/>
<path d="M179.22 126.809C176.32 134.209 173.521 141.709 170.621 149.109C170.521 149.309 170.821 149.309 170.821 149.209C173.721 141.809 176.52 134.309 179.42 126.909C179.42 126.809 179.22 126.709 179.22 126.809Z" fill="#BFD4F3"/>
<path d="M318.62 100.109C316.52 106.009 314.42 111.909 312.42 117.809C312.42 117.909 312.62 118.009 312.62 117.909C314.72 112.009 316.82 106.109 318.82 100.209C318.82 100.009 318.62 100.009 318.62 100.109Z" fill="#BFD4F3"/>
<path d="M348.02 115.809C345.62 122.009 343.22 128.209 341.02 134.409C340.92 134.609 341.32 134.709 341.32 134.509C343.72 128.309 345.92 122.109 348.22 115.909C348.32 115.709 348.12 115.709 348.02 115.809Z" fill="#BFD4F3"/>
<path d="M384.02 118.309C380.02 130.009 375.72 141.609 371.32 153.209C371.22 153.409 371.52 153.509 371.62 153.309C376.22 141.809 380.42 130.109 384.32 118.409C384.42 118.209 384.12 118.109 384.02 118.309Z" fill="#BFD4F3"/>
<path d="M312.52 69.1088C311.32 72.3088 310.12 75.5088 308.92 78.7088C308.82 78.9088 309.12 78.9088 309.12 78.8088C310.32 75.6088 311.52 72.4088 312.72 69.2088C312.82 69.1088 312.52 69.0088 312.52 69.1088Z" fill="#BFD4F3"/>
<path d="M260.02 65.6091C259.02 68.4091 257.92 71.1091 256.92 73.9091C256.92 74.0091 257.12 74.1091 257.12 74.0091C258.12 71.2091 259.22 68.5091 260.22 65.7091C260.32 65.5091 260.12 65.5091 260.02 65.6091Z" fill="#BFD4F3"/>
<path d="M289.321 116.209C287.621 120.609 286.021 124.909 284.421 129.309C284.321 129.509 284.621 129.609 284.721 129.409C286.421 125.109 288.021 120.709 289.621 116.309C289.721 116.109 289.421 116.109 289.321 116.209Z" fill="#BFD4F3"/>
<path d="M207.52 93.4088C205.32 98.5088 203.32 103.609 201.32 108.809C201.22 109.009 201.62 109.109 201.62 108.909C203.72 103.809 205.92 98.7088 207.72 93.5088C207.82 93.3088 207.52 93.2088 207.52 93.4088Z" fill="#BFD4F3"/>
<path d="M235.22 108.909C233.92 112.309 232.62 115.809 231.32 119.209C231.32 119.309 231.52 119.409 231.52 119.309C232.82 115.909 234.12 112.409 235.42 109.009C235.42 108.809 235.22 108.809 235.22 108.909Z" fill="#BFD4F3"/>
<path d="M228.421 79.3092C225.621 86.9092 222.821 94.5092 220.021 102.109C219.921 102.309 220.221 102.409 220.321 102.209C223.121 94.6092 225.921 87.0092 228.721 79.4092C228.721 79.2092 228.421 79.1092 228.421 79.3092Z" fill="#BFD4F3"/>
<path d="M119.12 9.20911C114.72 20.9091 110.32 32.6091 105.82 44.3091C105.72 44.5091 106.02 44.5091 106.02 44.4091C110.42 32.7091 114.82 21.0091 119.22 9.30912C119.32 9.10912 119.12 9.00911 119.12 9.20911Z" fill="#BFD4F3"/>
<path d="M85.7206 34.009C83.3206 40.009 80.9206 46.109 78.5206 52.109C78.4206 52.309 78.7206 52.409 78.8206 52.209C81.2206 46.109 83.5206 40.109 85.9206 34.009C86.0206 33.909 85.8206 33.809 85.7206 34.009Z" fill="#BFD4F3"/>
<path d="M46.7203 58.6088C43.4203 67.3088 40.1203 76.0088 36.9203 84.8088C36.8203 85.0088 37.1203 85.0088 37.1203 84.9088C40.4203 76.2088 43.7203 67.5088 46.9203 58.7088C46.9203 58.6088 46.7203 58.5088 46.7203 58.6088Z" fill="#BFD4F3"/>
<path d="M8.62041 64.4089C5.72041 71.8089 2.92041 79.3089 0.0204082 86.7089C-0.0795918 86.9089 0.220408 86.9089 0.220408 86.8089C3.12041 79.4089 5.92041 71.9089 8.82041 64.5089C8.82041 64.3089 8.62041 64.3089 8.62041 64.4089Z" fill="#BFD4F3"/>
<path d="M148.02 37.7092C145.92 43.6092 143.82 49.5092 141.82 55.4092C141.82 55.5092 142.02 55.6092 142.02 55.5092C144.12 49.6092 146.22 43.7092 148.22 37.8092C148.22 37.6092 148.02 37.6092 148.02 37.7092Z" fill="#BFD4F3"/>
<path d="M177.42 53.4089C175.02 59.6089 172.62 65.8089 170.42 72.0089C170.32 72.2089 170.72 72.309 170.72 72.109C173.12 65.909 175.32 59.7089 177.62 53.5089C177.72 53.3089 177.52 53.3089 177.42 53.4089Z" fill="#BFD4F3"/>
<path d="M213.42 55.9088C209.42 67.6088 205.12 79.2088 200.72 90.8088C200.62 91.0088 200.92 91.1088 201.02 90.9088C205.62 79.4088 209.82 67.7088 213.72 56.0088C213.82 55.8088 213.42 55.7088 213.42 55.9088Z" fill="#BFD4F3"/>
<path d="M141.92 6.70924C140.72 9.90924 139.52 13.1092 138.32 16.3092C138.22 16.5092 138.52 16.5092 138.52 16.4092C139.72 13.2092 140.92 10.0092 142.12 6.80924C142.22 6.60924 141.92 6.60924 141.92 6.70924Z" fill="#BFD4F3"/>
<path d="M89.4203 3.20924C88.4203 6.00924 87.3203 8.70924 86.3203 11.5092C86.3203 11.6092 86.5203 11.7092 86.5203 11.6092C87.5203 8.80924 88.6203 6.10924 89.6203 3.30924C89.7203 3.10924 89.5203 3.10924 89.4203 3.20924Z" fill="#BFD4F3"/>
<path d="M118.72 53.8092C117.02 58.2092 115.42 62.5092 113.82 66.9092C113.72 67.1092 114.02 67.2092 114.12 67.0092C115.82 62.7092 117.42 58.3092 119.02 53.9092C119.12 53.7092 118.82 53.6092 118.72 53.8092Z" fill="#BFD4F3"/>
<path d="M36.9206 31.0089C34.7206 36.1089 32.7206 41.2089 30.7206 46.4089C30.6206 46.6089 31.0206 46.7089 31.0206 46.5089C33.1206 41.4089 35.3206 36.3089 37.1206 31.1089C37.2206 30.9089 36.9206 30.8089 36.9206 31.0089Z" fill="#BFD4F3"/>
<path d="M64.6202 46.509C63.3202 49.909 62.0202 53.409 60.7202 56.809C60.7202 56.909 60.9202 57.009 60.9202 56.909C62.2202 53.509 63.5202 50.009 64.8202 46.609C64.8202 46.409 64.6202 46.409 64.6202 46.509Z" fill="#BFD4F3"/>
<path d="M57.8205 16.9088C55.0205 24.5088 52.2205 32.1088 49.4205 39.7088C49.3205 39.9088 49.6205 40.0088 49.7205 39.8088C52.5205 32.2088 55.3205 24.6088 58.1205 17.0088C58.1205 16.8088 57.8205 16.7088 57.8205 16.9088Z" fill="#BFD4F3"/>
<path d="M228.32 226.409C226.82 230.309 225.32 234.209 223.92 238.109C223.82 238.309 224.22 238.409 224.22 238.209C225.62 234.309 227.12 230.409 228.52 226.509C228.62 226.309 228.42 226.309 228.32 226.409Z" fill="#BFD4F3"/>
<path d="M175.42 260.809C174.02 264.509 172.62 268.109 171.32 271.809C171.32 271.909 171.42 271.909 171.42 271.809C172.82 268.109 174.22 264.509 175.52 260.809C175.62 260.809 175.52 260.709 175.42 260.809Z" fill="#BFD4F3"/>
<path d="M161.521 310.609C159.821 315.009 158.121 319.309 156.521 323.709C156.421 323.909 156.721 324.009 156.821 323.809C158.521 319.509 160.021 315.109 161.721 310.709C161.721 310.509 161.521 310.409 161.521 310.609Z" fill="#BFD4F3"/>
<path d="M99.6206 267.809C97.5206 273.509 95.3206 279.309 93.2206 285.009C93.1206 285.209 93.4206 285.209 93.4206 285.109C95.5206 279.409 97.7206 273.609 99.8206 267.909C99.9206 267.709 99.7206 267.609 99.6206 267.809Z" fill="#BFD4F3"/>
<path d="M270.82 66.009C270.12 67.709 269.32 69.209 268.72 70.909C268.62 71.109 268.92 71.109 269.02 71.009C269.92 69.509 270.52 67.709 271.12 66.009C271.12 65.909 270.92 65.809 270.82 66.009Z" fill="#BFD4F3"/>
<path d="M299.22 90.3088C298.52 92.0088 297.72 93.5088 297.12 95.2088C297.02 95.4088 297.32 95.4088 297.42 95.3088C298.32 93.8088 298.92 92.0088 299.52 90.3088C299.52 90.2088 299.32 90.1088 299.22 90.3088Z" fill="#BFD4F3"/>
<path d="M257.22 64.0089C256.32 65.9089 255.42 67.8089 254.82 69.8089C254.82 69.9089 255.02 70.0089 255.02 69.9089C255.92 68.0089 256.62 66.1089 257.42 64.1089C257.52 64.0089 257.32 63.8089 257.22 64.0089Z" fill="#BFD4F3"/>
<path d="M248.12 58.5091C247.12 60.2091 246.22 61.9091 245.92 63.8091C245.92 63.9091 246.02 64.0091 246.12 63.9091C246.92 62.2091 247.52 60.4091 248.42 58.7091C248.42 58.5091 248.22 58.3091 248.12 58.5091Z" fill="#BFD4F3"/>
<path d="M239.721 57.209C238.921 59.009 238.121 60.909 237.621 62.809C237.621 62.909 237.721 62.909 237.821 62.809C238.621 61.009 239.121 59.109 239.921 57.209C239.821 57.209 239.721 57.109 239.721 57.209Z" fill="#BFD4F3"/>
<path d="M220.121 59.509C219.521 61.109 218.921 62.609 218.621 64.309C218.621 64.509 218.921 64.609 218.921 64.409C219.521 62.809 219.921 61.209 220.421 59.609C220.521 59.309 220.221 59.309 220.121 59.509Z" fill="#BFD4F3"/>
<path d="M213.72 61.0092C213.42 61.8092 213.02 62.7092 212.72 63.5092C212.72 63.6092 212.82 63.7092 212.92 63.6092C213.32 62.8092 213.62 61.9092 214.02 61.1092C213.92 61.0092 213.72 60.9092 213.72 61.0092Z" fill="#BFD4F3"/>
<path d="M209.82 59.0089C209.12 60.6089 208.32 62.3089 207.92 64.0089C207.92 64.2089 208.12 64.3089 208.22 64.1089C209.02 62.5089 209.52 60.8089 210.12 59.1089C210.12 58.9089 209.92 58.8089 209.82 59.0089Z" fill="#BFD4F3"/>
<path d="M188.02 70.6089C187.82 71.4089 187.52 72.2089 187.32 73.0089C187.32 73.0089 187.32 73.0089 187.42 73.0089C187.72 72.2089 187.92 71.4089 188.22 70.6089C188.22 70.6089 188.02 70.5089 188.02 70.6089Z" fill="#BFD4F3"/>
<path d="M179.121 73.9088C178.321 75.8088 177.321 77.7088 177.021 79.7088C177.021 79.9088 177.221 80.0088 177.321 79.8088C178.321 78.0088 178.821 75.9088 179.321 74.0088C179.421 73.9088 179.121 73.7088 179.121 73.9088Z" fill="#BFD4F3"/>
<path d="M166.82 84.2088C166.52 85.2088 166.12 86.2088 165.82 87.2088C165.82 87.2088 165.82 87.2088 165.92 87.2088C166.32 86.2088 166.72 85.2088 167.02 84.2088C167.02 84.1088 166.82 84.1088 166.82 84.2088Z" fill="#BFD4F3"/>
<path d="M288.42 78.5091C288.52 78.4091 288.62 78.4091 288.72 78.3091C288.62 78.2091 288.52 78.1091 288.52 78.0091C287.22 79.3091 286.22 80.7091 285.52 82.4091C285.42 82.7091 285.72 82.9091 285.92 82.6091C287.02 81.2091 287.92 79.7091 288.82 78.2091C288.92 78.0091 288.72 77.8091 288.52 78.0091C288.42 78.1091 288.42 78.2091 288.32 78.2091C288.22 78.4091 288.32 78.6091 288.42 78.5091Z" fill="#BFD4F3"/>
<path d="M278.42 69.3092C277.52 71.2092 276.52 73.0092 275.82 75.0092C275.82 75.1092 275.92 75.2092 276.02 75.1092C277.02 73.3092 277.82 71.3092 278.62 69.4092C278.62 69.3092 278.42 69.1092 278.42 69.3092Z" fill="#BFD4F3"/>
</svg>
