<svg width="21" height="20" viewBox="0 0 21 20" fill="none" xmlns="http://www.w3.org/2000/svg">
<path d="M20.1763 19.2677C20.1104 19.3817 20.0157 19.4764 19.9017 19.5422C19.7876 19.6081 19.6583 19.6427 19.5266 19.6427H1.52657C1.39499 19.6426 1.26575 19.6078 1.15184 19.5419C1.03794 19.476 0.943368 19.3813 0.877632 19.2674C0.811897 19.1534 0.77731 19.0241 0.777344 18.8925C0.777378 18.7609 0.812031 18.6316 0.877825 18.5177C2.30564 16.0492 4.50595 14.2792 7.07376 13.4402C5.80361 12.6841 4.81677 11.5319 4.26481 10.1606C3.71285 8.78935 3.62628 7.27481 4.01839 5.84958C4.41051 4.42435 5.25963 3.16724 6.43535 2.2713C7.61107 1.37536 9.04839 0.890137 10.5266 0.890137C12.0048 0.890137 13.4421 1.37536 14.6178 2.2713C15.7935 3.16724 16.6426 4.42435 17.0348 5.84958C17.4269 7.27481 17.3403 8.78935 16.7883 10.1606C16.2364 11.5319 15.2495 12.6841 13.9794 13.4402C16.5472 14.2792 18.7475 16.0492 20.1753 18.5177C20.2413 18.6316 20.2761 18.7609 20.2763 18.8926C20.2764 19.0242 20.2419 19.1536 20.1763 19.2677Z" fill="#8B8989"/>
</svg>
