<svg width="18" height="18" viewBox="0 0 18 18" fill="none" xmlns="http://www.w3.org/2000/svg">
<path d="M16.7656 15.6336C16.8399 15.708 16.8988 15.7962 16.9391 15.8933C16.9793 15.9904 17 16.0945 17 16.1996C17 16.3047 16.9793 16.4088 16.9391 16.5059C16.8988 16.603 16.8399 16.6912 16.7656 16.7656C16.6912 16.8399 16.603 16.8988 16.5059 16.9391C16.4088 16.9793 16.3047 17 16.1996 17C16.0945 17 15.9904 16.9793 15.8933 16.9391C15.7962 16.8988 15.708 16.8399 15.6336 16.7656L9 10.1309L2.36637 16.7656C2.21626 16.9157 2.01268 17 1.8004 17C1.58812 17 1.38454 16.9157 1.23443 16.7656C1.08433 16.6155 1 16.4119 1 16.1996C1 15.9873 1.08433 15.7837 1.23443 15.6336L7.86906 9L1.23443 2.36637C1.08433 2.21626 1 2.01268 1 1.8004C1 1.58812 1.08433 1.38454 1.23443 1.23443C1.38454 1.08433 1.58812 1 1.8004 1C2.01268 1 2.21626 1.08433 2.36637 1.23443L9 7.86906L15.6336 1.23443C15.7837 1.08433 15.9873 1 16.1996 1C16.4119 1 16.6155 1.08433 16.7656 1.23443C16.9157 1.38454 17 1.58812 17 1.8004C17 2.01268 16.9157 2.21626 16.7656 2.36637L10.1309 9L16.7656 15.6336Z" fill="#31225C" stroke="#31225C"/>
</svg>
