<svg width="30" height="26" viewBox="0 0 30 26" fill="none" xmlns="http://www.w3.org/2000/svg">
<path d="M27.375 0.625H2.625C2.02826 0.625 1.45597 0.862053 1.03401 1.28401C0.612053 1.70597 0.375 2.27826 0.375 2.875V23.125C0.375 23.7217 0.612053 24.294 1.03401 24.716C1.45597 25.1379 2.02826 25.375 2.625 25.375H27.375C27.9717 25.375 28.544 25.1379 28.966 24.716C29.3879 24.294 29.625 23.7217 29.625 23.125V2.875C29.625 2.27826 29.3879 1.70597 28.966 1.28401C28.544 0.862053 27.9717 0.625 27.375 0.625ZM27.375 2.875V17.3242L23.7089 13.6595C23.5 13.4505 23.2519 13.2848 22.9789 13.1717C22.7059 13.0586 22.4133 13.0003 22.1177 13.0003C21.8222 13.0003 21.5296 13.0586 21.2566 13.1717C20.9836 13.2848 20.7355 13.4505 20.5266 13.6595L17.7141 16.472L11.5266 10.2845C11.1046 9.86289 10.5326 9.62604 9.93609 9.62604C9.33961 9.62604 8.76754 9.86289 8.34562 10.2845L2.625 16.0052V2.875H27.375ZM2.625 19.1875L9.9375 11.875L21.1875 23.125H2.625V19.1875ZM27.375 23.125H24.3698L19.3073 18.0625L22.1198 15.25L27.375 20.5066V23.125ZM17.25 9.0625C17.25 8.72874 17.349 8.40248 17.5344 8.12498C17.7198 7.84747 17.9834 7.63118 18.2917 7.50345C18.6001 7.37573 18.9394 7.34231 19.2667 7.40742C19.5941 7.47254 19.8947 7.63326 20.1307 7.86926C20.3667 8.10526 20.5275 8.40594 20.5926 8.73328C20.6577 9.06063 20.6243 9.39993 20.4965 9.70828C20.3688 10.0166 20.1525 10.2802 19.875 10.4656C19.5975 10.651 19.2713 10.75 18.9375 10.75C18.4899 10.75 18.0607 10.5722 17.7443 10.2557C17.4278 9.93928 17.25 9.51005 17.25 9.0625Z" fill="#31225C" fill-opacity="0.3"/>
</svg>
