<svg width="12" height="6" viewBox="0 0 12 6" fill="none" xmlns="http://www.w3.org/2000/svg">
<path d="M11.354 0.854028L6.35403 5.85403C6.30759 5.90052 6.25245 5.9374 6.19175 5.96256C6.13105 5.98772 6.06599 6.00067 6.00028 6.00067C5.93457 6.00067 5.86951 5.98772 5.80881 5.96256C5.74811 5.9374 5.69296 5.90052 5.64653 5.85403L0.646528 0.854028C0.552708 0.760208 0.5 0.63296 0.5 0.500278C0.5 0.367596 0.552708 0.240348 0.646528 0.146528C0.740348 0.0527074 0.867596 0 1.00028 0C1.13296 0 1.26021 0.0527074 1.35403 0.146528L6.00028 4.7934L10.6465 0.146528C10.693 0.100073 10.7481 0.0632225 10.8088 0.0380812C10.8695 0.0129398 10.9346 0 11.0003 0C11.066 0 11.131 0.0129398 11.1917 0.0380812C11.2524 0.0632225 11.3076 0.100073 11.354 0.146528C11.4005 0.192983 11.4373 0.248133 11.4625 0.30883C11.4876 0.369526 11.5006 0.434581 11.5006 0.500278C11.5006 0.565975 11.4876 0.63103 11.4625 0.691726C11.4373 0.752423 11.4005 0.807573 11.354 0.854028Z" fill="#603AC8"/>
</svg>
