<svg width="18" height="18" viewBox="0 0 18 18" fill="none" xmlns="http://www.w3.org/2000/svg">
<path d="M15.75 9.00044V14.6254C15.75 14.9238 15.6315 15.21 15.4205 15.4209C15.2095 15.6319 14.9234 15.7504 14.625 15.7504H3.375C3.07663 15.7504 2.79048 15.6319 2.5795 15.4209C2.36853 15.21 2.25 14.9238 2.25 14.6254V3.37544C2.25 3.07707 2.36853 2.79093 2.5795 2.57995C2.79048 2.36897 3.07663 2.25044 3.375 2.25044H9C9.14918 2.25044 9.29226 2.30971 9.39775 2.41519C9.50324 2.52068 9.5625 2.66376 9.5625 2.81294C9.5625 2.96213 9.50324 3.1052 9.39775 3.21069C9.29226 3.31618 9.14918 3.37544 9 3.37544H3.375V14.6254H14.625V9.00044C14.625 8.85126 14.6843 8.70818 14.7898 8.60269C14.8952 8.49721 15.0383 8.43794 15.1875 8.43794C15.3367 8.43794 15.4798 8.49721 15.5852 8.60269C15.6907 8.70818 15.75 8.85126 15.75 9.00044ZM16.148 4.89841L9.39797 11.6484C9.34569 11.7006 9.28364 11.742 9.21535 11.7703C9.14707 11.7985 9.07389 11.813 9 11.8129H6.75C6.60082 11.8129 6.45774 11.7537 6.35225 11.6482C6.24676 11.5427 6.1875 11.3996 6.1875 11.2504V9.00044C6.18744 8.92655 6.20194 8.85337 6.23017 8.78509C6.2584 8.7168 6.29981 8.65475 6.35203 8.60247L13.102 1.85247C13.1543 1.80017 13.2163 1.75868 13.2846 1.73038C13.3529 1.70207 13.4261 1.6875 13.5 1.6875C13.5739 1.6875 13.6471 1.70207 13.7154 1.73038C13.7837 1.75868 13.8457 1.80017 13.898 1.85247L16.148 4.10247C16.2003 4.15471 16.2418 4.21675 16.2701 4.28504C16.2984 4.35333 16.3129 4.42652 16.3129 4.50044C16.3129 4.57436 16.2984 4.64756 16.2701 4.71585C16.2418 4.78413 16.2003 4.84617 16.148 4.89841ZM14.9527 4.50044L13.5 3.04568L12.6077 3.93794L14.0625 5.39271L14.9527 4.50044Z" fill="#603AC8"/>
</svg>
